<?xml version="1.0" encoding="UTF-8" standalone="no"?>
<svg width="60px" height="38px" viewBox="0 0 60 38" version="1.1" xmlns="http://www.w3.org/2000/svg" xmlns:xlink="http://www.w3.org/1999/xlink">
    <!-- Generator: Sketch 50.2 (55047) - http://www.bohemiancoding.com/sketch -->
    <title>logo-ana-seguros</title>
    <desc>Created with Sketch.</desc>
    <defs></defs>
    <g id="Home-v5" stroke="none" stroke-width="1" fill="none" fill-rule="evenodd">
        <g id="Autos-p2" transform="translate(-339.000000, -751.000000)" fill="#C8284F">
            <g id="Group-2" transform="translate(339.000000, 745.000000)">
                <g id="logo-ana-seguros" transform="translate(0.000000, 6.000000)">
                    <path d="M59.978027,5.97995754 C59.978027,9.2715966 57.2963514,11.9399873 53.9883243,11.9399873 C50.6803784,11.9399873 47.9985405,9.2715966 47.9985405,5.97995754 C47.9985405,2.68831847 50.6803784,0.0199278132 53.9883243,0.0199278132 C57.2963514,0.0199278132 59.978027,2.68831847 59.978027,5.97995754" id="Fill-1"></path>
                    <path d="M18.6086757,17.20569 C23.7655946,15.9525775 40.6343514,14.8845435 52.6327297,17.982552 C54.5757568,18.4842166 59.3028649,19.8550403 59.7038919,22.9829002 C59.7038919,22.9829002 60.3574054,25.2942845 54.6007297,28.0372229 C48.8599459,30.7726582 44.0515946,32.3975414 40.1773784,33.5409299 C36.4747297,34.6338938 29.7033243,36.4487771 27.4601351,36.8661316 C25.5637297,37.2190234 21.5717027,38.0517155 19.4961081,37.9974989 C18.0308108,37.9592569 18.9224595,37.2262845 19.9183784,36.6510403 C21.7303784,35.6042251 26.8144054,33.8871253 29.4755676,33.0144161 C32.1368108,32.141707 40.5691622,29.1956178 42.3883784,28.5158132 C44.559,27.7047431 48.6223784,25.9163227 49.8193784,25.1100934 C51.2455946,24.1493631 52.9085676,22.673414 51.264,21.7302718 C49.821,20.9027431 48.4285135,20.731138 45.3217297,20.3010361 C42.2519189,19.876017 35.0001081,19.5969469 32.9834595,19.5788747 C30.9866757,19.5608025 26.6057027,19.384518 25.3930541,19.3682208 C24.5457568,19.356845 18.4066216,18.9895924 17.5722162,18.4518641 C16.9860811,18.0741231 17.0163243,17.5926285 18.6086757,17.20569" id="Fill-3"></path>
                    <path d="M4.49691892,27.5465308 L5.21108108,24.5389639 L5.88016216,27.5465308 L4.49691892,27.5465308 Z M7.023,21.9409257 L3.45932432,21.9409257 L0.346702703,30.7032739 L3.72972973,30.7032739 L3.98562162,29.5961104 L6.37654054,29.5961104 L6.69227027,30.7032739 L10.0755405,30.7032739 L7.023,21.9409257 Z" id="Fill-5"></path>
                    <path d="M26.9465676,27.5465308 L27.6607297,24.5389639 L28.3298919,27.5465308 L26.9465676,27.5465308 Z M29.4727297,21.9409257 L25.9090541,21.9409257 L22.7964324,30.7032739 L26.1794595,30.7032739 L26.4353514,29.5961104 L28.8261081,29.5961104 L29.1419189,30.7032739 L32.5252703,30.7032739 L29.4727297,21.9409257 Z" id="Fill-6"></path>
                    <polyline id="Fill-7" points="12.1772432 30.7032739 12.1772432 21.9409257 15.2206216 21.9409257 17.9380541 26.4514692 17.9380541 21.9409257 20.9796486 21.9409257 20.9796486 30.7032739 17.9380541 30.7032739 15.2206216 26.1703015 15.2206216 30.7032739 12.1772432 30.7032739"></polyline>
                    <path d="M0,33.2196645 L0.482432432,33.2196645 C0.481621622,33.3000212 0.498081081,33.3515754 0.531567568,33.3744883 C0.555486486,33.3897367 0.586378378,33.3986115 0.624243243,33.4013546 C0.662189189,33.4041783 0.781702703,33.4063567 0.982783784,33.4078896 C1.19351351,33.4072442 1.31991892,33.4057919 1.36224324,33.4038556 C1.40456757,33.401758 1.43805405,33.3956263 1.46278378,33.3852994 C1.49951351,33.370293 1.51791892,33.3293885 1.51791892,33.2626667 C1.51791892,33.2141783 1.50494595,33.1818259 1.479,33.1656093 C1.45305405,33.1492314 1.40018919,33.1403567 1.32032432,33.1387431 C1.25886486,33.1387431 1.12889189,33.133983 0.930162162,33.1244628 C0.726648649,33.1149427 0.594162162,33.1092951 0.532702703,33.1077622 C0.413027027,33.1038089 0.321,33.0925138 0.256864865,33.0737962 C0.192567568,33.0550786 0.142459459,33.0248238 0.106540541,32.9827898 C0.0451621622,32.9128408 0.0144324324,32.7961783 0.0144324324,32.6325605 C0.0144324324,32.4491762 0.0495405405,32.3196858 0.119756757,32.2442505 C0.173189189,32.1854352 0.255405405,32.1478386 0.366405405,32.1317028 C0.477243243,32.1154055 0.70272973,32.1071762 1.04262162,32.1071762 C1.28286486,32.1071762 1.45159459,32.1139533 1.54897297,32.1274268 C1.69905405,32.1481614 1.80202703,32.1896306 1.85781081,32.2519958 C1.91375676,32.3144416 1.94164865,32.4194055 1.94164865,32.5670488 C1.94164865,32.580603 1.94116216,32.6059363 1.94043243,32.6432909 L1.458,32.6432909 C1.45645946,32.5978684 1.45264865,32.5670488 1.44664865,32.5503482 C1.44072973,32.5336476 1.42889189,32.5202548 1.4112973,32.5097665 C1.38981081,32.4971805 1.35186486,32.4889512 1.29762162,32.4854013 C1.24337838,32.4819321 1.12840541,32.4799958 0.952864865,32.4799958 C0.741405405,32.4799958 0.612567568,32.4866921 0.566189189,32.4997622 C0.519891892,32.5128323 0.496783784,32.5492187 0.496783784,32.6086794 C0.496783784,32.6658811 0.519891892,32.700896 0.566189189,32.7135626 C0.604540541,32.7238896 0.780486486,32.7338132 1.09410811,32.7433333 C1.35827027,32.7512399 1.53486486,32.760518 1.62381081,32.7713291 C1.71275676,32.7820594 1.78362162,32.8024713 1.83632432,32.8326454 C1.89616216,32.8683864 1.93840541,32.9173588 1.96321622,32.9798047 C1.98794595,33.0420085 2.00027027,33.1316433 2.00027027,33.2483864 C2.00027027,33.4015159 1.97951351,33.5155159 1.938,33.5901444 C1.90694595,33.6450064 1.86356757,33.6859915 1.80818919,33.7128577 C1.75264865,33.739966 1.67464865,33.7581189 1.57410811,33.7676391 C1.46643243,33.7771592 1.26567568,33.7818386 0.972,33.7818386 C0.726243243,33.7818386 0.544702703,33.7756263 0.427378378,33.7629597 C0.310054054,33.750293 0.221837838,33.7276221 0.162891892,33.6950276 C0.101351351,33.6600127 0.0589459459,33.6140255 0.0354324324,33.5567431 C0.0118378378,33.4996221 0,33.4127304 0,33.2959873 L0,33.2196645" id="Fill-9"></path>
                    <polyline id="Fill-11" points="3.30527027 32.1321868 5.11516216 32.1321868 5.11516216 32.5145265 3.79597297 32.5145265 3.79597297 32.7492229 5.04818919 32.7492229 5.04818919 33.106552 3.79597297 33.106552 3.79597297 33.3673885 5.12472973 33.3673885 5.12472973 33.7581189 3.30527027 33.7581189 3.30527027 32.1321868"></polyline>
                    <path d="M7.4052973,32.836276 L8.54367568,32.836276 C8.5452973,32.8624161 8.54602703,32.8770191 8.54602703,32.880327 C8.54602703,33.1096985 8.54010811,33.2825138 8.52810811,33.3983694 C8.50897297,33.585949 8.40202703,33.6993843 8.20735135,33.7390786 C8.12351351,33.7557792 8.02759459,33.7670743 7.91943243,33.7729639 C7.81127027,33.7790149 7.64627027,33.7818386 7.42443243,33.7818386 C7.14356757,33.7818386 6.94483784,33.7743355 6.82832432,33.7592484 C6.71181081,33.7441614 6.6197027,33.7140679 6.55183784,33.6687261 C6.50545946,33.6378259 6.47002703,33.5982123 6.4452973,33.549724 C6.42048649,33.5012357 6.40345946,33.4373376 6.39372973,33.3577877 C6.38424324,33.283966 6.37945946,33.138017 6.37945946,32.9196178 C6.37945946,32.771087 6.38343243,32.6591847 6.39137838,32.5836688 C6.39940541,32.5082335 6.41497297,32.4407049 6.43808108,32.3812442 C6.48510811,32.255707 6.58532432,32.1795456 6.73848649,32.152518 C6.90616216,32.1232314 7.16351351,32.1084671 7.5107027,32.1084671 C7.71656757,32.1084671 7.87937838,32.1135499 7.99905405,32.1238769 C8.11872973,32.1342038 8.21732432,32.1512272 8.29467568,32.1751083 C8.42002703,32.2140764 8.49575676,32.2982251 8.52210811,32.4276348 C8.53491892,32.4919363 8.54172973,32.580603 8.54245946,32.6932314 L8.04454054,32.6932314 C8.04372973,32.6473248 8.04097297,32.6160212 8.03610811,32.5998047 C8.03140541,32.5835074 8.02143243,32.5697919 8.00618919,32.5587389 C7.97821622,32.5388917 7.92008108,32.5264671 7.83145946,32.521707 C7.7477027,32.5170276 7.62640541,32.5145265 7.46756757,32.5145265 C7.29518919,32.5145265 7.17210811,32.5185605 7.09824324,32.5264671 C7.02445946,32.5343737 6.97402703,32.5492187 6.94686486,32.5705987 C6.9197027,32.5927856 6.9012973,32.629172 6.89181081,32.6795159 C6.88216216,32.7300212 6.87737838,32.8163482 6.87737838,32.9385775 C6.87737838,33.0758938 6.88216216,33.1719023 6.89181081,33.2261996 C6.9012973,33.2807389 6.9197027,33.3190616 6.94686486,33.3412484 C6.97402703,33.3626285 7.00921622,33.3755372 7.05275676,33.3799745 C7.0962973,33.3843312 7.23372973,33.3880425 7.46513514,33.391189 C7.69175676,33.3897367 7.82951351,33.3874777 7.87816216,33.3846539 C7.92681081,33.3819108 7.96589189,33.3744883 7.99540541,33.3626285 C8.01940541,33.3523015 8.03627027,33.3355202 8.04624324,33.3120425 C8.05621622,33.2886454 8.06132432,33.2534692 8.06132432,33.2066752 C8.06132432,33.1994947 8.06091892,33.1844883 8.06010811,33.1614947 L7.4052973,33.1614947 L7.4052973,32.836276" id="Fill-12"></path>
                    <path d="M9.86659459,32.1321868 L10.3645946,32.1321868 L10.3645946,32.8791168 C10.3669459,33.0506412 10.3729459,33.1589936 10.3825135,33.2042548 C10.3952432,33.2678301 10.4365946,33.3095414 10.5064054,33.3293885 C10.5762162,33.349155 10.7172973,33.3590786 10.9295676,33.3590786 C11.1019459,33.3590786 11.2213784,33.3540764 11.2881081,33.3442335 C11.3546757,33.3342293 11.402027,33.3146242 11.43,33.2852569 C11.4482432,33.2646837 11.4612162,33.2395924 11.4688378,33.2101444 C11.4763784,33.1807771 11.4821351,33.1304331 11.4861892,33.0588705 C11.4901622,32.9859363 11.4921081,32.9259108 11.4921081,32.8791168 L11.4921081,32.1321868 L11.9901081,32.1321868 L11.9901081,32.8791168 C11.9845946,33.1387431 11.9761622,33.3086539 11.964973,33.3888493 C11.945027,33.5254395 11.8795946,33.6255626 11.7686757,33.689138 C11.7055946,33.7256051 11.6166486,33.750293 11.5016757,33.7629597 C11.3868649,33.7756263 11.198027,33.7818386 10.9355676,33.7818386 C10.7383784,33.7818386 10.5863514,33.7783694 10.4794865,33.771189 C10.3725405,33.7640892 10.2795405,33.7513418 10.2005676,33.733189 C10.0257568,33.6918811 9.92367568,33.5869979 9.89408108,33.41862 C9.88297297,33.3543185 9.876,33.2959873 9.87324324,33.2435456 C9.87032432,33.191104 9.86821622,33.0696815 9.86659459,32.8791168 L9.86659459,32.1321868" id="Fill-13"></path>
                    <path d="M13.8422432,32.9385775 L14.5423784,32.9385775 C14.6644865,32.9363185 14.7373784,32.9340594 14.7608919,32.9320425 C14.7844054,32.9301062 14.8045946,32.9239745 14.8212973,32.9135669 C14.8429459,32.9001741 14.858027,32.8800042 14.8667838,32.85338 C14.8756216,32.8268365 14.88,32.7866582 14.88,32.732603 C14.88,32.6794352 14.874973,32.6395796 14.865,32.6135202 C14.855027,32.5872994 14.8376757,32.5681783 14.8129459,32.5562378 C14.7954324,32.5483312 14.7744324,32.5435711 14.7501081,32.5420382 C14.7257027,32.5404246 14.6561351,32.5391338 14.5412432,32.5384076 L13.8422432,32.5384076 L13.8422432,32.9385775 Z M13.3441622,33.7581189 L13.3441622,32.1321868 L14.5472432,32.1321868 C14.8296486,32.1330743 14.9988649,32.1359788 15.0547297,32.1412229 C15.1105946,32.1463864 15.1644324,32.164862 15.2164054,32.1966497 C15.2785946,32.2339236 15.3212432,32.2852357 15.3444324,32.350828 C15.3675405,32.4163397 15.3791351,32.5193673 15.3791351,32.6599915 C15.3791351,32.7782675 15.3717568,32.8652399 15.3569189,32.9207473 C15.3422432,32.9764161 15.3145135,33.0208705 15.2738108,33.0541104 C15.2298649,33.0898514 15.1637027,33.1145393 15.0750811,33.1280934 C15.1796757,33.1359193 15.2546757,33.16569 15.3001622,33.2173248 C15.3264324,33.2483864 15.3432162,33.2859023 15.3503514,33.330034 C15.3575676,33.3739236 15.3611351,33.4663015 15.3611351,33.606845 L15.3611351,33.7581189 L14.8703514,33.7581189 L14.8703514,33.6711465 C14.8703514,33.5806242 14.8669459,33.516 14.8602162,33.4776773 C14.8534054,33.4391125 14.8408378,33.4095839 14.8225946,33.3888493 C14.8041892,33.3698089 14.7788108,33.357707 14.7465405,33.3525435 C14.7141892,33.34738 14.6466486,33.3447983 14.5435946,33.3447983 L13.8422432,33.3447983 L13.8422432,33.7581189 L13.3441622,33.7581189 Z" id="Fill-14"></path>
                    <path d="M17.7805946,32.5312272 C17.5164324,32.5312272 17.3575946,32.5380042 17.3041622,32.5514777 C17.2427027,32.5673715 17.2024054,32.6029512 17.1832703,32.6581359 C17.1640541,32.7133206 17.1544865,32.8230446 17.1544865,32.9874692 C17.1544865,33.0867856 17.1597568,33.1585902 17.1701351,33.2031253 C17.1900811,33.2856603 17.2503243,33.3328577 17.3508649,33.3447983 C17.4250541,33.3543185 17.5691351,33.3590786 17.7829459,33.3590786 C17.9832973,33.3590786 18.1165946,33.3556093 18.1827568,33.3484289 C18.2489189,33.3412484 18.2981351,33.3253546 18.33,33.3006667 C18.3587838,33.2784798 18.3783243,33.245724 18.3887027,33.2025605 C18.399,33.159155 18.4041892,33.0883185 18.4041892,32.9898089 C18.4041892,32.8732272 18.4002973,32.7873843 18.3922703,32.732603 C18.3842432,32.6778217 18.369973,32.6365138 18.3492162,32.6086794 C18.3227838,32.5738259 18.2793243,32.5521231 18.2186757,32.5438132 C18.158027,32.5354225 18.012,32.5312272 17.7805946,32.5312272 Z M17.7793784,32.1084671 C18.1320811,32.1084671 18.3746757,32.1170998 18.5071622,32.1346879 C18.6978649,32.1601019 18.8148649,32.2502208 18.8579189,32.4050446 C18.8873514,32.51138 18.9021892,32.6913758 18.9021892,32.9446285 C18.9021892,33.1987686 18.8873514,33.3789257 18.8579189,33.4854225 C18.8148649,33.6402463 18.6978649,33.7304459 18.5071622,33.7557792 C18.3746757,33.7732059 18.1337027,33.7818386 17.7841622,33.7818386 C17.4282162,33.7818386 17.1840811,33.7732059 17.0515946,33.7557792 C16.8608108,33.7304459 16.743973,33.6402463 16.7009189,33.4854225 C16.6713243,33.3789257 16.6565676,33.1955414 16.6565676,32.9350276 C16.6565676,32.6873418 16.6713243,32.5106539 16.7009189,32.4050446 C16.743973,32.2502208 16.8608108,32.1601019 17.0515946,32.1346879 C17.1832703,32.1170998 17.4258649,32.1084671 17.7793784,32.1084671 Z" id="Fill-15"></path>
                    <path d="M20.1737027,33.2196645 L20.6560541,33.2196645 C20.6552432,33.3000212 20.6716216,33.3515754 20.7051081,33.3744883 C20.7291081,33.3897367 20.76,33.3986115 20.7979459,33.4013546 C20.8358108,33.4041783 20.9553243,33.4063567 21.1564054,33.4078896 C21.3670541,33.4072442 21.4935405,33.4057919 21.5358649,33.4038556 C21.5781892,33.401758 21.6116757,33.3956263 21.6364865,33.3852994 C21.6731351,33.370293 21.6914595,33.3293885 21.6914595,33.2626667 C21.6914595,33.2141783 21.6784865,33.1818259 21.6526216,33.1656093 C21.6266757,33.1492314 21.5738108,33.1403567 21.494027,33.1387431 C21.4324865,33.1387431 21.3024324,33.133983 21.1037027,33.1244628 C20.9003514,33.1149427 20.7677838,33.1092951 20.7063243,33.1077622 C20.5865676,33.1038089 20.4947027,33.0925138 20.4304865,33.0737962 C20.3661892,33.0550786 20.3160811,33.0248238 20.2801622,32.9827898 C20.2187027,32.9128408 20.187973,32.7961783 20.187973,32.6325605 C20.187973,32.4491762 20.2231622,32.3196858 20.2933784,32.2442505 C20.3468108,32.1854352 20.429027,32.1478386 20.5399459,32.1317028 C20.6508649,32.1154055 20.8763514,32.1071762 21.2162432,32.1071762 C21.4564865,32.1071762 21.6252162,32.1139533 21.7225946,32.1274268 C21.8726757,32.1481614 21.9755676,32.1896306 22.0315135,32.2519958 C22.0872973,32.3144416 22.1152703,32.4194055 22.1152703,32.5670488 C22.1152703,32.580603 22.1148649,32.6059363 22.1140541,32.6432909 L21.6316216,32.6432909 C21.6300811,32.5978684 21.6262703,32.5670488 21.6202703,32.5503482 C21.6142703,32.5336476 21.6025135,32.5202548 21.585,32.5097665 C21.5634324,32.4971805 21.5254865,32.4889512 21.4712432,32.4854013 C21.417,32.4819321 21.3021081,32.4799958 21.1264865,32.4799958 C20.915027,32.4799958 20.7861081,32.4866921 20.7398919,32.4997622 C20.6935946,32.5128323 20.6704865,32.5492187 20.6704865,32.6086794 C20.6704865,32.6658811 20.6935946,32.700896 20.7398919,32.7135626 C20.7781622,32.7238896 20.9541892,32.7338132 21.2677297,32.7433333 C21.531973,32.7512399 21.7084054,32.760518 21.7974324,32.7713291 C21.8864595,32.7820594 21.9573243,32.8024713 22.0098649,32.8326454 C22.0697027,32.8683864 22.112027,32.9173588 22.1368378,32.9798047 C22.1614865,33.0420085 22.1738919,33.1316433 22.1738919,33.2483864 C22.1738919,33.4015159 22.1531351,33.5155159 22.1116216,33.5901444 C22.0805676,33.6450064 22.0372703,33.6859915 21.9817297,33.7128577 C21.9263514,33.739966 21.8483514,33.7581189 21.7478108,33.7676391 C21.6400541,33.7771592 21.4392973,33.7818386 21.1457027,33.7818386 C20.8998649,33.7818386 20.7183243,33.7756263 20.601,33.7629597 C20.4836757,33.750293 20.3955405,33.7276221 20.3364324,33.6950276 C20.274973,33.6600127 20.2324865,33.6140255 20.208973,33.5567431 C20.1854595,33.4996221 20.1737027,33.4127304 20.1737027,33.2959873 L20.1737027,33.2196645" id="Fill-16"></path>
                </g>
            </g>
        </g>
    </g>
</svg>