<?xml version="1.0" encoding="UTF-8" standalone="no"?>
<svg width="80px" height="30px" viewBox="0 0 80 30" version="1.1" xmlns="http://www.w3.org/2000/svg" xmlns:xlink="http://www.w3.org/1999/xlink">
    <!-- Generator: Sketch 49.1 (51147) - http://www.bohemiancoding.com/sketch -->
    <title>icn-gnp-color</title>
    <desc>Created with Sketch.</desc>
    <defs></defs>
    <g id="Propuesta-3" stroke="none" stroke-width="1" fill="none" fill-rule="evenodd">
        <g id="Landing-Page-3-variante" transform="translate(-693.000000, -534.000000)">
            <g id="Group-12" transform="translate(378.000000, 532.000000)">
                <g id="icn-gnp-color" transform="translate(315.000000, 2.000000)">
                    <path d="M35.7158,14.3374 C35.7158,13.5094 35.8638,13.2134 34.9368,12.7204 L34.2958,12.4044 L34.2958,11.8324 L40.6858,11.8324 L40.6858,12.4044 L40.0348,12.6614 C39.0688,13.0564 39.0688,13.1644 39.0888,14.3374 L39.0978,19.0614 L38.8618,19.2874 C37.7468,19.5734 35.1438,20.2834 32.7968,20.2834 C27.4128,20.2834 24.7598,17.4924 24.7598,11.4584 C24.7598,4.9704 28.5078,2.1594 33.4278,2.1594 C34.7498,2.1594 37.1458,2.1594 38.8118,3.5694 C39.3638,4.0324 39.4138,4.5564 39.4138,4.7634 C39.4138,5.1564 39.3348,5.2354 39.2558,5.3944 L38.0628,7.7114 L37.6188,7.7114 C37.6188,6.5664 36.2878,3.5204 32.8268,3.5204 C28.8128,3.5204 28.6158,6.3204 28.6158,11.0544 C28.6158,15.1954 29.0498,18.9234 33.8418,18.9234 C35.3898,18.9234 35.6758,18.1054 35.7158,17.1874 L35.7158,14.3374 Z" id="Fill-1" fill="#002D74"></path>
                    <path d="M42.2832,19.3667 L43.4272,18.9027 C44.3642,18.5387 44.3642,17.8577 44.3642,16.3487 L44.3642,5.4727 C44.3642,4.6347 44.1272,4.2207 43.4762,3.7767 L42.4302,3.0767 L42.4302,2.5047 L47.1742,2.5047 L47.4602,2.6817 C47.9822,3.3827 49.0672,5.2657 50.5272,7.2377 L55.5552,14.0817 C55.7622,14.3667 55.8712,14.4957 55.9702,14.4957 C56.1772,14.4957 56.1772,14.2387 56.1772,13.7657 L56.1772,5.4927 C56.1772,4.2997 56.1572,4.0627 55.1412,3.6487 L53.6522,3.0767 L53.6522,2.5047 L59.6182,2.5047 L59.6182,3.0767 L58.8592,3.3627 C57.7452,3.8057 57.5282,4.0627 57.5282,5.7787 L57.5282,16.0337 C57.5282,17.6017 57.5572,19.1887 57.5572,19.7317 L57.3802,19.9387 L55.9212,19.9387 L55.6352,19.7317 C55.3982,19.4457 54.0472,17.5427 52.6662,15.6987 L46.5722,7.5537 C46.2372,7.1097 46.0792,6.8727 45.9512,6.8727 C45.7152,6.8727 45.7152,7.1387 45.7152,7.5047 L45.7152,16.8127 C45.7152,18.0647 45.7152,18.4597 46.8092,18.8247 L48.3472,19.3667 L48.3472,19.9387 L42.2832,19.9387 L42.2832,19.3667 Z" id="Fill-3" fill="#002D74"></path>
                    <path d="M61.147,19.3667 L62.291,18.9817 C63.149,18.6957 63.178,18.2227 63.178,16.5867 L63.178,5.3347 C63.178,4.0927 63.178,3.7767 62.291,3.4907 L61.147,3.0767 L61.147,2.5047 L69.775,2.5047 C72.793,2.5047 75.751,3.1557 75.751,7.1097 C75.751,10.7287 73.049,12.9677 68.829,12.9677 C68.651,12.9677 68.415,12.9367 68.256,12.9367 L67.872,12.0007 L68.079,11.7937 C69.972,11.7447 72.27,10.9657 71.944,7.3067 C71.688,4.4567 70.859,3.9247 68.523,3.9247 C66.935,3.9247 66.827,4.1617 66.827,4.8117 L66.827,16.5867 C66.827,18.3317 66.797,18.6957 67.842,18.9817 L69.193,19.3667 L69.193,19.9387 L61.147,19.9387 L61.147,19.3667 Z" id="Fill-5" fill="#002D74"></path>
                    <polygon id="Fill-7" fill="#002D74" points="24.76 22.64 79.601 22.64 79.601 22.276 24.76 22.276"></polygon>
                    <path d="M14.0518,11.1333 C14.0518,12.7393 12.7498,14.0413 11.1328,14.0413 C9.5258,14.0413 8.2238,12.7393 8.2238,11.1333 C8.2238,9.5263 9.5258,8.2243 11.1328,8.2243 C12.7498,8.2243 14.0518,9.5263 14.0518,11.1333" id="Fill-9" fill="#FF6C0E"></path>
                    <path d="M6.291,6.271 L0,6.271 L1.272,10.167 L4.408,10.167 L4.408,10.157 C7.583,10.157 10.156,7.583 10.166,4.398 L10.166,1.272 L6.291,0 L6.291,6.271 Z" id="Fill-10" fill="#FF6C0E"></path>
                    <path d="M6.2715,15.9849 L6.2715,22.2659 L10.1665,21.0039 L10.1665,17.8679 L10.1565,17.8679 C10.1565,14.6929 7.5835,12.1189 4.3975,12.1089 L1.2715,12.1089 L0.0005,15.9849 L6.2715,15.9849 Z" id="Fill-11" fill="#FF6C0E"></path>
                    <path d="M15.9844,15.9946 L22.2754,15.9946 L20.9934,12.1086 L17.8674,12.1086 L17.8584,12.1086 C14.6824,12.1186 12.1094,14.6926 12.1094,17.8676 L12.1094,17.8776 L12.1094,20.9936 L15.9844,22.2656 L15.9844,15.9946 Z" id="Fill-12" fill="#FF6C0E"></path>
                    <path d="M15.9942,6.2915 L15.9942,0.0105 L12.1092,1.2715 L12.1092,4.4075 C12.1192,7.5825 14.6922,10.1565 17.8682,10.1665 L17.8772,10.1665 L20.9942,10.1665 L22.2752,6.2915 L15.9942,6.2915 Z" id="Fill-13" fill="#FF6C0E"></path>
                    <path d="M78.167,3.1255 L78.167,3.3625 L77.91,3.3625 L77.91,3.8355 L78.167,3.8355 L78.167,4.1815 L78.098,4.0725 L77.91,4.0725 L77.91,4.7825 L77.605,4.7825 L77.605,3.1255 L78.167,3.1255 Z M78.167,5.1375 C77.556,5.1375 77.063,4.6445 77.063,3.9645 C77.063,3.2735 77.556,2.7905 78.167,2.7905 L78.167,2.5045 C77.358,2.5045 76.708,3.1555 76.708,3.9645 C76.708,4.7635 77.358,5.4135 78.167,5.4135 L78.167,5.1375 Z M78.167,4.1815 L78.167,3.8355 L78.177,3.8355 C78.364,3.8355 78.512,3.8065 78.512,3.5895 C78.512,3.3925 78.334,3.3625 78.186,3.3625 L78.167,3.3625 L78.167,3.1255 L78.216,3.1255 C78.61,3.1255 78.827,3.2645 78.827,3.6085 C78.827,3.8955 78.66,4.0325 78.394,4.0535 L78.837,4.7825 L78.521,4.7825 L78.167,4.1815 Z M78.167,2.7905 C78.768,2.7905 79.261,3.2735 79.261,3.9645 C79.261,4.6445 78.768,5.1375 78.167,5.1375 L78.167,5.4135 C78.965,5.4135 79.616,4.7635 79.616,3.9645 C79.616,3.1555 78.965,2.5045 78.167,2.5045 L78.167,2.7905 Z" id="Fill-14" fill="#002D74"></path>
                    <path d="M26.083,29.9995 C25.466,29.9995 25.084,29.8255 24.944,29.7455 C24.817,29.5985 24.729,29.1155 24.729,28.6595 C24.776,28.5725 24.931,28.5655 24.984,28.6405 C25.118,29.0755 25.567,29.6915 26.136,29.6915 C26.632,29.6915 26.86,29.3505 26.86,29.0155 C26.86,28.4725 26.351,28.1505 25.949,27.9495 C25.466,27.7085 24.937,27.3075 24.937,26.6435 C24.931,25.8865 25.52,25.3635 26.492,25.3635 C26.712,25.3635 26.987,25.3905 27.255,25.4715 C27.342,25.4975 27.402,25.5115 27.483,25.5245 C27.537,25.6725 27.604,26.0335 27.604,26.4825 C27.57,26.5625 27.402,26.5695 27.342,26.5035 C27.229,26.1605 26.94,25.6725 26.458,25.6725 C26.016,25.6725 25.774,25.9605 25.774,26.2955 C25.774,26.6035 26.049,26.8845 26.384,27.0595 L26.826,27.2935 C27.242,27.5145 27.771,27.9025 27.771,28.6405 C27.771,29.4645 27.094,29.9995 26.083,29.9995" id="Fill-15" fill="#002D74"></path>
                    <path d="M33.2378,27.2124 C33.2378,27.4004 33.2448,27.4134 33.4248,27.4134 L33.8878,27.4134 C34.2358,27.4134 34.3168,27.3664 34.3838,27.0454 L34.4168,26.8784 C34.4638,26.8244 34.6318,26.8244 34.6648,26.8844 C34.6518,27.0994 34.6448,27.3404 34.6448,27.5954 C34.6448,27.8494 34.6518,28.0904 34.6648,28.3054 C34.6318,28.3654 34.4638,28.3724 34.4168,28.3114 L34.3838,28.1444 C34.3168,27.8224 34.2358,27.7694 33.8878,27.7694 L33.4248,27.7694 C33.2448,27.7694 33.2378,27.7754 33.2378,27.9774 L33.2378,28.7744 C33.2378,29.0824 33.2648,29.2964 33.3448,29.4104 C33.4318,29.5304 33.5598,29.5844 34.0488,29.5844 C34.6318,29.5844 34.8588,29.5654 35.2278,28.8074 C35.2808,28.7334 35.4488,28.7604 35.4758,28.8414 C35.4488,29.1894 35.2878,29.7324 35.1938,29.9124 C34.8388,29.8994 34.1958,29.8934 33.6468,29.8934 L32.7758,29.8934 C32.4538,29.8934 32.1258,29.8994 31.6228,29.9124 C31.5698,29.8724 31.5698,29.7124 31.6228,29.6784 L31.9378,29.6314 C32.2398,29.5844 32.2798,29.5444 32.2798,28.9284 L32.2798,26.4294 C32.2798,25.8194 32.2398,25.7784 31.9378,25.7194 L31.7708,25.6854 C31.7108,25.6454 31.7168,25.4904 31.7838,25.4504 C32.0988,25.4644 32.4268,25.4714 32.7488,25.4714 L34.1688,25.4714 C34.5978,25.4714 34.9798,25.4644 35.0668,25.4504 C35.0728,25.5584 35.1208,26.0404 35.1538,26.4894 C35.1268,26.5634 34.9728,26.5764 34.9058,26.5164 C34.8328,26.2814 34.7378,26.0804 34.6518,25.9864 C34.5238,25.8594 34.3228,25.7784 33.9948,25.7784 L33.4588,25.7784 C33.2378,25.7784 33.2378,25.7924 33.2378,26.0404 L33.2378,27.2124 Z" id="Fill-16" fill="#002D74"></path>
                    <path d="M43.481,29.1353 C43.481,29.4173 43.495,29.5513 43.622,29.5773 C43.648,29.6053 43.642,29.7183 43.602,29.7393 C43.488,29.7583 43.314,29.7793 43.133,29.8393 C42.898,29.9123 42.322,29.9993 41.947,29.9993 C41.491,29.9993 41.103,29.9523 40.627,29.7653 C39.843,29.4503 39.307,28.7063 39.307,27.7423 C39.307,26.9053 39.683,26.1673 40.486,25.7193 C40.942,25.4713 41.484,25.3643 42.054,25.3643 C42.798,25.3643 43.167,25.5253 43.38,25.5253 C43.401,25.7253 43.408,26.1953 43.475,26.6033 C43.447,26.6773 43.267,26.6843 43.22,26.6163 C43.005,25.9873 42.584,25.6723 41.96,25.6723 C40.895,25.6723 40.379,26.5563 40.379,27.6143 C40.379,28.5733 40.708,29.1423 41.143,29.4373 C41.464,29.6523 41.813,29.6923 42.061,29.6923 C42.443,29.6923 42.523,29.6173 42.523,29.1823 L42.523,28.7603 C42.523,28.3993 42.483,28.3593 42.161,28.3113 L41.867,28.2713 C41.793,28.2313 41.793,28.0773 41.867,28.0363 C42.342,28.0503 42.67,28.0573 42.999,28.0573 C43.32,28.0573 43.648,28.0503 43.876,28.0363 C43.93,28.0773 43.93,28.2313 43.876,28.2713 L43.722,28.2983 C43.522,28.3313 43.481,28.3993 43.481,28.7603 L43.481,29.1353 Z" id="Fill-17" fill="#002D74"></path>
                    <path d="M48.2378,26.4361 C48.2378,25.8131 48.1968,25.7731 47.8958,25.7121 L47.7288,25.6791 C47.6748,25.6391 47.6688,25.4911 47.7418,25.4511 C48.0638,25.4641 48.3988,25.4711 48.7198,25.4711 C49.0488,25.4711 49.3768,25.4641 49.6978,25.4511 C49.7518,25.4911 49.7518,25.6391 49.6978,25.6791 L49.5378,25.7061 C49.2358,25.7591 49.1958,25.8131 49.1958,26.4361 L49.1958,27.9831 C49.1958,28.7671 49.2828,29.6311 50.3008,29.6311 C51.1588,29.6311 51.4198,28.8811 51.4198,27.9631 L51.4198,27.1531 C51.4198,26.6101 51.3928,26.1011 51.3198,25.9261 C51.2588,25.7861 51.1118,25.7461 50.9308,25.7121 L50.7498,25.6791 C50.6958,25.6251 50.7098,25.4911 50.7498,25.4511 C51.1118,25.4641 51.3728,25.4711 51.6478,25.4711 C51.8958,25.4711 52.1438,25.4641 52.3978,25.4511 C52.4378,25.4911 52.4518,25.6251 52.3978,25.6791 L52.2778,25.7061 C52.1028,25.7461 51.9758,25.7861 51.9158,25.9261 C51.8418,26.1011 51.8158,26.6101 51.8158,27.1531 L51.8158,27.9031 C51.8158,28.5331 51.7548,29.1091 51.3858,29.5181 C51.0918,29.8321 50.6028,29.9991 50.0598,29.9991 C49.5508,29.9991 49.0948,29.9191 48.7338,29.6241 C48.3848,29.3361 48.2378,28.8411 48.2378,28.1111 L48.2378,26.4361 Z" id="Fill-18" fill="#002D74"></path>
                    <path d="M57.6973,27.4077 C57.6973,27.6417 57.7173,27.6617 58.1133,27.6617 C58.3543,27.6617 58.4943,27.6017 58.6213,27.4737 C58.7353,27.3597 58.8633,27.1457 58.8633,26.7507 C58.8633,26.1477 58.5083,25.7597 57.9853,25.7597 C57.7103,25.7597 57.6973,25.7787 57.6973,26.1007 L57.6973,27.4077 Z M56.7793,26.5557 C56.7793,25.8867 56.7663,25.8127 56.4843,25.7727 L56.3033,25.7457 C56.2373,25.7127 56.2373,25.5457 56.3173,25.5117 C56.8193,25.4777 57.3423,25.4507 57.9783,25.4507 C58.5483,25.4507 59.0373,25.5387 59.2913,25.6917 C59.6803,25.9197 59.8813,26.2557 59.8813,26.6837 C59.8813,27.2797 59.4793,27.5347 59.1713,27.6887 C59.1043,27.7217 59.1043,27.7617 59.1373,27.8367 C59.5803,28.7337 59.8543,29.2357 60.1763,29.5117 C60.3503,29.6517 60.5243,29.6917 60.6253,29.6987 C60.6853,29.7317 60.6853,29.8327 60.6523,29.8727 C60.5443,29.9197 60.3303,29.9327 60.1223,29.9327 C59.5063,29.9327 59.1173,29.7127 58.8223,29.2287 C58.6083,28.8747 58.4543,28.5467 58.3003,28.1907 C58.2193,28.0107 58.1133,27.9567 57.9453,27.9567 C57.7103,27.9567 57.6973,27.9697 57.6973,28.1037 L57.6973,28.9287 C57.6973,29.5447 57.7373,29.5917 58.0383,29.6447 L58.2193,29.6787 C58.2663,29.7127 58.2663,29.8727 58.2193,29.9127 C57.8643,29.8987 57.5563,29.8927 57.2353,29.8927 C56.9003,29.8927 56.6053,29.8987 56.2573,29.9127 C56.2033,29.8727 56.2033,29.7127 56.2573,29.6787 L56.4373,29.6447 C56.7393,29.5917 56.7793,29.5447 56.7793,28.9287 L56.7793,26.5557 Z" id="Fill-19" fill="#002D74"></path>
                    <path d="M66.42,25.6724 C65.596,25.6724 65.154,26.4434 65.154,27.5614 C65.154,28.3784 65.442,29.6924 66.534,29.6924 C67.412,29.6924 67.753,28.8344 67.753,27.7484 C67.753,26.6034 67.251,25.6724 66.42,25.6724 M68.825,27.6614 C68.825,29.1224 67.847,29.9994 66.406,29.9994 C65.06,29.9994 64.082,29.1154 64.082,27.7154 C64.082,26.3894 65.073,25.3634 66.474,25.3634 C67.867,25.3634 68.825,26.3024 68.825,27.6614" id="Fill-20" fill="#002D74"></path>
                    <path d="M74.1509,29.9995 C73.5349,29.9995 73.1529,29.8255 73.0119,29.7455 C72.8849,29.5985 72.7969,29.1155 72.7969,28.6595 C72.8439,28.5725 72.9989,28.5655 73.0519,28.6405 C73.1859,29.0755 73.6349,29.6915 74.2049,29.6915 C74.6999,29.6915 74.9279,29.3505 74.9279,29.0155 C74.9279,28.4725 74.4189,28.1505 74.0169,27.9495 C73.5349,27.7085 73.0049,27.3075 73.0049,26.6435 C72.9989,25.8865 73.5879,25.3635 74.5599,25.3635 C74.7809,25.3635 75.0549,25.3905 75.3229,25.4715 C75.4099,25.4975 75.4709,25.5115 75.5509,25.5245 C75.6049,25.6725 75.6719,26.0335 75.6719,26.4825 C75.6379,26.5625 75.4709,26.5695 75.4099,26.5035 C75.2969,26.1605 75.0079,25.6725 74.5259,25.6725 C74.0839,25.6725 73.8429,25.9605 73.8429,26.2955 C73.8429,26.6035 74.1169,26.8845 74.4519,27.0595 L74.8949,27.2935 C75.3099,27.5145 75.8389,27.9025 75.8389,28.6405 C75.8389,29.4645 75.1629,29.9995 74.1509,29.9995" id="Fill-21" fill="#002D74"></path>
                </g>
            </g>
        </g>
    </g>
</svg>