<?xml version="1.0" encoding="UTF-8"?>
<svg width="120px" height="37px" viewBox="0 0 120 37" version="1.1" xmlns="http://www.w3.org/2000/svg" xmlns:xlink="http://www.w3.org/1999/xlink">
    <!-- Generator: Sketch 53 (72520) - https://sketchapp.com -->
    <title>logo-qualitas-horizontal</title>
    <desc>Created with Sketch.</desc>
    <g id="v23-Home-Cotización" stroke="none" stroke-width="1" fill="none" fill-rule="evenodd">
        <g id="logo-qualitas-horizontal">
            <path d="M1.30510127,18.3621401 C1.30510127,23.7386651 1.30472152,29.1151901 1.30548101,34.4918382 C1.30560759,35.3296151 1.30801266,35.3317086 2.187,35.3318318 C12.6494051,35.3323244 23.1116835,35.3323244 33.5740886,35.3317086 C34.425481,35.3315855 34.4296582,35.3286299 34.4296582,34.523241 C34.4305443,23.7907568 34.4305443,13.0581494 34.4296582,2.32554194 C34.4296582,1.51941417 34.425481,1.51658176 33.5747215,1.51645861 C23.112443,1.51584287 12.6501646,1.51584287 2.18775949,1.51645861 C1.30813924,1.51645861 1.30560759,1.51855213 1.30548101,2.35559009 C1.30472152,7.69122991 1.30510127,13.0266234 1.30510127,18.3621401 M35.735481,18.4255614 C35.7353544,24.232366 35.7358608,30.0391706 35.7348481,35.8459753 C35.7347215,36.6922494 35.7202911,36.7080123 34.8520633,36.7081355 C23.5473797,36.7091206 12.2425696,36.7092438 0.937886076,36.7081355 C0.0353544304,36.7080123 0.000924050633,36.6743929 0.000797468354,35.8177744 C-0.000341772152,24.2040419 -0.000215189873,12.5904327 0.000670886076,0.976823426 C0.000797468354,0.137691944 0.0157341772,0.123899352 0.894721519,0.123776204 C12.1994051,0.122914167 23.5042152,0.123037315 34.8090253,0.123653056 C35.7311772,0.123776204 35.7347215,0.1273475 35.7348481,1.0051475 C35.7358608,6.81182898 35.735481,12.6187568 35.735481,18.4255614" id="Fill-1" fill="#891F83"></path>
            <path d="M54.6829494,15.5206444 C54.7425696,14.6547897 54.6464937,13.7965703 54.5444684,12.9429073 C54.3037089,10.9305434 53.8729494,8.97334991 52.5633291,7.31528324 C50.8853544,5.19085454 48.1148481,5.20292306 46.4345949,7.33141565 C45.7296582,8.22460917 45.2816835,9.23331565 44.9705443,10.3074138 C44.185481,13.0169194 44.1516835,15.7744527 44.507,18.5380203 C44.7548481,20.4660277 45.2682658,22.3279045 46.5842152,23.871936 C47.3307975,24.7478888 48.2623165,25.2759481 49.4780127,25.2685592 C51.2945949,25.2573527 52.3791519,24.2189675 53.172443,22.7934045 C54.4362405,20.5223064 54.6414304,18.0347138 54.6829494,15.5206444 M41.618519,14.9928314 C41.6525696,12.1674434 42.5130759,9.34254806 44.4663671,6.87896935 C46.443962,4.38484991 49.3897848,3.60310546 52.1053544,4.86783694 C53.945481,5.72482491 55.1476329,7.22058231 55.9328228,8.98504898 C57.9630759,13.5480573 57.9411772,18.1207944 55.6772532,22.6095444 C54.7721899,24.4041823 53.4367468,25.8365184 51.435481,26.5526249 C50.8344684,26.7677647 51.2186456,27.0092582 51.4429494,27.1858527 C53.0568734,28.456249 54.8930759,29.2112703 56.9633291,29.4411879 C58.8516835,29.650786 60.5061139,29.1875027 61.9388987,27.9547897 C62.287,27.6552934 62.6795316,27.2508749 63.2104177,27.6609582 C63.5694051,27.9381647 63.5158608,28.4741055 63.1105443,29.0590592 C61.2113038,31.7994749 57.8518101,32.7211156 54.7461139,31.3951795 C52.6671266,30.5075277 50.8911772,29.2881147 49.7030759,27.3582601 C49.562443,27.1299434 49.4109241,26.9120944 49.0894051,26.8804453 C46.7653544,26.6510203 45.1945949,25.3142471 44.003962,23.4976888 C42.3614304,20.9918703 41.6371266,18.2175888 41.618519,14.9928314" id="Fill-4" fill="#009E96"></path>
            <path d="M68.6444684,17.5862698 C68.643962,19.3499976 68.6410506,21.1137254 68.6457342,22.8774531 C68.6471266,23.4519393 68.7118101,23.9600485 69.4378861,24.164967 C69.8857342,24.2915633 69.9023165,24.908043 69.4619367,25.1353744 C68.7666203,25.4945976 68.1273797,25.9009865 67.5745949,26.4542911 C67.2721899,26.7571124 66.8440886,26.6092115 66.6952278,26.1660013 C66.605481,25.8990161 66.6106709,25.6022291 66.5701646,25.3191115 C66.5097848,24.8965902 66.2848481,24.836617 65.9701646,25.0927652 C65.7451013,25.2760096 65.5534557,25.4981689 65.3466203,25.702718 C64.1248481,26.9109244 62.3999114,26.9520559 61.1129494,25.7960643 C59.9101646,24.7155624 59.5214304,23.302068 59.5019367,21.7873457 C59.4663671,18.9986559 59.492443,16.2091041 59.4907975,13.4199217 C59.4901646,12.4194661 59.4909241,12.4078902 58.5420633,12.1412744 C58.2123165,12.048667 58.0056076,11.8911606 58.0228228,11.551518 C58.0391519,11.2293624 58.2857342,11.0973476 58.573962,11.050305 C59.3064937,10.9308513 60.0480127,10.9333143 60.7777595,11.0293698 C61.3959873,11.1108939 61.5533291,11.5682661 61.551557,12.1204624 C61.5438354,14.335405 61.5194051,16.550717 61.5596582,18.7650439 C61.5843418,20.1146244 61.6802911,21.4658059 61.8118101,22.809968 C61.8991519,23.7006985 62.3444684,24.4229624 63.283962,24.7025087 C64.1983924,24.9746661 65.173962,24.6009115 65.8009241,23.8099309 C66.3532025,23.1129124 66.5688987,22.3051837 66.5734557,21.4489346 C66.5877595,18.803343 66.5718101,16.1576281 66.5843418,13.5121596 C66.5871266,12.8885374 66.332443,12.4555485 65.768519,12.1713226 C65.4897848,12.0308106 65.1553544,11.8831559 65.2380127,11.4993031 C65.3281392,11.0805994 65.7110506,11.0031393 66.0762405,10.9826967 C66.538519,10.9567124 67.003962,10.9535106 67.4666203,10.9721059 C68.301557,11.0057254 68.6380127,11.3458606 68.6421899,12.1720615 C68.6511772,13.9766744 68.6449747,15.7815337 68.6444684,17.5862698" id="Fill-6" fill="#009E96"></path>
            <path d="M107.337975,20.4402651 C107.337975,19.9745188 107.343544,19.6056901 107.335696,19.2371077 C107.331519,19.0377308 107.376329,18.7980845 107.140633,18.6936549 C106.912785,18.5927966 106.739494,18.7661892 106.574051,18.8831799 C105.960886,19.3165382 105.369241,19.7741568 104.818481,20.2846058 C104.005063,21.0381494 103.631266,21.930604 103.681392,23.0333956 C103.748228,24.5015679 104.591013,25.0222382 105.958228,24.3930744 C106.406582,24.1866781 106.676582,23.8446956 106.865063,23.4157706 C107.297468,22.4308318 107.37481,21.3956484 107.337975,20.4402651 L107.337975,20.4402651 Z M109.531772,18.3600466 C109.531772,19.8985364 109.529367,21.4369031 109.53443,22.9752697 C109.535063,23.2202114 109.547722,23.4689706 109.593165,23.7091095 C109.735443,24.4614216 109.961899,24.5345716 110.563165,24.0305262 C110.746835,23.876591 110.923797,23.7267197 111.175696,23.8838568 C111.381013,24.0119308 111.449747,24.2189429 111.359747,24.4220142 C110.969241,25.3031392 110.508228,26.1305716 109.453544,26.4129503 C108.731266,26.606416 108.277975,26.406054 107.956582,25.7541077 C107.379241,24.5832151 107.38,24.5840771 106.335443,25.4441438 C106.17481,25.5765281 106.00557,25.6996762 105.835949,25.8213466 C104.557468,26.7397855 103.567215,26.8202012 102.394557,26.1031095 C101.485316,25.5472188 101.156076,24.4764456 101.452152,23.0713253 C101.770759,21.5598049 102.734304,20.4527031 103.898987,19.5093882 C104.836835,18.7498105 105.847975,18.0740966 106.845063,17.3865605 C107.187468,17.1504855 107.354304,16.8944605 107.347215,16.4741558 C107.327089,15.2643484 107.353671,14.0539253 107.346709,12.8437484 C107.340633,11.7728521 106.747468,11.3467595 105.692785,11.6692845 C105.087468,11.8543762 104.601266,12.2240669 104.34038,12.7979373 C104.102278,13.3218095 103.921646,13.8703114 103.713797,14.4073605 C103.511772,14.9296318 103.270759,15.4321994 102.822911,15.8023827 C102.546582,16.0308225 102.229114,16.1076669 101.882785,15.9421558 C101.543418,15.7797234 101.393038,15.5022706 101.391392,15.1456336 C101.389367,14.6562429 101.592658,14.2238697 101.836456,13.8150179 C102.346456,12.9596308 102.946962,12.1627392 103.7,11.4970003 C104.804051,10.5210512 106.117595,10.2104716 107.574177,10.4772105 C108.072025,10.5683401 108.450127,10.8539206 108.747468,11.2532901 C109.288608,11.9801105 109.506835,12.8015086 109.510506,13.6832494 C109.516962,15.2421818 109.512278,16.8011142 109.512278,18.3600466 L109.531772,18.3600466 Z" id="Fill-8" fill="#009E96"></path>
            <path d="M76.8242278,20.4199949 C76.8242278,19.8138597 76.8115696,19.3825949 76.8277722,18.9523153 C76.8432152,18.5407542 76.7499241,18.4114486 76.3476456,18.6843449 C75.6372658,19.1663468 74.9692911,19.6914505 74.3285316,20.2607644 C73.467519,21.0255144 73.1192911,21.9459236 73.1682785,23.062631 C73.2309367,24.4931199 74.0762532,25.0083718 75.4182785,24.4074088 C75.8909367,24.1958403 76.1738481,23.8416662 76.364481,23.3861412 C76.7878987,22.3749718 76.8747342,21.3199616 76.8242278,20.4199949 L76.8242278,20.4199949 Z M79.0215696,18.4754856 C79.0215696,20.0145912 79.0181519,21.5536968 79.0251139,23.0928023 C79.0262532,23.3575708 79.0422025,23.6293588 79.104481,23.8856301 C79.2366329,24.4301912 79.5132152,24.5072819 79.9477722,24.1351282 C80.1672658,23.947081 80.3647342,23.6579292 80.6933418,23.9098903 C81.0157468,24.1570486 80.8756203,24.4731699 80.7187848,24.7455736 C80.3133418,25.4492421 79.8801772,26.1332069 79.0176456,26.3941579 C78.2528354,26.6255532 77.7513165,26.4152162 77.4132152,25.7177051 C77.3772658,25.6435699 77.3496709,25.5656171 77.3161266,25.4903736 C76.9372658,24.6404051 76.7781519,24.6060468 76.071443,25.2281912 C75.6162532,25.6289153 75.1249873,25.9738532 74.5849873,26.2647292 C73.5913165,26.799931 72.6716962,26.6190264 71.7913165,26.0373977 C70.9387848,25.4742412 70.7700506,24.6327699 70.8499241,23.7041097 C71.0341013,21.5618245 72.4334684,20.1961116 74.0566329,18.9834718 C74.8089114,18.4214236 75.5867595,17.8909014 76.3642278,17.3617338 C76.687519,17.1415449 76.8335949,16.8762838 76.8300506,16.4854116 C76.8185316,15.2542995 76.847519,14.0228181 76.8377722,12.791706 C76.8303038,11.8249931 76.3523291,11.4371995 75.3767595,11.6280792 C74.6320759,11.7738866 74.0706835,12.2019495 73.7724557,12.8921949 C73.5110633,13.496606 73.3001772,14.1215829 73.0565063,14.7336292 C72.9028354,15.1196986 72.6884051,15.4754736 72.3708101,15.7561282 C72.0867595,16.0072273 71.7604304,16.1175681 71.3824557,15.9481162 C71.0099241,15.7812505 70.8585316,15.4892662 70.8803038,15.1036894 C70.8881519,14.9609606 70.8815696,14.8056708 70.9371392,14.6793208 C71.6761266,13.0017968 72.676,11.5269745 74.4432152,10.7252801 C75.1773924,10.3922875 75.9748608,10.3138421 76.7939747,10.4244292 C77.527519,10.5234403 78.0300506,10.9056921 78.3972658,11.4988968 C78.8466329,12.2247319 79.000557,13.0255644 79.0041013,13.858169 C79.0104304,15.3972745 79.0058734,16.9363801 79.0058734,18.4754856 L79.0215696,18.4754856 Z" id="Fill-10" fill="#009E96"></path>
            <path d="M85.5754557,13.7413137 C85.5754557,17.0239507 85.5906456,20.3067109 85.5633038,23.5891017 C85.557481,24.2962183 85.7330506,24.7748952 86.4881139,24.9740257 C86.7486203,25.0427424 87.1203924,25.1444628 86.995962,25.5449406 C86.8726709,25.9413544 86.5522911,26.1992267 86.1283671,26.0855609 C84.972038,25.7754739 83.8297595,25.9355665 82.6771013,26.0694285 C82.2993797,26.1132693 81.862038,26.0902406 81.7667215,25.6169822 C81.6716582,25.1440933 82.0364684,24.956785 82.4336835,24.8816646 C82.9553291,24.783023 83.1797595,24.4561878 83.2401392,23.9874859 C83.2739367,23.7239489 83.2867215,23.4562248 83.2868481,23.190348 C83.2892532,17.5073072 83.2826709,11.8241433 83.2983671,6.14110259 C83.2998861,5.57499056 83.2040633,5.17007944 82.5414051,5.09705259 C82.2752025,5.06762019 82.1403924,4.89484333 82.0998861,4.64423685 C82.0553291,4.36887759 82.1541899,4.14794981 82.4045696,4.02529426 C82.6088734,3.92517481 82.832038,3.8461137 83.0560886,3.80239611 C83.545962,3.70671 83.9717848,3.5235887 84.3138101,3.1516813 C84.540519,2.90526185 84.817481,2.66549241 85.1940633,2.81277759 C85.6076076,2.97447111 85.5811519,3.35943222 85.5814051,3.70880352 C85.5833038,7.05289148 85.5825443,10.3971026 85.5825443,13.7413137 L85.5754557,13.7413137 Z" id="Fill-12" fill="#009E96"></path>
            <path d="M112.158114,23.2477104 C112.158114,22.7556104 112.137354,22.262402 112.165709,21.771903 C112.183557,21.4621854 112.272418,21.1087502 112.646975,21.0615844 C113.054823,21.0102317 113.149127,21.3774594 113.232165,21.6689511 C113.327481,22.0034215 113.371278,22.3516844 113.444823,22.6925585 C113.540013,23.1334289 113.613557,23.5811956 113.747228,24.0111057 C114.136975,25.2659854 114.483937,25.5259511 115.631152,25.4866669 C116.761278,25.4478752 117.621532,24.8291789 117.82938,23.7992909 C118.217734,21.873377 117.930772,20.5758881 116.161152,19.5833141 C115.253684,19.0740965 114.349633,18.5335993 113.623304,17.7658937 C112.359633,16.4304752 112.057608,14.5073937 112.872924,12.7700196 C113.654443,11.1049335 115.073304,10.3920289 116.875709,10.363828 C118.44862,10.3393215 119.281025,11.199265 119.269506,12.7222381 C119.266468,13.1107706 119.310899,13.504352 119.197481,13.885003 C119.056722,14.358015 118.768747,14.4259928 118.431405,14.0661539 C118.165076,13.7822974 118.080392,13.4185178 117.991658,13.0584326 C117.742038,12.0468937 116.920646,11.3961789 116.027734,11.5013474 C115.065709,11.6146437 114.532038,12.3403557 114.420646,13.40374 C114.28343,14.7148983 114.845076,15.5934372 115.921658,16.2892243 C116.849127,16.8884631 117.792418,17.4630724 118.584949,18.2536835 C120.906215,20.5688687 120.056342,25.2488678 117.114696,26.3228428 C115.609253,26.872453 114.217228,26.6876076 112.888367,25.884928 C112.397354,25.5883872 112.128241,25.1294141 112.141278,24.5399039 C112.150772,24.109378 112.143177,23.6784826 112.143177,23.2477104 L112.158114,23.2477104 Z" id="Fill-14" fill="#009E96"></path>
            <path d="M95.187557,18.4213005 C95.1870506,16.6991968 95.1804684,14.9769699 95.1919873,13.2548662 C95.1946456,12.8545116 95.1321139,12.5959005 94.626038,12.5748421 C94.1454051,12.554769 94.0457848,12.2158653 94.1950253,11.8222838 C94.266038,11.6353449 94.3835063,11.444219 94.5322405,11.3097412 C95.3683165,10.5541042 95.9156582,9.6144838 96.4031266,8.63016065 C96.5262911,8.38103194 96.6357848,8.02340972 96.9989494,8.08917083 C97.3903418,8.16010417 97.4694557,8.53065694 97.4857848,8.86438843 C97.509962,9.35538009 97.5151519,9.84895787 97.4936329,10.3398264 C97.4741392,10.7802042 97.6346456,10.9885708 98.1104684,10.962094 C98.5093291,10.9399273 98.9109747,10.9710838 99.3111013,10.9636949 C99.8309747,10.9540894 100.181354,11.1487866 100.208696,11.6882986 C100.235405,12.212294 99.8983165,12.4904856 99.4148987,12.5600644 C99.001481,12.6195449 98.5733797,12.6127718 98.1538861,12.5929449 C97.6794557,12.5705319 97.4657848,12.7237282 97.4683165,13.2190301 C97.4857848,16.6222292 97.4809747,20.0254282 97.4912278,23.4286273 C97.4928734,23.9287319 97.5336329,24.4628255 98.0850253,24.6886792 C98.6237595,24.9092375 99.1152785,24.6996394 99.5366709,24.3370912 C99.6785696,24.2150514 99.8136329,24.0853764 99.9576835,23.9659227 C100.115658,23.8350162 100.277051,23.6501708 100.50743,23.7887125 C100.721228,23.9170329 100.674899,24.1502755 100.650342,24.3503912 C100.552367,25.1518394 99.3364177,26.3205153 98.4180633,26.5059764 C97.4209747,26.7074468 96.1432532,26.1520486 95.6494557,25.2950606 C95.3226203,24.7277171 95.1862911,24.1129616 95.1873038,23.4647097 C95.1897089,21.7836144 95.1880633,20.1023958 95.187557,18.4213005" id="Fill-17" fill="#009E96"></path>
            <path d="M91.5488101,17.7487392 C91.5489367,19.7175086 91.5700759,21.6867706 91.5369114,23.6549244 C91.5260253,24.2993586 91.7315949,24.7025456 92.365519,24.9290151 C92.6704557,25.0380012 93.1450127,25.122604 92.9612152,25.6235706 C92.8014684,26.0584068 92.4117215,26.1955938 91.9789367,26.0698595 C90.9313418,25.7653142 89.888557,25.9481892 88.8422278,26.0446142 C88.6757722,26.0600077 88.5045063,26.0856225 88.3410886,26.0645642 C88.0610886,26.0284818 87.7904557,25.9432632 87.7472911,25.612241 C87.7069114,25.3025234 87.8766582,25.0500697 88.1571646,24.9956382 C89.2175443,24.7898577 89.2574177,24.0421021 89.2537468,23.218241 C89.2408354,20.3676077 89.2402025,17.5168512 89.2567848,14.6662179 C89.2596962,14.1524438 89.1632405,13.817604 88.5675443,13.6915003 C88.0176709,13.5752484 87.9208354,13.0698484 88.3729873,12.7391956 C89.1977975,12.1362623 90.0551392,11.5860364 90.6653924,10.739516 C90.904,10.4086169 91.2286835,10.5339818 91.4147595,10.8764568 C91.5679241,11.1583429 91.5483038,11.4731095 91.5484304,11.7808568 C91.5488101,13.7700688 91.5486835,15.759404 91.5488101,17.7487392" id="Fill-19" fill="#009E96"></path>
            <path d="M79.5693544,4.57128389 C79.5563165,4.98580056 79.3483418,5.33184685 79.0761899,5.61237833 C77.8620127,6.86405611 76.626443,8.09615333 75.3961899,9.33305333 C75.1566962,9.57380796 74.9054304,9.50866259 74.6584684,9.33650148 C74.4065696,9.16089222 74.5345443,8.97850981 74.6580886,8.80831907 C75.8122658,7.21884593 76.8036582,5.51829315 78.0941646,4.02228944 C78.2982152,3.78572185 78.4658101,3.43548852 78.9058101,3.59250241 C79.237962,3.71109407 79.5634051,4.18546074 79.5693544,4.57128389" id="Fill-21" fill="#009E96"></path>
            <path d="M91.5535063,5.39466472 C91.588443,5.96077676 91.4407215,6.46075824 91.0359114,6.8657925 C90.6143924,7.28745176 90.0726203,7.28609713 89.641481,6.87859991 C88.9388228,6.21446194 88.9071772,4.6347175 89.5824937,3.93831472 C90.0500886,3.45618972 90.6636329,3.46628787 91.1146456,3.97452028 C91.478443,4.38448046 91.5905949,4.87473324 91.5535063,5.39466472" id="Fill-23" fill="#009E96"></path>
            <path d="M11.4418228,13.9868834 C11.4665063,14.8002769 11.4071392,15.8023334 11.5530886,16.8053751 C11.9804304,19.7408575 14.5843544,22.1874418 17.4267595,22.2831279 C20.6782785,22.3926066 23.5427089,19.8919603 23.9184051,16.6516862 C24.1013165,15.0751436 24.0253671,13.4971232 24.0120759,11.9204575 C24.006,11.2081686 23.872962,10.4955103 23.6533418,9.80366398 C22.6381519,6.60513713 19.4665063,4.68624269 16.3051139,5.48510472 C13.8151139,6.11439176 12.3770127,7.8340325 11.6924557,10.1898566 C11.3489114,11.3724482 11.4467595,12.5896445 11.4418228,13.9868834 M5.926,13.4226186 C6.09650633,10.006489 8.00270886,7.13171861 11.3808101,5.15272787 C16.2294177,2.31219269 22.667519,3.10933065 26.6627089,7.00857046 C30.4573924,10.712251 30.6727089,16.3499732 27.1718228,20.3362788 C22.2194177,25.9754788 12.4997975,25.6842334 7.93967089,19.7443056 C6.61562025,18.0196158 5.93283544,16.0635306 5.926,13.4226186" id="Fill-25" fill="#891F83"></path>
            <path d="M21.9707722,33.523783 C21.3648228,33.4858533 20.6815316,33.0916561 20.0310253,32.6224617 C17.3883671,30.7164978 14.6650759,28.9254311 11.8678608,27.2426117 C10.0921646,26.1743015 8.21267089,25.2881274 6.35849367,24.3582357 C5.62191139,23.9887913 5.4611519,23.5549404 5.7768481,22.9816857 C5.98482278,22.6041135 6.30140506,22.4347848 6.71862025,22.5611348 C7.09836709,22.676032 7.46773418,22.8348931 7.82444304,23.0079163 C10.7479873,24.4258441 13.6463418,25.9243107 16.7321646,26.96442 C20.7416582,28.3159709 24.7178608,28.324345 28.4379873,25.9714765 C28.5260886,25.9158135 28.6158354,25.8542394 28.7140633,25.823945 C29.1665949,25.6839256 29.6554557,25.5625015 29.9931772,25.9889635 C30.3283671,26.4122237 30.057481,26.8250163 29.7698861,27.1569006 C29.2102658,27.8028126 28.5098861,28.306858 27.8295063,28.8219867 C26.3845696,29.916158 25.3565949,31.3939357 24.0669747,32.6297274 C23.5426709,33.1321719 22.9895063,33.5540774 21.9707722,33.523783" id="Fill-27" fill="#891F83"></path>
        </g>
    </g>
</svg>