<?xml version="1.0" encoding="UTF-8"?>
<svg width="120px" height="30px" viewBox="0 0 74 8" version="1.1" xmlns="http://www.w3.org/2000/svg" xmlns:xlink="http://www.w3.org/1999/xlink">
    <title>Group 4</title>
    <g id="Accesos-Desarrollo" stroke="none" stroke-width="1" fill="none" fill-rule="evenodd">
        <g id="Group-4" fill="#5D5E5D" transform="translate(-0.000000, -0.000000)">
            <path d="M59.901,6.0926 L67.586,6.0926 L67.586,4.2626 L59.901,4.2626 L59.901,6.0926 Z M59.901,3.0396 L67.586,3.0396 L67.586,1.2626 L59.901,1.2626 L59.901,3.0396 Z M67.011,7.3366 C68.37,7.3366 68.998,6.7716 68.998,5.7996 L68.998,4.9426 C68.998,4.6706 68.904,4.5446 68.705,4.3776 L67.827,3.6246 L68.705,2.8716 C68.904,2.7046 68.998,2.5796 68.998,2.3076 L68.998,1.5546 C68.998,0.5826 68.37,0.0176 67.011,0.0176 L58.521,0.0176 L58.521,7.3366 L67.011,7.3366 Z M45.054,6.0926 L52.739,6.0926 L52.739,4.2626 L45.054,4.2626 L45.054,6.0926 Z M45.054,3.0396 L52.739,3.0396 L52.739,1.2626 L45.054,1.2626 L45.054,3.0396 Z M52.164,7.3366 C53.523,7.3366 54.15,6.7716 54.15,5.7996 L54.15,4.9426 C54.15,4.6706 54.056,4.5446 53.858,4.3776 L52.979,3.6246 L53.858,2.8716 C54.056,2.7046 54.15,2.5796 54.15,2.3076 L54.15,1.5546 C54.15,0.5826 53.523,0.0176 52.164,0.0176 L43.674,0.0176 L43.674,7.3366 L52.164,7.3366 Z M37.536,0.0176 L37.536,6.0296 L30.27,6.0296 L30.27,0.0176 L28.89,0.0176 L28.89,5.6636 C28.89,6.6986 29.517,7.3366 30.761,7.3366 L37.045,7.3366 C38.289,7.3366 38.917,6.6986 38.917,5.6636 L38.917,0.0176 L37.536,0.0176 Z M15.381,3.0076 L15.381,0.0176 L14,0.0176 L14,7.3366 L15.381,7.3366 L15.381,4.2936 L22.752,4.2936 L22.752,7.3366 L24.132,7.3366 L24.132,0.0176 L22.752,0.0176 L22.752,3.0076 L15.381,3.0076 Z M9.975,1.3246 L9.975,0.0176 L1.872,0.0176 C0.627,0.0176 0,0.6556 0,1.6906 L0,5.6636 C0,6.6986 0.627,7.3366 1.872,7.3366 L9.975,7.3366 L9.975,6.0296 L1.412,6.0296 L1.412,1.3246 L9.975,1.3246 Z" id="Fill-1"></path>
            <path d="M71.7849,1.016 L71.9019,1.016 C72.0369,1.016 72.1479,0.971 72.1479,0.861 C72.1479,0.764 72.0769,0.699 71.9209,0.699 C71.8559,0.699 71.8109,0.705 71.7849,0.712 L71.7849,1.016 Z M71.7789,1.618 L71.5329,1.618 L71.5329,0.556 C71.6299,0.537 71.7649,0.524 71.9409,0.524 C72.1409,0.524 72.2309,0.556 72.3089,0.602 C72.3669,0.647 72.4129,0.731 72.4129,0.835 C72.4129,0.951 72.3219,1.042 72.1929,1.081 L72.1929,1.094 C72.2959,1.133 72.3549,1.21 72.3869,1.353 C72.4199,1.514 72.4389,1.579 72.4649,1.618 L72.1989,1.618 C72.1669,1.579 72.1479,1.482 72.1149,1.359 C72.0959,1.243 72.0309,1.191 71.8949,1.191 L71.7789,1.191 L71.7789,1.618 Z M71.1249,1.061 C71.1249,1.534 71.4749,1.909 71.9529,1.909 C72.4199,1.909 72.7619,1.534 72.7619,1.068 C72.7619,0.595 72.4199,0.213 71.9469,0.213 C71.4749,0.213 71.1249,0.595 71.1249,1.061 L71.1249,1.061 Z M73.0339,1.061 C73.0339,1.663 72.5619,2.136 71.9469,2.136 C71.3389,2.136 70.8529,1.663 70.8529,1.061 C70.8529,0.472 71.3389,0 71.9469,0 C72.5619,0 73.0339,0.472 73.0339,1.061 L73.0339,1.061 Z" id="Fill-3"></path>
        </g>
    </g>
</svg>