<?xml version="1.0" encoding="UTF-8"?>
<svg width="44px" height="32px" viewBox="0 0 44 32" version="1.1" xmlns="http://www.w3.org/2000/svg" xmlns:xlink="http://www.w3.org/1999/xlink">
    <title>HDI - Color</title>
    <g id="Page-1" stroke="none" stroke-width="1" fill="none" fill-rule="evenodd">
        <g id="HDI---Color" fill-rule="nonzero">
            <polygon id="Fill-1" fill="#228E56" points="0.606492858 15.8249876 5.80595714 15.8249876 5.80595714 0.0347654321 0.606492858 0.0347654321"></polygon>
            <polygon id="Fill-2" fill="#228E56" points="11.0399928 15.7902222 16.2744214 15.7902222 16.2744214 0 11.0399928 0"></polygon>
            <path d="M25.4939928,15.7553778 L20.2599571,15.7553778 L20.2599571,0.000316049382 L26.8116357,0.000316049382 C39.87885,0.662439506 36.6900285,16.4526617 25.4939928,15.7553778 Z M25.2860535,11.8166913 C31.8719107,12.2350617 31.3517678,2.99772839 25.2860535,3.76454321 L25.2860535,11.8166913 Z" id="Combined-Shape" fill="#228E56"></path>
            <polygon id="Fill-7" fill="#228E56" points="38.4924571 15.8249876 43.7264928 15.8249876 43.7264928 0.0699259259 38.4924571 0.0699259259"></polygon>
            <polygon id="Fill-9" fill="#E82E28" points="5.80595714 10.6662716 11.0399928 10.6662716 11.0399928 5.40286419 5.80595714 5.40286419"></polygon>
            <path d="M3.87592857,23.2385975 C3.63078572,23.1003259 3.15975,22.9031901 2.54139286,22.9031901 C1.64842857,22.9031901 1.27560714,23.4262518 1.27560714,23.9098074 C1.27560714,24.5509926 1.69753572,24.867042 2.64942857,25.2810666 C3.85628572,25.8144 4.43535714,26.4753382 4.43535714,27.5115852 C4.43535714,28.7745975 3.50310714,29.7219555 1.81539286,29.7219555 C1.10864286,29.7219555 0.363,29.5145481 8.8817842e-16,29.2680296 L0.254964286,28.310795 C0.65725,28.5573136 1.26578572,28.7548444 1.88414286,28.7548444 C2.77710714,28.7548444 3.27760714,28.291042 3.27760714,27.6099555 C3.27760714,26.9687703 2.89457143,26.5741037 2.00160714,26.1991901 C0.883142858,25.7452642 0.127285715,25.0641778 0.127285715,24.0378074 C0.127285715,22.8439308 1.07917857,21.9459555 2.57085714,21.9459555 C3.28703572,21.9459555 3.82682143,22.1233382 4.15092857,22.2912395 L3.87592857,23.2385975 Z" id="Fill-10" fill="#231F20"></path>
            <path d="M10.0494428,26.3371457 C10.0592643,25.6860839 9.79447857,24.8766024 8.92076429,24.8766024 C8.08672857,24.8766024 7.73355,25.705442 7.67462143,26.3371457 L10.0494428,26.3371457 Z M10.8540143,29.3965037 C10.4713714,29.5738864 9.87265714,29.7220345 9.13683572,29.7220345 C7.50765714,29.7220345 6.56558572,28.6265284 6.56558572,26.9688494 C6.56558572,25.3502815 7.46876429,24.0576395 8.99933572,24.0576395 C10.5204785,24.0576395 11.1290143,25.3305284 11.1290143,26.6725531 C11.1290143,26.8602074 11.1191928,27.0182321 11.0991571,27.1561086 L7.6648,27.1561086 C7.69426429,28.3796148 8.44972857,28.8438123 9.3038,28.8438123 C9.90212143,28.8438123 10.3142285,28.7351703 10.6678,28.5870222 L10.8540143,29.3965037 Z" id="Fill-11" fill="#231F20"></path>
            <path d="M16.8609178,26.2779259 C16.8609178,25.5577284 16.3898821,24.9655308 15.6929535,24.9655308 C14.908025,24.9655308 14.3584178,25.715358 14.3584178,26.88 C14.3584178,27.9458765 14.839275,28.7055802 15.6831321,28.7055802 C16.272025,28.7055802 16.8609178,28.2516543 16.8609178,27.3438024 L16.8609178,26.2779259 Z M18.0481321,24.1761975 C18.0186678,24.5609876 17.999025,25.0149136 17.999025,25.7449876 L17.999025,28.8438518 C17.999025,29.9290864 17.9106321,31.9324444 15.3495964,31.9324444 C14.7214178,31.9324444 14.0641678,31.7941728 13.6422393,31.5373827 L13.8972035,30.6492839 C14.2311321,30.8468148 14.7508821,31.0344691 15.3594178,31.0344691 C16.2425607,31.0344691 16.8707393,30.541037 16.8707393,29.3072592 L16.8707393,28.7845926 L16.8510964,28.7845926 C16.5760964,29.248395 16.046525,29.5838024 15.3495964,29.5838024 C14.0739893,29.5838024 13.2006678,28.4491852 13.2006678,26.9289876 C13.2006678,25.0840494 14.3093107,24.057679 15.4870964,24.057679 C16.2916678,24.057679 16.7430607,24.4720987 16.9685607,24.9062716 L16.9885964,24.9062716 L17.0373107,24.1761975 L18.0481321,24.1761975 Z" id="Fill-12" fill="#231F20"></path>
            <path d="M25.1540928,28.0541629 C25.1540928,28.6661136 25.1835571,29.1792987 25.2032,29.6134716 L24.2022,29.6134716 L24.1432714,28.8237432 L24.1138071,28.8237432 C23.8883071,29.1986568 23.35795,29.7221136 22.4850214,29.7221136 C21.5527714,29.7221136 20.7379857,29.1397926 20.7379857,27.4031012 L20.7379857,24.1663605 L21.8764857,24.1663605 L21.8764857,27.2154469 C21.8764857,28.1529284 22.1416643,28.7747555 22.8869143,28.7747555 C23.4070571,28.7747555 24.0155928,28.3599407 24.0155928,27.5409778 L24.0155928,24.176237 L25.1540928,24.176237 L25.1540928,28.0541629 Z" id="Fill-13" fill="#231F20"></path>
            <path d="M30.6406571,25.1826568 C30.5424428,25.1629037 30.4348,25.1530271 30.3067285,25.1530271 C29.5414428,25.1530271 29.0609785,25.7843358 29.0609785,26.7316938 L29.0609785,29.613274 L27.9224785,29.613274 L27.9224785,25.8337185 C27.9224785,25.2024099 27.9126571,24.6793481 27.8828,24.1760395 L28.8743714,24.1760395 L28.9136571,25.1727802 L28.95255,25.1727802 C29.1980857,24.4822123 29.7669428,24.057521 30.3558357,24.057521 C30.4642643,24.057521 30.5424428,24.0673975 30.6406571,24.0875457 L30.6406571,25.1826568 Z" id="Fill-14" fill="#231F20"></path>
            <path d="M34.9985428,24.9162271 C34.0266143,24.9162271 33.6537928,25.9619555 33.6537928,26.8998321 C33.6537928,27.9653136 34.1546857,28.8632889 34.9887214,28.8632889 C35.8129357,28.8632889 36.3232571,27.9653136 36.3232571,26.880079 C36.3232571,25.9821037 35.9504357,24.9162271 34.9985428,24.9162271 M37.4908285,26.8504494 C37.4908285,28.883042 36.1759357,29.7221531 34.9588643,29.7221531 C33.5559714,29.7221531 32.4862214,28.6859061 32.4862214,26.9290666 C32.4862214,25.0936099 33.6046857,24.057758 35.0378285,24.057758 C36.5192928,24.057758 37.4908285,25.1824987 37.4908285,26.8504494" id="Fill-15" fill="#231F20"></path>
            <path d="M42.6147464,25.2023308 C42.398675,25.0640592 42.0262464,24.8965531 41.5842821,24.8965531 C41.0739607,24.8965531 40.7993535,25.1924543 40.7993535,25.5574913 C40.7993535,25.9328 41.0448893,26.1200592 41.7021393,26.4060839 C42.5951035,26.771516 43.0661393,27.2649481 43.0661393,28.0542815 C43.0661393,29.1004049 42.2713893,29.721837 41.0448893,29.721837 C40.4756393,29.721837 39.9358535,29.5736889 39.5728535,29.3568 L39.8278178,28.5082074 C40.102425,28.6757136 40.6033178,28.8732444 41.0645321,28.8732444 C41.6730678,28.8732444 41.9673178,28.5773432 41.9673178,28.1629234 C41.9673178,27.7481086 41.741425,27.5213432 41.0939964,27.245195 C40.1322821,26.8600099 39.7099607,26.3175901 39.7099607,25.6858864 C39.7099607,24.7780345 40.4457821,24.057837 41.5842821,24.057837 C42.1146393,24.057837 42.5754607,24.2055901 42.8697107,24.3734913 L42.6147464,25.2023308 Z" id="Fill-16" fill="#231F20"></path>
        </g>
    </g>
</svg>