<?xml version="1.0" encoding="UTF-8"?>
<svg width="26px" height="28px" viewBox="0 0 26 28" version="1.1" xmlns="http://www.w3.org/2000/svg" xmlns:xlink="http://www.w3.org/1999/xlink">
    <title>Shape</title>
    <g id="GMM" stroke="none" stroke-width="1" fill="none" fill-rule="evenodd">
        <g id="Landing-GMM---Home-CARSA" transform="translate(-954.000000, -212.000000)" fill="#A9C23E" fill-rule="nonzero">
            <g id="Group-25-Copy" transform="translate(717.000000, 190.000000)">
                <g id="Group-26" transform="translate(36.000000, 19.000000)">
                    <g id="woman-copy" transform="translate(201.000000, 3.000000)">
                        <path d="M25.9793693,24.614 C25.1916099,21.232 23.7459743,19.176 18.6073742,18.664 C18.4548976,18.6474389 18.307043,18.6014288 18.1719418,18.5285 C19.2786582,17.9925169 20.3192973,17.3285204 21.2727182,16.55 L21.3722456,16.4625 L21.3722456,16.327 C21.6374861,10.784 20.8537078,7.1655 20.3620424,5.5075 C19.8289769,3.60010374 18.5998746,1.96470735 16.919887,0.9275 C15.9969071,0.3446014 14.9338939,0.0240622038 13.8439924,0 C12.7315641,0 11.6499902,0.367486211 10.7656097,1.0455 C10.5333371,0.997906919 10.2970082,0.973123596 10.0599604,0.9715 C9.17239093,0.976933224 8.32824923,1.35816502 7.73500009,2.0215 C4.52573881,5.39 4.94375392,15.886 4.96117122,16.3275 L4.96117122,16.4715 L5.07413483,16.559 L5.07413483,16.559 C6.02549723,17.2579614 7.03997163,17.8657866 8.10424678,18.3745 C7.89117844,18.5322216 7.64031256,18.6303876 7.37719906,18.659 C2.25701153,19.1755 0.80689719,21.2315 0.0186401148,24.6135 C-0.0547254186,24.9106541 0.0937367115,25.2180351 0.371464778,25.344 C4.36103423,27.0704085 8.65523251,27.9736241 12.9990047,28 C17.3435562,27.974913 21.6386578,27.0716498 25.6285352,25.344 C25.9062633,25.2180351 26.0547254,24.9106541 25.9813599,24.6135 L25.9793693,24.614 Z M8.36600386,9.3585 C8.41576757,9.3585 8.47100528,9.402 8.52723826,9.402 C8.66304659,9.40055794 8.79524097,9.35785267 8.90643769,9.2795 C9.0362402,9.2091592 9.11282087,9.0687799 9.10200905,8.921 C9.18909553,6.8425 10.7656097,5.596 11.6100997,5.075 C12.6199597,6.82143238 14.2093873,8.15501786 16.0997811,8.842 C16.3895187,8.93021067 16.6629949,9.06531812 16.9094366,9.242 C17.0224002,9.3385 17.1881133,9.465 17.3145132,9.392 C17.7803014,9.1075 17.893265,9.5055 17.893265,9.5055 L17.893265,9.5055 C17.9163169,9.70198888 17.8896144,9.90114494 17.8156337,10.0845 L17.8156337,10.1105 C17.5892088,10.815 17.5324782,10.85 17.3060533,10.8675 L17.3060533,10.8675 C17.0238114,10.8881151 16.7902225,11.0959847 16.7357613,11.375 C16.4573789,12.7005313 15.8891326,13.9472843 15.0721606,15.025 L14.9850742,15.125 C14.5156643,15.7451631 13.796109,16.123505 13.0213984,16.1575 C12.2215397,16.1260899 11.4801942,15.7278576 11.0099495,15.077 C10.9983415,15.0545092 10.9835952,15.0338 10.9661574,15.0155 C10.1478915,13.9418096 9.57820738,12.6983023 9.29857568,11.3755 C9.23780426,11.1024297 9.0060499,10.9016787 8.72828363,10.8815 C8.5103186,10.8815 8.44512815,10.829 8.21422456,10.098 C8.08384366,9.6695 8.11867825,9.3415 8.3665015,9.359 L8.36600386,9.3585 Z M12.9995024,21.6585 C11.1829042,21.6738702 9.4245566,21.01512 8.06144999,19.8085 C8.64569363,19.5954247 9.16584647,19.235476 9.57227605,18.763 C10.1146317,18.1335732 10.5382444,17.4100799 10.8223403,16.628 C12.0958934,17.6719077 13.9245097,17.6719077 15.1980628,16.628 C15.5056017,17.4672569 15.9746807,18.2374198 16.578508,18.8945 C16.9524048,19.3002956 17.4185353,19.6090937 17.9370571,19.7945 C16.5748566,21.0039467 14.817325,21.6674409 12.9995024,21.6585 L12.9995024,21.6585 Z" id="Shape"></path>
                    </g>
                </g>
            </g>
        </g>
    </g>
</svg>