<?xml version="1.0" encoding="UTF-8"?>
<svg width="28px" height="28px" viewBox="0 0 28 28" version="1.1" xmlns="http://www.w3.org/2000/svg" xmlns:xlink="http://www.w3.org/1999/xlink">
    <title>Path Copy</title>
    <g id="GMM" stroke="none" stroke-width="1" fill="none" fill-rule="evenodd">
        <g id="Landing-GMM---Home-CARSA" transform="translate(-782.000000, -209.000000)" fill="#A9C33E" fill-rule="nonzero">
            <g id="Group-25-Copy" transform="translate(717.000000, 190.000000)">
                <g id="Group-26" transform="translate(36.000000, 19.000000)">
                    <g id="Group-25" transform="translate(29.000000, 0.000000)">
                        <path d="M26.3342938,27.9977727 L1.60277474,27.9977727 C0.446590178,27.9977727 -0.0832114372,27.374115 0.0105785221,26.2225758 C0.26068508,24.3850131 1.26111131,21.6075093 4.91891972,20.4225599 C8.79557137,18.9257816 9.07694125,18.7698672 9.07694125,18.7698672 C9.07694125,18.7698672 9.98357752,17.2730889 10.3900007,17.1795402 C10.7964238,17.0859916 10.4525273,16.4935168 10.3900007,16.3376024 C10.327474,16.181688 9.79599761,16.3376024 9.79599761,14.1859836 C9.79599761,13.4687773 9.88978756,13.4375945 9.54589105,13.4375945 C9.20199453,13.4375945 8.38914822,12.936441 8.38914822,11.2236099 C8.38914822,9.51077878 8.38914822,9.41500278 8.70178141,9.38604725 C8.73304473,8.73120675 8.38914822,7.67098878 8.38914822,5.23872405 C8.38914822,2.83764219 10.327474,0.561291862 14.0165458,0.561291862 C15.0772656,0.561291862 15.9861349,0.0601384138 16.9865611,0 C17.1116144,0.311828812 17.2656979,0.841937793 17.4890074,0.966669318 C18.2705904,1.46782277 19.2710166,2.74409355 19.6461764,5.26990693 C19.6461764,7.67098878 19.2710166,8.76238963 19.3335432,9.41723013 C19.6461764,9.4795959 19.6461764,9.54196166 19.6461764,11.2547928 C19.6461764,12.9676239 18.8333301,13.4687773 18.4894336,13.4687773 C18.1455371,13.4687773 18.239327,13.5311431 18.239327,14.2171665 C18.239327,16.3687853 17.7078506,16.2128709 17.645324,16.3687853 C17.5827973,16.5246997 17.2389008,17.1171744 17.645324,17.2107231 C18.0517471,17.3042717 18.9583834,18.80105 18.9583834,18.80105 C18.9583834,18.80105 19.1772266,18.9569644 23.0538783,20.4225599 C26.7423917,21.6075093 27.7433762,24.4139687 27.9934828,26.2537587 C28.0560094,27.469891 27.6808496,28 26.3365269,28 L26.3342938,27.9977727 Z" id="Path-Copy" transform="translate(14.000000, 14.000000) scale(-1, 1) translate(-14.000000, -14.000000) "></path>
                    </g>
                </g>
            </g>
        </g>
    </g>
</svg>