<?xml version="1.0" encoding="UTF-8"?>
<svg width="40px" height="45px" viewBox="0 0 40 45" version="1.1" xmlns="http://www.w3.org/2000/svg" xmlns:xlink="http://www.w3.org/1999/xlink">
    <title>add_moderator_FILL0_wght400_GRAD0_opsz48-2</title>
    <g id="Mobile" stroke="none" stroke-width="1" fill="none" fill-rule="evenodd">
        <g id="LANDING-COMPLETO-Copy-5" transform="translate(-132.000000, -3555.000000)" fill="#7BDDAA" fill-rule="nonzero">
            <g id="add_moderator_FILL0_wght400_GRAD0_opsz48-2" transform="translate(132.000000, 3555.000000)">
                <path d="M17.7531207,45 C12.6490985,43.8014981 8.41423948,40.8707865 5.04854369,36.2078652 C1.6828479,31.5449438 0,26.1985019 0,20.1685393 L0,6.74157303 L17.7531207,0 L35.5062413,6.74157303 L35.5062413,21.9101124 C34.988442,21.6479401 34.433657,21.4138577 33.8418863,21.2078652 C33.2501156,21.0018727 32.6953306,20.8614232 32.1775312,20.7865169 L32.1775312,9.1011236 L17.7531207,3.70786517 L3.32871012,9.1011236 L3.32871012,20.1685393 C3.32871012,23.0149813 3.78178456,25.6367041 4.68793343,28.0337079 C5.59408229,30.4307116 6.74988442,32.5374532 8.15533981,34.3539326 C9.56079519,36.170412 11.1141933,37.6779026 12.815534,38.8764045 C14.5168747,40.0749064 16.1627369,40.9363296 17.7531207,41.4606742 C17.9750347,41.9101124 18.3079057,42.4157303 18.7517337,42.9775281 C19.1955617,43.5393258 19.5654184,43.9700375 19.8613037,44.2696629 C19.5284327,44.4569288 19.1770689,44.5973783 18.8072122,44.6910112 C18.4373555,44.7846442 18.0859917,44.8876404 17.7531207,45 Z M29.5423024,45 C26.6759131,45 24.2256126,43.9606742 22.1914008,41.8820225 C20.1571891,39.8033708 19.1400832,37.340824 19.1400832,34.494382 C19.1400832,31.5567416 20.1570042,29.0526592 22.190846,26.9821348 C24.2246879,24.9116479 26.6844198,23.8764045 29.5700416,23.8764045 C32.417938,23.8764045 34.8682386,24.9116479 36.9209431,26.9821348 C38.9736477,29.0526592 40,31.5567416 40,34.494382 C40,37.340824 38.9736477,39.8033708 36.9209431,41.8820225 C34.8682386,43.9606742 32.4086916,45 29.5423024,45 Z M28.7378641,41.6292135 L30.5686546,41.6292135 L30.5686546,35.4494382 L36.6712899,35.4494382 L36.6712899,33.5955056 L30.5686546,33.5955056 L30.5686546,27.4157303 L28.7378641,27.4157303 L28.7378641,33.5955056 L22.6352288,33.5955056 L22.6352288,35.4494382 L28.7378641,35.4494382 L28.7378641,41.6292135 Z" id="Shape"></path>
            </g>
        </g>
    </g>
</svg>