<?xml version="1.0" encoding="UTF-8"?>
<svg width="36px" height="45px" viewBox="0 0 36 45" version="1.1" xmlns="http://www.w3.org/2000/svg" xmlns:xlink="http://www.w3.org/1999/xlink">
    <title>shield_with_heart_FILL0_wght400_GRAD0_opsz48</title>
    <g id="Mobile" stroke="none" stroke-width="1" fill="none" fill-rule="evenodd">
        <g id="LANDING-COMPLETO-Copy-5" transform="translate(-134.000000, -3454.000000)" fill="#7BDDAA" fill-rule="nonzero">
            <g id="shield_with_heart_FILL0_wght400_GRAD0_opsz48" transform="translate(134.000000, 3454.000000)">
                <path d="M18,30.54375 C21.3375,27.50625 23.484375,25.378125 24.440625,24.159375 C25.396875,22.940625 25.875,21.7125 25.875,20.475 C25.875,19.275 25.453125,18.253125 24.609375,17.409375 C23.765625,16.565625 22.74375,16.14375 21.54375,16.14375 C20.83125,16.14375 20.165625,16.284375 19.546875,16.565625 C18.928125,16.846875 18.4125,17.23125 18,17.71875 C17.5875,17.23125 17.071875,16.846875 16.453125,16.565625 C15.834375,16.284375 15.16875,16.14375 14.45625,16.14375 C13.25625,16.14375 12.234375,16.565625 11.390625,17.409375 C10.546875,18.253125 10.125,19.275 10.125,20.475 C10.125,21.075 10.209375,21.646875 10.378125,22.190625 C10.546875,22.734375 10.9125,23.3625 11.475,24.075 C12.0375,24.7875 12.834375,25.65 13.865625,26.6625 C14.896875,27.675 16.275,28.96875 18,30.54375 Z M18,45 C12.75,43.6875 8.4375,40.640625 5.0625,35.859375 C1.6875,31.078125 0,25.8375 0,20.1375 L0,6.75 L18,0 L36,6.75 L36,20.1375 C36,25.8375 34.3125,31.078125 30.9375,35.859375 C27.5625,40.640625 23.25,43.6875 18,45 Z M18,41.5125 C22.3125,40.0875 25.828125,37.396875 28.546875,33.440625 C31.265625,29.484375 32.625,25.05 32.625,20.1375 L32.625,9.1125 L18,3.6 L3.375,9.1125 L3.375,20.1375 C3.375,25.05 4.734375,29.484375 7.453125,33.440625 C10.171875,37.396875 13.6875,40.0875 18,41.5125 Z" id="Shape"></path>
            </g>
        </g>
    </g>
</svg>