<svg width="48" height="48" viewBox="0 0 48 48" fill="none" xmlns="http://www.w3.org/2000/svg">
<g clip-path="url(#clip0_838_2181)">
<path d="M18 19.5C18 17.8434 16.6566 16.5 15 16.5H13.5C10.1859 16.5 7.5 19.1859 7.5 22.5V27C7.5 30.3141 10.1859 33 13.5 33H15C16.6566 33 18 31.6566 18 30V19.5ZM34.5 33C37.8141 33 40.5 30.3141 40.5 27V22.5C40.5 19.1859 37.8141 16.5 34.5 16.5H33C31.3434 16.5 30 17.8434 30 19.5V30C30 31.6566 31.3434 33 33 33H34.5ZM24 0C10.6106 0 0.429375 11.1403 0 24V25.5C0 26.3288 0.67125 27 1.5 27H3C3.82875 27 4.5 26.3288 4.5 25.5V24C4.5 13.2478 13.2478 4.5 24 4.5C34.7522 4.5 43.5 13.2478 43.5 24H43.4888C43.4963 24.2278 43.5 39.5363 43.5 39.5363C43.5 41.7253 41.7253 43.5 39.5363 43.5H30C30 41.0147 27.9853 39 25.5 39H22.5C20.0147 39 18 41.0147 18 43.5C18 45.9853 20.0147 48 22.5 48H39.5363C44.2106 48 48 44.2106 48 39.5363V24C47.5706 11.1403 37.3894 0 24 0Z" fill="#274470"/>
</g>
<defs>
<clipPath id="clip0_838_2181">
<rect width="48" height="48" fill="white"/>
</clipPath>
</defs>
</svg>
