<svg width="48" height="48" viewBox="0 0 48 48" fill="none" xmlns="http://www.w3.org/2000/svg">
<path d="M37.5 6H30C30 2.69063 27.3094 0 24 0C20.6906 0 18 2.69063 18 6H10.5C8.01562 6 6 8.01562 6 10.5V43.5C6 45.9844 8.01562 48 10.5 48H37.5C39.9844 48 42 45.9844 42 43.5V10.5C42 8.01562 39.9844 6 37.5 6ZM15 39.75C13.7531 39.75 12.75 38.7469 12.75 37.5C12.75 36.2531 13.7531 35.25 15 35.25C16.2469 35.25 17.25 36.2531 17.25 37.5C17.25 38.7469 16.2469 39.75 15 39.75ZM15 30.75C13.7531 30.75 12.75 29.7469 12.75 28.5C12.75 27.2531 13.7531 26.25 15 26.25C16.2469 26.25 17.25 27.2531 17.25 28.5C17.25 29.7469 16.2469 30.75 15 30.75ZM15 21.75C13.7531 21.75 12.75 20.7469 12.75 19.5C12.75 18.2531 13.7531 17.25 15 17.25C16.2469 17.25 17.25 18.2531 17.25 19.5C17.25 20.7469 16.2469 21.75 15 21.75ZM24 3.75C25.2469 3.75 26.25 4.75313 26.25 6C26.25 7.24687 25.2469 8.25 24 8.25C22.7531 8.25 21.75 7.24687 21.75 6C21.75 4.75313 22.7531 3.75 24 3.75ZM36 38.25C36 38.6625 35.6625 39 35.25 39H21.75C21.3375 39 21 38.6625 21 38.25V36.75C21 36.3375 21.3375 36 21.75 36H35.25C35.6625 36 36 36.3375 36 36.75V38.25ZM36 29.25C36 29.6625 35.6625 30 35.25 30H21.75C21.3375 30 21 29.6625 21 29.25V27.75C21 27.3375 21.3375 27 21.75 27H35.25C35.6625 27 36 27.3375 36 27.75V29.25ZM36 20.25C36 20.6625 35.6625 21 35.25 21H21.75C21.3375 21 21 20.6625 21 20.25V18.75C21 18.3375 21.3375 18 21.75 18H35.25C35.6625 18 36 18.3375 36 18.75V20.25Z" fill="#274470"/>
</svg>
