<svg width="125" height="54" viewBox="0 0 125 54" fill="none" xmlns="http://www.w3.org/2000/svg">
<path d="M42.9954 40.7519H35.3131V0H42.9954V40.7519Z" fill="#173478"/>
<path d="M48.9261 40.756V11.255H56.6369V40.756H48.9261Z" fill="#173478"/>
<path d="M22.3204 11.7517V13.0199C20.1556 11.8192 17.6575 11.1359 14.9999 11.1359C6.71378 11.1359 0 17.7666 0 25.9468C0 34.127 6.71378 40.755 14.9999 40.755L29.8659 40.6509H29.8944V40.6453L29.9998 40.6509V11.7517H22.3204ZM6.93026 26.1184C6.93026 21.6275 10.6247 17.9803 15.1765 17.9803C18.23 17.9803 20.8962 19.6226 22.3204 22.0606C23.0211 23.2557 23.4199 24.642 23.4199 26.1184V34.2592H15.1765C10.6247 34.2592 6.93026 30.612 6.93026 26.1184Z" fill="#173478"/>
<path d="M83.9592 13.1597C81.7288 11.8802 79.1481 11.1378 76.3738 11.1378C74.4938 11.1378 72.7164 11.464 71.07 12.0911C65.4044 14.2029 61.3767 19.6076 61.3767 25.946C61.3767 34.1177 68.0876 40.7541 76.3766 40.7541H78.6981C80.937 40.7653 82.7657 40.7541 84.4035 40.695C83.7 45.6948 78.5357 46.4484 74.1263 46.4484C72.1866 46.4484 70.1186 46.1813 68.2585 45.7539L66.803 52.1794C69.0533 52.7839 71.7564 53.1917 74.6391 53.1917C83.2698 53.1917 90.784 49.0861 91.3452 40.7541C91.3566 40.4279 91.3765 40.0989 91.3765 39.753V25.9488C91.3765 20.4934 88.4027 15.7439 83.962 13.1653L83.9592 13.1597ZM78.0316 34.2555H76.5561C71.9957 34.2555 68.3184 30.6167 68.3184 26.1231C68.3184 23.941 69.1729 21.9669 70.5886 20.5187C72.0869 18.9524 74.1947 17.9907 76.5561 17.9907C81.1079 17.9907 84.7938 21.6211 84.7938 26.1231V34.2555H78.0316Z" fill="#173478"/>
<path d="M110.401 11.2471C107.618 11.2358 105.046 11.9923 102.807 13.2689C98.3776 15.8476 95.4038 20.5971 95.4038 26.0524V26.6485C95.4038 33.8586 100.537 39.1452 107.951 40.8605C109.64 41.2486 111.446 41.4567 113.346 41.4567C116.591 41.4567 119.644 40.793 122.156 39.7695V39.6795L120.82 33.7574C118.479 34.6684 116.149 35.1662 113.275 35.1859C109.427 35.2055 104.334 33.4115 103.348 29.3144H124.786C124.797 28.5214 124.945 26.7357 124.988 25.7234C125.278 18.5218 120.356 11.2527 110.401 11.2443V11.2471ZM102.756 23.9518C103.078 22.5036 103.801 21.2157 104.815 20.1837C106.302 18.6258 108.421 17.7147 110.771 17.6557C114.881 17.5573 118.186 20.0768 118.869 23.9546H102.756V23.9518Z" fill="#173478"/>
<path d="M49.1276 0C49.1276 2.04716 49.9707 3.90309 51.3266 5.24443C52.6882 6.58577 54.5653 7.41532 56.639 7.41532V0H49.1248H49.1276Z" fill="#CAE577"/>
</svg>
