<svg width="95" height="40" viewBox="0 0 95 40" fill="none" xmlns="http://www.w3.org/2000/svg">
<g id="Logo">
<path id="Vector" d="M83.0611 8.46085C80.9673 8.4524 79.0322 9.02126 77.3478 9.98134C74.0154 11.9205 71.7781 15.4923 71.7781 19.5949V20.0432C71.7781 25.4654 75.6398 29.441 81.2181 30.731C82.4889 31.0229 83.8475 31.1793 85.2769 31.1793C87.7178 31.1793 90.0151 30.6803 91.9053 29.9105V29.8428L90.9002 25.3892C89.1387 26.0744 87.3857 26.4487 85.2234 26.4635C82.3281 26.4783 78.4964 25.1291 77.7549 22.048H93.8833C93.8919 21.4516 94.0033 20.1088 94.0354 19.3475C94.254 13.9316 90.5509 8.46508 83.0611 8.45874V8.46085ZM77.3092 18.0152C77.5514 16.9261 78.0957 15.9576 78.8586 15.1815C79.9773 14.0099 81.5717 13.3247 83.3397 13.2803C86.432 13.2063 88.9179 15.1011 89.4323 18.0173H77.3092V18.0152Z" fill="white"/>
<path id="Vector_2" d="M63.1677 9.89451C61.4897 8.93231 59.5481 8.37402 57.4608 8.37402C56.0464 8.37402 54.7092 8.61933 53.4705 9.09092C49.2081 10.6791 46.1779 14.7436 46.1779 19.5102C46.1779 25.6556 51.2268 30.6463 57.463 30.6463H59.2095C60.894 30.6548 62.2698 30.6463 63.502 30.6019C62.9727 34.3619 59.0874 34.9286 55.77 34.9286C54.3106 34.9286 52.7548 34.7277 51.3554 34.4063L50.2603 39.2384C51.9533 39.6931 53.987 39.9997 56.1557 39.9997C62.6491 39.9997 68.3024 36.9122 68.7245 30.6463C68.7331 30.401 68.7481 30.1536 68.7481 29.8935V19.5123C68.7481 15.4097 66.5108 11.8379 63.1698 9.89874L63.1677 9.89451ZM58.7081 25.7592H57.598C54.167 25.7592 51.4004 23.0227 51.4004 19.6434C51.4004 18.0024 52.0433 16.5178 53.1084 15.4287C54.2356 14.2508 55.8214 13.5276 57.598 13.5276C61.0225 13.5276 63.7956 16.2577 63.7956 19.6434V25.7592H58.7081Z" fill="white"/>
<path id="Vector_3" d="M36.9591 0C36.9591 1.53952 37.5934 2.93524 38.6135 3.94396C39.6378 4.95268 41.0501 5.57653 42.6102 5.57653V0H36.9569H36.9591Z" fill="#57b1e3"/>
<path id="Vector_4" d="M36.8108 30.6472V8.46167H42.6119V30.6472H36.8108Z" fill="white"/>
<path id="Vector_5" d="M32.3488 30.6466H26.5691V0H32.3488V30.6466Z" fill="white"/>
<path id="Vector_6" d="M16.7927 8.83544V9.78918C15.164 8.88619 13.2846 8.37231 11.2851 8.37231C5.05109 8.37231 0 13.3588 0 19.5106C0 25.6623 5.05109 30.6467 11.2851 30.6467L22.4695 30.5685H22.491V30.5642L22.5703 30.5685V8.83544H16.7927ZM5.21396 19.6396C5.21396 16.2624 7.99345 13.5196 11.418 13.5196C13.7153 13.5196 15.7212 14.7546 16.7927 16.588C17.3199 17.4868 17.6199 18.5293 17.6199 19.6396V25.7617H11.418C7.99345 25.7617 5.21396 23.0189 5.21396 19.6396Z" fill="white"/>
</g>
</svg>
