<svg xmlns="http://www.w3.org/2000/svg" width="32" height="32" viewBox="0 0 32 32" aria-hidden="true">
  <rect x="1" y="4" width="30" height="24" rx="4" ry="4" fill="#fff"/>
  <path d="M1.638 5.846H30.362C29.651 4.738 28.415 4 27 4H5C3.586 4 2.35 4.738 1.638 5.846ZM2.03 7.692C2.022 7.795 2 7.894 2 8v1.539h29V8c0-.105-.022-.204-.03-.308H2.03Z" fill="#a62842"/>
  <path fill="#a62842" d="M2 11.385h29v1.846H2zM2 15.077h29v1.846H2zM1 18.769h30v1.846H1z"/>
  <path d="M1 24c0 .105.023.204.031.308h29.938C30.977 24.205 31 24.106 31 24v-1.539H1V24ZM30.362 26.154H1.638C2.349 27.262 3.585 28 5 28h22c1.414 0 2.65-.738 3.362-1.846Z" fill="#a62842"/>
  <path d="M5 4h11v12.923H1V8c0-2.208 1.792-4 4-4Z" fill="#102d5e"/>
  <g fill="#fff"><path d="m4.601 7.463.592-.43h-.731l-.226-.695-.226.695h-.731l.591.43-.226.695.592-.429.591.429-.226-.695zM7.58 7.463l.592-.43h-.731l-.226-.695-.226.695h-.731l.591.43-.226.695.592-.429.591.429-.226-.695zM10.56 7.463l.591-.43h-.731l-.226-.695-.226.695h-.731l.591.43-.225.695.591-.429.591.429-.226-.695zM13.539 7.463l.591-.43h-.731l-.226-.695-.226.695h-.731l.592.43-.226.695.591-.429.592.429-.226-.695zM6.066 9.283l.592-.429h-.731l-.226-.696-.226.696h-.731l.591.429-.226.696.592-.43.591.43-.226-.696zM9.046 9.283l.591-.429h-.731L8.68 8.158l-.226.696h-.731l.591.429-.225.696.591-.43.591.43-.226-.696zM12.025 9.283l.591-.429h-.731l-.226-.696-.226.696h-.731l.592.429-.226.696.591-.43.592.43-.226-.696z"/></g>
  <path d="M27 4H5C2.791 4 1 5.791 1 8v16c0 2.209 1.791 4 4 4h22c2.209 0 4-1.791 4-4V8c0-2.209-1.791-4-4-4Zm3 20c0 1.654-1.346 3-3 3H5c-1.654 0-3-1.346-3-3V8c0-1.654 1.346-3 3-3h22c1.654 0 3 1.346 3 3v16Z" opacity=".15"/>
</svg>
