<?xml version="1.0" encoding="UTF-8"?>
<svg width="60px" height="60px" viewBox="0 0 60 60" version="1.1" xmlns="http://www.w3.org/2000/svg" xmlns:xlink="http://www.w3.org/1999/xlink">
    <!-- Generator: Sketch 58 (84663) - https://sketch.com -->
    <title>icn-error</title>
    <desc>Created with Sketch.</desc>
    <g id="iconos-/-gráficos" stroke="none" stroke-width="1" fill="none" fill-rule="evenodd">
        <g id="icn-error" fill-rule="nonzero">
            <path d="M58.2421875,45.7145691 L1.7578125,45.7145691 C0.786895781,45.7145691 0,44.9276733 0,43.9567566 L0,1.7578125 C0,0.786895781 0.786895781,0 1.7578125,0 L58.2421875,0 C59.2131042,0 60,0.786895781 60,1.7578125 L60,43.9567566 C60,44.9276733 59.2131042,45.7145691 58.2421875,45.7145691 Z" id="Path" fill="#E7EAEE"></path>
            <path d="M58.2421875,0 L29.9995423,0 L29.9995423,45.7145691 L58.2421875,45.7145691 C59.2131042,45.7145691 60,44.9276733 60,43.9567566 L60,1.7578125 C60,0.786895781 59.2131042,0 58.2421875,0 Z" id="Path" fill="#D5DAE0"></path>
            <path d="M58.2421875,0 L1.7578125,0 C0.786895781,0 0,0.786895781 0,1.7578125 L0,8.79089355 L60,8.79089355 L60,1.7578125 C60,0.786895781 59.2131042,0 58.2421875,0 Z" id="Path" fill="#0E0EC1"></path>
            <path d="M58.2421875,0 L29.9995423,0 L29.9995423,8.79089355 L60,8.79089355 L60,1.7578125 C60,0.786895781 59.2131042,0 58.2421875,0 Z" id="Path" fill="#00008F"></path>
            <path d="M45.9384155,60 C45.4724121,60 45.025177,59.8146057 44.6955872,59.4850159 L39.8968506,54.6853638 L37.8433228,56.7398072 C37.4221802,57.1609498 36.816101,57.3403931 36.2333679,57.2158814 C35.6506348,57.0913697 35.1704407,56.6807556 34.9580384,56.124115 L27.8091431,37.4052429 C27.5619506,36.7575073 27.7180481,36.0250854 28.208313,35.5352783 C28.6985779,35.0450134 29.4309997,34.888916 30.0787354,35.1361084 L48.7930298,42.2868347 C49.3492126,42.4996948 49.7602845,42.9794311 49.8843384,43.5621643 C50.0088502,44.1448975 49.8298645,44.7505188 49.4082642,45.1716614 L47.3547363,47.2261048 L52.1539307,52.0262146 C52.8401184,52.7128601 52.8401184,53.8252259 52.1539307,54.5118714 L47.1817017,59.4850159 C46.8521119,59.8146057 46.4048767,60 45.9384155,60 L45.9384155,60 Z" id="Path" fill="#5A6366"></path>
            <g id="Group" transform="translate(7.617188, 14.414062)">
                <path d="M20.1919556,22.9911804 L27.3408509,41.7100525 C27.5532532,42.2666931 28.0334473,42.6773072 28.6161804,42.8018189 C29.1989135,42.9263306 29.8049927,42.7468873 30.2261353,42.3257447 L32.2796631,40.2713013 L37.0783997,45.0709534 C37.4079895,45.4005432 37.8552246,45.5859375 38.321228,45.5859375 C38.7876892,45.5859375 39.2349244,45.4005432 39.5640564,45.0709534 L42.0524597,42.5820923 L20.5911255,21.1212158 C20.1008606,21.6110229 19.9443054,22.3434448 20.1919556,22.9911804 L20.1919556,22.9911804 Z" id="Path" fill="#4E5156"></path>
                <path d="M2.47192383,4.7337341 L4.75708008,4.7337341 C5.21392828,4.7337341 5.47302246,5.17547602 5.47302246,5.66299441 C5.47302246,6.07452398 5.25970453,6.56204227 4.75708008,6.56204227 L2.47192383,6.56204227 L2.47192383,9.15206906 L6.55471805,9.15206906 C7.01156613,9.15206906 7.27066043,9.63958734 7.27066043,10.2030945 C7.27066043,10.6906127 7.0573425,11.2239075 6.55471805,11.2239075 L1.13113406,11.2239075 C0.612945586,11.2239075 0.0952148438,10.9803772 0.0952148438,10.4928588 L0.0952148438,0.818481445 C0.0952148438,0.330963164 0.612945586,0.0874328906 1.13113406,0.0874328906 L6.55471805,0.0874328906 C7.0573425,0.0874328906 7.27066043,0.620727539 7.27066043,1.10778809 C7.27066043,1.67175293 7.01156613,2.15927121 6.55471805,2.15927121 L2.47192383,2.15927121 L2.47192383,4.7337341 Z" id="Path" fill="#FFFFFF"></path>
                <path d="M8.91540527,0.803375273 C8.91540527,0.422515898 9.20516965,0.0869751562 9.64691156,0.0869751562 L12.8004456,0.0869751562 C14.8878479,0.0869751562 16.5481568,0.864257813 16.5481568,3.3476257 C16.5481568,5.05371094 15.7713318,6.0287475 14.7047425,6.44027707 L16.5637207,9.80712891 C16.6246032,9.89822391 16.6397095,10.0053405 16.6397095,10.0813294 C16.6397095,10.6755066 15.8473206,11.3154602 15.1464844,11.3154602 C14.8416138,11.3154602 14.5523072,11.1932373 14.3847656,10.8732605 L12.2973633,6.82113645 L11.2921143,6.82113645 L11.2921143,10.4924011 C11.2921143,10.9799194 10.697937,11.2239075 10.1037598,11.2239075 C9.50958258,11.2239075 8.91540527,10.9799194 8.91540527,10.4924011 L8.91540527,0.803375273 Z M11.2921143,2.15927121 L11.2921143,4.9928284 L12.8004456,4.9928284 C13.6537171,4.9928284 14.1714478,4.64218137 14.1714478,3.5760498 C14.1714478,2.50946039 13.6537171,2.15927121 12.8004456,2.15927121 L11.2921143,2.15927121 Z" id="Shape" fill="#FFFFFF"></path>
                <path d="M18.4217835,0.803375273 C18.4217835,0.422515898 18.7115479,0.0869751562 19.1532898,0.0869751562 L22.3068237,0.0869751562 C24.3937683,0.0869751562 26.0545349,0.864257813 26.0545349,3.3476257 C26.0545349,5.05371094 25.2772522,6.0287475 24.2111205,6.44027707 L26.0696412,9.80712891 C26.1305237,9.89822391 26.1456299,10.0053405 26.1456299,10.0813294 C26.1456299,10.6755066 25.3536987,11.3154602 24.6528626,11.3154602 C24.3479919,11.3154602 24.0586853,11.1932373 23.8911438,10.8732605 L21.8037415,6.82113645 L20.7984925,6.82113645 L20.7984925,10.4924011 C20.7984925,10.9799194 20.2043152,11.2239075 19.610138,11.2239075 C19.0159607,11.2239075 18.4217835,10.9799194 18.4217835,10.4924011 L18.4217835,0.803375273 Z M20.7984925,2.15927121 L20.7984925,4.9928284 L22.3068237,4.9928284 C23.1600952,4.9928284 23.6778259,4.64218137 23.6778259,3.5760498 C23.6778259,2.50946039 23.1600952,2.15927121 22.3068237,2.15927121 L20.7984925,2.15927121 Z" id="Shape" fill="#FFFFFF"></path>
            </g>
            <path d="M31.828308,20.8538818 C32.8948975,20.44281 33.6717224,19.4677734 33.6717224,17.7612305 C33.6717224,15.2778626 32.0109558,14.5010377 29.9240112,14.5010377 L29.8553467,14.5010377 L29.8553467,16.5733337 L29.9240112,16.5733337 C30.7772827,16.5733337 31.2950134,16.9235229 31.2950134,17.9901123 C31.2950134,19.0562439 30.7772827,19.4068909 29.9240112,19.4068909 L29.8553467,19.4068909 L29.8553467,22.077942 L31.5083313,25.287323 C31.6763306,25.6072998 31.9656373,25.729065 32.2700501,25.729065 C32.9708862,25.729065 33.7632751,25.0895691 33.7632751,24.4953919 C33.7632751,24.4189453 33.7481689,24.3122864 33.6872864,24.2211914 L31.828308,20.8538818 Z" id="Path" fill="#F2F2F2"></path>
            <path d="M35.4231263,22.1337891 L35.4231263,18.0967712 C35.4231263,15.4760742 37.0532227,14.5010377 39.1557312,14.5010377 C41.2582397,14.5010377 42.9034424,15.4760742 42.9034424,18.0967712 L42.9034424,22.1337891 C42.9034424,24.7540283 41.2582397,25.7295227 39.1557312,25.7295227 C37.0536804,25.7295227 35.4231263,24.7540283 35.4231263,22.1337891 Z M40.5271911,18.0967712 C40.5271911,17.0452881 40.0090027,16.5733337 39.1557312,16.5733337 C38.3029174,16.5733337 37.7998352,17.0452881 37.7998352,18.0967712 L37.7998352,22.1337891 C37.7998352,23.1852722 38.3029174,23.6572266 39.1557312,23.6572266 C40.0090027,23.6572266 40.5271911,23.1852722 40.5271911,22.1337891 L40.5271911,18.0967712 Z" id="Shape" fill="#F2F2F2"></path>
            <path d="M45.0361634,15.2174378 C45.0361634,14.8365784 45.32547,14.5010377 45.7676696,14.5010377 L48.9212037,14.5010377 C51.0081482,14.5010377 52.6689148,15.2783203 52.6689148,17.7616882 C52.6689148,19.4677734 51.8916321,20.44281 50.8255005,20.8543396 L52.6840209,24.2211914 C52.7449036,24.3122864 52.7600098,24.419403 52.7600098,24.4953919 C52.7600098,25.0895691 51.9680787,25.7295227 51.2672425,25.7295227 C50.9623718,25.7295227 50.6730652,25.6072998 50.5055237,25.287323 L48.4181214,21.2351989 L47.4128723,21.2351989 L47.4128723,24.9064636 C47.4128723,25.3939819 46.818695,25.63797 46.22406,25.63797 C45.6303405,25.63797 45.0361634,25.3939819 45.0361634,24.9064636 L45.0361634,15.2174378 Z M47.4128723,16.5733337 L47.4128723,19.4068909 L48.9212037,19.4068909 C49.7740173,19.4068909 50.2922058,19.0562439 50.2922058,17.9901123 C50.2922058,16.9235229 49.7740173,16.5733337 48.9212037,16.5733337 L47.4128723,16.5733337 Z" id="Shape" fill="#F2F2F2"></path>
            <path d="M14.0885925,34.2306518 L15.6161498,32.7030945 C16.3023376,32.0169068 16.3023376,30.9036255 15.6161498,30.2169799 C14.9295045,29.5307923 13.8166809,29.5307923 13.1300354,30.2169799 L11.6029358,31.7445374 L10.0753784,30.2169799 C9.38873297,29.5307923 8.27590945,29.5307923 7.58926395,30.2169799 C6.90307617,30.9036255 6.90307617,32.0164489 7.58926395,32.7030945 L9.11682129,34.2306518 L7.58926395,35.7577514 C6.90307617,36.444397 6.90307617,37.5572204 7.58926395,38.2438659 C7.93258664,38.5871887 8.38256836,38.7583923 8.83209234,38.7583923 C9.28207395,38.7583923 9.73205566,38.586731 10.0753784,38.2438659 L11.602478,36.7163086 L13.1300354,38.2438659 C13.4733581,38.5871887 13.9228821,38.7583923 14.3728638,38.7583923 C14.8228454,38.7583923 15.2728271,38.586731 15.6156921,38.2438659 C16.3023376,37.5572204 16.3023376,36.444397 15.6156921,35.7577514 L14.0885925,34.2306518 Z" id="Path" fill="#F07662"></path>
        </g>
    </g>
</svg>