<?xml version="1.0" encoding="UTF-8"?>
<svg width="80px" height="80px" viewBox="0 0 80 80" version="1.1" xmlns="http://www.w3.org/2000/svg" xmlns:xlink="http://www.w3.org/1999/xlink">
    <title>3729CF74-DA75-4A6B-A490-12E8B84A8242@2x</title>
    <defs>
        <polygon id="path-1" points="0 40 59 40 59 0 0 0"></polygon>
    </defs>
    <g id="Landing-Agente-+-multicotizador.-v4" stroke="none" stroke-width="1" fill="none" fill-rule="evenodd">
        <g id="popup-CRMl-externo-Pago-no-generado" transform="translate(-183.000000, -36.000000)">
            <g id="Group-2" transform="translate(183.141649, 36.049319)">
                <path d="M64.9935484,8.2190681 C49.126595,8.2190681 38.2305376,0 30.5849462,0 C22.9393548,0 6.88200717,4.39512545 6.88200717,39.5675986 C6.88200717,74.7400717 28.4837276,79.901362 36.89319,79.901362 C76.2726882,79.9036559 93.0939068,8.2190681 64.9935484,8.2190681 Z" id="Path" fill="#EFEFEF" fill-rule="nonzero"></path>
                <g id="Group-15" transform="translate(9.858351, 21.950681)">
                    <path d="M59,33.9355113 C59,37.2847013 56.2672342,40 52.8961959,40 L6.1035006,40 C2.73276576,40 0,37.2847013 0,33.9355113 L0,7.06448869 C0,3.71529867 2.73276576,1 6.1035006,1 L52.8961959,1 C56.2672342,1 59,3.71529867 59,7.06448869 L59,33.9355113 Z" id="Fill-1" fill="#FFFFFF"></path>
                    <path d="M29.9096146,11.1126384 C31.302395,15.1927199 34.8797034,18.527527 38.5672552,20.6018741 C40.5598891,21.7227431 42.8920961,22.2453224 45.1355779,22.5898639 C47.5167164,22.955699 49.942365,23.0920369 52.3476746,22.9367714 C53.2257894,22.8799886 54.1071467,22.7897867 54.9843773,22.6629126 C54.9938099,22.5617682 55,22.4597366 55,22.356522 L55,7.38005591 C55,5.51332104 53.4916705,4 51.630798,4 L29.1709252,4 C28.7255302,6.35648661 29.2136666,9.07437216 29.9096146,11.1126384" id="Fill-3" fill="#F3F3F1"></path>
                    <path d="M53.7982937,36.0262672 C45.1508227,36.4041291 34.8668495,35.6155345 27.4216941,30.8239552 C20.4844607,26.3598763 14.1937843,20.3490663 12.055454,12.2272956 C11.1563071,8.80995167 10.6075564,4.70624396 11.2562462,1 L6.12705667,1 C2.74344912,1 0,3.7149971 0,7.06418713 L0,33.9352097 C0,37.2847013 2.74344912,40 6.12705667,40 L53.1026813,40 C55.9162096,40 58.2806216,38.1209434 59,35.5639668 C57.2684339,35.7979818 55.5289458,35.9508757 53.7982937,36.0262672" id="Fill-5" fill="#D5DBE1"></path>
                    <path d="M59,33.9355113 C59,37.2847013 56.2672342,40 52.8961959,40 L6.1035006,40 C2.73276576,40 0,37.2847013 0,33.9355113 L0,7.06448869 C0,3.71529867 2.73276576,1 6.1035006,1 L52.8961959,1 C56.2672342,1 59,3.71529867 59,7.06448869 L59,33.9355113 Z" id="Stroke-7" stroke="#4E455C" stroke-width="3"></path>
                    <mask id="mask-2" fill="white">
                        <use xlink:href="#path-1"></use>
                    </mask>
                    <g id="Clip-10"></g>
                    <polygon id="Fill-9" fill="#4E455C" mask="url(#mask-2)" points="4 23 40 23 40 19 4 19"></polygon>
                    <line x1="4" y1="27" x2="45" y2="27" id="Stroke-11" stroke="#006FFF" stroke-width="3.294" mask="url(#mask-2)"></line>
                    <line x1="4" y1="32" x2="21" y2="32" id="Stroke-13" stroke="#006FFF" stroke-width="3.294" mask="url(#mask-2)"></line>
                    <polygon id="Fill-14" fill="#006FFF" mask="url(#mask-2)" points="1.46800995 17 57.4916229 17 57.4916229 9 1.46800995 9"></polygon>
                </g>
                <g id="Group" transform="translate(0.000000, 15.033373)" fill="#A4AFC1" fill-rule="nonzero">
                    <polygon id="Path" transform="translate(11.759713, 2.433782) rotate(-45.000000) translate(-11.759713, -2.433782) " points="9.46615286 1.28700216 14.0532737 1.28700216 14.0532737 3.58056257 9.46615286 3.58056257"></polygon>
                    <polygon id="Path" transform="translate(2.432688, 11.759257) rotate(-45.000000) translate(-2.432688, -11.759257) " points="0.139127768 10.6124766 4.72624858 10.6124766 4.72624858 12.906037 0.139127768 12.906037"></polygon>
                    <polygon id="Path" transform="translate(2.839804, 2.432688) rotate(-45.000000) translate(-2.839804, -2.432688) " points="1.69302367 0.139127768 3.98658407 0.139127768 3.98658407 4.72624858 1.69302367 4.72624858"></polygon>
                </g>
                <path d="M14.3263612,30.950681 L24.2094827,30.950681 C24.4954327,32.5011497 24.8783889,33.927673 25.3583513,35.2302509 C25.8383136,36.5328288 26.3209033,37.7729721 26.8061204,38.950681 L14.3263612,38.950681 L14.3263612,30.950681 Z" id="Rectangle" fill="#0C60CE"></path>
                <text id="!" fill="#FD2D57" fill-rule="nonzero" font-family="SourceSansPro-SemiBold, Source Sans Pro" font-size="29.5951841" font-weight="500">
                    <tspan x="69.8583513" y="44.950681">!</tspan>
                </text>
            </g>
        </g>
    </g>
</svg>