<?xml version="1.0" encoding="UTF-8"?>
<svg width="114px" height="116px" viewBox="0 0 114 116" version="1.1" xmlns="http://www.w3.org/2000/svg" xmlns:xlink="http://www.w3.org/1999/xlink">
    <title>img-error</title>
    <g id="Moodboard" stroke="none" stroke-width="1" fill="none" fill-rule="evenodd">
        <g id="Modal-Error-Cotización" transform="translate(-662.000000, -384.000000)" fill-rule="nonzero">
            <g id="Group-35" transform="translate(488.000000, 385.000000)">
                <g id="img-error" transform="translate(175.000000, 0.000000)">
                    <path d="M108,112.5 C108,111.119268 84.7201917,110 56,110 C27.2810539,110 4,111.119268 4,112.5 C4,113.880732 27.2810539,115 56,115 C84.7201917,115 108,113.880732 108,112.5" id="Fill-9" fill="#0A357C" opacity="0.4"></path>
                    <path d="M89,112.5 C89,111.119268 74.6727414,110 57,110 C39.3272586,110 25,111.119268 25,112.5 C25,113.880732 39.3272586,115 57,115 C74.6727414,115 89,113.880732 89,112.5" id="Fill-11" fill="#0A357C" opacity="0.6"></path>
                    <g id="Page-1">
                        <path d="M70.0240117,55.0969879 C72.2089116,53.8810306 75.129287,51.6063051 78.0837452,47.3802664 C74.0547753,47.992762 70.8294468,51.1076361 70.0240117,55.0969879" id="Fill-1" fill="#0A357C" opacity="0.498169672"></path>
                        <path d="M88.873348,59.7295502 C86.7045926,62.3764705 84.3582468,64.6530027 81.854043,66.5446925 C85.2336419,65.7099641 87.9226116,63.084725 88.873348,59.7295502" id="Fill-3" fill="#0A357C" opacity="0.498169672"></path>
                        <path d="M58.500548,18.52233 C59.3615924,16.4897119 60.5491159,14.6829405 62.084645,13.1236965 C65.5575237,9.5968784 69.7874039,7.56968068 74.894473,6.16220562 C75.2263338,13.0857543 74.3778464,19.2757538 70.1049139,24.4973236 C66.9459577,28.3547809 60.43431,31.8906329 56.6223952,31.9068939 C56.5470538,31.6394917 56.4035463,31.3630556 56.3927832,31.083006 C56.2259559,26.741334 56.7999855,22.5315561 58.500548,18.52233 M24.6615064,106.951152 C31.9552693,110.25935 39.4302102,110.951344 47.0970924,108.42367 C47.6352451,108.246607 48.1895423,108.112906 48.7348704,107.95933 C48.7904795,108.161688 48.8407071,108.248414 48.8299441,108.322491 C48.7976548,108.517623 48.7294889,108.705527 48.6864367,108.898851 C48.4048034,110.19792 48.4909079,110.645999 49.1456603,110.963991 C50.071283,111.410264 50.571765,110.767053 51.0865977,110.13649 C51.3520864,109.811271 51.6803595,109.543869 52.0965309,109.135538 C52.2992351,109.977494 52.3404935,110.60625 52.6059822,111.112146 C52.8033047,111.491568 53.2517654,111.867377 53.6517922,111.966749 C54.2814308,112.125745 54.7478298,111.695734 54.984617,111.077818 C55.2052597,110.499651 54.9379771,109.751647 55.5030374,109.077722 C56.0896239,109.746227 56.5057953,110.282838 56.988339,110.747179 C57.3542828,111.097692 57.8188879,111.253075 58.3247514,110.985672 C58.9059563,110.678521 59.2037342,110.206954 59.069196,109.529415 C58.9866793,109.088562 58.8359965,108.663971 58.715809,108.252027 C58.9938546,108.141814 59.0925159,108.062316 59.160682,108.080384 C59.8172283,108.261061 60.4719807,108.452579 61.1231455,108.651324 C66.2642975,110.214181 71.4395327,110.349689 76.6614076,109.083142 C84.7157597,107.130022 91.2722533,102.656455 96.5461498,96.2189284 C104.55745,86.4424873 108.094907,75.0381451 107.427597,62.3022122 C107.113675,56.300117 105.655281,50.5762646 102.838949,45.3528881 L102.39587,45.5913818 C101.811077,45.9400888 101.192201,46.3448057 100.558975,46.783851 C102.175227,49.8987253 103.312523,53.2611272 103.999565,56.8349215 C104.543099,59.6643257 104.704545,62.573228 104.928775,64.4974396 C104.544893,78.3951267 100.173299,89.490511 90.8524943,98.2985225 C86.1777411,102.714272 80.6993467,105.610527 74.4011663,106.75602 C68.1388628,107.8979 62.2173893,106.895142 56.6582719,103.754973 C53.3450452,101.884964 53.9136932,102.065641 50.8838936,103.745939 C43.2205991,107.995466 35.3151361,108.262868 27.2625778,105.08295 C21.5151071,102.811838 16.725548,99.1061494 12.823941,94.2387066 C5.30415402,84.8615621 1.95146273,74.0245462 2.75869177,61.9173699 C3.23405999,54.7950763 5.41537225,48.1804855 9.6524278,42.4475992 C16.1838077,33.5944185 24.871386,29.6556565 35.6165016,30.9348508 C41.02673,31.5798682 45.8665165,33.8816952 50.2542548,37.1862805 C50.8803058,37.6596546 51.4830368,38.1673575 52.1108816,38.637118 C53.1782178,39.4320976 54.2724616,39.4555856 55.3505608,38.6624128 C56.0609225,38.1402558 56.737201,37.5675093 57.4493563,37.0453522 C62.6353545,33.2601658 68.3128655,30.8842611 74.7419964,30.7017773 C80.457178,30.5391678 85.5211949,31.9954257 89.978893,34.9097482 C90.8489065,34.2195615 91.6364033,33.6197133 92.3055065,33.1210444 C86.7499769,29.2039636 80.114554,27.4658493 72.3525984,28.0548569 C71.9256639,28.0873788 71.4054497,28.4162112 70.9767214,27.5796759 C74.0549548,24.4774492 75.9546337,20.6145715 76.8461734,16.2223098 C77.7215685,11.8914783 78.0552231,7.55341974 77.0650222,2.83051882 C67.7011653,4.85229623 59.8459297,8.69529938 55.0976291,17.9676511 L55.0976291,15.6260751 C55.0976291,11.5210901 55.0994229,7.41791187 55.0958353,3.31292684 C55.0958353,2.61189947 55.0994229,1.90906533 55.0330508,1.21165149 C54.9720601,0.544952777 54.5612702,0.134815628 53.9208685,0.0155687036 C53.2912299,-0.100064678 52.5701053,0.441966797 52.482207,1.191777 C52.3763703,2.08251539 52.3674012,2.98770796 52.3674012,3.88567343 C52.3602257,13.1959674 52.3674012,22.5044546 52.3530504,31.8165553 C52.3512565,32.768724 52.5414039,33.7714821 52.1090878,34.6459595 C51.1996098,34.7254575 50.7619123,34.1021213 50.184295,33.7895498 C48.1231702,32.6747718 46.1427683,31.3666692 44.0027144,30.4524427 C30.1309317,24.5316522 15.2187205,29.1515673 6.71590792,41.9218288 C4.67092769,44.996954 3.12284176,48.3232205 2.01245337,51.8699131 C-2.90267459,67.5671446 1.39357777,86.1660512 12.6284122,98.1304927 C16.1120539,101.841601 20.0692702,104.869751 24.6615064,106.951152" id="Fill-5" stroke="#A9C23E" fill="#A9C23E"></path>
                        <path d="M107.093763,33.8065336 C107.093763,32.9772254 106.426454,32.3032996 105.60308,32.3032996 C104.779707,32.3032996 104.112397,32.9772254 104.112397,33.8065336 C104.112397,34.6358416 104.779707,35.3079607 105.60308,35.3079607 C106.426454,35.3079607 107.093763,34.6358416 107.093763,33.8065336" id="Fill-7" fill="#0A357C"></path>
                        <path d="M70.0240117,55.0969879 C70.8294468,51.1076361 74.0547753,47.992762 78.0837452,47.3802664 C75.129287,51.6063051 72.2089116,53.8810306 70.0240117,55.0969879 M88.8737067,59.7295502 C87.9229704,63.084725 85.2340006,65.7099641 81.8544017,66.5446925 C84.3586057,64.6530027 86.7049515,62.3764705 88.8737067,59.7295502 M112.590096,32.9495818 C111.196281,28.7271566 106.652478,26.4361703 102.460268,27.8400317 C101.378582,28.201386 97.07336,30.1364384 97.07336,30.1364384 L94.3790089,31.6197979 C94.3790089,31.6197979 93.5592228,32.1871241 92.3053272,33.121225 C91.6362239,33.6198941 90.8487272,34.2197421 89.9787136,34.909929 C86.8484588,37.385206 82.7692613,40.9174445 80.2453252,44.2888802 C80.0103318,44.274426 79.7735447,44.2671989 79.5385514,44.2671989 C72.5389785,44.2671989 66.8471169,50.001892 66.8471169,57.0519147 C66.8471169,64.0983239 72.5389785,69.8330168 79.5385514,69.8330168 C86.5363302,69.8330168 92.2299858,64.0983239 92.2299858,57.0519147 C92.2299858,56.4701342 92.1851397,55.8901606 92.1097983,55.3174139 C93.2004545,53.7003534 94.4399995,52.1754382 95.8051134,50.7824172 C96.3827307,50.191603 96.3755554,49.2394344 95.7889689,48.6576539 C95.2041763,48.0758734 94.2606152,48.0831005 93.6812042,48.6721081 C92.1205614,50.2656806 90.7052198,52.0164423 89.4764377,53.8756102 C85.8080302,59.4169787 81.499221,63.6231429 76.6666098,66.3929237 C73.1506788,65.2944066 70.4850292,62.2355424 69.9343196,58.4901049 C72.6501968,57.2904085 76.9554184,54.5278548 81.1063696,48.2565506 C84.5415775,43.0675026 88.5579905,39.2931569 92.2748318,36.5866129 C93.0892362,35.9939919 93.8857021,35.4609943 94.6624359,34.9677456 C98.564043,32.4870483 101.875476,31.2006269 103.400242,30.6911172 C106.031809,29.8094127 108.885812,31.2476029 109.759413,33.8981368 C110.636602,36.5486708 109.20691,39.4214376 106.575343,40.3031421 C105.877538,40.5362157 103.854084,41.2824123 101.296065,42.763965 C100.587497,43.1741022 99.8358771,43.6510898 99.0609374,44.1804739 C98.8133871,44.3485036 98.5694244,44.5074995 98.3146989,44.6899835 C97.6455957,45.1723915 97.4931192,46.110106 97.972075,46.7840318 C98.4510309,47.4597643 99.3820351,47.6151467 100.051138,47.1309319 C100.225141,47.0080715 100.390174,46.8996651 100.558796,46.7822251 C101.192022,46.3449863 101.810898,45.9402694 102.39569,45.5915626 L102.838769,45.3530687 L105.070309,44.1587927 C106.24707,43.602307 107.120671,43.286122 107.515316,43.1542276 C111.707526,41.7485593 113.983912,37.1720069 112.590096,32.9495818" id="Fill-9" fill="#0A357C"></path>
                    </g>
                </g>
            </g>
        </g>
    </g>
</svg>