<?xml version="1.0" encoding="UTF-8"?>
<svg width="95px" height="92px" viewBox="0 0 95 92" version="1.1" xmlns="http://www.w3.org/2000/svg" xmlns:xlink="http://www.w3.org/1999/xlink">
    <!-- Generator: Sketch 53 (72520) - https://sketchapp.com -->
    <title>img-cotiza-elige-compara</title>
    <desc>Created with Sketch.</desc>
    <g id="loaders" stroke="none" stroke-width="1" fill="none" fill-rule="evenodd">
        <g id="Loader-caso-2" transform="translate(-372.000000, -245.000000)" fill="#4E5156" fill-rule="nonzero">
            <g id="img-cotiza-elige-compara" transform="translate(372.285714, 245.714265)">
                <g id="Cotiza" transform="translate(27.664286, 1.685735)">
                    <path d="M1.51,7.4 C2.55,2.52 4.97,1.42108547e-14 8.69,1.42108547e-14 C10.87,1.42108547e-14 11.91,0.66 11.91,0.66 C11.83,1.14 11.55,1.5 11.21,1.78 C11.21,1.78 10.19,1.28 8.59,1.28 C6.09,1.28 4.09,2.64 3.07,7.42 C2.05,12.2 3.49,13.48 5.99,13.48 C7.75,13.48 9.05,12.98 9.05,12.98 C9.27,13.26 9.35,13.7 9.27,14.12 C9.27,14.12 7.89,14.8 5.55,14.8 C1.83,14.8 0.47,12.34 1.51,7.4 Z M12.17,9 C13.01,5.04 14.83,3.88 17.51,3.88 C20.19,3.88 21.41,5.66 20.57,9.62 C19.73,13.58 17.87,14.8 15.19,14.8 C12.51,14.8 11.33,12.96 12.17,9 Z M19.15,9.34 C19.83,6 18.95,5.02 17.23,5.02 C15.51,5.02 14.23,6 13.55,9.34 C12.85,12.68 13.75,13.66 15.47,13.66 C17.19,13.66 18.45,12.68 19.15,9.34 Z M26.19,5.22 L24.97,10.96 C24.55,12.88 24.75,13.6 26.33,13.6 C26.83,13.6 27.53,13.5 27.53,13.5 C27.53,13.5 27.59,13.74 27.51,14.1 C27.45,14.44 27.33,14.64 27.33,14.64 C27.11,14.7 26.55,14.8 25.89,14.8 C23.53,14.8 22.99,13.46 23.51,11.02 L24.75,5.22 L23.19,5.22 C23.19,5.22 23.13,5.02 23.21,4.66 C23.29,4.26 23.43,4.08 23.43,4.08 L24.99,4.08 L25.39,2.18 C25.83,1.92 26.39,1.82 26.89,1.86 L26.43,4.08 L29.29,4.08 C29.29,4.08 29.35,4.28 29.27,4.64 C29.19,5 29.05,5.22 29.05,5.22 L26.19,5.22 Z M34.07,0.34 L33.75,1.8 C33.75,1.8 33.45,1.9 32.91,1.9 C32.35,1.9 32.11,1.8 32.11,1.8 L32.43,0.34 C32.43,0.34 32.71,0.24 33.27,0.24 C33.81,0.24 34.07,0.34 34.07,0.34 Z M33.15,4.18 L30.95,14.5 C30.95,14.5 30.69,14.6 30.21,14.6 C29.69,14.6 29.51,14.5 29.51,14.5 L31.71,4.18 C31.71,4.18 31.93,4.08 32.45,4.08 C32.93,4.08 33.15,4.18 33.15,4.18 Z M35.27,13.38 L40.95,13.38 C40.95,13.38 41.03,13.58 40.93,14 C40.85,14.38 40.69,14.6 40.69,14.6 L33.47,14.6 C33.43,14.46 33.45,14.26 33.51,13.96 C33.57,13.68 33.65,13.5 33.73,13.38 L41.11,5.3 L35.85,5.3 C35.85,5.3 35.79,5.08 35.87,4.68 C35.97,4.28 36.11,4.08 36.11,4.08 L42.91,4.08 C42.91,4.2 42.95,4.38 42.89,4.66 C42.83,4.94 42.71,5.16 42.65,5.3 L35.27,13.38 Z M52.13,4.18 C52.13,4.18 52.27,4.08 52.77,4.08 C53.27,4.08 53.41,4.18 53.41,4.18 L51.21,14.5 C51.21,14.5 50.95,14.6 50.59,14.6 C50.21,14.6 50.01,14.5 50.01,14.5 L50.15,13.22 C49.37,14.22 48.35,14.8 46.77,14.8 C44.33,14.8 43.19,13.1 44.05,9.02 C44.91,4.94 46.61,3.88 48.95,3.88 C50.47,3.88 51.37,4.52 51.75,5.5 L52.13,4.18 Z M51.15,8.04 C51.43,6.58 50.77,5.1 49.09,5.1 C47.15,5.1 46.11,6.18 45.45,9.34 C44.77,12.5 45.33,13.58 47.27,13.58 C48.97,13.58 50.29,12.08 50.59,10.6 L51.15,8.04 Z"></path>
                    <polygon id="Decoration" points="53.3447319 9.84 -2.84217094e-13 9.84 -2.84217094e-13 8.84 53.3447319 8.84"></polygon>
                </g>
                <path d="M29.5842857,36.8857349 L37.8442857,36.8857349 C37.9642857,37.1857349 38.0442857,37.5057349 38.0442857,37.8457349 C38.0442857,38.2257349 37.9842857,38.6057349 37.8442857,38.9457349 L32.1442857,38.9457349 L32.1442857,42.9857349 L36.8442857,42.9857349 C36.9642857,43.3057349 37.0442857,43.6457349 37.0442857,43.9857349 C37.0442857,44.3457349 36.9842857,44.7057349 36.8442857,45.0457349 L32.1442857,45.0457349 L32.1442857,49.2257349 L38.0442857,49.2257349 C38.1642857,49.5457349 38.2442857,49.8857349 38.2442857,50.2257349 C38.2442857,50.5857349 38.1842857,50.9457349 38.0442857,51.2857349 L29.5842857,51.2857349 L29.5842857,36.8857349 Z M42.9042857,36.4457349 L42.9042857,51.1257349 C42.9042857,51.1257349 42.4642857,51.2857349 41.6442857,51.2857349 C40.7642857,51.2857349 40.3842857,51.1257349 40.3842857,51.1257349 L40.3842857,36.4457349 C40.3842857,36.4457349 40.7642857,36.2857349 41.6442857,36.2857349 C42.4642857,36.2857349 42.9042857,36.4457349 42.9042857,36.4457349 Z M48.1242857,36.7057349 L48.1242857,39.0057349 C48.1242857,39.0057349 47.6842857,39.1657349 46.8642857,39.1657349 C45.9842857,39.1657349 45.6042857,39.0057349 45.6042857,39.0057349 L45.6042857,36.7057349 C45.6042857,36.7057349 45.9842857,36.5457349 46.8642857,36.5457349 C47.6842857,36.5457349 48.1242857,36.7057349 48.1242857,36.7057349 Z M48.1242857,40.9257349 L48.1242857,51.1257349 C48.1242857,51.1257349 47.6842857,51.2857349 46.8642857,51.2857349 C45.9842857,51.2857349 45.6042857,51.1257349 45.6042857,51.1257349 L45.6042857,40.9257349 C45.6042857,40.9257349 45.9842857,40.7657349 46.8642857,40.7657349 C47.6842857,40.7657349 48.1242857,40.9257349 48.1242857,40.9257349 Z M56.7042857,41.0257349 L59.5842857,40.5657349 C59.7842857,41.0657349 59.7842857,41.9657349 59.5842857,42.4857349 L58.0442857,42.2857349 C58.3442857,42.8257349 58.4842857,43.4857349 58.4842857,44.2457349 C58.4842857,46.5257349 57.1242857,47.9257349 54.4242857,47.9257349 C54.1642857,47.9257349 53.9242857,47.9257349 53.7042857,47.9057349 C53.5242857,48.1857349 53.4242857,48.4857349 53.4842857,48.7857349 C53.8042857,50.4257349 59.5642857,48.5857349 59.5642857,52.7657349 C59.5642857,54.8457349 57.5242857,56.2857349 54.2842857,56.2857349 C51.1842857,56.2857349 49.8642857,55.1657349 49.8642857,53.5657349 C49.8642857,52.0857349 51.1042857,51.2257349 51.6642857,50.9057349 C51.4042857,50.6257349 51.2442857,50.2457349 51.2442857,49.7457349 C51.2442857,48.8657349 51.7242857,48.0657349 52.2242857,47.5057349 C50.9842857,46.9257349 50.3642857,45.7857349 50.3642857,44.2457349 C50.3642857,41.9657349 51.7442857,40.5657349 54.4242857,40.5657349 C55.3442857,40.5657349 56.1042857,40.7257349 56.7042857,41.0257349 Z M56.0842857,44.2457349 C56.0842857,42.8857349 55.4242857,42.3057349 54.4242857,42.3057349 C53.4242857,42.3057349 52.7442857,42.8857349 52.7442857,44.2457349 C52.7442857,45.6057349 53.4242857,46.1657349 54.4242857,46.1657349 C55.4242857,46.1657349 56.0842857,45.6057349 56.0842857,44.2457349 Z M57.1842857,53.0457349 C57.1842857,51.7857349 54.7042857,52.0457349 52.9442857,51.5657349 C52.6642857,51.8457349 52.2842857,52.3657349 52.2842857,53.0457349 C52.2842857,53.8457349 52.8842857,54.5257349 54.3642857,54.5257349 C56.2842857,54.5257349 57.1842857,53.9257349 57.1842857,53.0457349 Z M69.4842857,46.8057349 L63.6242857,46.8057349 C63.8042857,48.8457349 64.7042857,49.3657349 66.1042857,49.3657349 C67.4442857,49.3657349 68.3842857,48.8857349 68.3842857,48.8857349 C68.8042857,49.2857349 69.1242857,49.9657349 69.1442857,50.6657349 C69.1442857,50.6657349 67.9642857,51.4857349 65.7442857,51.4857349 C62.4842857,51.4857349 61.0442857,49.5857349 61.0442857,45.9657349 C61.0442857,42.1857349 62.8442857,40.5657349 65.6042857,40.5657349 C68.0842857,40.5657349 69.7042857,41.8457349 69.7042857,44.7057349 C69.7042857,45.9857349 69.4842857,46.8057349 69.4842857,46.8057349 Z M67.2042857,44.4057349 C67.2042857,43.3657349 66.8642857,42.5257349 65.6042857,42.5257349 C64.5842857,42.5257349 63.8242857,43.2057349 63.6442857,45.0657349 L67.1642857,45.0657349 C67.1842857,44.8457349 67.2042857,44.6257349 67.2042857,44.4057349 Z" id="Elige"></path>
                <path d="M29.5342857,79.0857349 C29.5342857,74.2057349 31.4142857,71.6857349 35.1342857,71.6857349 C37.3142857,71.6857349 38.4942857,72.3457349 38.4942857,72.3457349 C38.5142857,72.8257349 38.3142857,73.1857349 38.0342857,73.4657349 C38.0342857,73.4657349 36.8942857,72.9657349 35.2942857,72.9657349 C32.7942857,72.9657349 31.0942857,74.3257349 31.0942857,79.1057349 C31.0942857,83.8857349 32.7942857,85.1657349 35.2942857,85.1657349 C37.0542857,85.1657349 38.2542857,84.6657349 38.2542857,84.6657349 C38.5342857,84.9457349 38.6942857,85.3857349 38.7142857,85.8057349 C38.7142857,85.8057349 37.4742857,86.4857349 35.1342857,86.4857349 C31.4142857,86.4857349 29.5342857,84.0257349 29.5342857,79.0857349 Z M40.5742857,81.0257349 C40.5742857,77.0657349 42.1742857,75.5657349 44.8542857,75.5657349 C47.5342857,75.5657349 49.1342857,77.0657349 49.1342857,81.0257349 C49.1342857,84.9857349 47.5342857,86.4857349 44.8542857,86.4857349 C42.1742857,86.4857349 40.5742857,84.9857349 40.5742857,81.0257349 Z M47.6542857,81.0257349 C47.6542857,77.6857349 46.5742857,76.7057349 44.8542857,76.7057349 C43.1342857,76.7057349 42.0542857,77.6857349 42.0542857,81.0257349 C42.0542857,84.3657349 43.1342857,85.3457349 44.8542857,85.3457349 C46.5742857,85.3457349 47.6542857,84.3657349 47.6542857,81.0257349 Z M59.0942857,77.3057349 C59.8942857,76.1857349 61.0342857,75.5657349 62.5142857,75.5657349 C64.3742857,75.5657349 65.4142857,76.7657349 65.4142857,78.5657349 L65.4142857,86.1857349 C65.4142857,86.1857349 65.1742857,86.2857349 64.6942857,86.2857349 C64.1942857,86.2857349 63.9742857,86.1857349 63.9742857,86.1857349 L63.9742857,78.8457349 C63.9742857,77.4457349 63.3342857,76.7657349 61.9942857,76.7657349 C60.9542857,76.7657349 59.9342857,77.3857349 59.3542857,78.6057349 L59.3542857,86.1857349 C59.3542857,86.1857349 59.1142857,86.2857349 58.6342857,86.2857349 C58.1342857,86.2857349 57.9142857,86.1857349 57.9142857,86.1857349 L57.9142857,78.8457349 C57.9142857,77.4457349 57.2742857,76.7657349 55.9342857,76.7657349 C54.9142857,76.7657349 53.8742857,77.4457349 53.3142857,78.5857349 L53.3142857,86.1857349 C53.3142857,86.1857349 53.0742857,86.2857349 52.5942857,86.2857349 C52.0942857,86.2857349 51.8742857,86.1857349 51.8742857,86.1857349 L51.8742857,75.8657349 C51.8742857,75.8657349 52.0942857,75.7657349 52.5942857,75.7657349 C53.0742857,75.7657349 53.3142857,75.8657349 53.3142857,75.8657349 L53.3142857,77.1057349 C54.0342857,76.1457349 55.1342857,75.5657349 56.4542857,75.5657349 C57.6742857,75.5657349 58.6542857,76.0857349 59.0942857,77.3057349 Z M69.9942857,77.1257349 C70.5742857,76.1457349 71.5342857,75.5657349 73.0742857,75.5657349 C75.4142857,75.5657349 76.9142857,76.9457349 76.9142857,81.0257349 C76.9142857,85.1057349 75.4142857,86.4857349 73.0742857,86.4857349 C71.5342857,86.4857349 70.5742857,85.9057349 69.9942857,84.9257349 L69.9942857,90.9657349 C69.9942857,90.9657349 69.7742857,91.0657349 69.2742857,91.0657349 C68.7742857,91.0657349 68.5542857,90.9657349 68.5542857,90.9657349 L68.5542857,75.8657349 C68.5542857,75.8657349 68.7742857,75.7657349 69.2742857,75.7657349 C69.7742857,75.7657349 69.9942857,75.8657349 69.9942857,75.8657349 L69.9942857,77.1257349 Z M75.4142857,81.0257349 C75.4142857,77.8657349 74.5542857,76.7857349 72.5942857,76.7857349 C70.9142857,76.7857349 70.0142857,78.2257349 69.9942857,79.7057349 L69.9942857,82.2857349 C69.9942857,83.7657349 70.8942857,85.2657349 72.5942857,85.2657349 C74.5542857,85.2657349 75.4142857,84.1857349 75.4142857,81.0257349 Z M81.1142857,77.5057349 C81.9542857,75.9657349 82.9942857,75.5857349 83.8142857,75.5857349 C84.6742857,75.5857349 85.2542857,75.8857349 85.5342857,76.0657349 C85.4742857,76.5857349 85.2742857,76.9657349 84.8742857,77.2857349 C84.4342857,77.0057349 84.0542857,76.8857349 83.5142857,76.8857349 C82.5942857,76.8857349 81.7142857,77.6857349 81.1142857,78.8857349 L81.1142857,86.1857349 C81.1142857,86.1857349 80.8942857,86.2857349 80.3942857,86.2857349 C79.8942857,86.2857349 79.6742857,86.1857349 79.6742857,86.1857349 L79.6742857,75.8657349 C79.6742857,75.8657349 79.8942857,75.7657349 80.3942857,75.7657349 C80.8942857,75.7657349 81.1142857,75.8657349 81.1142857,75.8657349 L81.1142857,77.5057349 Z M87.6142857,76.2457349 C87.6142857,76.2457349 89.1342857,75.5657349 91.0342857,75.5657349 C93.8942857,75.5657349 94.6542857,76.9457349 94.6542857,79.6057349 L94.6542857,86.1857349 C94.6542857,86.1857349 94.4742857,86.2857349 94.0742857,86.2857349 C93.7142857,86.2857349 93.4942857,86.1857349 93.4942857,86.1857349 L93.2742857,84.6857349 C92.7142857,85.8457349 91.5142857,86.4857349 89.9142857,86.4857349 C88.0542857,86.4857349 86.8142857,85.3857349 86.8142857,83.2857349 C86.8142857,81.1857349 88.0742857,80.1657349 90.5942857,80.1657349 C91.7142857,80.1657349 92.7142857,80.2657349 93.2142857,80.3257349 L93.2142857,79.2457349 C93.2142857,77.5457349 92.4942857,76.8057349 90.8542857,76.8057349 C89.3542857,76.8057349 88.0542857,77.3057349 88.0542857,77.3057349 C88.0142857,77.2857349 87.8342857,77.1457349 87.7142857,76.8657349 C87.5942857,76.5657349 87.6142857,76.3057349 87.6142857,76.2457349 Z M93.2142857,81.3657349 C92.7542857,81.3257349 91.7542857,81.2057349 90.7942857,81.2057349 C89.1342857,81.2057349 88.3142857,81.8057349 88.3142857,83.2857349 C88.3142857,84.7257349 89.1142857,85.3257349 90.3742857,85.3257349 C92.1342857,85.3257349 93.2142857,83.9657349 93.2142857,82.1657349 L93.2142857,81.3657349 Z" id="Compra"></path>
                <path d="M17.2857349,9.84599388 L17.2857349,13.7500164 C17.2857349,15.7020276 15.7020276,17.2857349 13.7500164,17.2857349 L3.5357185,17.2857349 C1.58370725,17.2857349 0,15.7020276 0,13.7500164 L0,3.5357185 C0,1.58370725 1.58370725,0 3.5357185,0 L13.7500164,0 C14.2410884,0 14.7321604,0.0982144028 15.186402,0.306920009 C15.2968932,0.35602721 15.3828308,0.466518413 15.4073844,0.589286417 C15.431938,0.724331221 15.3951076,0.847099224 15.2968932,0.945313627 L14.69533,1.54687684 C14.6216692,1.62053765 14.511178,1.66964485 14.4129636,1.66964485 C14.3761332,1.66964485 14.3393028,1.65736805 14.3024724,1.64509125 C14.1183204,1.59598405 13.9341684,1.57143044 13.7500164,1.57143044 L3.5357185,1.57143044 C2.45536007,1.57143044 1.57143044,2.45536007 1.57143044,3.5357185 L1.57143044,13.7500164 C1.57143044,14.8303748 2.45536007,15.7143044 3.5357185,15.7143044 L13.7500164,15.7143044 C14.8303748,15.7143044 15.7143044,14.8303748 15.7143044,13.7500164 L15.7143044,10.6317091 C15.7143044,10.5334947 15.7511348,10.4352803 15.8247957,10.3616195 L16.6105109,9.57590427 C16.6964485,9.48996667 16.7946629,9.45313627 16.8928773,9.45313627 C16.9419845,9.45313627 16.9910917,9.46541307 17.0401989,9.48996667 C17.1875205,9.55135067 17.2857349,9.68639548 17.2857349,9.84599388 Z M20.1216758,3.84263851 L10.1283603,13.835954 C9.73550268,14.2288116 9.12166266,14.2288116 8.72880505,13.835954 L3.4497809,8.55692984 C3.05692329,8.16407223 3.05692329,7.55023221 3.4497809,7.1573746 L4.80022894,5.80692657 C5.19308655,5.41406895 5.80692657,5.41406895 6.19978418,5.80692657 L9.42858267,9.03572506 L17.3716725,1.09263523 C17.7645301,0.69977762 18.3783701,0.69977762 18.7712277,1.09263523 L20.1216758,2.44308327 C20.5145334,2.83594088 20.5145334,3.4497809 20.1216758,3.84263851 Z" id=""></path>
                <path d="M13.821445,36.5714304 L3.60714707,36.5714304 C2.52678864,36.5714304 1.64285902,37.4553601 1.64285902,38.5357185 L1.64285902,48.7500164 C1.64285902,49.8303748 2.52678864,50.7143044 3.60714707,50.7143044 L13.821445,50.7143044 C14.9018034,50.7143044 15.785733,49.8303748 15.785733,48.7500164 L15.785733,38.5357185 C15.785733,37.4553601 14.9018034,36.5714304 13.821445,36.5714304 Z M17.3571635,38.5357185 L17.3571635,48.7500164 C17.3571635,50.7020276 15.7734562,52.2857349 13.821445,52.2857349 L3.60714707,52.2857349 C1.65513582,52.2857349 0.0714285714,50.7020276 0.0714285714,48.7500164 L0.0714285714,38.5357185 C0.0714285714,36.5837072 1.65513582,35 3.60714707,35 L13.821445,35 C15.7734562,35 17.3571635,36.5837072 17.3571635,38.5357185 Z" id=""></path>
                <path d="M13.821445,71.5714304 L3.60714707,71.5714304 C2.52678864,71.5714304 1.64285902,72.4553601 1.64285902,73.5357185 L1.64285902,83.7500164 C1.64285902,84.8303748 2.52678864,85.7143044 3.60714707,85.7143044 L13.821445,85.7143044 C14.9018034,85.7143044 15.785733,84.8303748 15.785733,83.7500164 L15.785733,73.5357185 C15.785733,72.4553601 14.9018034,71.5714304 13.821445,71.5714304 Z M17.3571635,73.5357185 L17.3571635,83.7500164 C17.3571635,85.7020276 15.7734562,87.2857349 13.821445,87.2857349 L3.60714707,87.2857349 C1.65513582,87.2857349 0.0714285714,85.7020276 0.0714285714,83.7500164 L0.0714285714,73.5357185 C0.0714285714,71.5837072 1.65513582,70 3.60714707,70 L13.821445,70 C15.7734562,70 17.3571635,71.5837072 17.3571635,73.5357185 Z" id=""></path>
            </g>
        </g>
    </g>
</svg>