<?xml version="1.0" encoding="UTF-8"?>
<svg width="89px" height="80px" viewBox="0 0 89 80" version="1.1" xmlns="http://www.w3.org/2000/svg" xmlns:xlink="http://www.w3.org/1999/xlink">
    <title>Icono</title>
    <g id="crear-plantilla" stroke="none" stroke-width="1" fill="none" fill-rule="evenodd">
        <g id="Lista-de-tickets----Eliminar---cp" transform="translate(-165.000000, -41.000000)">
            <g id="Icono" transform="translate(165.000000, 41.000000)">
                <g id="020-journal-copy" fill-rule="nonzero">
                    <path d="M9.15500102,15.4983248 C9.15500102,33.1100608 0,45.20428 0,53.690608 C0,62.1769336 4.89561321,80 44.073294,80 C83.2509774,80 89,56.0228824 89,46.688688 C89.0025543,2.97889472 9.15500102,-15.69204 9.15500102,15.4983248 Z" id="Path" fill="#EFEFEF"></path>
                    <g id="Group" transform="translate(69.802956, 1.565816)" fill="#A4AFC1">
                        <polygon id="Path" transform="translate(12.649719, 2.711030) rotate(-45.000000) translate(-12.649719, -2.711030) " points="10.097225 1.4314203 15.1977284 1.44038843 15.2022126 3.9906401 10.1017091 3.98167208"></polygon>
                        <polygon id="Path" transform="translate(13.097104, 13.064271) rotate(-45.000000) translate(-13.097104, -13.064271) " points="11.817494 10.511777 14.3677458 10.5162611 14.3767138 15.6167646 11.8264621 15.6122804"></polygon>
                        <polygon id="Path" transform="translate(2.709707, 2.711616) rotate(-45.000000) translate(-2.709707, -2.711616) " points="1.4300966 0.15912235 3.98034838 0.163606414 3.9893164 5.26410995 1.43906473 5.25962573"></polygon>
                    </g>
                    <path d="M73.245121,36.705227 L46.8762623,50.2354805 C45.3942939,50.9993233 43.6057081,50.9993233 42.1237368,50.2354805 L15.754881,36.2061816 L15.754881,30.6250157 C15.754881,29.7287698 16.2275785,28.8961784 17.0017805,28.4378711 L26.8262238,22.60209 L61.747073,22.60209 L71.9624505,28.4455093 C72.7570921,28.8987241 73.245121,29.7415007 73.245121,30.6530231 L73.245121,36.705227 Z" id="Path" fill="#F3F3F1"></path>
                    <polygon id="Path" fill="#006FFF" points="23.420246 11.355736 64.940976 11.355736 64.940976 54.640324 23.420246 54.640324"></polygon>
                    <path d="M73.245121,36.20618 L73.245121,62.2787779 C73.245121,64.3920852 71.5331899,66.098007 69.4124387,66.098007 L19.5875639,66.098007 C17.4668126,66.098007 15.754881,64.3920852 15.754881,62.2787779 L15.754881,36.20618 L42.1237368,50.2354792 C43.6057081,50.9993241 45.3942939,50.9993241 46.8762623,50.2354792 L73.245121,36.20618 Z" id="Path" fill="#F3F3F1"></path>
                    <path d="M21.5039046,62.2787779 L21.5039046,39.2641088 L15.754881,36.20618 L15.754881,62.2787779 C15.754881,64.3920852 17.4668125,66.098007 19.5875634,66.098007 L25.336587,66.098007 C23.2158364,66.098007 21.5039046,64.3920852 21.5039046,62.2787779 Z" id="Path" fill="#D5DBE1"></path>
                    <polygon id="Path" fill="#0C60CE" points="29.16927 11.355736 29.16927 43.335407 23.420246 40.2800245 23.420246 11.355736"></polygon>
                    <path d="M17.0068906,28.4404183 L23.420246,24.62119 L23.420246,28.033034 L22.7559146,28.4404183 C21.9893778,28.8987258 21.5039048,29.7389556 21.5039048,30.6301091 L21.5039048,36.2061825 L23.420246,37.2246435 L23.420246,40.280026 L15.754881,36.2061825 L15.754881,30.6301091 C15.754881,29.7389556 16.2403541,28.8987258 17.0068906,28.4404183 L17.0068906,28.4404183 Z" id="Path" fill="#D5DBE1"></path>
                    <path d="M69.4124353,68.007625 L19.5875628,68.007625 C16.4192119,68.007625 13.838539,65.4360097 13.838539,62.2787807 L13.838539,31.4703387 C13.838539,29.3646707 14.9960091,27.4346875 16.8638031,26.4289571 L22.5182869,23.419405 L24.3247583,26.7905106 L18.6779396,29.7949707 C18.0672655,30.120878 17.6712215,30.7828775 17.6712215,31.4703387 L17.6712215,62.2787807 C17.6712215,63.330343 18.5322977,64.1883956 19.5875628,64.1883956 L69.4124353,64.1883956 C70.4677009,64.1883956 71.3287765,63.330343 71.3287765,62.2787807 L71.3287765,31.4703387 C71.3287765,30.7803311 70.9327322,30.120878 70.3169483,29.7898778 L64.6777944,26.7905106 L66.4842658,23.419405 L72.1310851,26.4238647 C74.0039889,27.4346875 75.161459,29.3646707 75.161459,31.4703387 L75.161459,62.2787807 C75.161459,65.4360097 72.5807882,68.007625 69.4124353,68.007625 Z" id="Path" fill="#4E455C"></path>
                    <path d="M44.4974445,52.720524 C43.378302,52.720524 42.2617132,52.4557248 41.2422194,51.9286709 L14.865698,38.2049096 L16.6415076,34.818527 L43.0103634,48.5422874 C43.9404269,49.0260567 45.0595706,49.0209653 45.9896341,48.5397417 L72.3533841,34.818527 L74.129191,38.2049096 L47.7603354,51.9286709 C46.7408403,52.4557248 45.6191448,52.720524 44.4974445,52.720524 L44.4974445,52.720524 Z" id="Path" fill="#4E455C"></path>
                    <path d="M67.496094,40.509178 L63.663413,40.509178 L63.663413,16.4480397 C63.663413,14.6937405 62.2299882,13.2653493 60.4695084,13.2653493 L28.5304887,13.2653493 C26.7700098,13.2653493 25.3365866,14.6937405 25.3365866,16.4480397 L25.3365866,40.509178 L21.503904,40.509178 L21.503904,16.4480397 C21.503904,12.5855267 24.654369,9.446121 28.5304887,9.446121 L60.4695084,9.446121 C64.345629,9.446121 67.496094,12.5855267 67.496094,16.4480397 L67.496094,40.509178 Z" id="Path" fill="#4E455C"></path>
                </g>
                <text id="!" font-family="Helvetica" font-size="29.595184" font-weight="normal" fill="#F3F3F1">
                    <tspan x="40" y="36">!</tspan>
                </text>
            </g>
        </g>
    </g>
</svg>