<?xml version="1.0" encoding="UTF-8"?>
<svg width="103px" height="67px" viewBox="0 0 103 67" version="1.1" xmlns="http://www.w3.org/2000/svg" xmlns:xlink="http://www.w3.org/1999/xlink">
    <!-- Generator: Sketch 48.2 (47327) - http://www.bohemiancoding.com/sketch -->
    <title>Page 1</title>
    <desc>Created with Sketch.</desc>
    <defs>
        <polygon id="path-1" points="0 0.322 102.7206 0.322 102.7206 66.9996 0 66.9996"></polygon>
    </defs>
    <g id="Pop-Up-Visitantes-Ultra-Frecuentes" stroke="none" stroke-width="1" fill="none" fill-rule="evenodd" transform="translate(-669.000000, -406.000000)">
        <g id="Page-1" transform="translate(669.000000, 405.000000)">
            <path d="M95.2847,66.678 L7.4357,66.678 C3.8817,66.678 0.9997,63.797 0.9997,60.242 L0.9997,8.436 C0.9997,4.881 3.8817,2 7.4357,2 L95.2847,2 C98.8397,2 101.7207,4.881 101.7207,8.436 L101.7207,60.242 C101.7207,63.797 98.8397,66.678 95.2847,66.678" id="Fill-1" fill="#FFDD6B"></path>
            <path d="M10.0772,1.9998 L10.0772,36.5718 C10.0772,36.5718 11.3592,54.4668 37.6472,54.4668 L101.7212,54.4668 L101.7212,60.2428 C101.7212,60.2428 99.7062,66.6778 95.2852,66.6778 L7.4352,66.6778 C7.4352,66.6778 1.0002,64.7358 1.0002,60.2428 L1.0002,8.4358 C1.0002,8.4358 0.8872,1.9998 10.0772,1.9998" id="Fill-3" fill="#FFCA58"></path>
            <g id="Group-7" transform="translate(0.000000, 0.678200)">
                <mask id="mask-2" fill="white">
                    <use xlink:href="#path-1"></use>
                </mask>
                <g id="Clip-6"></g>
                <path d="M7.4356,2.3216 C4.4386,2.3216 1.9996,4.7596 1.9996,7.7576 L1.9996,59.5646 C1.9996,62.5616 4.4386,64.9996 7.4356,64.9996 L95.2846,64.9996 C98.2826,64.9996 100.7206,62.5616 100.7206,59.5646 L100.7206,7.7576 C100.7206,4.7596 98.2826,2.3216 95.2846,2.3216 L7.4356,2.3216 Z M95.2846,66.9996 L7.4356,66.9996 C3.3356,66.9996 -0.0004,63.6646 -0.0004,59.5646 L-0.0004,7.7576 C-0.0004,3.6566 3.3356,0.3216 7.4356,0.3216 L95.2846,0.3216 C99.3846,0.3216 102.7206,3.6566 102.7206,7.7576 L102.7206,59.5646 C102.7206,63.6646 99.3846,66.9996 95.2846,66.9996 Z" id="Fill-5" fill="#000000" mask="url(#mask-2)"></path>
            </g>
            <path d="M33.4902,37.3143 C34.4692,40.2893 34.8842,42.7373 34.8842,42.7373 L35.0342,42.7373 C35.0342,42.7373 35.4482,40.3273 36.4652,37.2763 L41.8502,21.1583 C41.8502,21.1583 42.5282,20.7823 44.0722,20.7823 C45.5792,20.7823 46.5582,21.1583 46.5582,21.1583 L37.7462,47.5953 C37.7462,47.5953 36.5032,47.8963 34.8462,47.8963 C33.1512,47.8963 31.9462,47.5953 31.9462,47.5953 L23.1722,21.2333 C23.1722,21.2333 24.0752,20.7823 25.8452,20.7823 C27.4652,20.7823 28.1432,21.1583 28.1432,21.1583 L33.4902,37.3143 Z" id="Fill-8" fill="#000000"></path>
            <path d="M50.1748,21.1209 C50.1748,21.1209 50.9658,20.7819 52.5478,20.7819 C54.1668,20.7819 54.9948,21.1209 54.9948,21.1209 L54.9948,47.5579 C54.9948,47.5579 54.1288,47.8959 52.5848,47.8959 C50.8528,47.8959 50.1748,47.5579 50.1748,47.5579 L50.1748,21.1209 Z" id="Fill-10" fill="#000000"></path>
            <path d="M70.4732,33.7366 C73.1092,33.7366 74.5032,32.0796 74.5032,29.2556 C74.5032,26.4306 73.1092,24.7736 70.4732,24.7736 L65.8792,24.7736 L65.8792,33.7366 L70.4732,33.7366 Z M65.8792,47.5576 C65.8792,47.5576 65.0882,47.8966 63.5062,47.8966 C61.7362,47.8966 61.0582,47.5576 61.0582,47.5576 L61.0582,20.7816 L71.1512,20.7816 C76.2352,20.7816 79.5492,24.2086 79.5492,29.2556 C79.5492,34.3016 76.2352,37.7286 71.1512,37.7286 L65.8792,37.7286 L65.8792,47.5576 Z" id="Fill-12" fill="#000000"></path>
            <path d="M16.0825,33.7366 C16.0825,35.7646 14.4385,37.4086 12.4105,37.4086 C10.3825,37.4086 8.7385,35.7646 8.7385,33.7366 C8.7385,31.7086 10.3825,30.0646 12.4105,30.0646 C14.4385,30.0646 16.0825,31.7086 16.0825,33.7366" id="Fill-14" fill="#646676"></path>
            <path d="M12.4107,31.0643 C10.9377,31.0643 9.7387,32.2633 9.7387,33.7363 C9.7387,35.2103 10.9377,36.4083 12.4107,36.4083 C13.8837,36.4083 15.0827,35.2103 15.0827,33.7363 C15.0827,32.2633 13.8837,31.0643 12.4107,31.0643 M12.4107,38.4083 C9.8347,38.4083 7.7387,36.3133 7.7387,33.7363 C7.7387,31.1603 9.8347,29.0643 12.4107,29.0643 C14.9867,29.0643 17.0827,31.1603 17.0827,33.7363 C17.0827,36.3133 14.9867,38.4083 12.4107,38.4083" id="Fill-16" fill="#000000"></path>
            <path d="M92.6123,33.7366 C92.6123,35.7646 90.9683,37.4086 88.9403,37.4086 C86.9123,37.4086 85.2683,35.7646 85.2683,33.7366 C85.2683,31.7086 86.9123,30.0646 88.9403,30.0646 C90.9683,30.0646 92.6123,31.7086 92.6123,33.7366" id="Fill-18" fill="#646676"></path>
            <path d="M88.9404,31.0643 C87.4664,31.0643 86.2684,32.2633 86.2684,33.7363 C86.2684,35.2103 87.4664,36.4083 88.9404,36.4083 C90.4134,36.4083 91.6124,35.2103 91.6124,33.7363 C91.6124,32.2633 90.4134,31.0643 88.9404,31.0643 M88.9404,38.4083 C86.3644,38.4083 84.2684,36.3133 84.2684,33.7363 C84.2684,31.1603 86.3644,29.0643 88.9404,29.0643 C91.5164,29.0643 93.6124,31.1603 93.6124,33.7363 C93.6124,36.3133 91.5164,38.4083 88.9404,38.4083" id="Fill-20" fill="#000000"></path>
        </g>
    </g>
</svg>