<svg width="153" height="45" viewBox="0 0 153 45" fill="none" xmlns="http://www.w3.org/2000/svg">
<path fill-rule="evenodd" clip-rule="evenodd" d="M5.61414 37.2034L7.43894 31.3132H14.7299L16.415 37.2034H22.5881L16.1355 15.0189C15.7204 13.5142 15.0135 13.0969 13.4682 13.0969H4.48803V15.1553H5.18671C6.44845 15.1553 6.87177 15.4281 6.87177 16.2507C6.87177 16.664 6.87177 17.0692 6.44845 18.305L0 37.2034H5.61414ZM13.8915 27.4818H8.2815L11.2201 17.8962L13.8915 27.4818Z" fill="white"/>
<path fill-rule="evenodd" clip-rule="evenodd" d="M30.0147 37.2034V14.8824C30.0147 13.783 29.4558 13.0969 28.194 13.0969H22.7237V15.1553H23.0073C24.1252 15.1553 24.5485 15.5686 24.5485 16.5235V37.2034H30.0147Z" fill="white"/>
<path fill-rule="evenodd" clip-rule="evenodd" d="M39.9689 37.2034V14.8824C39.9689 13.783 39.2744 13.0969 38.1524 13.0969H32.6821V15.1553H32.9657C33.9479 15.1553 34.5069 15.5686 34.5069 16.5235V37.2034H39.9689Z" fill="white"/>
<path fill-rule="evenodd" clip-rule="evenodd" d="M49.9355 37.2041V20.9057C49.9355 19.8103 49.2286 19.1242 48.2505 19.1242H42.6404V21.0421H42.9158C44.0378 21.0421 44.4611 21.5918 44.4611 22.5468V37.2001H49.9355V37.2041ZM50.0713 15.2923C50.0713 13.6432 48.9534 12.6882 46.845 12.6882C44.8846 12.6882 43.6187 13.6432 43.6187 15.2923C43.6187 16.9334 44.8846 17.7559 46.845 17.7559C48.9534 17.7559 50.0713 16.9334 50.0713 15.2923Z" fill="white"/>
<path fill-rule="evenodd" clip-rule="evenodd" d="M55.2621 24.0552L55.8252 23.9188C57.2266 23.3691 58.0692 23.0962 59.0514 22.9598C59.6104 22.8274 60.3132 22.8274 60.7283 22.8274C62.4175 22.8274 63.1162 23.3731 63.1162 25.0142V25.4274C60.4529 25.8327 59.7501 25.9771 58.4884 26.254C57.65 26.3904 56.9472 26.6633 56.2444 26.9361C54.0004 27.8991 53.0181 29.5402 53.0181 32.2766C53.0181 35.6952 54.4237 37.3403 57.5102 37.3403C58.772 37.3403 60.0337 37.0674 61.016 36.5217C61.7188 36.1085 62.138 35.8396 63.26 34.8807V35.4264C63.26 36.6622 63.8231 37.2119 64.8012 37.2119H69.992V35.2939H69.8523C68.8659 35.2939 68.307 34.8847 68.307 33.9257V25.0182C68.307 20.5042 66.7616 18.8591 62.138 18.8591C60.5927 18.8591 59.1912 19.132 57.7897 19.4088C56.3882 19.6817 55.6854 19.9545 54.0004 20.7771L55.2621 24.0552ZM63.1159 28.4368V31.9998C61.9898 33.0952 60.8719 33.6409 59.7499 33.6409C58.4881 33.6409 58.0648 33.0952 58.0648 31.723C58.0648 30.3547 58.484 29.6726 59.606 29.2594C60.5924 28.8501 61.4308 28.7097 63.1159 28.4368Z" fill="white"/>
<path fill-rule="evenodd" clip-rule="evenodd" d="M78.4047 37.204V24.8779C79.6706 23.7825 80.5131 23.3732 81.7707 23.3732C83.0366 23.3732 83.4558 23.9229 83.4558 25.7004V37.204H88.7864V24.8779C88.7864 22.2738 88.5069 21.3189 87.8082 20.3599C86.9616 19.405 85.8395 18.9917 84.2983 18.9917C82.1899 18.9917 80.5131 19.6778 78.1252 21.7322V20.7772C78.1252 19.6818 77.7101 19.1321 76.584 19.1321H71.1096V21.0501H71.3932C72.5152 21.0501 72.9385 21.5998 72.9385 22.5547V37.208H78.4047V37.204Z" fill="white"/>
<path fill-rule="evenodd" clip-rule="evenodd" d="M105.892 33.6369H97.6186L105.608 22.8235V19.124H93.8292C92.4319 19.124 91.8688 19.6737 91.8688 21.042V24.3281H93.8292V23.9188C93.8292 22.9599 94.2484 22.5506 95.3704 22.5506H99.7187L91.7291 33.364V37.2039H105.892V33.6369Z" fill="white"/>
<path fill-rule="evenodd" clip-rule="evenodd" d="M153 26.25C153 15.4245 144.751 7.5 133.659 7.5C122.71 7.5 114.593 15.4245 114.593 26.25C114.593 36.943 122.71 44.9999 133.798 44.9999C144.747 44.9999 153 36.943 153 26.25ZM149.753 26.2502C149.753 35.3584 142.992 42.0952 133.659 42.0952C124.465 42.0952 117.84 35.3624 117.84 26.2502C117.84 17.0057 124.469 10.4053 133.659 10.4053C142.992 10.4053 149.753 17.0057 149.753 26.2502ZM128.521 36.0203V19.12H125.681C124.189 19.12 123.519 19.7821 123.519 21.2346V36.0203H128.521ZM138.936 36.0203H143.941V21.2346C143.941 19.7821 143.395 19.12 141.771 19.12H138.931V36.0203H138.936ZM136.227 36.0202V16.4797C136.227 14.8948 135.689 14.3692 134.061 14.3692H129.466V16.4797H129.869C130.95 16.4797 131.225 16.7446 131.225 17.8038V36.0202H136.227Z" fill="white"/>
<path fill-rule="evenodd" clip-rule="evenodd" d="M59.9922 5.36355H62.7671L63.4608 7.38473H64.3064L61.8394 0.368164H60.9117L58.4447 7.38473H59.2903L59.9922 5.36355ZM61.3798 1.34424L62.4676 4.49801H60.2838L61.3798 1.34424Z" fill="white"/>
<path d="M69.0885 2.38501V7.38039H68.3865V6.63454C68.0787 7.21465 67.5615 7.48629 66.9499 7.48629C65.9195 7.48629 65.2258 6.67598 65.2258 5.29016V2.38501H65.977V5.15204C65.977 6.19255 66.4162 6.68979 67.1305 6.68979C67.8816 6.68979 68.3414 6.1327 68.3414 5.18427V2.38501H69.0885V2.38501Z" fill="white"/>
<path d="M73.0252 7.2975C72.7912 7.40339 72.5367 7.44483 72.2822 7.44483C71.4489 7.44483 70.9892 6.90615 70.9892 5.95312V3.18609H70.3242V2.38498H70.9892V1.12347L71.7403 0.953125V2.38498H72.9677V3.18609H71.7403V5.85643C71.7403 6.42273 71.9743 6.64372 72.3766 6.64372C72.5654 6.64372 72.7419 6.6115 72.9102 6.53783L73.0252 7.2975Z" fill="white"/>
<path fill-rule="evenodd" clip-rule="evenodd" d="M76.231 2.28345C74.8928 2.28345 73.9815 3.34238 73.9815 4.88013C73.9815 6.4363 74.8928 7.49983 76.231 7.49983C77.5609 7.49983 78.4722 6.4363 78.4722 4.88013C78.4722 3.34698 77.5609 2.28345 76.231 2.28345ZM76.2346 3.07985C77.1048 3.07985 77.7247 3.81649 77.7247 4.88003C77.7247 5.95277 77.1048 6.69862 76.2346 6.69862C75.3439 6.69862 74.7323 5.95277 74.7323 4.88003C74.7323 3.81649 75.3439 3.07985 76.2346 3.07985Z" fill="white"/>
<path d="M82.3308 2.41717L82.2281 3.2459C82.0886 3.19526 81.9367 3.16303 81.7889 3.16303C81.1157 3.16303 80.6806 3.64645 80.6806 4.68697V7.38033H79.9294V2.38494H80.6314V3.18605C80.8859 2.59673 81.2799 2.31128 81.8136 2.31128C82.0024 2.31128 82.1707 2.34351 82.3308 2.41717Z" fill="white"/>
<path fill-rule="evenodd" clip-rule="evenodd" d="M84.1496 0.0734863C83.7165 0.0734863 83.4184 0.317501 83.4184 0.662804C83.4184 1.00811 83.7109 1.24752 84.1496 1.25212C84.5715 1.25212 84.8696 1.00811 84.8696 0.662804C84.8696 0.317501 84.5715 0.0734863 84.1496 0.0734863ZM84.6612 7.38019V2.3848H83.6319V7.38019H84.6612Z" fill="white"/>
<path d="M89.4114 6.59283V7.38012H85.7991V6.71714L88.2825 3.18123H85.8894V2.38013H89.3129V3.0339L86.8294 6.58822H89.4114V6.59283Z" fill="white"/>
<path fill-rule="evenodd" clip-rule="evenodd" d="M92.535 2.28345C91.3159 2.28345 90.4621 3.34238 90.4621 4.88013C90.4621 6.42709 91.3159 7.48602 92.535 7.48141C93.1795 7.48141 93.7336 7.17755 94.1277 6.57902V7.38012H94.8296V2.38474H94.1277V3.18584C93.7336 2.58731 93.1836 2.28345 92.535 2.28345ZM92.6745 3.07985C93.5119 3.07985 94.0824 3.76585 94.0824 4.88003C94.0824 6.00341 93.5078 6.68942 92.6745 6.68942C91.8043 6.68942 91.2132 5.95277 91.2132 4.88003C91.2132 3.81649 91.8043 3.07985 92.6745 3.07985Z" fill="white"/>
<path fill-rule="evenodd" clip-rule="evenodd" d="M100.655 7.38489V0H99.9076V3.11233C99.5218 2.56445 98.9882 2.279 98.3601 2.279C97.141 2.279 96.2872 3.33793 96.2872 4.87568C96.2872 6.42264 97.141 7.48618 98.3601 7.48618C99.0046 7.48618 99.5587 7.18231 99.9528 6.58378V7.38489H100.655ZM98.4956 3.08009C99.3329 3.08009 99.9035 3.76609 99.9035 4.88027C99.9035 6.00366 99.3329 6.68966 98.4956 6.68966C97.6253 6.68966 97.0342 5.95301 97.0342 4.88027C97.0342 3.81674 97.6253 3.08009 98.4956 3.08009Z" fill="white"/>
<path fill-rule="evenodd" clip-rule="evenodd" d="M104.357 2.28345C103.019 2.28345 102.108 3.34238 102.108 4.88013C102.108 6.4363 103.019 7.49983 104.357 7.49983C105.687 7.49983 106.598 6.4363 106.598 4.88013C106.598 3.34698 105.687 2.28345 104.357 2.28345ZM104.361 3.07985C105.231 3.07985 105.851 3.81649 105.851 4.88003C105.851 5.95277 105.231 6.69862 104.361 6.69862C103.47 6.69862 102.859 5.95277 102.859 4.88003C102.859 3.81649 103.47 3.07985 104.361 3.07985Z" fill="white"/>
<path fill-rule="evenodd" clip-rule="evenodd" d="M6.90047 0.368164H5.01636V7.38473H6.90047C9.02265 7.38473 10.1474 5.96208 10.1474 3.88105C10.1474 1.80002 9.01855 0.368164 6.90047 0.368164ZM9.34694 3.8812C9.34694 5.44657 8.53418 6.51932 6.90047 6.51932H5.8209V1.22927H6.90047C8.53008 1.22927 9.34694 2.2928 9.34694 3.8812Z" fill="white"/>
<path fill-rule="evenodd" clip-rule="evenodd" d="M12.2372 0.0734863C11.8041 0.0734863 11.506 0.317501 11.506 0.662804C11.506 1.00811 11.8041 1.24752 12.2372 1.25212C12.659 1.25212 12.9571 1.00811 12.9571 0.662804C12.9571 0.317501 12.659 0.0734863 12.2372 0.0734863ZM12.7547 7.38019V2.3848H11.7254V7.38019H12.7547Z" fill="white"/>
<path d="M13.9809 6.36284C14.3462 6.59304 14.7608 6.70814 15.2082 6.70814C15.865 6.70814 16.2591 6.4365 16.2591 6.01293C16.2591 4.98163 13.8577 5.58015 13.8577 3.71091C13.8577 2.79471 14.457 2.27905 15.4504 2.27905C15.9676 2.27905 16.4725 2.40336 16.8091 2.61515L16.6408 3.40244C16.2919 3.18145 15.8609 3.06634 15.4586 3.06634C14.8881 3.06634 14.6048 3.31036 14.6048 3.6971C14.6048 4.80207 17.0061 4.17131 17.0061 5.95768C17.0061 6.92453 16.3124 7.49543 15.2041 7.49543C14.65 7.49543 14.1533 7.37113 13.788 7.15013L13.9809 6.36284Z" fill="white"/>
<path d="M20.586 7.2975C20.352 7.40339 20.0975 7.44483 19.843 7.44483C19.0097 7.44483 18.55 6.90615 18.55 5.95312V3.18609H17.885V2.38498H18.55V1.12347L19.3012 0.953125V2.38498H20.5285V3.18609H19.3012V5.85643C19.3012 6.42273 19.5351 6.64372 19.9374 6.64372C20.1262 6.64372 20.3027 6.6115 20.471 6.53783L20.586 7.2975Z" fill="white"/>
<path d="M24.2802 2.41717L24.1776 3.2459C24.038 3.19526 23.8861 3.16303 23.7384 3.16303C23.0652 3.16303 22.6301 3.64645 22.6301 4.68697V7.38033H21.8789V2.38494H22.5808V3.18605C22.8353 2.59673 23.2294 2.31128 23.763 2.31128C23.9518 2.31128 24.1201 2.34351 24.2802 2.41717Z" fill="white"/>
<path fill-rule="evenodd" clip-rule="evenodd" d="M26.099 0.0734863C25.6659 0.0734863 25.3678 0.317501 25.3678 0.662804C25.3678 1.00811 25.6603 1.24752 26.099 1.25212C26.5208 1.25212 26.8189 1.00811 26.8189 0.662804C26.8189 0.317501 26.5208 0.0734863 26.099 0.0734863ZM26.6164 7.38019V2.3848H25.5871V7.38019H26.6164Z" fill="white"/>
<path fill-rule="evenodd" clip-rule="evenodd" d="M30.3596 7.49078C31.5869 7.49078 32.4407 6.42725 32.4407 4.88029C32.4407 3.34254 31.5869 2.279 30.3637 2.279C29.7357 2.279 29.2102 2.56445 28.8244 3.11233V0H28.0732V7.38949H28.7751V6.58839C29.1692 7.18691 29.711 7.49078 30.3596 7.49078ZM30.2282 3.08009C31.0903 3.08009 31.6896 3.81674 31.6896 4.88027C31.6896 5.95301 31.0903 6.68966 30.2282 6.68966C29.3827 6.68966 28.8203 6.00366 28.8203 4.88027C28.8203 3.76609 29.3827 3.08009 30.2282 3.08009Z" fill="white"/>
<path d="M37.662 2.38501V7.38039H36.9601V6.63454C36.6522 7.21465 36.135 7.48629 35.5234 7.48629C34.4931 7.48629 33.7994 6.67598 33.7994 5.29016V2.38501H34.5506V5.15204C34.5506 6.19255 34.9898 6.68979 35.704 6.68979C36.4552 6.68979 36.9149 6.1327 36.9149 5.18427V2.38501H37.662V2.38501Z" fill="white"/>
<path fill-rule="evenodd" clip-rule="evenodd" d="M40.0267 0.0734863C39.5936 0.0734863 39.2955 0.317501 39.2955 0.662804C39.2955 1.00811 39.588 1.24752 40.0267 1.25212C40.4485 1.25212 40.7466 1.00811 40.7466 0.662804C40.7466 0.317501 40.4485 0.0734863 40.0267 0.0734863ZM40.5387 7.38019V2.3848H39.5093V7.38019H40.5387Z" fill="white"/>
<path fill-rule="evenodd" clip-rule="evenodd" d="M46.0277 7.38489V0H45.2806V3.11233C44.8947 2.56445 44.3611 2.279 43.7331 2.279C42.514 2.279 41.6602 3.33793 41.6602 4.87568C41.6602 6.42264 42.514 7.48618 43.7331 7.48618C44.3775 7.48618 44.9317 7.18231 45.3258 6.58378V7.38489H46.0277ZM43.8685 3.08009C44.7059 3.08009 45.2764 3.76609 45.2764 4.88027C45.2764 6.00366 44.7059 6.68966 43.8685 6.68966C42.9983 6.68966 42.4072 5.95301 42.4072 4.88027C42.4072 3.81674 42.9983 3.08009 43.8685 3.08009Z" fill="white"/>
<path fill-rule="evenodd" clip-rule="evenodd" d="M49.7301 2.28345C48.3919 2.28345 47.4807 3.34238 47.4807 4.88013C47.4807 6.4363 48.3919 7.49983 49.7301 7.49983C51.06 7.49983 51.9713 6.4363 51.9713 4.88013C51.9713 3.34698 51.06 2.28345 49.7301 2.28345ZM49.7341 3.07985C50.6043 3.07985 51.2241 3.81649 51.2241 4.88003C51.2241 5.95277 50.6043 6.69862 49.7341 6.69862C48.8433 6.69862 48.2317 5.95277 48.2317 4.88003C48.2317 3.81649 48.8433 3.07985 49.7341 3.07985Z" fill="white"/>
<path d="M55.8299 2.41717L55.7273 3.2459C55.5878 3.19526 55.4359 3.16303 55.2881 3.16303C54.6149 3.16303 54.1798 3.64645 54.1798 4.68697V7.38033H53.4286V2.38494H54.1305V3.18605C54.385 2.59673 54.7791 2.31128 55.3127 2.31128C55.5015 2.31128 55.6698 2.34351 55.8299 2.41717Z" fill="white"/>
</svg>
