<svg width="135" height="40" viewBox="0 0 135 40" fill="none" xmlns="http://www.w3.org/2000/svg">
<path fill-rule="evenodd" clip-rule="evenodd" d="M4.95365 33.1207L6.56377 27.9234H12.997L14.4838 33.1207H19.9307L14.2372 13.5461C13.871 12.2184 13.2472 11.8502 11.8837 11.8502H3.96002V13.6664H4.57651C5.68981 13.6664 6.06333 13.9072 6.06333 14.6329C6.06333 14.9976 6.06333 15.3552 5.68981 16.4456L0 33.1207H4.95365ZM12.2572 24.5428H7.30721L9.90008 16.0849L12.2572 24.5428Z" fill="#4EA7CE"/>
<path fill-rule="evenodd" clip-rule="evenodd" d="M26.4836 33.1207V13.4257C26.4836 12.4556 25.9904 11.8502 24.8771 11.8502H20.0504V13.6664H20.3006C21.287 13.6664 21.6605 14.0311 21.6605 14.8737V33.1207H26.4836Z" fill="#4EA7CE"/>
<path fill-rule="evenodd" clip-rule="evenodd" d="M35.2667 33.1207V13.4257C35.2667 12.4556 34.6539 11.8502 33.6639 11.8502H28.8371V13.6664H29.0874C29.9541 13.6664 30.4473 14.0311 30.4473 14.8737V33.1207H35.2667Z" fill="#4EA7CE"/>
<path fill-rule="evenodd" clip-rule="evenodd" d="M44.0608 33.121V18.74C44.0608 17.7735 43.437 17.1681 42.5739 17.1681H37.6239V18.8604H37.8669C38.8569 18.8604 39.2304 19.3454 39.2304 20.1881V33.1174H44.0608V33.121ZM44.1805 13.7871C44.1805 12.332 43.1942 11.4894 41.3338 11.4894C39.604 11.4894 38.4871 12.332 38.4871 13.7871C38.4871 15.2351 39.604 15.9609 41.3338 15.9609C43.1942 15.9609 44.1805 15.2351 44.1805 13.7871Z" fill="#4EA7CE"/>
<path fill-rule="evenodd" clip-rule="evenodd" d="M48.7607 21.5191L49.2575 21.3987C50.4941 20.9137 51.2375 20.6729 52.1042 20.5526C52.5974 20.4357 53.2175 20.4357 53.5838 20.4357C55.0742 20.4357 55.6907 20.9172 55.6907 22.3652V22.7299C53.3408 23.0875 52.7207 23.2149 51.6074 23.4592C50.8676 23.5796 50.2475 23.8203 49.6274 24.0611C47.6474 24.9108 46.7807 26.3588 46.7807 28.7733C46.7807 31.7897 48.0209 33.2412 50.7443 33.2412C51.8576 33.2412 52.9709 33.0005 53.8376 32.519C54.4578 32.1543 54.8276 31.9171 55.8177 31.071V31.5525C55.8177 32.6429 56.3145 33.1279 57.1776 33.1279H61.7577V31.4356H61.6344C60.7641 31.4356 60.2709 31.0745 60.2709 30.2284V22.3688C60.2709 18.3859 58.9073 16.9343 54.8276 16.9343C53.4641 16.9343 52.2275 17.1751 50.9909 17.4194C49.7543 17.6601 49.1342 17.9008 47.6474 18.6266L48.7607 21.5191ZM55.6905 25.3852V28.5291C54.6969 29.4956 53.7105 29.9771 52.7205 29.9771C51.6072 29.9771 51.2337 29.4956 51.2337 28.2848C51.2337 27.0775 51.6036 26.4757 52.5936 26.111C53.4639 25.7499 54.2037 25.626 55.6905 25.3852Z" fill="#4EA7CE"/>
<path fill-rule="evenodd" clip-rule="evenodd" d="M69.1806 33.1211V22.2451C70.2976 21.2786 71.041 20.9175 72.1507 20.9175C73.2676 20.9175 73.6375 21.4025 73.6375 22.9709V33.1211H78.3409V22.2451C78.3409 19.9474 78.0943 19.1048 77.4778 18.2587C76.7308 17.416 75.7408 17.0514 74.3809 17.0514C72.5206 17.0514 71.041 17.6568 68.934 19.4695V18.6269C68.934 17.6603 68.5678 17.1753 67.5742 17.1753H62.7438V18.8676H62.994C63.984 18.8676 64.3575 19.3526 64.3575 20.1952V33.1246H69.1806V33.1211Z" fill="#4EA7CE"/>
<path fill-rule="evenodd" clip-rule="evenodd" d="M93.434 29.9736H86.134L93.1838 20.4323V17.1681H82.7905C81.5575 17.1681 81.0607 17.6531 81.0607 18.8604V21.7599H82.7905V21.3988C82.7905 20.5527 83.1604 20.1916 84.1504 20.1916H87.9871L80.9374 29.7328V33.1209H93.434V29.9736Z" fill="#4EA7CE"/>
<path fill-rule="evenodd" clip-rule="evenodd" d="M135 23.4557C135 13.9038 127.722 6.91162 117.934 6.91162C108.273 6.91162 101.111 13.9038 101.111 23.4557C101.111 32.8908 108.273 39.9998 118.057 39.9998C127.718 39.9998 135 32.8908 135 23.4557ZM132.135 23.456C132.135 31.4926 126.17 37.4368 117.934 37.4368C109.822 37.4368 103.976 31.4961 103.976 23.456C103.976 15.299 109.825 9.47509 117.934 9.47509C126.17 9.47509 132.135 15.299 132.135 23.456ZM113.401 32.0765V17.1646H110.895C109.579 17.1646 108.988 17.7487 108.988 19.0303V32.0765H113.401ZM122.59 32.0765H127.007V19.0303C127.007 17.7487 126.525 17.1646 125.092 17.1646H122.587V32.0765H122.59ZM120.2 32.0765V14.835C120.2 13.4365 119.725 12.9727 118.289 12.9727H114.235V14.835H114.59C115.544 14.835 115.787 15.0686 115.787 16.0033V32.0765H120.2Z" fill="#4EA7CE"/>
<path fill-rule="evenodd" clip-rule="evenodd" d="M52.9343 5.02659H55.3827L55.9948 6.80998H56.7409L54.5641 0.618896H53.7456L51.5688 6.80998H52.3149L52.9343 5.02659ZM54.1586 1.48017L55.1184 4.26291H53.1916L54.1586 1.48017Z" fill="#4EA7CE"/>
<path d="M60.9604 2.39844V6.80613H60.341V6.14802C60.0694 6.65988 59.613 6.89956 59.0734 6.89956C58.1643 6.89956 57.5522 6.18458 57.5522 4.96181V2.39844H58.215V4.83993C58.215 5.75803 58.6025 6.19677 59.2327 6.19677C59.8955 6.19677 60.3012 5.70522 60.3012 4.86837V2.39844H60.9604V2.39844Z" fill="#4EA7CE"/>
<path d="M64.4339 6.73299C64.2275 6.82642 64.0029 6.86298 63.7784 6.86298C63.0431 6.86298 62.6375 6.38768 62.6375 5.54677V3.10527H62.0507V2.39841H62.6375V1.28532L63.3003 1.13501V2.39841H64.3832V3.10527H63.3003V5.46146C63.3003 5.96113 63.5067 6.15613 63.8617 6.15613C64.0283 6.15613 64.184 6.12769 64.3325 6.06269L64.4339 6.73299Z" fill="#4EA7CE"/>
<path fill-rule="evenodd" clip-rule="evenodd" d="M67.2626 2.30884C66.0819 2.30884 65.2778 3.24319 65.2778 4.60003C65.2778 5.97312 66.0819 6.91153 67.2626 6.91153C68.4361 6.91153 69.2402 5.97312 69.2402 4.60003C69.2402 3.24725 68.4361 2.30884 67.2626 2.30884ZM67.2658 3.01158C68.0337 3.01158 68.5806 3.66156 68.5806 4.59997C68.5806 5.54651 68.0337 6.20462 67.2658 6.20462C66.4799 6.20462 65.9402 5.54651 65.9402 4.59997C65.9402 3.66156 66.4799 3.01158 67.2658 3.01158Z" fill="#4EA7CE"/>
<path d="M72.6448 2.42681L72.5542 3.15804C72.4311 3.11335 72.2971 3.08492 72.1667 3.08492C71.5727 3.08492 71.1888 3.51147 71.1888 4.42957V6.80607H70.526V2.39837H71.1453V3.10523C71.3699 2.58524 71.7176 2.33337 72.1884 2.33337C72.355 2.33337 72.5035 2.36181 72.6448 2.42681Z" fill="#4EA7CE"/>
<path fill-rule="evenodd" clip-rule="evenodd" d="M74.2497 0.358887C73.8675 0.358887 73.6045 0.574193 73.6045 0.878873C73.6045 1.18355 73.8626 1.3948 74.2497 1.39886C74.6219 1.39886 74.8849 1.18355 74.8849 0.878873C74.8849 0.574193 74.6219 0.358887 74.2497 0.358887ZM74.7011 6.80598V2.39828H73.7928V6.80598H74.7011Z" fill="#4EA7CE"/>
<path d="M78.8924 6.11138V6.80604H75.7051V6.22106L77.8964 3.10114H75.7848V2.39429H78.8055V2.97115L76.6142 6.10731H78.8924V6.11138Z" fill="#4EA7CE"/>
<path fill-rule="evenodd" clip-rule="evenodd" d="M81.6485 2.30884C80.5728 2.30884 79.8195 3.24319 79.8195 4.60003C79.8195 5.96499 80.5728 6.89934 81.6485 6.89528C82.2172 6.89528 82.7061 6.62716 83.0538 6.09905V6.80591H83.6732V2.39821H83.0538V3.10507C82.7061 2.57696 82.2208 2.30884 81.6485 2.30884ZM81.7716 3.01158C82.5104 3.01158 83.0139 3.61687 83.0139 4.59997C83.0139 5.5912 82.5068 6.19649 81.7716 6.19649C81.0037 6.19649 80.4822 5.54651 80.4822 4.59997C80.4822 3.66156 81.0037 3.01158 81.7716 3.01158Z" fill="#4EA7CE"/>
<path fill-rule="evenodd" clip-rule="evenodd" d="M88.813 6.81014V0.294067H88.1538V3.04024C87.8133 2.55682 87.3425 2.30495 86.7883 2.30495C85.7126 2.30495 84.9593 3.2393 84.9593 4.59614C84.9593 5.9611 85.7126 6.89952 86.7883 6.89952C87.357 6.89952 87.8459 6.6314 88.1936 6.10329V6.81014H88.813ZM86.9078 3.01179C87.6467 3.01179 88.1501 3.61709 88.1501 4.60019C88.1501 5.59141 87.6467 6.19671 86.9078 6.19671C86.14 6.19671 85.6184 5.54673 85.6184 4.60019C85.6184 3.66178 86.14 3.01179 86.9078 3.01179Z" fill="#4EA7CE"/>
<path fill-rule="evenodd" clip-rule="evenodd" d="M92.0797 2.30884C90.899 2.30884 90.0949 3.24319 90.0949 4.60003C90.0949 5.97312 90.899 6.91153 92.0797 6.91153C93.2532 6.91153 94.0573 5.97312 94.0573 4.60003C94.0573 3.24725 93.2532 2.30884 92.0797 2.30884ZM92.0832 3.01158C92.8511 3.01158 93.398 3.66156 93.398 4.59997C93.398 5.54651 92.8511 6.20462 92.0832 6.20462C91.2973 6.20462 90.7576 5.54651 90.7576 4.59997C90.7576 3.66156 91.2973 3.01158 92.0832 3.01158Z" fill="#4EA7CE"/>
<path fill-rule="evenodd" clip-rule="evenodd" d="M6.08863 0.618896H4.42618V6.80998H6.08863C7.96115 6.80998 8.95355 5.5547 8.95355 3.7185C8.95355 1.8823 7.95752 0.618896 6.08863 0.618896ZM8.24728 3.71864C8.24728 5.09986 7.53014 6.0464 6.08863 6.0464H5.13607V1.37871H6.08863C7.52652 1.37871 8.24728 2.31712 8.24728 3.71864Z" fill="#4EA7CE"/>
<path fill-rule="evenodd" clip-rule="evenodd" d="M10.7975 0.358887C10.4154 0.358887 10.1523 0.574193 10.1523 0.878873C10.1523 1.18355 10.4154 1.3948 10.7975 1.39886C11.1697 1.39886 11.4328 1.18355 11.4328 0.878873C11.4328 0.574193 11.1697 0.358887 10.7975 0.358887ZM11.2541 6.80598V2.39828H10.3459V6.80598H11.2541Z" fill="#4EA7CE"/>
<path d="M12.336 5.9084C12.6584 6.11152 13.0242 6.21307 13.419 6.21307C13.9985 6.21307 14.3462 5.97339 14.3462 5.59965C14.3462 4.68968 12.2274 5.21779 12.2274 3.56846C12.2274 2.76004 12.7562 2.30505 13.6327 2.30505C14.089 2.30505 14.5345 2.41474 14.8315 2.60161L14.683 3.29628C14.3752 3.10128 13.9949 2.99972 13.6399 2.99972C13.1365 2.99972 12.8866 3.21503 12.8866 3.55627C12.8866 4.53124 15.0054 3.9747 15.0054 5.5509C15.0054 6.40401 14.3933 6.90774 13.4154 6.90774C12.9264 6.90774 12.4882 6.79806 12.1658 6.60306L12.336 5.9084Z" fill="#4EA7CE"/>
<path d="M18.1641 6.73299C17.9576 6.82642 17.7331 6.86298 17.5085 6.86298C16.7733 6.86298 16.3676 6.38768 16.3676 5.54677V3.10527H15.7809V2.39841H16.3676V1.28532L17.0304 1.13501V2.39841H18.1134V3.10527H17.0304V5.46146C17.0304 5.96113 17.2369 6.15613 17.5918 6.15613C17.7584 6.15613 17.9142 6.12769 18.0627 6.06269L18.1641 6.73299Z" fill="#4EA7CE"/>
<path d="M21.4237 2.42681L21.3331 3.15804C21.21 3.11335 21.076 3.08492 20.9456 3.08492C20.3516 3.08492 19.9677 3.51147 19.9677 4.42957V6.80607H19.3049V2.39837H19.9242V3.10523C20.1488 2.58524 20.4965 2.33337 20.9673 2.33337C21.1339 2.33337 21.2824 2.36181 21.4237 2.42681Z" fill="#4EA7CE"/>
<path fill-rule="evenodd" clip-rule="evenodd" d="M23.0285 0.358887C22.6463 0.358887 22.3833 0.574193 22.3833 0.878873C22.3833 1.18355 22.6414 1.3948 23.0285 1.39886C23.4007 1.39886 23.6638 1.18355 23.6638 0.878873C23.6638 0.574193 23.4007 0.358887 23.0285 0.358887ZM23.4851 6.80598V2.39828H22.5769V6.80598H23.4851Z" fill="#4EA7CE"/>
<path fill-rule="evenodd" clip-rule="evenodd" d="M26.7879 6.90358C27.8708 6.90358 28.6242 5.96517 28.6242 4.6002C28.6242 3.24336 27.8708 2.30495 26.7915 2.30495C26.2373 2.30495 25.7737 2.55682 25.4333 3.04024V0.294067H24.7705V6.81421H25.3898V6.10735C25.7375 6.63546 26.2156 6.90358 26.7879 6.90358ZM26.672 3.01179C27.4326 3.01179 27.9614 3.66178 27.9614 4.60019C27.9614 5.54673 27.4326 6.19671 26.672 6.19671C25.9259 6.19671 25.4297 5.59141 25.4297 4.60019C25.4297 3.61709 25.9259 3.01179 26.672 3.01179Z" fill="#4EA7CE"/>
<path d="M33.2312 2.39844V6.80613H32.6118V6.14802C32.3402 6.65988 31.8838 6.89956 31.3442 6.89956C30.4351 6.89956 29.823 6.18458 29.823 4.96181V2.39844H30.4858V4.83993C30.4858 5.75803 30.8733 6.19677 31.5035 6.19677C32.1663 6.19677 32.572 5.70522 32.572 4.86837V2.39844H33.2312V2.39844Z" fill="#4EA7CE"/>
<path fill-rule="evenodd" clip-rule="evenodd" d="M35.3177 0.358887C34.9355 0.358887 34.6725 0.574193 34.6725 0.878873C34.6725 1.18355 34.9305 1.3948 35.3177 1.39886C35.6899 1.39886 35.9529 1.18355 35.9529 0.878873C35.9529 0.574193 35.6899 0.358887 35.3177 0.358887ZM35.7694 6.80598V2.39828H34.8612V6.80598H35.7694Z" fill="#4EA7CE"/>
<path fill-rule="evenodd" clip-rule="evenodd" d="M40.6126 6.81014V0.294067H39.9535V3.04024C39.613 2.55682 39.1421 2.30495 38.588 2.30495C37.5123 2.30495 36.7589 3.2393 36.7589 4.59614C36.7589 5.9611 37.5123 6.89952 38.588 6.89952C39.1566 6.89952 39.6456 6.6314 39.9933 6.10329V6.81014H40.6126ZM38.7075 3.01179C39.4463 3.01179 39.9498 3.61709 39.9498 4.60019C39.9498 5.59141 39.4463 6.19671 38.7075 6.19671C37.9396 6.19671 37.4181 5.54673 37.4181 4.60019C37.4181 3.66178 37.9396 3.01179 38.7075 3.01179Z" fill="#4EA7CE"/>
<path fill-rule="evenodd" clip-rule="evenodd" d="M43.8795 2.30884C42.6987 2.30884 41.8947 3.24319 41.8947 4.60003C41.8947 5.97312 42.6987 6.91153 43.8795 6.91153C45.053 6.91153 45.857 5.97312 45.857 4.60003C45.857 3.24725 45.053 2.30884 43.8795 2.30884ZM43.883 3.01158C44.6509 3.01158 45.1978 3.66156 45.1978 4.59997C45.1978 5.54651 44.6509 6.20462 43.883 6.20462C43.0971 6.20462 42.5574 5.54651 42.5574 4.59997C42.5574 3.66156 43.0971 3.01158 43.883 3.01158Z" fill="#4EA7CE"/>
<path d="M49.2617 2.42681L49.1712 3.15804C49.048 3.11335 48.914 3.08492 48.7836 3.08492C48.1896 3.08492 47.8057 3.51147 47.8057 4.42957V6.80607H47.1429V2.39837H47.7622V3.10523C47.9868 2.58524 48.3345 2.33337 48.8053 2.33337C48.972 2.33337 49.1205 2.36181 49.2617 2.42681Z" fill="#4EA7CE"/>
</svg>
