<svg width="34" height="32" viewBox="0 0 34 32" fill="none" xmlns="http://www.w3.org/2000/svg">
<g clip-path="url(#clip0_458_3091)">
<path d="M4.28711 12.6745C4.28711 10.0392 4.28711 7.59216 4.28711 5.1451C4.28711 4.4549 4.28711 3.82745 4.34835 3.13725C4.65457 1.00392 5.81821 0 8.02299 0C10.779 0 13.5962 0 16.3522 0H20.3943C22.5991 0 23.824 1.2549 23.824 3.45098C23.8852 4.64314 23.8852 5.83529 23.7627 7.02745C23.2728 10.4157 21.1292 12.549 17.6995 13.051C17.3933 13.1137 17.0871 13.1137 16.7196 13.1765C16.7196 12.0471 16.7196 10.9804 16.7196 9.85098C16.7196 9.72549 16.9646 9.53726 17.1484 9.47451C17.822 9.09804 18.4957 8.84706 19.1082 8.40784C19.9656 7.84314 20.3943 6.90196 20.333 5.96078C20.2718 5.27059 20.333 4.58039 20.333 3.8902C20.333 3.51373 20.2106 3.38824 19.8431 3.38824C15.9847 3.38824 12.1263 3.38824 8.26797 3.38824C7.83926 3.38824 7.77802 3.57647 7.77802 3.8902C7.77802 5.45882 7.77802 7.02745 7.77802 8.59608C7.77802 8.78431 7.77802 9.03529 7.65553 9.22353C6.67563 10.3529 5.51199 11.4196 4.28711 12.6745Z" fill="white" fill-opacity="0.8"/>
<path d="M16.9646 4.39209C16.9646 5.58425 16.9646 6.65091 16.9646 7.71758C16.9646 7.84307 16.7196 8.03131 16.5971 8.1568C15.801 8.59601 15.0048 9.03523 14.2699 9.53719C13.6574 10.0391 13.29 10.7921 13.3512 11.545C13.3512 12.4235 13.3512 13.3019 13.3512 14.1803H25.7837C25.7837 14.0548 25.845 13.9293 25.845 13.8039C25.6613 12.8627 26.1512 12.2352 26.8249 11.6078C27.6823 10.8548 28.4785 9.9764 29.4584 9.03523C29.4584 9.78817 29.4584 10.4156 29.4584 10.9803C29.5196 12.2352 29.4584 13.4901 29.3359 14.745C29.2134 16.3764 27.8048 17.6313 26.09 17.5058C21.7416 17.5686 17.3321 17.5686 12.9837 17.5058C11.2689 17.5058 10.044 16.4391 9.92155 14.745C9.79906 13.1764 9.79906 11.6078 9.98279 10.0391C10.3503 7.15287 12.555 5.14503 15.6172 4.51758C15.9847 4.51758 16.4134 4.45483 16.9646 4.39209Z" fill="white" fill-opacity="0.8"/>
<path d="M6.18568 28.2354L7.96176 28.8628C7.77803 29.804 7.28807 30.6197 6.61439 31.2471C5.9407 31.8118 5.08329 32.0628 4.16463 32.0001C3.06224 32.0628 1.95984 31.5608 1.16367 30.6824C0.367499 29.6785 -0.0612094 28.3608 3.45828e-05 27.0432C3.45828e-05 25.4118 0.367499 24.1569 1.16367 23.2785C1.95984 22.4001 3.12348 21.8981 4.28712 21.9608C5.26702 21.8981 6.24692 22.2746 6.98185 23.0275C7.47181 23.5295 7.77803 24.1569 7.96176 24.7844L6.12444 25.2236C6.06319 24.7844 5.81822 24.3452 5.45075 24.0314C5.08329 23.7177 4.65458 23.5922 4.22587 23.5922C3.55219 23.5295 2.93975 23.8432 2.51104 24.3452C2.08233 24.8471 1.8986 25.7256 1.8986 26.855C1.8986 28.1099 2.08233 28.9883 2.51104 29.4903C2.8785 29.9922 3.49094 30.3059 4.10338 30.2432C4.59334 30.2432 5.02204 30.055 5.38951 29.7412C5.81822 29.4275 6.06319 28.8628 6.18568 28.2354Z" fill="white" fill-opacity="0.8"/>
<path d="M9.79907 31.9999V22.5881H11.6364L15.4335 28.8626V22.5881H17.1484V31.9999H15.2498L11.5139 25.8509V31.9999H9.79907Z" fill="white" fill-opacity="0.8"/>
<path d="M18.9857 28.6745L20.7617 28.4863C20.823 29.051 21.068 29.4902 21.4354 29.8667C21.8029 30.1804 22.2928 30.3687 22.7215 30.3059C23.2115 30.3687 23.6402 30.1804 24.0689 29.9294C24.3751 29.7412 24.5589 29.3647 24.5589 28.9883C24.5589 28.8 24.4976 28.549 24.3751 28.4236C24.1914 28.2353 23.9464 28.0471 23.7014 27.9843C23.5177 27.9216 23.0278 27.7334 22.2316 27.5451C21.4967 27.4196 20.7617 27.0432 20.2105 26.604C19.2919 25.7883 19.1081 24.3451 19.7818 23.2785C20.088 22.8392 20.4555 22.5255 20.8842 22.2745C21.4354 22.0236 22.0479 21.8981 22.6603 21.9608C23.579 21.8981 24.4976 22.149 25.2325 22.7765C25.7837 23.3412 26.1512 24.0941 26.1512 24.9098L24.3139 24.9726C24.2526 24.5334 24.1302 24.1569 23.8239 23.9059C23.4565 23.6549 23.089 23.5294 22.6603 23.5922C22.2316 23.5922 21.8029 23.7177 21.4354 23.9687C21.2517 24.0941 21.1292 24.3451 21.1292 24.5961C21.1292 24.8471 21.2517 25.0353 21.3742 25.1608C21.8641 25.4745 22.4766 25.7255 23.0278 25.7883C23.7014 25.9138 24.3751 26.1647 24.9876 26.4785C25.4163 26.7294 25.7225 27.0432 25.9675 27.4824C26.4574 28.4236 26.4574 29.6157 25.9062 30.5569C25.6 31.0589 25.1713 31.4353 24.6814 31.6236C24.0689 31.8745 23.3952 32 22.7215 32C21.8029 32.0628 20.823 31.749 20.088 31.1216C19.4756 30.4941 19.0469 29.6157 18.9857 28.6745Z" fill="white" fill-opacity="0.8"/>
<path d="M27.5598 31.9999V22.5881H33.6842V24.1568H29.3971V26.4156H33.133V27.9842H29.3971V31.9999H27.5598Z" fill="white" fill-opacity="0.8"/>
</g>
<defs>
<clipPath id="clip0_458_3091">
<rect width="33.6842" height="32" fill="white"/>
</clipPath>
</defs>
</svg>
