<?xml version="1.0" encoding="UTF-8"?>
<svg width="108px" height="54px" viewBox="0 0 108 54" version="1.1" xmlns="http://www.w3.org/2000/svg" xmlns:xlink="http://www.w3.org/1999/xlink">
    <title>amazon</title>
    <g id="Main-page" stroke="none" stroke-width="1" fill="none" fill-rule="evenodd">
        <g id="LANDING-COMPLETO" transform="translate(-1066.000000, -7285.000000)" fill="#424749" fill-rule="nonzero">
            <g id="amazon" transform="translate(1066.000000, 7285.000000)">
                <path d="M34.3506774,28 C32.2303522,28 29.8585366,28.8050066 29.3642276,31.4640975 C29.3121951,31.7467062 29.498645,31.8794466 29.6850948,31.9222661 L31.8617885,32.1791831 C32.0612465,32.1706192 32.1999999,31.9522398 32.2390243,31.7509881 C32.4254742,30.8346509 33.1842817,30.4064559 34.0384823,30.4064559 C34.4981028,30.4064559 35.014092,30.5606061 35.2872627,30.9802372 C35.5994578,31.4426877 35.5777776,32.0764163 35.5777776,32.6116601 L35.5777776,32.9285244 C34.2856367,33.0741107 32.5859078,33.1640316 31.3761517,33.7035573 C29.9799458,34.3158762 29,35.5619236 29,37.3945982 C29,39.7453887 30.4569105,40.914361 32.3344173,40.914361 C33.917073,40.914361 34.7929538,40.5461133 36.015718,39.2829381 C36.423306,39.8781291 36.5490513,40.147892 37.2905147,40.7730567 C37.4578337,40.8678683 37.6679634,40.8453882 37.8108399,40.7173913 L37.8108399,40.747365 C38.2574523,40.3465744 39.0639564,39.618643 39.523577,39.2332675 C39.7056908,39.0833992 39.6666664,38.8350461 39.523577,38.6337945 C39.1159889,38.0642951 38.6823846,37.6061265 38.6823846,36.5442029 L38.6823846,33.0244401 C38.6823846,31.5343215 38.8124659,30.1598155 37.724119,29.1321476 C36.8612464,28.2886034 35.4346882,28.0017128 34.3506774,28.0017128 L34.3506774,28 Z M63.5756089,28 C61.4509477,28 59.0878041,28.8050066 58.5891591,31.4640975 C58.5371266,31.7467062 58.7235765,31.8794466 58.9100263,31.9222661 L61.08672,32.1791831 C61.286178,32.1706192 61.4249314,31.9522398 61.4639558,31.7509881 C61.6504057,30.8346509 62.4092132,30.4064559 63.2634138,30.4064559 C63.7230343,30.4064559 64.2390235,30.5606061 64.5121942,30.9802372 C64.8243893,31.4426877 64.7723568,32.0764163 64.7723568,32.6116601 L64.7723568,32.9285244 C63.4802159,33.0741107 61.8065032,33.1640316 60.5967472,33.7035573 C59.2005412,34.3158762 58.2205955,35.5619236 58.2205955,37.3945982 C58.2205955,39.7453887 59.677506,40.914361 61.5550127,40.914361 C63.1376685,40.914361 64.0135492,40.5461133 65.2363134,39.2829381 C65.6395655,39.8781291 65.7696468,40.147892 66.5111101,40.7730567 C66.6784878,40.867591 66.8884414,40.8451298 67.0314353,40.7173913 L67.0314353,40.747365 C67.4780478,40.3448617 68.2845518,39.6169302 68.7441724,39.2315547 C68.9262862,39.0816864 68.8829258,38.8333333 68.7441724,38.6320817 C68.3365844,38.0625823 67.90298,37.6044137 67.90298,36.5424901 L67.90298,33.0244401 C67.90298,31.5343215 67.998373,30.1598155 66.9186982,29.1321476 C66.0514896,28.2886034 64.6596197,28.0017128 63.5756089,28.0017128 L63.5756089,28 Z M47.1376689,28.1156126 C45.7674792,28.1156126 44.7485091,28.8007246 44.2108397,30.2651515 L44.1804874,30.2651515 L44.1804874,28.7493412 C44.1641519,28.5340804 43.9908796,28.3629697 43.7728993,28.3468379 L41.6872625,28.3468379 C41.4486727,28.3489303 41.2557771,28.5394195 41.2536582,28.7750329 L41.2536582,40.3705534 C41.2744534,40.5837656 41.4453405,40.7525209 41.6612463,40.7730567 L43.8943086,40.7730567 C44.1328985,40.7709643 44.3257941,40.5804751 44.3279129,40.3448617 L44.3279129,34.1831357 C44.3279129,32.8428854 44.2628722,31.0059289 45.8628722,31.0059289 C47.445528,31.0059289 47.2243898,32.8942688 47.2243898,34.1831357 L47.2243898,40.3405797 C47.2281609,40.5657298 47.4046522,40.7511443 47.6319778,40.7687747 L49.8650401,40.7687747 C50.10363,40.7666823 50.2965256,40.5761931 50.2986444,40.3405797 L50.2986444,34.1831357 C50.2986444,33.5237154 50.2726282,32.5645586 50.5024385,31.9779315 C50.7322488,31.3913043 51.2959344,31.0059289 51.8379398,31.0059289 C52.4840102,31.0059289 52.9783192,31.2285903 53.1430888,32.0079051 C53.2471538,32.4703557 53.1994574,33.6949934 53.1994574,34.1831357 L53.1994574,40.3405797 C53.2032285,40.5657298 53.3797198,40.7511443 53.6070454,40.7687747 L55.8401077,40.7687747 C56.0786976,40.7666823 56.2715932,40.5761931 56.273712,40.3405797 L56.273712,33.0141634 C56.273712,31.7681159 56.3994573,30.3550725 55.6926822,29.3787879 C55.068292,28.5009881 54.0493219,28.1198946 53.1127365,28.1198946 C51.7989154,28.1198946 50.5804873,28.8050066 50.0384818,30.2694335 C49.4097556,28.8007246 48.5295388,28.1156126 47.1376689,28.1156126 L47.1376689,28.1156126 Z M85.0867194,28.1156126 C81.8607033,28.1156126 80.0699174,30.9160079 80.0699174,34.5299736 C80.0699174,38.1182477 81.839023,41 85.0867194,41 C88.2086706,41 90.1902423,38.1824769 90.1902423,34.6455863 C90.1902423,30.9845191 88.3951204,28.1156126 85.0867194,28.1156126 L85.0867194,28.1156126 Z M97.8130064,28.1156126 C96.273711,28.1156126 95.3934942,28.8777997 94.769104,30.4621212 L94.7387517,30.4621212 L94.7387517,28.685112 C94.6997273,28.5052701 94.5262856,28.3810935 94.3311636,28.3682477 L92.2715431,28.3682477 C92.051068,28.3626389 91.8628206,28.524371 91.8379388,28.7407773 L91.8379388,40.3362978 C91.8417099,40.5614479 92.0182012,40.7468623 92.2455268,40.7644928 L94.4482368,40.7644928 C94.6868267,40.7624004 94.8797223,40.5719112 94.8818411,40.3362978 L94.8818411,34.0974967 C94.8818411,33.3138999 94.9468818,32.6030962 95.2590769,31.8922925 C95.5105674,31.331357 95.9918682,30.9759552 96.5338736,30.9759552 C98.073169,30.9759552 97.9257435,32.8257576 97.9257435,34.0974967 L97.9257435,40.3962451 C97.9561884,40.5995206 98.1257516,40.7544988 98.3333316,40.7687747 L100.566394,40.7687747 C100.783932,40.7665377 100.967654,40.608693 100.999999,40.3962451 L100.999999,33.0955204 C100.999999,31.9736495 101.004334,30.4150198 100.418968,29.4858366 C99.7989142,28.4881423 98.8102963,28.1156126 97.8130064,28.1156126 L97.8130064,28.1156126 Z M71.0249312,28.3168643 C70.7994569,28.3168643 70.6216791,28.4967062 70.6173431,28.7450593 L70.6173431,30.4064559 C70.6173431,30.654809 70.7907848,30.8346509 71.0249312,30.8346509 L74.8536574,30.8346509 L70.4742537,37.220751 C70.205419,37.6318182 70.1837388,38.0985507 70.1837388,38.3640316 L70.1837388,40.0554018 C70.1837388,40.299473 70.4525735,40.5649539 70.704064,40.4279315 C73.1972888,39.0833992 76.1891587,39.2032938 78.4439012,40.3979578 C78.7170719,40.5435441 78.9945787,40.2694993 78.9945787,40.0254282 L78.9945787,38.248419 C78.9807506,37.9822647 78.8258388,37.7430313 78.5869906,37.6189723 C77.3078578,36.8910408 75.820595,36.6683794 74.4113809,36.702635 L78.2097548,31.2046113 C78.5609743,30.7121871 78.7560963,30.4124506 78.7604323,30.1726614 L78.7604323,28.7424901 C78.7604323,28.494137 78.5913266,28.3142951 78.3528443,28.3142951 L71.0249312,28.3142951 L71.0249312,28.3168643 Z M85.0867194,30.4920949 C85.7934945,30.4920949 86.3138197,30.8046772 86.5653102,31.6096838 C86.8558251,32.5388669 86.8861774,33.6949934 86.8861774,34.671278 C86.8861774,36.1571146 86.8168007,38.6235178 85.0867194,38.6235178 C83.339294,38.6235178 83.3479657,35.5747694 83.3479657,34.157444 C83.3479657,32.7401186 83.443359,30.4920949 85.0867194,30.4920949 L85.0867194,30.4920949 Z M35.5387532,34.7269433 L35.5387532,35.2150856 C35.5387532,36.0971673 35.5691055,36.8379447 35.1311652,37.6215415 C34.7756096,38.259552 34.2205961,38.6534914 33.5962058,38.6534914 C32.7420053,38.6534914 32.2346883,37.9683794 32.2346883,36.9920949 C32.2346883,35.0652174 33.9300812,34.7269433 35.5387532,34.7269433 Z M64.7636847,34.7269433 L64.7636847,35.2150856 C64.7636847,36.0971673 64.794037,36.8379447 64.3560967,37.6215415 C64.0005411,38.259552 63.4498636,38.6534914 62.8211373,38.6534914 C61.9669368,38.6534914 61.4596198,37.9683794 61.4596198,36.9920949 C61.4596198,35.0652174 63.1506766,34.7269433 64.7636847,34.7269433 Z" id="Shape"></path>
                <path d="M79.6402854,41 L79.6402854,42.753801 L80.7662187,42.753801 L80.7662187,41 L79.6402854,41 Z M47.0184171,41.3028471 L47.0184171,53.782859 L48.058072,53.782859 L48.058072,52.6663929 C48.278082,53.1093632 48.5326033,53.4393309 48.8388917,53.6653362 C49.1441065,53.8867706 49.5073259,54.0036291 49.8785465,53.9999141 C50.6421105,53.9999141 51.2978264,53.5930145 51.867264,52.7613151 C52.4367015,51.9296156 52.734362,50.7272675 52.734362,49.1949517 C52.734362,48.1914882 52.6135723,47.3597887 52.3590509,46.6546523 C52.1045296,45.9495158 51.7680438,45.4297036 51.3495935,45.0816555 C50.9311432,44.7336073 50.452298,44.5392428 49.9346275,44.5392428 C49.5770605,44.5341427 49.2259751,44.6394717 48.9251701,44.8420899 C48.6231956,45.0454946 48.3816161,45.3709422 48.1443504,45.7777517 L48.1443504,41.3028471 L47.0184171,41.3028471 Z M57.6910569,44.2363957 C56.9102373,44.2363957 56.2890327,44.4804814 55.8446989,44.9596126 C55.400365,45.4387438 55.1803551,46.0625184 55.1803551,46.8354565 C55.1776181,47.2444779 55.2662592,47.6484962 55.4391903,48.0152041 C55.5937401,48.35605 55.8319409,48.6477532 56.1294176,48.8604638 C56.4227642,49.0683887 57.0137714,49.3441152 57.8894973,49.6469622 C58.4934462,49.850367 58.8558155,50.0266511 59.0154306,50.1622543 C59.2440684,50.3611389 59.3605442,50.618785 59.3605442,50.9803934 C59.3605442,51.3962431 59.2224988,51.7397712 58.9550357,52.0064574 C58.6875726,52.2731437 58.3165754,52.3997066 57.8291024,52.3997066 C57.3416293,52.3997066 56.9404347,52.2550632 56.6470881,51.947696 C56.3537415,51.6403289 56.1941264,51.1657178 56.1294176,50.5283829 L55.0034843,50.7679485 C55.2580056,52.7070738 56.1811847,53.6698563 57.7730214,53.6698563 C58.6228638,53.6698563 59.2699519,53.4167304 59.7617388,52.8833579 C60.2535258,52.3499855 60.512361,51.6312886 60.512361,50.7679485 C60.512361,50.3023776 60.4347105,49.8955681 60.2837232,49.5610802 C60.1445041,49.2433881 59.9252619,48.9714736 59.6495769,48.7745818 C59.373486,48.5802173 58.7652232,48.3180512 57.8334163,47.9880834 C57.1561307,47.7394776 56.75925,47.5586734 56.6212046,47.4456708 C56.3925668,47.2558263 56.2760909,46.9936602 56.2760909,46.6591724 C56.2760909,46.3246845 56.3839389,46.0308777 56.6212046,45.8139126 C56.8584702,45.5969475 57.2294674,45.4794248 57.7169404,45.4794248 C58.5754107,45.4794248 59.0585698,45.9766364 59.1577899,46.9620194 L60.2535258,46.7812152 C60.1758752,46.1574406 60.0464576,45.6647491 59.8480173,45.3302613 C59.6363313,44.9791498 59.3362881,44.696048 58.9809192,44.5121221 C58.6142359,44.3087174 58.1871578,44.2363957 57.6910569,44.2363957 L57.6910569,44.2363957 Z M64.5847022,44.2363957 C63.6830927,44.2363957 62.9238427,44.6251248 62.3328356,45.4432639 C61.7418284,46.2614031 61.4657375,47.4501909 61.4657375,49.0096273 C61.4657375,50.5103024 61.7504563,51.69005 62.3328356,52.4855886 C62.9152149,53.2811272 63.670151,53.6653362 64.6105857,53.6653362 C65.3612079,53.6653362 65.9780986,53.4302907 66.4871412,52.9421193 C66.9961838,52.4539479 67.3628671,51.730731 67.5526796,50.7679485 L66.4008628,50.5555035 C66.0686909,51.7894923 65.4604281,52.3951865 64.6105857,52.3997066 C64.0713456,52.3997066 63.6313257,52.160141 63.2560146,51.644849 C62.8807035,51.1295569 62.6650075,50.3611389 62.6218683,49.3486353 L67.5828771,49.3486353 L67.5828771,48.9237453 C67.5828771,47.4004697 67.2938444,46.2523628 66.715779,45.447784 C66.1377136,44.6432052 65.4431724,44.2363957 64.5847022,44.2363957 L64.5847022,44.2363957 Z M71.4222665,44.2363708 C71.1535191,44.2344783 70.8948042,44.3432351 70.7018417,44.5392428 C70.4861457,44.7471676 70.2402522,45.1720576 69.981417,45.8093925 L69.981417,44.4171999 L68.9719595,44.4171999 L68.9719595,53.4528913 L70.0978928,53.4528913 L70.0978928,48.738421 C70.0912925,48.1067661 70.1593958,47.476687 70.3006471,46.8625771 C70.3675166,46.5616719 70.5175691,46.2881016 70.7320392,46.0760787 C70.912726,45.9007997 71.15015,45.8038756 71.3963829,45.8048724 C71.6595321,45.8048724 71.9226813,45.917875 72.2030861,46.1393602 L72.5783972,44.720047 C72.1815165,44.3900793 71.7975776,44.2363708 71.4222665,44.2363708 L71.4222665,44.2363708 Z M85.209557,44.2363957 C84.3208893,44.2363957 83.5832089,44.6296449 83.0180853,45.4161433 C82.4529617,46.2026417 82.1509872,47.3823893 82.1509872,48.950866 C82.1509872,50.5103024 82.4529617,51.69005 83.0180853,52.4855886 C83.5832089,53.2811272 84.282064,53.6653362 85.153476,53.6653362 C85.8695869,53.6653362 86.4850395,53.383583 86.9998341,52.8200764 C87.5131906,52.2550632 87.8237929,51.4188437 87.9532106,50.3430585 L86.8574747,50.1622543 C86.7755102,50.9351924 86.5856977,51.4866453 86.2794093,51.8527738 C85.973121,52.2189024 85.6107516,52.3951865 85.1836735,52.3951865 C84.6401195,52.3951865 84.174216,52.1285003 83.8291024,51.5770474 C83.4839887,51.0255945 83.3114319,50.148694 83.3114319,48.9192252 C83.3114319,47.7259173 83.4969305,46.8670972 83.8592998,46.3201644 C84.2216692,45.7732316 84.6875726,45.4749047 85.2440684,45.4749047 C85.6150655,45.4749047 85.9299817,45.6240681 86.1974448,45.9269152 C86.4649079,46.2297623 86.6374647,46.7088935 86.7453128,47.3191078 L87.8410486,47.0795422 C87.7073171,46.1257999 87.4182844,45.4071031 86.948067,44.932492 C86.4692218,44.4533608 85.8954704,44.2363957 85.209557,44.2363957 L85.209557,44.2363957 Z M91.6416127,44.2363957 C90.7400033,44.2363957 89.9807533,44.6251248 89.3897461,45.4432639 C88.798739,46.2614031 88.5226481,47.4501909 88.5226481,49.0096273 C88.5226481,50.5103024 88.8073668,51.69005 89.3897461,52.4855886 C89.9721254,53.2811272 90.7270616,53.6653362 91.6674963,53.6653362 C92.4138045,53.6653362 93.0350091,53.4302907 93.5440518,52.9421193 C94.0530944,52.4539479 94.4154637,51.730731 94.6095902,50.7679485 L93.4577734,50.5573115 C93.1256015,51.7913004 92.5432222,52.3969946 91.6976937,52.4015147 C91.1584536,52.4015147 90.6882363,52.1619491 90.3129252,51.646657 C89.9376141,51.131365 89.721918,50.362947 89.6787788,49.3504433 L94.6397876,49.3504433 L94.6397876,48.9255534 C94.6397876,47.4022777 94.3507549,46.2541709 93.7726896,45.4495921 C93.203252,44.6404931 92.500083,44.2382037 91.6416127,44.2382037 L91.6416127,44.2363957 Z M98.3023063,44.2363957 C97.5171727,44.2363957 96.9002821,44.4804814 96.4559482,44.9596126 C96.0116144,45.4387438 95.7916044,46.0625184 95.7916044,46.8354565 C95.7916044,47.2829469 95.8606272,47.6626358 96.0202422,48.0152041 C96.1747921,48.35605 96.4129928,48.6477532 96.7104696,48.8604638 C97.0038162,49.0683887 97.5948233,49.3441152 98.4705492,49.6469622 C99.0744981,49.850367 99.4670649,50.0266511 99.622366,50.1622543 C99.8510038,50.3611389 99.9674797,50.618785 99.9674797,50.9803934 C99.9674797,51.3962431 99.8294342,51.7397712 99.5619711,52.0064574 C99.294508,52.2731437 98.9235109,52.3997066 98.4360378,52.3997066 C97.9485648,52.3997066 97.5473702,52.2550632 97.2540236,51.947696 C96.960677,51.6403289 96.7708644,51.1657178 96.7061556,50.5283829 L95.5802223,50.7679485 C95.8347437,52.7070738 96.7536088,53.6698563 98.3497594,53.6698563 C99.1996018,53.6698563 99.8768873,53.4167304 100.368674,52.8833579 C100.860461,52.3499855 101.119296,51.6312886 101.119296,50.7679485 C101.119296,50.3023776 101.041646,49.8955681 100.890659,49.5610802 C100.739671,49.2265924 100.502406,48.9734665 100.226315,48.7745818 C99.950224,48.5756972 99.3678447,48.3180512 98.4360378,47.9880834 C97.7587523,47.7394776 97.3316741,47.5586734 97.1936287,47.4456708 C96.9649909,47.2558263 96.848515,46.9936602 96.848515,46.6591724 C96.8458079,46.3325881 96.9836679,46.0221056 97.2238261,45.8139126 C97.4654057,45.5969475 97.8320889,45.4794248 98.319562,45.4794248 C99.1780322,45.4794248 99.6611913,45.9766364 99.7604115,46.9620194 L100.856147,46.7812152 C100.778497,46.1574406 100.649079,45.6647491 100.450639,45.3302613 C100.237399,44.9805261 99.9377655,44.6978106 99.5835407,44.5121221 C99.2297992,44.3087174 98.7984072,44.2363957 98.3023063,44.2363957 L98.3023063,44.2363957 Z M72.5740833,44.4171999 L75.0847851,53.4528913 L76.1503235,53.4528913 L78.6610254,44.4171999 L77.5092086,44.4171999 L76.0381616,49.9498093 C75.8612909,50.618785 75.7016758,51.1973585 75.6067695,51.6719696 C75.4859798,51.0707955 75.36519,50.4425008 75.201261,49.8277665 L73.7604115,44.4171999 L72.5740833,44.4171999 Z M79.6402854,44.4171999 L79.6402854,53.4528913 L80.7662187,53.4528913 L80.7662187,44.4171999 L79.6402854,44.4171999 Z M42.6656711,44.5347227 C41.7726896,44.5347227 41.0565787,44.9550925 40.4741994,45.7732316 C39.8918201,46.5913708 39.5812179,47.7801586 39.5812179,49.339595 C39.5812179,50.8402701 39.8702505,51.988377 40.4483159,52.7839156 C41.0263813,53.5794542 41.7942592,53.9907838 42.726066,53.9907838 C43.4680604,53.9907838 44.0720093,53.7240976 44.5724241,53.2359262 C45.0728389,52.7477548 45.4179525,52.0245378 45.612079,51.0617553 L44.4861457,50.8809511 C44.1582877,52.11494 43.5629667,52.7206341 42.726066,52.7251542 C42.1911399,52.7251542 41.7424921,52.4855886 41.3714949,51.9702966 C41.0004978,51.4550045 40.7804878,50.6865866 40.7373486,49.6740829 L45.6422764,49.6740829 L45.6724739,49.2491929 C45.6724739,47.7259173 45.3791273,46.5506898 44.8053758,45.7415909 C44.2316244,44.932492 43.5155135,44.5347227 42.6656711,44.5347227 L42.6656711,44.5347227 Z M30,44.7471676 L32.0189149,53.782859 L33.2009292,53.782859 L34.5296167,46.8309364 L34.7582545,48.3722924 L35.8237929,53.782859 L36.9756098,53.782859 L39.0247221,44.7471676 L37.9591837,44.7471676 L36.8332504,49.97693 L36.4579393,51.730731 L36.1128256,49.97693 L35.1335656,44.7471676 L33.9817488,44.7471676 L32.9420939,50.0356913 L32.5969803,51.9115352 L32.1914717,49.97693 L31.1518168,44.7471676 L30,44.7471676 Z M101.792268,44.8375698 L101.792268,45.2624597 L102.888004,45.2624597 L102.888004,48.2864104 L103.319396,48.2864104 L103.319396,45.2624597 L104.415132,45.2624597 L104.415132,44.8375698 L101.792268,44.8375698 Z M104.850838,44.8375698 L104.850838,48.2818903 L105.256346,48.2818903 L105.256346,45.3483417 L106.209723,48.2818903 L106.615231,48.2818903 L107.568608,45.4116232 L107.568608,48.2818903 L108,48.2818903 L108,44.8375698 L107.396051,44.8375698 L106.615231,47.2576344 C106.537581,47.4972 106.4815,47.6734841 106.442675,47.800047 L106.270118,47.284755 L105.489298,44.8348577 L104.850838,44.8393778 L104.850838,44.8375698 Z M64.5545047,45.4749047 C65.1153144,45.4749047 65.5769039,45.7596713 65.9392733,46.3201644 C66.1894807,46.7043734 66.3490957,47.2919872 66.4008628,48.0739654 L62.6822631,48.0739654 C62.7167745,47.2829469 62.9324705,46.6682126 63.286212,46.1981216 C63.6399535,45.7280306 64.0540899,45.4749047 64.5545047,45.4749047 L64.5545047,45.4749047 Z M91.6114153,45.4749047 C92.1679111,45.4749047 92.6338145,45.7596713 92.9961838,46.3201644 C93.2463912,46.7043734 93.4060063,47.2919872 93.4577734,48.0739654 L89.7391737,48.0739654 C89.7736851,47.2829469 89.9893811,46.6682126 90.3431226,46.1981216 C90.6968641,45.7280306 91.1066866,45.4749047 91.6114153,45.4749047 L91.6114153,45.4749047 Z M42.6656711,45.8048724 C43.217853,45.8048724 43.6665007,46.089639 44.0202422,46.6501321 C44.2661357,47.0343411 44.4300647,47.6219549 44.4818318,48.4039332 L40.8193131,48.4039332 C40.8538245,47.6129147 41.043637,46.9665395 41.3973785,46.5009687 C41.75112,46.0353978 42.1652563,45.8048724 42.6656711,45.8048724 L42.6656711,45.8048724 Z M49.8181517,45.8048724 C50.3185665,45.8048724 50.7456446,46.0941591 51.0864443,46.6501321 C51.4272441,47.2061051 51.5782313,48.0649252 51.5782313,49.2491929 C51.5782313,50.40634 51.4143023,51.2651601 51.0605608,51.8482537 C50.7068193,52.4313474 50.2797412,52.7251595 49.8181517,52.7251595 C49.478722,52.7261091 49.1505663,52.5975708 48.8949726,52.3635458 C48.6145678,52.1194601 48.4118135,51.7714119 48.2608263,51.305841 C48.1098391,50.8402701 48.0321885,50.1260934 48.0321885,49.1904316 C48.0321885,48.0875258 48.2176871,47.2648665 48.5800564,46.6817729 C48.9424258,46.0986792 49.3565621,45.8048724 49.8181517,45.8048724 L49.8181517,45.8048724 Z" id="Shape"></path>
                <path d="M13.7144565,36.5865598 L9.40518668,38.4366895 L13.394611,40.144169 L18.0194041,38.4366895 L13.7144565,36.5865598 Z M7.23974618,38.8992219 L7.09711238,47.2248055 L13.394611,50 L13.394611,41.3545342 L7.23974618,38.8992219 Z M20.1848446,38.8992219 L14.4924591,41.0692338 L14.4924591,49.2175853 L20.1848446,46.9049232 L20.1848446,38.8974928 L20.1848446,38.8992219 Z M26.9794004,13.0017291 L22.6441972,14.8518588 L26.6595549,16.5593383 L31.284348,14.8518588 L26.9794004,13.0017291 Z M20.9671694,15.4570414 L20.9671694,23.782625 L26.3440316,25.3431315 L26.5169211,17.7697035 L20.9671694,15.4570414 Z M32.9873092,15.9195738 L27.9000368,18.0895857 L27.9000368,26.2681964 L32.9873092,23.9555343 L32.9873092,15.9195738 Z M6.61734412,24.7146062 L2.31239654,26.5647358 L6.30182086,28.2722153 L10.9266139,26.5647358 L6.61734412,24.7146062 Z M0.142633805,27.0272683 L0,35.3485291 L6.29749862,38.1237236 L6.29749862,29.4825806 L0.142633805,27.0272683 Z M13.0920544,27.0272683 L7.39966894,29.1972802 L7.39966894,37.3456317 L13.0920544,35.0329696 L13.0920544,27.0272683 Z M20.4917234,24.4076921 L16.1867758,26.2578218 L20.1762001,27.9653013 L24.8009932,26.2578218 L20.4917234,24.4076921 L20.4917234,24.4076921 Z M14.0170131,26.7203542 L13.8743793,35.0459378 L20.1718779,37.8211323 L20.1718779,29.1756665 L14.0170131,26.7203542 Z M26.9621115,26.7203542 L21.269726,28.8920952 L21.269726,37.0404468 L26.9621115,34.7277847 L26.9621115,26.7203542 Z M40.5252897,13 L36.2203421,14.8501297 L40.2097664,16.5576092 L44.8345595,14.8501297 L40.5252897,13 Z M34.0549016,15.3126621 L33.9122678,23.6382457 L40.2097664,26.4134402 L40.2097664,17.7679744 L34.0549016,15.3126621 L34.0549016,15.3126621 Z M47,15.3126621 L41.3076145,17.482674 L41.3076145,25.6310255 L47,23.3183634 L47,15.3126621 Z" id="Shape"></path>
                <path d="M0,5.38289897 L0.939449522,5.29589428 C0.982016333,5.68132505 1.08885903,5.9941069 1.25274125,6.24120022 C1.41662348,6.48829353 1.66521365,6.68492413 2.0142615,6.83761736 C2.35479599,6.99074561 2.74002563,7.06339453 3.17420711,7.06339453 C3.51867774,7.06967739 3.86130587,7.0106785 4.1847432,6.88938515 C4.47675153,6.77279887 4.69001125,6.61271024 4.83261007,6.41651467 C4.97117473,6.22483824 5.04578853,5.99272208 5.04544413,5.75440899 C5.04799718,5.52587066 4.97528483,5.30309261 4.83899509,5.1218849 C4.7040583,4.9400451 4.47632586,4.78735187 4.16303413,4.66337019 C3.96382145,4.58332588 3.51559293,4.45977922 2.8179229,4.28533482 C2.12748922,4.11785079 1.64350458,3.95819719 1.35873261,3.80680903 C0.996063381,3.61800886 0.73257482,3.37787591 0.554645549,3.08684523 C0.377201321,2.79988679 0.285759517,2.46615299 0.291582656,2.12674849 C0.291261728,1.73776456 0.405304211,1.35765447 0.618921434,1.0357097 C0.832606826,0.698566527 1.15313491,0.435377344 1.56560731,0.261367967 C2.00460524,0.0823463913 2.47386361,-0.00635368242 2.94647467,0.000353900989 C3.50878224,0.000353900989 3.99957758,0.0947539882 4.42694836,0.276593787 C4.82800531,0.43936614 5.17069669,0.723704144 5.40896469,1.0913927 C5.64040095,1.45321534 5.76850238,1.87383654 5.77887028,2.30597815 L4.82537371,2.37862707 C4.76109783,1.91315198 4.59040491,1.54251201 4.2915859,1.29498367 C3.99276689,1.04745533 3.55858541,0.923908671 2.97499443,0.923908671 C2.37012004,0.923908671 1.92870221,1.04049495 1.65840296,1.2658371 C1.38767804,1.48334882 1.24550489,1.76045875 1.24550489,2.08063601 C1.24044526,2.34101572 1.34695531,2.59065778 1.53708755,2.76405784 C1.72948954,2.94589764 2.22752123,3.12773743 3.03884465,3.31697263 C3.85016807,3.50620783 4.40523929,3.66499139 4.71129466,3.81159429 C5.15271249,4.01518526 5.47281491,4.27706937 5.6865003,4.59724663 C5.89628101,4.92303218 6.00543098,5.3057236 5.99979203,5.69568082 C5.99893363,6.10678596 5.88057381,6.50867931 5.65925754,6.85197313 C5.4315251,7.21565273 5.09694997,7.49928802 4.67000485,7.69548359 C4.24433674,7.89950958 3.75183874,8 3.21805092,8 C2.53698194,8 1.96573534,7.89820451 1.5030341,7.69548359 C1.0597341,7.5093964 0.682335664,7.18985696 0.420985762,6.77932422 C0.14948808,6.3662146 0.00306676952,5.88052972 0,5.38289897 Z" id="Path"></path>
                <polygon id="Path" points="8 8 8 0 13.818347 0 13.818347 0.943406872 9.06312443 0.943406872 9.06312443 3.3885911 13.513624 3.3885911 13.513624 4.32432432 9.06312443 4.32432432 9.06312443 7.04891948 14 7.04891948 14 7.99232636 8 7.99232636"></polygon>
                <path d="M18.7926512,4.83256864 L18.7926512,3.92708961 L22,3.92010424 L22,6.78890978 C21.5414602,7.16905701 21.0281833,7.47448884 20.4783463,7.69438881 C19.9657014,7.8967735 19.4208181,8.00039038 18.8712543,8 C18.1283695,8 17.4499904,7.83933531 16.8429523,7.51102276 C16.251833,7.19853891 15.7701669,6.70627977 15.4644074,6.10216026 C15.1572572,5.49094008 15,4.8028808 15,4.03623607 C14.9967314,3.30620027 15.1555009,2.58490643 15.4644074,1.9266533 C15.7715576,1.27701358 16.2145545,0.788037438 16.7929709,0.47413222 C17.3713873,0.160227003 18.0356691,0 18.7926512,0 C19.342873,0 19.835424,0.0873171676 20.2784209,0.270246634 C20.7214178,0.4531761 21.0640249,0.70072027 21.3211938,1.02946941 C21.5711004,1.35036 21.7641907,1.77384826 21.8927751,2.29207565 L20.992684,2.54747836 C20.8786241,2.15455111 20.7363695,1.84675809 20.5714739,1.62060663 C20.3823889,1.37805483 20.1332748,1.19159469 19.8499485,1.08054995 C19.5199435,0.939409132 19.1648582,0.869833275 18.8071757,0.876227777 C18.3500815,0.876227777 17.957066,0.949137612 17.621294,1.08753532 C17.2859492,1.23379158 17.0232268,1.41628446 16.8143305,1.64985788 C16.6132308,1.87548519 16.4514091,2.1346307 16.3358767,2.41606603 C16.1417453,2.9102686 16.0446381,3.43867367 16.0500861,3.97118478 C16.0500861,4.65706113 16.1645732,5.23379103 16.3999554,5.70093787 C16.6183356,6.15037691 16.9746742,6.51439894 17.4145336,6.73739265 C17.8533389,6.9618236 18.3378587,7.0770155 18.8285353,7.07356375 C19.2644073,7.07204676 19.6959589,6.98520168 20.0998552,6.81772445 C20.5142303,6.65007548 20.8285003,6.4675826 21.0426653,6.2702458 L21.0426653,4.83256864 L18.7926512,4.83256864 Z" id="Path"></path>
                <path d="M28.9921757,0 L30,0 L30,4.54194407 C30,5.32845095 29.9138612,5.95916556 29.7415835,6.42654239 C29.5693059,6.89391922 29.2518843,7.27252552 28.8052545,7.56191744 C28.3517335,7.85175322 27.7612519,8 27.0191659,8 C26.3063671,8 25.7232072,7.87394585 25.2623645,7.6213937 C24.8209107,7.38324809 24.4757095,6.99148519 24.2881344,6.51575677 C24.0934606,6.03328895 24,5.38038171 24,4.54194407 L24,0 L25.008255,0 L25.008255,4.53439858 C25.008255,5.21704394 25.0728591,5.72170439 25.1951762,6.04083444 C25.3130782,6.36058825 25.5379062,6.62644157 25.829158,6.79050155 C26.1306439,6.96804261 26.4988874,7.05015535 26.9308736,7.05015535 C27.6725289,7.05015535 28.2052975,6.87927208 28.5149666,6.53040391 C28.830809,6.18212753 28.9887302,5.51427726 28.9887302,4.52685308 L28.9921757,0 Z" id="Path"></path>
                <path d="M31,7.99954863 L31,0 L34.5228612,0 C35.2270748,0 35.7667777,0.0753780185 36.1339011,0.218912209 C36.5010246,0.3624464 36.7937372,0.618821936 37.0183145,0.981268337 C37.2378125,1.34494349 37.3520774,1.76311904 37.3482326,2.18867073 C37.3482326,2.75468292 37.1689293,3.23764387 36.8009093,3.62265854 C36.4337859,4.01489506 35.8716701,4.25457007 35.114562,4.36199503 C35.3920338,4.49740465 35.6018186,4.62604378 35.7519851,4.76190476 C36.0848472,5.07861113 36.3768597,5.43618636 36.6211578,5.82622433 L38,7.99954863 L36.6812244,7.99954863 L35.6318519,6.34123223 C35.3247951,5.85827127 35.0697362,5.49582487 34.8747439,5.23944933 C34.6797515,4.9830738 34.5,4.80929813 34.3426614,4.70322726 C34.1962124,4.60642963 34.0349185,4.53460238 33.8652664,4.49063417 C33.672416,4.46163963 33.4774772,4.44910726 33.2825307,4.45317084 L32.0569928,4.45317084 L32.0569928,8 L31,7.99954863 Z M32.0493724,3.53103137 L34.3054559,3.53103137 C34.7850922,3.53103137 35.1598361,3.47822162 35.4296875,3.38027533 C35.6995389,3.28232905 35.9093238,3.12344843 36.0442495,2.89686301 C36.1831702,2.68415109 36.2561884,2.43467109 36.2540343,2.18009479 C36.2630772,1.82166974 36.1116632,1.4781296 35.8416368,1.24441435 C35.5726819,1.00293387 35.1374232,0.883322049 34.5524462,0.883322049 L32.0422003,0.883322049 L32.0422003,3.5319341 L32.0493724,3.53103137 Z" id="Shape"></path>
                <polygon id="Path" points="39 8 39 0 40 0 40 7.99232636 39 7.99232636"></polygon>
                <path d="M42,8 L42,0 L44.4993171,0 C45.0611855,0 45.4927615,0.0377663676 45.7940453,0.113299103 C46.185614,0.204610959 46.5504257,0.401766093 46.8556405,0.687016871 C47.2458167,1.05123043 47.5416621,1.52260838 47.7131931,2.05337697 C47.9043977,2.6040738 48,3.23797702 48,3.95508661 C48,4.55904757 47.9385414,5.10252215 47.8082491,5.57016306 C47.6779568,6.03780398 47.5136575,6.43051402 47.3165802,6.7324945 C47.1393389,7.01478048 46.9172505,7.25945414 46.6610216,7.45471986 C46.396301,7.64147524 46.1044318,7.77675253 45.7981426,7.85465215 C45.4161175,7.95057907 45.0250817,7.99603831 44.6332969,7.9900694 L42,7.9900694 L42,8 Z M42.9591642,7.05659313 L44.5071019,7.05659313 C44.9868888,7.05659313 45.3634253,7.0037804 45.6305654,6.90582858 C45.8977055,6.80787677 46.1169079,6.67155673 46.281617,6.490549 C46.5077848,6.24138126 46.685605,5.9037409 46.8142584,5.4794335 C46.9429118,5.05512611 47.0060093,4.54324889 47.0060093,3.93973932 C47.0060093,3.10195791 46.8830921,2.46053151 46.6290631,2.01500875 C46.3832286,1.56993737 46.0742966,1.26795689 45.7182464,1.1095187 C45.4576618,1.00389325 45.0467085,0.943406872 44.4780115,0.943406872 L42.9521989,0.943406872 L42.9521989,7.05659313 L42.9591642,7.05659313 Z" id="Shape"></path>
                <path d="M49,8 L51.8749472,0 L52.9416984,0 L56,8 L54.8698775,8 L53.9940853,5.5750593 L50.8648078,5.5750593 L50.0456274,8 L49,8 Z M51.1613857,4.71343048 L53.69624,4.71343048 L52.9133925,2.4994917 C52.6730038,1.82717723 52.496409,1.27549983 52.3836079,0.837682142 C52.2863688,1.3567697 52.1517615,1.86704333 51.9809886,2.36394443 L51.1613857,4.71343048 Z" id="Shape"></path>
                <path d="M57,8 L57,0 L59.4993171,0 C60.0611855,0 60.4927615,0.0377663676 60.7940453,0.113299103 C61.1855633,0.204772815 61.5503406,0.40190935 61.8556405,0.687016871 C62.2456861,1.05136084 62.5415052,1.52269694 62.7131931,2.05337697 C62.9043977,2.6040738 63,3.23797702 63,3.95508661 C63,4.55904757 62.9385414,5.10252215 62.8082491,5.57016306 C62.6779568,6.03780398 62.5136575,6.43051402 62.3165802,6.7324945 C62.1392283,7.01467874 61.9171581,7.25933221 61.6610216,7.45471986 C61.396301,7.64147524 61.1044318,7.77675253 60.7981426,7.85465215 C60.4161175,7.95057907 60.0250817,7.99603831 59.6332969,7.9900694 L57.0028681,7.9900694 L57,8 Z M57.9657197,7.05659313 L59.5140672,7.05659313 C59.9934444,7.05659313 60.3703906,7.0037804 60.6375307,6.90582858 C60.9046709,6.80787677 61.1238733,6.67155673 61.2881726,6.490549 C61.5143403,6.24138126 61.6925703,5.9037409 61.820814,5.4794335 C61.9490576,5.05512611 62.0125649,4.54324889 62.0125649,3.93973932 C62.0125649,3.10195791 61.8896476,2.46053151 61.6356187,2.01500875 C61.3897842,1.56993737 61.0808522,1.26795689 60.7243922,1.1095187 C60.4642174,1.00389325 60.0532641,0.943406872 59.4845671,0.943406872 L57.9591642,0.943406872 L57.9591642,7.05659313 L57.9657197,7.05659313 Z" id="Shape"></path>
                <path d="M67.0004436,7.99233371 L67.0004436,0 L69.9669091,0 C70.4858632,0 70.8863892,0.0225479143 71.160947,0.0753100338 C71.5463924,0.143404735 71.8706277,0.263810598 72.1323225,0.452311161 C72.3917996,0.632694476 72.5993812,0.889740699 72.7626077,1.221646 C72.9220009,1.56308542 73.0031365,1.9368377 72.9999073,2.31476888 C72.9999073,2.99120631 72.7847853,3.56662909 72.3620817,4.04148816 C71.9393781,4.50868095 71.1680438,4.75039459 70.0556192,4.75039459 L68.0383517,4.75039459 L68.0383517,8 L67,8 L67.0004436,7.99233371 Z M68.045892,3.79842165 L70.0782403,3.79842165 C70.7528806,3.79842165 71.2274796,3.67034949 71.5095777,3.41375423 C71.7916758,3.15715896 71.9322813,2.80315671 71.9322813,2.34317926 C71.9322813,2.01127396 71.850668,1.72491545 71.679901,1.48365276 C71.5222492,1.25079894 71.2883255,1.08249549 71.0198979,1.00879369 C70.8424778,0.963697858 70.5231214,0.940698985 70.0485224,0.940698985 L68.0387952,0.940698985 L68.0387952,3.80022548 L68.045892,3.79842165 Z" id="Shape"></path>
                <path d="M74.0001804,4.10607309 C74.0001804,2.82011235 74.3246972,1.81205546 74.9803368,1.08845675 C75.6293704,0.365294999 76.4716278,0 77.507109,0 C78.1833922,0 78.7911387,0.16822796 79.3295228,0.511675172 C79.8658506,0.848355107 80.2976268,1.34343678 80.5718525,1.93615089 C80.8550822,2.54788892 81,3.23653117 81,4.01081674 C81,4.79253056 80.8480634,5.50127277 80.5512089,6.11519559 C80.273511,6.71106669 79.8303947,7.20290066 79.2812169,7.52481481 C78.7382574,7.84310465 78.126523,8.00676625 77.5058704,7.99978569 C76.8155496,7.99978569 76.2011972,7.8250034 75.662813,7.47543881 C75.1279375,7.13465768 74.7002838,6.63401494 74.4336952,6.03654355 C74.1428902,5.43998383 73.994078,4.77731336 74.0001804,4.10607309 L74.0001804,4.10607309 Z M75.0009804,4.12049263 C75.0009804,5.05557792 75.2359041,5.78616791 75.7123576,6.32668216 C76.1883981,6.86020512 76.782107,7.13068073 77.4930714,7.13068073 C78.2250922,7.13068073 78.8183882,6.86020512 79.2948416,6.31969087 C79.7642763,5.77873967 79.9967228,5.01188234 79.9967228,4.01081674 C79.9967228,3.38247439 79.893505,2.8275406 79.6932624,2.35999795 C79.5067382,1.91085908 79.1994617,1.52973545 78.8097179,1.26411296 C78.4187233,1.00575792 77.9659581,0.871406443 77.5050446,0.876970171 C76.8213298,0.876970171 76.2280338,1.12516103 75.7375427,1.61979493 C75.2429229,2.12622663 75.0009804,2.95163603 75.0009804,4.12049263 Z" id="Shape"></path>
                <path d="M83,7.99819484 L83,0 L86.5224129,0 C87.2270748,0 87.7667777,0.075365262 88.1361424,0.218875162 C88.5055072,0.362385062 88.7955302,0.618717211 89.0205558,0.981102273 C89.239133,1.3449861 89.3524631,1.76307866 89.3477843,2.18830033 C89.3477843,2.75421673 89.168481,3.23709596 88.8009093,3.62204547 C88.4337859,4.0142156 87.8716701,4.25385006 87.114562,4.36125684 C87.3920338,4.49664354 87.6018186,4.6252609 87.7515369,4.76109889 C88.0846715,5.07761644 88.3768481,5.43514768 88.6211578,5.82523834 L90,7.99819484 L88.673604,7.99819484 L87.6242316,6.34015908 C87.3167264,5.85727986 87.0621158,5.49489479 86.8671235,5.23856264 C86.6721311,4.9822305 86.4923796,4.80848423 86.335041,4.70243132 C86.1878163,4.60589929 86.0257524,4.53453599 85.8554047,4.49122807 C85.6625544,4.46223844 85.4676155,4.44970819 85.2726691,4.45377108 L84.0511655,4.45377108 L84.0511655,8 L83,7.99819484 Z M84.0493724,3.5304338 L86.3050077,3.5304338 C86.784644,3.5304338 87.1593878,3.47763299 87.4292392,3.37970328 C87.6990907,3.28177357 87.9088755,3.12291984 88.0438012,2.89637276 C88.1829207,2.68378967 88.2559571,2.43428958 88.2535861,2.17972584 C88.2625481,1.82147371 88.1113391,1.47808349 87.8416368,1.24420376 C87.5726819,1.00276415 87.1369749,0.883172562 86.5524462,0.883172562 L84.0422003,0.883172562 L84.0422003,3.53133638 L84.0493724,3.5304338 Z" id="Shape"></path>
                <path d="M91,3.15636194 L91,2 L92,2 L92,3.15636194 L91,3.15636194 Z M91,7.99953278 L91,6.84363806 L92,6.84363806 L92,8 L91,7.99953278 Z" id="Shape"></path>
            </g>
        </g>
    </g>
</svg>