<?xml version="1.0" encoding="utf-8"?>
<!-- Generator: Adobe Illustrator 27.2.0, SVG Export Plug-In . SVG Version: 6.00 Build 0)  -->
<svg version="1.1" id="Layer_1" xmlns="http://www.w3.org/2000/svg" xmlns:xlink="http://www.w3.org/1999/xlink" x="0px" y="0px"
	 viewBox="0 0 246 59" style="enable-background:new 0 0 246 59;" xml:space="preserve">
<style type="text/css">
	.st0{fill:#424749;}
	.st1{enable-background:new    ;}
	.st2{fill-rule:evenodd;clip-rule:evenodd;fill:#424749;}
</style>
<g id="Main-page">
	<g id="LANDING-COMPLETO" transform="translate(-1066.000000, -7193.000000)">
		<g id="Group-3" transform="translate(1066.000000, 7193.000000)">
			<g id="CNSF" transform="translate(0.000000, 4.000000)">
				<path id="Path" class="st0" d="M7,20.2c0-4.2,0-8.1,0-12C7,7.1,7,6.1,7.1,5c0.5-3.4,2.4-5,6-5c4.5,0,9.1,0,13.6,0h6.6
					c3.6,0,5.6,2,5.6,5.5c0.1,1.9,0.1,3.8-0.1,5.7c-0.8,5.4-4.3,8.8-9.9,9.6c-0.5,0.1-1,0.1-1.6,0.2c0-1.8,0-3.5,0-5.3
					c0-0.2,0.4-0.5,0.7-0.6c1.1-0.6,2.2-1,3.2-1.7c1.4-0.9,2.1-2.4,2-3.9c-0.1-1.1,0-2.2,0-3.3c0-0.6-0.2-0.8-0.8-0.8
					c-6.3,0-12.6,0-18.9,0c-0.7,0-0.8,0.3-0.8,0.8c0,2.5,0,5,0,7.5c0,0.3,0,0.7-0.2,1C10.9,16.5,9,18.2,7,20.2z"/>
				<path id="Path_00000181779380924035651630000000867972137462786478_" class="st0" d="M27.7,7c0,1.9,0,3.6,0,5.3
					c0,0.2-0.4,0.5-0.6,0.7c-1.3,0.7-2.6,1.4-3.8,2.2c-1,0.8-1.6,2-1.5,3.2c0,1.4,0,2.8,0,4.2h20.3c0-0.2,0.1-0.4,0.1-0.6
					c-0.3-1.5,0.5-2.5,1.6-3.5c1.4-1.2,2.7-2.6,4.3-4.1c0,1.2,0,2.2,0,3.1c0.1,2,0,4-0.2,6c-0.2,2.6-2.5,4.6-5.3,4.4
					c-7.1,0.1-14.3,0.1-21.4,0c-2.8,0-4.8-1.7-5-4.4c-0.2-2.5-0.2-5,0.1-7.5c0.6-4.6,4.2-7.8,9.2-8.8C26.1,7.2,26.8,7.1,27.7,7z"/>
				<path id="Path_00000049902314034711665950000012844403081525643179_" class="st0" d="M10.1,45l2.9,1c-0.3,1.5-1.1,2.8-2.2,3.8
					c-1.1,0.9-2.5,1.3-4,1.2c-1.8,0.1-3.6-0.7-4.9-2.1c-1.3-1.6-2-3.7-1.9-5.8c0-2.6,0.6-4.6,1.9-6C3.2,35.7,5.1,34.9,7,35
					c1.6-0.1,3.2,0.5,4.4,1.7c0.8,0.8,1.3,1.8,1.6,2.8l-3,0.7c-0.1-0.7-0.5-1.4-1.1-1.9c-0.6-0.5-1.3-0.7-2-0.7
					c-1.1-0.1-2.1,0.4-2.8,1.2c-0.7,0.8-1,2.2-1,4c0,2,0.3,3.4,1,4.2c0.6,0.8,1.6,1.3,2.6,1.2c0.8,0,1.5-0.3,2.1-0.8
					C9.5,46.9,9.9,46,10.1,45z"/>
				<polygon id="Path_00000099651250804578568470000015906446055128454566_" class="st0" points="16,51 16,36 19,36 25.2,46 
					25.2,36 28,36 28,51 24.9,51 18.8,41.2 18.8,51 				"/>
				<path id="Path_00000135649369522573110110000012784879452216498327_" class="st0" d="M31,45.7l2.9-0.3c0.1,0.9,0.5,1.6,1.1,2.2
					c0.6,0.5,1.4,0.8,2.1,0.7c0.8,0.1,1.5-0.2,2.2-0.6c0.5-0.3,0.8-0.9,0.8-1.5c0-0.3-0.1-0.7-0.3-0.9c-0.3-0.3-0.7-0.6-1.1-0.7
					c-0.3-0.1-1.1-0.4-2.4-0.7c-1.2-0.2-2.4-0.8-3.3-1.5c-1.5-1.3-1.8-3.6-0.7-5.3c0.5-0.7,1.1-1.2,1.8-1.6c0.9-0.4,1.9-0.6,2.9-0.5
					c1.5-0.1,3,0.3,4.2,1.3c0.9,0.9,1.5,2.1,1.5,3.4l-3,0.1c-0.1-0.7-0.3-1.3-0.8-1.7c-0.6-0.4-1.2-0.6-1.9-0.5
					c-0.7,0-1.4,0.2-2,0.6c-0.3,0.2-0.5,0.6-0.5,1c0,0.4,0.2,0.7,0.4,0.9c0.8,0.5,1.8,0.9,2.7,1c1.1,0.2,2.2,0.6,3.2,1.1
					c0.7,0.4,1.2,0.9,1.6,1.6c0.8,1.5,0.8,3.4-0.1,4.9c-0.5,0.8-1.2,1.4-2,1.7c-1,0.4-2.1,0.6-3.2,0.6c-1.5,0.1-3.1-0.4-4.3-1.4
					C31.8,48.6,31.1,47.2,31,45.7z"/>
				<polygon id="Path_00000160181261143926384130000006859176519498850177_" class="st0" points="45,51 45,36 55,36 55,38.5 
					48,38.5 48,42.1 54.1,42.1 54.1,44.6 48,44.6 48,51 				"/>
			</g>
			<g class="st1">
				<path class="st0" d="M80.7,19.9c0-3.5,2.3-5.5,5-5.5c1.4,0,2.4,0.6,3.2,1.4l-1.3,1.5c-0.5-0.5-1.1-0.7-1.8-0.7
					c-1.4,0-2.5,1.2-2.5,3.2c0,2.1,1,3.3,2.4,3.3c0.8,0,1.5-0.3,2-0.9l1.3,1.5c-0.9,1-2.1,1.5-3.4,1.5C83,25.2,80.7,23.4,80.7,19.9z
					"/>
				<path class="st0" d="M89.4,19.8c0-3.4,1.9-5.4,4.8-5.4s4.8,2,4.8,5.4s-1.9,5.4-4.8,5.4S89.4,23.2,89.4,19.8z M96.4,19.8
					c0-2-0.8-3.2-2.2-3.2c-1.4,0-2.2,1.2-2.2,3.2c0,2,0.9,3.3,2.2,3.3C95.6,23,96.4,21.8,96.4,19.8z"/>
				<path class="st0" d="M100.9,14.6h2.7l1.6,4.5c0.2,0.6,0.4,1.2,0.6,1.9h0.1c0.2-0.7,0.4-1.3,0.6-1.9l1.6-4.5h2.7V25h-2.3v-3.6
					c0-1,0.2-2.8,0.3-3.8h-0.1l-0.9,2.7l-1.4,3.8h-1.4l-1.4-3.8l-0.8-2.7h-0.1c0.1,1,0.3,2.8,0.3,3.8V25h-2.2V14.6z"/>
				<path class="st0" d="M113.2,14.6h2.5V25h-2.5V14.6z"/>
				<path class="st0" d="M117.4,23.7l1.3-1.6c0.7,0.6,1.7,1,2.6,1c0.9,0,1.4-0.4,1.4-0.9c0-0.6-0.6-0.8-1.5-1.2l-1.3-0.6
					c-1.1-0.4-2.1-1.3-2.1-2.8c0-1.7,1.6-3.2,3.8-3.2c1.2,0,2.5,0.5,3.4,1.3l-1.3,1.6c-0.7-0.5-1.4-0.8-2.1-0.8
					c-0.8,0-1.3,0.3-1.3,0.8c0,0.6,0.7,0.8,1.6,1.2l1.3,0.5c1.3,0.5,2.1,1.4,2.1,2.8c0,1.7-1.5,3.3-4,3.3
					C119.9,25.2,118.5,24.7,117.4,23.7z"/>
				<path class="st0" d="M127,14.6h2.5V25H127V14.6z"/>
				<path class="st0" d="M131.4,19.8c0-3.4,1.9-5.4,4.8-5.4s4.8,2,4.8,5.4s-1.9,5.4-4.8,5.4S131.4,23.2,131.4,19.8z M138.4,19.8
					c0-2-0.8-3.2-2.2-3.2c-1.4,0-2.2,1.2-2.2,3.2c0,2,0.9,3.3,2.2,3.3C137.6,23,138.4,21.8,138.4,19.8z M134.3,12.9l3.5-2.3l1,1.6
					l-3.6,1.9L134.3,12.9z"/>
				<path class="st0" d="M142.9,14.6h2.6l2.6,5c0.4,0.7,0.7,1.5,1,2.4h0.1c-0.1-1.1-0.3-2.6-0.3-3.8v-3.5h2.4V25h-2.6l-2.6-5
					c-0.4-0.7-0.7-1.5-1-2.4h-0.1c0.1,1.2,0.3,2.6,0.3,3.8V25h-2.4V14.6z"/>
				<path class="st0" d="M156.8,14.6h2.6l2.6,5c0.4,0.7,0.7,1.5,1,2.4h0.1c-0.1-1.1-0.3-2.6-0.3-3.8v-3.5h2.4V25h-2.6l-2.6-5
					c-0.4-0.7-0.7-1.5-1-2.4h-0.1c0.1,1.2,0.3,2.6,0.3,3.8V25h-2.4V14.6z"/>
				<path class="st0" d="M169.3,14.6h3l3.2,10.4h-2.6l-0.6-2.4h-3.1l-0.6,2.4h-2.5L169.3,14.6z M169.7,20.7h2.1l-0.2-0.9
					c-0.3-1-0.5-2.3-0.8-3.3h-0.1c-0.3,1.1-0.5,2.3-0.8,3.3L169.7,20.7z"/>
				<path class="st0" d="M176,19.9c0-3.5,2.3-5.5,5-5.5c1.4,0,2.4,0.6,3.2,1.4l-1.3,1.5c-0.5-0.5-1.1-0.7-1.8-0.7
					c-1.4,0-2.5,1.2-2.5,3.2c0,2.1,1,3.3,2.4,3.3c0.8,0,1.5-0.3,2-0.9l1.3,1.5c-0.9,1-2.1,1.5-3.4,1.5C178.2,25.2,176,23.4,176,19.9
					z"/>
				<path class="st0" d="M185.8,14.6h2.5V25h-2.5V14.6z"/>
				<path class="st0" d="M190.2,19.8c0-3.4,1.9-5.4,4.8-5.4s4.8,2,4.8,5.4s-1.9,5.4-4.8,5.4S190.2,23.2,190.2,19.8z M197.2,19.8
					c0-2-0.8-3.2-2.2-3.2c-1.4,0-2.2,1.2-2.2,3.2c0,2,0.9,3.3,2.2,3.3C196.4,23,197.2,21.8,197.2,19.8z"/>
				<path class="st0" d="M201.7,14.6h2.6l2.6,5c0.4,0.7,0.7,1.5,1,2.4h0.1c-0.1-1.1-0.3-2.6-0.3-3.8v-3.5h2.4V25h-2.6l-2.6-5
					c-0.4-0.7-0.7-1.5-1-2.4h-0.1c0.1,1.2,0.3,2.6,0.3,3.8V25h-2.4V14.6z"/>
				<path class="st0" d="M214.3,14.6h3l3.2,10.4h-2.6l-0.6-2.4h-3.1l-0.6,2.4H211L214.3,14.6z M214.7,20.7h2.1l-0.2-0.9
					c-0.3-1-0.5-2.3-0.8-3.3h-0.1c-0.3,1.1-0.5,2.3-0.8,3.3L214.7,20.7z"/>
				<path class="st0" d="M221.6,14.6h2.5v8.3h4V25h-6.5V14.6z"/>
			</g>
			<g class="st1">
				<path class="st0" d="M81.2,36.6h3c3.2,0,5.3,1.6,5.3,5.2c0,3.6-2.1,5.2-5.1,5.2h-3.1V36.6z M84,45c1.7,0,2.9-0.8,2.9-3.2
					c0-2.5-1.2-3.2-2.9-3.2h-0.4V45H84z"/>
				<path class="st0" d="M91.4,36.6H98v2.1h-4.1v2h3.5v2.1h-3.5v2.2h4.3V47h-6.8V36.6z"/>
				<path class="st0" d="M102.7,45.7l1.3-1.6c0.7,0.6,1.7,1,2.6,1c0.9,0,1.4-0.4,1.4-0.9c0-0.6-0.6-0.8-1.5-1.2l-1.3-0.6
					c-1.1-0.4-2.1-1.3-2.1-2.8c0-1.7,1.6-3.2,3.8-3.2c1.2,0,2.5,0.5,3.4,1.3l-1.3,1.6c-0.7-0.5-1.4-0.8-2.1-0.8
					c-0.8,0-1.3,0.3-1.3,0.8c0,0.6,0.7,0.8,1.6,1.2l1.3,0.5c1.3,0.5,2.1,1.4,2.1,2.8c0,1.7-1.5,3.3-4,3.3
					C105.2,47.2,103.8,46.7,102.7,45.7z"/>
				<path class="st0" d="M112.3,36.6h6.6v2.1h-4.1v2h3.5v2.1h-3.5v2.2h4.3V47h-6.8V36.6z"/>
				<path class="st0" d="M120.6,41.9c0-3.5,2.3-5.5,5.1-5.5c1.5,0,2.6,0.6,3.3,1.4l-1.3,1.5c-0.5-0.5-1.1-0.7-1.9-0.7
					c-1.5,0-2.7,1.2-2.7,3.2c0,2.1,0.9,3.3,2.9,3.3c0.4,0,0.8-0.1,1-0.3v-1.7h-1.7v-2h3.9v4.9c-0.7,0.7-2,1.3-3.5,1.3
					C122.9,47.2,120.6,45.4,120.6,41.9z"/>
				<path class="st0" d="M131.3,42.1v-5.5h2.5v5.8c0,2,0.6,2.7,1.7,2.7c1.2,0,1.8-0.7,1.8-2.7v-5.8h2.4v5.5c0,3.5-1.4,5.1-4.2,5.1
					S131.3,45.6,131.3,42.1z"/>
				<path class="st0" d="M142,36.6h3.8c2.2,0,4.1,0.8,4.1,3.3c0,1.5-0.7,2.5-1.8,3l2.3,4.1h-2.8l-1.9-3.7h-1.2V47H142V36.6z
					 M145.7,41.4c1.2,0,1.8-0.5,1.8-1.5s-0.6-1.3-1.8-1.3h-1.1v2.8H145.7z"/>
				<path class="st0" d="M151.4,41.8c0-3.4,1.9-5.4,4.8-5.4c2.8,0,4.8,2,4.8,5.4s-1.9,5.4-4.8,5.4C153.4,47.2,151.4,45.2,151.4,41.8
					z M158.4,41.8c0-2-0.8-3.2-2.2-3.2c-1.4,0-2.2,1.2-2.2,3.2c0,2,0.9,3.3,2.2,3.3C157.6,45,158.4,43.8,158.4,41.8z"/>
				<path class="st0" d="M162.3,45.7l1.3-1.6c0.7,0.6,1.7,1,2.6,1c0.9,0,1.4-0.4,1.4-0.9c0-0.6-0.6-0.8-1.5-1.2l-1.3-0.6
					c-1.1-0.4-2.1-1.3-2.1-2.8c0-1.7,1.6-3.2,3.8-3.2c1.2,0,2.5,0.5,3.4,1.3l-1.3,1.6c-0.7-0.5-1.4-0.8-2.1-0.8
					c-0.8,0-1.3,0.3-1.3,0.8c0,0.6,0.7,0.8,1.6,1.2l1.3,0.5c1.3,0.5,2.1,1.4,2.1,2.8c0,1.7-1.5,3.3-4,3.3
					C164.7,47.2,163.3,46.7,162.3,45.7z"/>
				<path class="st0" d="M176.8,43.3l-3.1-6.7h2.7l0.9,2.3c0.3,0.8,0.5,1.5,0.8,2.3h0.1c0.3-0.8,0.6-1.5,0.9-2.3l0.9-2.3h2.6
					l-3.1,6.7V47h-2.5V43.3z"/>
				<path class="st0" d="M186.7,36.6h6.7v2.1h-4.2v2.3h3.6V43h-3.6v4h-2.5V36.6z"/>
				<path class="st0" d="M195.2,36.6h2.5V47h-2.5V36.6z"/>
				<path class="st0" d="M202,36.6h3l3.2,10.4h-2.6l-0.6-2.4h-3.1l-0.6,2.4h-2.5L202,36.6z M202.4,42.7h2.1l-0.2-0.9
					c-0.3-1-0.5-2.3-0.8-3.3h-0.1c-0.3,1.1-0.5,2.3-0.8,3.3L202.4,42.7z"/>
				<path class="st0" d="M209.3,36.6h2.6l2.6,5c0.4,0.7,0.7,1.5,1,2.4h0.1c-0.1-1.1-0.3-2.6-0.3-3.8v-3.5h2.4V47H215l-2.6-5
					c-0.4-0.7-0.7-1.5-1-2.4h-0.1c0.1,1.2,0.3,2.6,0.3,3.8V47h-2.4V36.6z"/>
				<path class="st0" d="M219.3,45.5l4.5-6.8h-4.1v-2.1h7.1v1.5l-4.5,6.9h4.5V47h-7.6V45.5z"/>
				<path class="st0" d="M230.6,36.6h3l3.2,10.4h-2.6l-0.6-2.4h-3.1l-0.6,2.4h-2.5L230.6,36.6z M230.9,42.7h2.1l-0.2-0.9
					c-0.3-1-0.5-2.3-0.8-3.3H232c-0.3,1.1-0.5,2.3-0.8,3.3L230.9,42.7z"/>
				<path class="st0" d="M237.2,45.7l1.3-1.6c0.7,0.6,1.7,1,2.6,1c0.9,0,1.4-0.4,1.4-0.9c0-0.6-0.6-0.8-1.5-1.2l-1.3-0.6
					c-1.1-0.4-2.1-1.3-2.1-2.8c0-1.7,1.6-3.2,3.8-3.2c1.2,0,2.5,0.5,3.4,1.3l-1.3,1.6c-0.7-0.5-1.4-0.8-2.1-0.8
					c-0.8,0-1.3,0.3-1.3,0.8c0,0.6,0.7,0.8,1.6,1.2l1.3,0.5c1.3,0.5,2.1,1.4,2.1,2.8c0,1.7-1.5,3.3-4,3.3
					C239.7,47.2,238.3,46.7,237.2,45.7z"/>
			</g>
			<rect id="Rectangle" x="67" class="st2" width="1" height="59"/>
		</g>
	</g>
</g>
</svg>
