<?xml version="1.0" encoding="UTF-8"?>
<svg width="93px" height="54px" viewBox="0 0 93 54" version="1.1" xmlns="http://www.w3.org/2000/svg" xmlns:xlink="http://www.w3.org/1999/xlink">
    <title>logo_condusefwhite 2</title>
    <g id="Main-page" stroke="none" stroke-width="1" fill="none" fill-rule="evenodd">
        <g id="LANDING-COMPLETO" transform="translate(-1214.000000, -7285.000000)" fill="#424749" fill-rule="nonzero">
            <g id="logo_condusefwhite" transform="translate(1214.000000, 7285.000000)">
                <path d="M27.039312,54 C12.1105651,54 0,41.9070423 0,27 C0,12.0929577 12.1105651,0 27.039312,0 C33.5896806,0 39.9115479,2.35774648 44.8624079,6.69295775 C45.0909091,6.84507042 45.1670762,7.07323944 45.1670762,7.30140845 C45.1670762,7.6056338 45.014742,7.90985915 44.7100737,7.98591549 C44.4054054,8.13802817 44.1007371,8.06197183 43.8722359,7.83380282 C39.2260442,3.8028169 33.2850123,1.52112676 27.039312,1.52112676 C12.9484029,1.52112676 1.52334152,12.9295775 1.52334152,27 C1.52334152,41.0704225 12.9484029,52.4788732 27.039312,52.4788732 C33.2850123,52.4788732 39.2260442,50.1971831 43.9484029,46.0901408 C44.2530713,45.7859155 44.7100737,45.8619718 45.014742,46.1661972 C45.3194103,46.4704225 45.2432432,46.9267606 44.9385749,47.2309859 C39.987715,51.5661972 33.5896806,54 27.039312,54 Z" id="Path"></path>
                <path d="M65.960688,54 C59.4103194,54 53.012285,51.5661972 48.0614251,47.2309859 C47.7567568,46.9267606 47.6805897,46.4704225 47.985258,46.1661972 C48.2899263,45.8619718 48.7469287,45.7859155 49.0515971,46.0901408 C53.6977887,50.1971831 59.7149877,52.4788732 65.8845209,52.4788732 C79.97543,52.4788732 91.4004914,41.0704225 91.4004914,27 C91.4766585,12.9295775 80.0515971,1.52112676 65.960688,1.52112676 C59.7911548,1.52112676 53.7739558,3.8028169 49.1277641,7.90985915 C48.8230958,8.21408451 48.3660934,8.13802817 48.0614251,7.83380282 C47.7567568,7.52957746 47.8329238,7.07323944 48.1375921,6.76901408 C53.012285,2.43380282 59.4103194,0 65.960688,0 C80.8894349,0 93,12.0929577 93,27 C93,41.9070423 80.8894349,54 65.960688,54 Z" id="Path"></path>
                <path d="M46.4619165,47.5352113 C35.1130221,47.5352113 25.8968059,38.3323944 25.8968059,27 C25.8968059,15.6676056 35.1130221,6.46478873 46.4619165,6.46478873 C57.8108108,6.46478873 67.027027,15.6676056 67.027027,27 C67.027027,38.3323944 57.8108108,47.5352113 46.4619165,47.5352113 Z M46.4619165,7.98591549 C35.95086,7.98591549 27.4201474,16.5042254 27.4201474,27 C27.4201474,37.4957746 35.95086,46.0140845 46.4619165,46.0140845 C56.972973,46.0140845 65.5036855,37.4957746 65.5036855,27 C65.5036855,16.5042254 56.972973,7.98591549 46.4619165,7.98591549 Z" id="Shape"></path>
                <path d="M11.8058968,29.3577465 C11.8058968,28.6732394 11.958231,27.9887324 12.1867322,27.456338 C12.4152334,26.9239437 12.7960688,26.3915493 13.1769042,26.0112676 C13.6339066,25.6309859 14.0909091,25.2507042 14.7002457,25.0985915 C15.3095823,24.8704225 15.9189189,24.7943662 16.5282555,24.7943662 C17.2137592,24.7943662 17.8230958,24.8704225 18.4324324,25.0985915 C19.041769,25.3267606 19.4987715,25.6309859 19.955774,26.0112676 L18.1277641,28.2169014 C17.97543,27.9887324 17.7469287,27.8366197 17.5184275,27.7605634 C17.2899263,27.684507 16.985258,27.6084507 16.6805897,27.6084507 C16.4520885,27.6084507 16.2235872,27.684507 15.995086,27.7605634 C15.7665848,27.8366197 15.6142506,27.9887324 15.4619165,28.1408451 C15.3095823,28.2929577 15.1572482,28.5211268 15.0810811,28.7492958 C15.004914,28.9774648 14.9287469,29.2816901 14.9287469,29.5098592 C14.9287469,29.7380282 14.9287469,30.0422535 15.0810811,30.2704225 C15.1572482,30.4985915 15.3095823,30.7267606 15.4619165,30.8788732 C15.6142506,31.0309859 15.8427518,31.1830986 15.995086,31.2591549 C16.1474201,31.3352113 16.4520885,31.4112676 16.6805897,31.4112676 C16.985258,31.4112676 17.2899263,31.3352113 17.5184275,31.1830986 C17.7469287,31.0309859 17.97543,30.8788732 18.1277641,30.7267606 L19.955774,32.856338 C19.5749386,33.2366197 19.041769,33.6169014 18.5085995,33.7690141 C17.8992629,33.9971831 17.2899263,34.1492958 16.5282555,34.1492958 C15.9189189,34.1492958 15.2334152,34.0732394 14.7002457,33.8450704 C14.1670762,33.6169014 13.6339066,33.3126761 13.1769042,32.9323944 C12.7199017,32.5521127 12.4152334,32.0197183 12.1867322,31.4873239 C11.8820639,30.6507042 11.8058968,29.9661972 11.8058968,29.3577465 Z M20.2604423,29.2816901 C20.2604423,28.5971831 20.4127764,27.9887324 20.6412776,27.3802817 C20.8697789,26.8478873 21.2506143,26.315493 21.6314496,25.9352113 C22.0884521,25.5549296 22.6216216,25.2507042 23.1547912,25.0225352 C23.7641278,24.7943662 24.4496314,24.7183099 25.0589681,24.7183099 C25.7444717,24.7183099 26.4299754,24.7943662 26.963145,25.0225352 C27.5724816,25.2507042 28.1056511,25.5549296 28.4864865,25.9352113 C28.9434889,26.315493 29.2481572,26.771831 29.4766585,27.3802817 C29.7051597,27.9126761 29.8574939,28.5971831 29.8574939,29.2816901 C29.8574939,29.9661972 29.7051597,30.6507042 29.4766585,31.1830986 C29.2481572,31.715493 28.8673219,32.2478873 28.4864865,32.628169 C28.029484,33.0084507 27.4963145,33.3887324 26.963145,33.5408451 C26.3538084,33.7690141 25.6683047,33.8450704 25.0589681,33.8450704 C24.3734644,33.8450704 23.7641278,33.7690141 23.1547912,33.5408451 C22.6216216,33.3126761 22.0884521,33.0084507 21.6314496,32.628169 C21.1744472,32.2478873 20.8697789,31.715493 20.6412776,31.1830986 C20.3366093,30.5746479 20.2604423,29.9661972 20.2604423,29.2816901 Z M23.3832924,29.2816901 C23.3832924,29.5859155 23.4594595,29.8140845 23.5356265,30.0422535 C23.6117936,30.2704225 23.7641278,30.4985915 23.9164619,30.6507042 C24.0687961,30.8028169 24.2211302,30.9549296 24.4496314,31.0309859 C24.6781327,31.1070423 24.9066339,31.1830986 25.1351351,31.1830986 C25.3636364,31.1830986 25.5921376,31.1070423 25.8206388,31.0309859 C26.04914,30.9549296 26.2014742,30.8028169 26.3538084,30.6507042 C26.5061425,30.4985915 26.6584767,30.2704225 26.7346437,30.0422535 C26.8108108,29.8140845 26.8869779,29.5098592 26.8869779,29.2816901 C26.8869779,28.9774648 26.8108108,28.7492958 26.7346437,28.5211268 C26.6584767,28.2929577 26.5061425,28.0647887 26.3538084,27.9126761 C26.2014742,27.7605634 25.972973,27.6084507 25.8206388,27.5323944 C25.5921376,27.456338 25.3636364,27.3802817 25.1351351,27.3802817 C24.9066339,27.3802817 24.6781327,27.456338 24.4496314,27.5323944 C24.2211302,27.6084507 24.0687961,27.7605634 23.9164619,27.9126761 C23.7641278,28.0647887 23.6117936,28.2929577 23.5356265,28.5211268 C23.3832924,28.7492958 23.3832924,29.0535211 23.3832924,29.2816901 Z M31.1523342,24.9464789 L34.046683,24.9464789 L36.5601966,29.3577465 L36.6363636,29.3577465 L36.4840295,24.9464789 L39.3022113,24.9464789 L39.3022113,33.6929577 L36.3316953,33.6929577 L33.8943489,29.5098592 L33.8181818,29.5098592 L33.970516,33.6929577 L31.1523342,33.6929577 C31.1523342,33.6929577 31.1523342,24.9464789 31.1523342,24.9464789 Z M40.977887,33.6929577 L40.977887,24.9464789 L44.2530713,24.9464789 C44.9385749,24.9464789 45.6240786,25.0225352 46.2334152,25.1746479 C46.8427518,25.3267606 47.3759214,25.5549296 47.9090909,25.8591549 C48.3660934,26.1633803 48.7469287,26.6197183 49.0515971,27.1521127 C49.3562654,27.684507 49.5085995,28.3690141 49.5085995,29.2056338 C49.5085995,29.9661972 49.3562654,30.6507042 49.1277641,31.1830986 C48.8230958,31.715493 48.5184275,32.171831 47.985258,32.5521127 C47.5282555,32.9323944 46.995086,33.1605634 46.3857494,33.3126761 C45.7764128,33.4647887 45.1670762,33.5408451 44.4815725,33.5408451 L40.977887,33.5408451 L40.977887,33.6929577 Z M43.7960688,27.456338 L43.7960688,31.1830986 L44.3292383,31.1830986 C45.014742,31.1830986 45.5479115,31.0309859 45.9287469,30.7267606 C46.3095823,30.4225352 46.4619165,29.9661972 46.4619165,29.2816901 C46.4619165,28.7492958 46.3095823,28.2929577 45.9287469,27.9887324 C45.5479115,27.684507 45.0909091,27.5323944 44.4815725,27.5323944 L43.7960688,27.5323944 L43.7960688,27.456338 Z M54.6117936,33.9211268 C53.9262899,33.9211268 53.3169533,33.8450704 52.8599509,33.6169014 C52.4029484,33.4647887 51.9459459,33.1605634 51.5651106,32.856338 C51.2604423,32.5521127 50.955774,32.0957746 50.8034398,31.715493 C50.6511057,31.2591549 50.5749386,30.7267606 50.5749386,30.2704225 L50.5749386,24.9464789 L53.5454545,24.9464789 L53.5454545,29.8901408 C53.5454545,30.3464789 53.6216216,30.6507042 53.8501229,30.8788732 C54.0786241,31.1070423 54.3071253,31.2591549 54.6879607,31.2591549 C55.0687961,31.2591549 55.3734644,31.1070423 55.5257985,30.8788732 C55.7542998,30.6507042 55.8304668,30.3464789 55.8304668,29.8901408 L55.8304668,24.9464789 L58.7248157,24.9464789 L58.7248157,30.2704225 C58.7248157,30.8028169 58.6486486,31.2591549 58.4963145,31.715493 C58.3439803,32.171831 58.039312,32.5521127 57.7346437,32.856338 C57.3538084,33.2366197 56.8968059,33.4647887 56.4398034,33.6169014 C55.9066339,33.8450704 55.2972973,33.9211268 54.6117936,33.9211268 Z M63.1425061,33.9211268 C62.4570025,33.9211268 61.7714988,33.7690141 61.0859951,33.5408451 C60.7813268,33.3887324 60.4766585,33.3126761 60.1719902,33.084507 C59.8673219,32.9323944 59.6388206,32.7802817 59.4103194,32.5521127 L61.2383292,30.5746479 C61.4668305,30.8028169 61.6953317,31.0309859 62.0761671,31.1830986 C62.3808354,31.3352113 62.7616708,31.4112676 63.1425061,31.4112676 C63.2948403,31.4112676 63.4471744,31.4112676 63.5995086,31.3352113 C63.7518428,31.2591549 63.8280098,31.1830986 63.8280098,31.0309859 C63.8280098,30.9549296 63.8280098,30.8788732 63.7518428,30.8028169 C63.6756757,30.7267606 63.5995086,30.6507042 63.5233415,30.6507042 L63.0663391,30.4225352 C62.8378378,30.3464789 62.5331695,30.2704225 62.3046683,30.1943662 C62,30.1183099 61.6953317,29.9661972 61.4668305,29.8140845 C61.2383292,29.6619718 60.9336609,29.5098592 60.7813268,29.2816901 C60.5528256,29.0535211 60.4004914,28.8253521 60.2481572,28.5971831 C60.0958231,28.2929577 60.019656,27.9126761 60.0958231,27.6084507 C60.0958231,27.0760563 60.1719902,26.6197183 60.4004914,26.2394366 C60.6289926,25.8591549 60.9336609,25.5549296 61.2383292,25.3267606 C61.6191646,25.0985915 62,24.8704225 62.3808354,24.7943662 C62.8378378,24.7183099 63.2186732,24.6422535 63.6756757,24.6422535 C64.2850123,24.6422535 64.8181818,24.7183099 65.4275184,24.9464789 C66.036855,25.1746479 66.5700246,25.4788732 67.027027,25.9352113 L65.1990172,27.7605634 C64.970516,27.5323944 64.7420147,27.3042254 64.4373464,27.228169 C64.2088452,27.0760563 63.9041769,27.0760563 63.6756757,27 C63.4471744,27 63.2948403,27 63.1425061,27.0760563 C63.0663391,27.0760563 63.0663391,27.1521127 62.990172,27.228169 C62.990172,27.3042254 62.9140049,27.3802817 62.9140049,27.3802817 C62.9140049,27.5323944 62.990172,27.6084507 63.1425061,27.684507 C63.2948403,27.7605634 63.5233415,27.8366197 63.8280098,27.9126761 C64.1326781,27.9887324 64.4373464,28.1408451 64.8181818,28.2929577 C65.1990172,28.4450704 65.5036855,28.5971831 65.8083538,28.8253521 C66.1130221,29.0535211 66.3415233,29.2816901 66.4938575,29.5859155 C66.6461916,29.8901408 66.7985258,30.2704225 66.7985258,30.7267606 C66.7985258,31.2591549 66.7223587,31.715493 66.4938575,32.0957746 C66.2653563,32.4760563 66.036855,32.7802817 65.6560197,33.084507 C65.2751843,33.3126761 64.8943489,33.5408451 64.5135135,33.6929577 C63.980344,33.9211268 63.5233415,33.9211268 63.1425061,33.9211268 L63.1425061,33.9211268 Z M67.8648649,24.9464789 L73.8820639,24.9464789 L73.8820639,27.3802817 L70.6068796,27.3802817 L70.6068796,28.1408451 L73.6535627,28.1408451 L73.6535627,30.4225352 L70.6068796,30.4225352 L70.6068796,31.2591549 L74.034398,31.2591549 L74.034398,33.6929577 L67.7886978,33.6929577 L67.8648649,24.9464789 L67.8648649,24.9464789 Z M78.2235872,28.3690141 L80.8894349,28.3690141 L80.8894349,30.7267606 L78.2235872,30.7267606 L78.2235872,33.6929577 L75.3292383,33.6929577 L75.3292383,24.9464789 L81.1941032,24.9464789 L81.1941032,27.3802817 L78.1474201,27.3802817 L78.1474201,28.3690141 L78.2235872,28.3690141 Z" id="Shape"></path>
            </g>
        </g>
    </g>
</svg>