<svg width="22" height="22" viewBox="0 0 22 22" fill="none" xmlns="http://www.w3.org/2000/svg">
<path fill-rule="evenodd" clip-rule="evenodd" d="M0.916656 19.2501H4.58332V8.25008H0.916656V19.2501ZM21.0833 9.16675C21.0833 8.15841 20.2583 7.33341 19.25 7.33341H13.4658L14.3367 3.14425L14.3642 2.85091C14.3642 2.47508 14.2083 2.12675 13.9608 1.87925L12.9892 0.916748L6.95749 6.95758C6.61832 7.28758 6.41666 7.74591 6.41666 8.25008V17.4167C6.41666 18.4251 7.24166 19.2501 8.24999 19.2501H16.5C17.2608 19.2501 17.9117 18.7917 18.1867 18.1317L20.955 11.6692C21.0375 11.4584 21.0833 11.2384 21.0833 11.0001V9.24925L21.0742 9.24008L21.0833 9.16675Z" fill="#0A0A0A"/>
</svg>
