<svg width="36" height="36" viewBox="0 0 36 36" fill="none" xmlns="http://www.w3.org/2000/svg">
<g clip-path="url(#clip0_1485_1285)">
<path d="M11.2299 34.7958C2.37481 25.9408 2.38797 11.5968 11.2299 2.75495C11.6184 2.36645 12.2203 2.30277 12.6796 2.58981L17.0989 5.35206C17.332 5.4977 17.5064 5.72059 17.5918 5.98179C17.6771 6.24299 17.668 6.52588 17.5659 6.78102L15.3563 12.3052C15.2619 12.5412 15.0933 12.7401 14.876 12.8719C14.6587 13.0037 14.4045 13.0613 14.1516 13.036L10.3464 12.6556C8.91106 16.6279 8.94099 21.0059 10.3464 24.8952L14.1517 24.5147C14.4045 24.4894 14.6588 24.547 14.8761 24.6788C15.0934 24.8107 15.262 25.0096 15.3564 25.2455L17.566 30.7698C17.668 31.0249 17.6772 31.3078 17.5918 31.569C17.5065 31.8302 17.332 32.0531 17.099 32.1987L12.6797 34.961C12.4549 35.1014 12.1892 35.1615 11.9259 35.1316C11.6626 35.1016 11.4173 34.9832 11.2299 34.7958ZM21.443 6.7395C22.2497 8.10634 22.2497 9.80822 21.443 11.1751C21.1737 11.6314 20.5493 11.7177 20.1668 11.351L19.7594 10.9606C19.4927 10.7051 19.4326 10.3046 19.6052 9.97813C19.7714 9.66351 19.8582 9.31308 19.8582 8.95728C19.8582 8.60148 19.7714 8.25105 19.6052 7.93643C19.4325 7.60997 19.4927 7.20947 19.7594 6.95393L20.1668 6.56352C20.5493 6.19684 21.1737 6.28316 21.443 6.7395ZM27.7012 0.5222C31.8017 5.40429 31.7984 12.5142 27.7012 17.3923C27.3962 17.7555 26.8469 17.7841 26.5045 17.4559L26.1092 17.077C25.7983 16.779 25.7698 16.291 26.0458 15.9603C29.4335 11.9009 29.4307 6.01029 26.0458 1.95422C25.7698 1.62354 25.7982 1.1355 26.1092 0.837473L26.5045 0.458587C26.8469 0.130427 27.3962 0.158996 27.7012 0.5222ZM24.5668 3.58636C27.0247 6.74468 27.0287 11.1647 24.5668 14.3281C24.2674 14.7127 23.7011 14.7543 23.3493 14.417L22.9526 14.0367C22.6526 13.749 22.6119 13.2802 22.865 12.9505C24.6743 10.5938 24.6742 7.32054 22.865 4.96404C22.6119 4.63431 22.6526 4.16556 22.9526 3.87784L23.3493 3.49745C23.7011 3.16016 24.2674 3.20175 24.5668 3.58636Z" fill="#000000"/>
</g>
<defs>
<clipPath id="clip0_1485_1285">
<rect width="34.9091" height="34.9091" fill="white" transform="translate(0.229858 0.22998)"/>
</clipPath>
</defs>
</svg>
