<svg width="101" height="18" viewBox="0 0 101 18" fill="none" xmlns="http://www.w3.org/2000/svg">
<path d="M22.3704 12.4639C19.0775 11.5714 19.0468 9.90955 19.0775 8.89397C19.1083 7.26287 21.0471 5.75488 23.3552 5.75488C25.5402 5.75488 27.8483 6.70892 27.8791 9.41715H24.8016C24.7709 8.58621 24.063 8.46311 23.5399 8.46311C22.8321 8.46311 22.3704 8.80164 22.3704 9.29405C22.4012 9.63257 22.6782 9.94033 23.3244 10.125L25.2017 10.6174C27.8791 11.356 28.1869 13.1102 28.1869 13.818C28.1869 16.1569 25.7249 17.2649 23.4168 17.2649C21.1702 17.2649 18.8313 15.9107 18.8313 13.4795H21.9088C21.9396 14.1258 22.6474 14.7413 23.5399 14.7413C24.2785 14.7105 24.894 14.4027 24.894 13.818C24.894 13.3564 24.617 13.0794 23.8168 12.864L22.3704 12.4639Z" fill="#0A0A0A"/>
<path d="M33.2647 16.988H30.0334V0H33.2647V9.01717L35.8806 6.00119H40.0659L35.4805 10.8329L40.9892 16.988H36.9577L33.2647 12.6487V16.988Z" fill="#0A0A0A"/>
<path fill-rule="evenodd" clip-rule="evenodd" d="M46.2516 17.2033C47.0826 17.2033 48.7444 16.8032 49.4522 15.7569V17.0187H52.7143V6.00109H49.4522V7.2321C48.6213 6.00109 46.9595 5.75488 46.2516 5.75488C43.4511 5.75488 40.6506 7.93993 40.6506 11.4791C40.6506 15.0183 43.4511 17.2033 46.2516 17.2033ZM49.483 11.4792C49.483 13.1411 48.1597 14.0951 46.8056 14.0951C45.4207 14.0951 44.0359 13.0487 44.0359 11.4792C44.0359 9.90967 45.4515 8.86331 46.8056 8.86331C48.1597 8.86331 49.483 9.81734 49.483 11.4792Z" fill="#0A0A0A"/>
<path d="M58.9924 16.9879H55.6995V6.00109H58.9924V7.6014C59.5771 6.49349 60.8697 5.75488 62.1622 5.75488C64.6242 5.75488 66.1937 7.29365 66.1937 10.4327V17.0187H62.9008V11.1406C62.9008 9.66335 62.1007 8.95552 60.9928 8.95552C59.8233 8.95552 58.9617 9.50947 58.9617 11.2021V16.9879H58.9924Z" fill="#0A0A0A"/>
<path fill-rule="evenodd" clip-rule="evenodd" d="M77.0265 15.6339V16.988H80.2886V0H77.0265V7.32453C76.4725 6.30894 75.1492 5.75499 73.7951 5.75499C70.9638 5.75499 68.4711 8.00159 68.4711 11.5407C68.4711 14.9876 70.9638 17.2342 73.7951 17.2342C75.1492 17.2342 76.4725 16.6495 77.0265 15.6339ZM71.8563 11.4482C71.8563 9.87869 73.0257 8.83233 74.4106 8.83233C75.7647 8.83233 76.9649 9.81714 76.9649 11.4482C76.9649 13.0486 75.7647 14.1257 74.4106 14.1257C73.0257 14.1257 71.8563 13.0793 71.8563 11.4482Z" fill="#0A0A0A"/>
<path fill-rule="evenodd" clip-rule="evenodd" d="M86.9359 1.90807C86.9359 0.830934 86.0435 0 84.9356 0C83.8277 0 82.8737 0.830934 82.8737 1.90807C82.8737 2.98521 83.8277 3.84692 84.9356 3.84692C86.0435 3.84692 86.9359 2.98521 86.9359 1.90807ZM83.3045 16.9879H86.5666V6.00108H83.3045V16.9879Z" fill="#0A0A0A"/>
<path fill-rule="evenodd" clip-rule="evenodd" d="M94.5373 17.2033C95.3682 17.2033 97.03 16.8032 97.7379 15.7569V17.0187H101V6.00109H97.7379V7.2321C96.9069 6.00109 95.2451 5.75488 94.5373 5.75488C91.7368 5.75488 88.9363 7.93993 88.9363 11.4791C88.9363 15.0183 91.7368 17.2033 94.5373 17.2033ZM97.7379 11.4792C97.7379 13.1411 96.4146 14.0951 95.0605 14.0951C93.7064 14.0951 92.3215 13.0487 92.2907 11.4792C92.2907 9.90967 93.7064 8.86331 95.0605 8.86331C96.4146 8.86331 97.7379 9.81734 97.7379 11.4792Z" fill="#0A0A0A"/>
<path d="M0.428008 5.75503L11.2915 16.6187C12.0301 17.3573 13.2919 16.8342 13.2919 15.7878V5.47806C13.2919 4.52402 12.5225 3.75464 11.5685 3.75464H1.25893C0.212584 3.75464 -0.310587 5.01643 0.428008 5.75503Z" fill="#00C73C"/>
<path d="M0.73576 16.3725C2.30527 17.942 4.98268 16.8341 4.98268 14.6183C4.98268 13.2334 3.87479 12.1255 2.48992 12.1255C0.274139 12.0947 -0.833754 14.803 0.73576 16.3725Z" fill="#00C73C"/>
</svg>
