<svg width="135" height="23" viewBox="0 0 135 23" fill="none" xmlns="http://www.w3.org/2000/svg">
<path d="M29.8013 16.6041C25.4146 15.4151 25.3736 13.2012 25.4146 11.8483C25.4556 9.67541 28.0384 7.6665 31.1132 7.6665C34.0241 7.6665 37.0989 8.93745 37.1399 12.5453H33.0401C32.9991 11.4383 32.0562 11.2743 31.3592 11.2743C30.4163 11.2743 29.8013 11.7253 29.8013 12.3813C29.8423 12.8323 30.2113 13.2422 31.0722 13.4882L33.5731 14.1442C37.1399 15.1282 37.5498 17.4651 37.5498 18.408C37.5498 21.5239 34.27 22.9998 31.1952 22.9998C28.2024 22.9998 25.0866 21.1959 25.0866 17.957H29.1864C29.2274 18.818 30.1703 19.638 31.3592 19.638C32.3432 19.597 33.1631 19.187 33.1631 18.408C33.1631 17.793 32.7941 17.4241 31.7282 17.1371L29.8013 16.6041Z" fill="white"/>
<path d="M44.3144 22.631H40.0097V0H44.3144V12.0124L47.7992 7.99463H53.3748L47.2662 14.4313L54.6047 22.631H49.2341L44.3144 16.8502V22.631Z" fill="white"/>
<path fill-rule="evenodd" clip-rule="evenodd" d="M61.6153 22.9178C62.7222 22.9178 64.9361 22.3848 65.879 20.9909V22.6718H70.2248V7.99449H65.879V9.63441C64.7721 7.99449 62.5582 7.6665 61.6153 7.6665C57.8845 7.6665 54.1538 10.5774 54.1538 15.2922C54.1538 20.0069 57.8845 22.9178 61.6153 22.9178ZM65.92 15.2924C65.92 17.5063 64.1571 18.7772 62.3533 18.7772C60.5084 18.7772 58.6635 17.3833 58.6635 15.2924C58.6635 13.2015 60.5494 11.8076 62.3533 11.8076C64.1571 11.8076 65.92 13.0785 65.92 15.2924Z" fill="white"/>
<path d="M78.5882 22.6308H74.2015V7.99449H78.5882V10.1264C79.3672 8.65046 81.0891 7.6665 82.811 7.6665C86.0907 7.6665 88.1816 9.71641 88.1816 13.8982V22.6718H83.7949V14.8412C83.7949 12.8733 82.729 11.9303 81.2531 11.9303C79.6952 11.9303 78.5472 12.6683 78.5472 14.9232V22.6308H78.5882Z" fill="white"/>
<path fill-rule="evenodd" clip-rule="evenodd" d="M102.613 20.827V22.631H106.958V0H102.613V9.75755C101.875 8.40461 100.112 7.66665 98.308 7.66665C94.5362 7.66665 91.2154 10.6595 91.2154 15.3743C91.2154 19.9661 94.5362 22.9589 98.308 22.9589C100.112 22.9589 101.875 22.18 102.613 20.827ZM95.7251 15.2513C95.7251 13.1604 97.283 11.7665 99.1279 11.7665C100.932 11.7665 102.531 13.0784 102.531 15.2513C102.531 17.3832 100.932 18.8181 99.1279 18.8181C97.283 18.8181 95.7251 17.4242 95.7251 15.2513Z" fill="white"/>
<path fill-rule="evenodd" clip-rule="evenodd" d="M115.814 2.54188C115.814 1.10695 114.625 0 113.149 0C111.673 0 110.402 1.10695 110.402 2.54188C110.402 3.97682 111.673 5.12476 113.149 5.12476C114.625 5.12476 115.814 3.97682 115.814 2.54188ZM110.976 22.6309H115.322V7.99456H110.976V22.6309Z" fill="white"/>
<path fill-rule="evenodd" clip-rule="evenodd" d="M125.94 22.9178C127.047 22.9178 129.261 22.3848 130.204 20.9909V22.6718H134.55V7.99449H130.204V9.63441C129.097 7.99449 126.883 7.6665 125.94 7.6665C122.209 7.6665 118.479 10.5774 118.479 15.2922C118.479 20.0069 122.209 22.9178 125.94 22.9178ZM130.204 15.2924C130.204 17.5063 128.441 18.7772 126.637 18.7772C124.833 18.7772 122.988 17.3833 122.947 15.2924C122.947 13.2015 124.833 11.8076 126.637 11.8076C128.441 11.8076 130.204 13.0785 130.204 15.2924Z" fill="white"/>
<path d="M0.57019 7.66659L15.0423 22.1389C16.0262 23.1229 17.7071 22.4259 17.7071 21.032V7.2976C17.7071 6.02666 16.6822 5.00171 15.4112 5.00171H1.67712C0.283209 5.00171 -0.413747 6.68263 0.57019 7.66659Z" fill="white"/>
<path d="M0.980161 21.8112C3.07103 23.9021 6.6378 22.4261 6.6378 19.4743C6.6378 17.6294 5.16189 16.1534 3.31701 16.1534C0.3652 16.1124 -1.11071 19.7203 0.980161 21.8112Z" fill="white"/>
</svg>
