<?xml version="1.0" encoding="UTF-8"?>
<svg width="165px" height="49px" viewBox="0 0 165 49" version="1.1" xmlns="http://www.w3.org/2000/svg" xmlns:xlink="http://www.w3.org/1999/xlink">
    <title>distribudor-allianz-logo</title>
    <g id="Main-page" stroke="none" stroke-width="1" fill="none" fill-rule="evenodd" opacity="0.695405506">
        <g id="LANDING-COMPLETO" transform="translate(-486.000000, -842.000000)" fill="#002F87">
            <g id="distribudor-allianz-logo" transform="translate(486.000000, 842.000000)">
                <g id="Group" transform="translate(0.000000, 7.000000)">
                    <path d="M6.05447659,33.2683501 L8.02240309,26.6713032 L15.8852446,26.6713032 L17.702474,33.2683501 L24.3597389,33.2683501 L17.4010799,8.42157073 C16.9534209,6.7363578 16.191071,6.26899208 14.5245386,6.26899208 L4.84003546,6.26899208 L4.84003546,8.57436336 L5.59352083,8.57436336 C6.95422677,8.57436336 7.41075026,8.87994864 7.41075026,9.80119837 C7.41075026,10.2640702 7.41075026,10.7179542 6.95422677,12.1020758 L0,33.2683501 L6.05447659,33.2683501 L6.05447659,33.2683501 Z M14.9810621,22.3796276 L8.93101781,22.3796276 L12.1000886,11.6436978 L14.9810621,22.3796276 L14.9810621,22.3796276 Z" id="Shape"></path>
                    <path d="M32.3688452,33.2683501 L32.3688452,8.26877809 C32.3688452,7.03744918 31.7660569,6.26899208 30.405351,6.26899208 L24.5060037,6.26899208 L24.5060037,8.57436336 L24.8118301,8.57436336 C26.0174067,8.57436336 26.4739302,9.03723518 26.4739302,10.1067837 L26.4739302,33.2683501 L32.3688452,33.2683501 L32.3688452,33.2683501 Z" id="Path"></path>
                    <path d="M43.1037956,33.2683501 L43.1037956,8.26877809 C43.1037956,7.03744918 42.3547425,6.26899208 41.1447337,6.26899208 L35.2453864,6.26899208 L35.2453864,8.57436336 L35.5512128,8.57436336 C36.6105246,8.57436336 37.2133129,9.03723518 37.2133129,10.1067837 L37.2133129,33.2683501 L43.1037956,33.2683501 L43.1037956,33.2683501 Z" id="Path"></path>
                    <path d="M53.8520429,33.2683501 L53.8520429,15.0141237 C53.8520429,13.7872887 53.089693,13.0188316 52.0348134,13.0188316 L45.9847691,13.0188316 L45.9847691,15.1669163 L46.281731,15.1669163 C47.4917399,15.1669163 47.9482634,15.7825808 47.9482634,16.8521293 L47.9482634,33.2638562 L53.8520429,33.2638562 L53.8520429,33.2683501 Z M53.9983077,8.727156 C53.9983077,6.88016264 52.7927311,5.81061417 50.5189782,5.81061417 C48.4047868,5.81061417 47.0396486,6.88016264 47.0396486,8.727156 C47.0396486,10.5651616 48.4047868,11.4864113 50.5189782,11.4864113 C52.7927311,11.4864113 53.9983077,10.5651616 53.9983077,8.727156 L53.9983077,8.727156 Z" id="Shape"></path>
                    <path d="M59.5962608,18.5418361 L60.2034813,18.3890434 C61.7148844,17.773379 62.6234991,17.4677937 63.6828109,17.3150011 C64.2855992,17.1667023 65.0435168,17.1667023 65.4911758,17.1667023 C67.3128375,17.1667023 68.0663228,17.7778729 68.0663228,19.6158785 L68.0663228,20.0787503 C65.1942139,20.5326343 64.4362962,20.6944147 63.0755903,21.0044939 C62.1714078,21.1572865 61.4134902,21.4628718 60.6555726,21.7684571 C58.2355548,22.8469934 57.176243,24.6849989 57.176243,27.7498395 C57.176243,31.5786433 58.6920783,33.4211427 62.0207108,33.4211427 C63.3814167,33.4211427 64.7421227,33.1155575 65.8014344,32.5043869 C66.5593521,32.0415151 67.0114433,31.7404237 68.2214522,30.6663813 L68.2214522,31.2775519 C68.2214522,32.6616734 68.8286727,33.2773379 69.8835523,33.2773379 L75.4815054,33.2773379 L75.4815054,31.1292532 L75.3308083,31.1292532 C74.2670642,31.1292532 73.6642759,30.6708752 73.6642759,29.5968329 L73.6642759,19.6203724 C73.6642759,14.5647336 71.9977436,12.7222341 67.0114433,12.7222341 C65.344911,12.7222341 63.8335079,13.0278194 62.3221049,13.3378986 C60.8107019,13.6434838 60.0527843,13.9490691 58.2355548,14.8703189 L59.5962608,18.5418361 L59.5962608,18.5418361 Z M68.0663228,23.4491761 L68.0663228,27.4397603 C66.8518817,28.6665953 65.6463051,29.2777659 64.4362962,29.2777659 C63.0755903,29.2777659 62.6190668,28.6665953 62.6190668,27.1296811 C62.6190668,25.5972609 63.071158,24.8332977 64.2811669,24.3704259 C65.344911,23.9120479 66.2490934,23.7547614 68.0663228,23.4491761 L68.0663228,23.4491761 Z" id="Shape"></path>
                    <path d="M84.5543557,33.2683501 L84.5543557,19.4630858 C85.9194939,18.2362508 86.8281086,17.7778729 88.1843823,17.7778729 C89.5495205,17.7778729 90.0016117,18.3935373 90.0016117,20.3843355 L90.0016117,33.2683501 L95.7502619,33.2683501 L95.7502619,19.4630858 C95.7502619,16.546544 95.4488678,15.4769955 94.6953824,14.4029531 C93.7823354,13.3334047 92.5723265,12.8705328 90.9102264,12.8705328 C88.6364735,12.8705328 86.8281086,13.6389899 84.2529616,15.9398673 L84.2529616,14.8703189 C84.2529616,13.6434838 83.8053026,13.0278194 82.5908615,13.0278194 L76.687082,13.0278194 L76.687082,15.1759041 L76.9929084,15.1759041 C78.2029172,15.1759041 78.6594407,15.7915686 78.6594407,16.8611171 L78.6594407,33.272844 L84.5543557,33.272844 L84.5543557,33.2683501 Z" id="Path"></path>
                    <path d="M105.275203,29.273272 L113.89153,17.1622084 L113.89153,13.0188316 L101.188653,13.0188316 C99.6816826,13.0188316 99.0744621,13.634496 99.0744621,15.1669163 L99.0744621,18.8474214 L101.188653,18.8474214 L101.188653,18.3890434 C101.188653,17.3150011 101.640745,16.8566232 102.850753,16.8566232 L107.540092,16.8566232 L98.923765,28.9676867 L98.923765,33.2683501 L114.197357,33.2683501 L114.197357,29.273272 L105.275203,29.273272 Z" id="Path"></path>
                    <path d="M165,21 C165,8.87545474 156.10444,0 144.141752,0 C132.334193,0 123.580466,8.87545474 123.580466,21 C123.580466,32.9762465 132.334193,42 144.292449,42 C156.100008,42 165,32.9762465 165,21 L165,21 Z M161.498509,21 C161.498509,31.2011556 154.20743,38.7464156 144.141752,38.7464156 C134.226771,38.7464156 127.081957,31.2056495 127.081957,21 C127.081957,10.6460518 134.231203,3.25358442 144.141752,3.25358442 C154.20743,3.25358442 161.498509,10.6460518 161.498509,21 L161.498509,21 Z M138.601418,31.9426493 L138.601418,13.0143377 L135.538722,13.0143377 C133.929809,13.0143377 133.20735,13.7558314 133.20735,15.3826236 L133.20735,31.9426493 L138.601418,31.9426493 L138.601418,31.9426493 Z M149.832783,31.9426493 L155.231284,31.9426493 L155.231284,15.3826236 C155.231284,13.7558314 154.641792,13.0143377 152.891047,13.0143377 L149.82835,13.0143377 L149.82835,31.9426493 L149.832783,31.9426493 Z M146.911919,31.9426493 L146.911919,10.0573507 C146.911919,8.28225979 146.331292,7.69355874 144.576114,7.69355874 L139.62084,7.69355874 L139.62084,10.0573507 L140.055202,10.0573507 C141.220888,10.0573507 141.51785,10.3539482 141.51785,11.5403381 L141.51785,31.9426493 L146.911919,31.9426493 L146.911919,31.9426493 Z" id="Shape"></path>
                </g>
                <g id="Group" transform="translate(4.000000, 0.000000)" fill-rule="nonzero">
                    <g transform="translate(57.855902, 0.000000)">
                        <path d="M4.68056734,5.00613874 L1.67575868,5.00613874 L0.915666545,6.89257213 L0,6.89257213 L2.67143492,0.343769184 L3.67600113,0.343769184 L6.34743605,6.89257213 L5.43176951,6.89257213 L4.68056734,5.00613874 Z M4.35608357,4.19828115 L3.17816301,1.25475752 L1.99135249,4.19828115 L4.35608357,4.19828115 Z" id="Shape"></path>
                        <path d="M11.5258415,2.22590546 L11.5258415,6.88827502 L10.7657494,6.88827502 L10.7657494,6.19214242 C10.4323756,6.73357888 9.87230775,6.98710866 9.21000525,6.98710866 C8.09431446,6.98710866 7.3431123,6.23081645 7.3431123,4.9373849 L7.3431123,2.22590546 L8.15654423,2.22590546 L8.15654423,4.80847145 C8.15654423,5.7796194 8.63215743,6.2437078 9.40558452,6.2437078 C10.2190164,6.2437078 10.7168546,5.72375691 10.7168546,4.83855126 L10.7168546,2.22590546 L11.5258415,2.22590546 L11.5258415,2.22590546 Z" id="Path"></path>
                        <path d="M15.7885804,6.81092695 C15.5352164,6.90976059 15.2596274,6.94843462 14.9840385,6.94843462 C14.0817069,6.94843462 13.5838688,6.44567219 13.5838688,5.55616943 L13.5838688,2.97360344 L12.8637815,2.97360344 L12.8637815,2.22590546 L13.5838688,2.22590546 L13.5838688,1.04849601 L14.3973007,0.889502762 L14.3973007,2.22590546 L15.7263507,2.22590546 L15.7263507,2.97360344 L14.3973007,2.97360344 L14.3973007,5.46593002 C14.3973007,5.99447514 14.6506647,6.20073665 15.0862731,6.20073665 C15.2907423,6.20073665 15.4818766,6.17065684 15.6641209,6.10190301 L15.7885804,6.81092695 Z" id="Path"></path>
                        <path d="M16.8242615,4.55494168 C16.8242615,3.11970534 17.8110478,2.13136894 19.2601123,2.13136894 C20.7002869,2.13136894 21.6870732,3.12400246 21.6870732,4.55494168 C21.6870732,6.00736648 20.7002869,7 19.2601123,7 C17.8110478,7 16.8242615,6.00736648 16.8242615,4.55494168 Z M20.8780862,4.55494168 C20.8780862,3.56230816 20.2068938,2.8747698 19.2645573,2.8747698 C18.299996,2.8747698 17.6376935,3.56230816 17.6376935,4.55494168 C17.6376935,5.55616943 18.299996,6.25230203 19.2645573,6.25230203 C20.2068938,6.25230203 20.8780862,5.55616943 20.8780862,4.55494168 Z" id="Shape"></path>
                        <path d="M25.8653574,2.25598527 L25.7542328,3.02946593 C25.6031034,2.98219767 25.438639,2.95211786 25.2786196,2.95211786 C24.5496424,2.95211786 24.0784742,3.40331492 24.0784742,4.37446286 L24.0784742,6.88827502 L23.2650422,6.88827502 L23.2650422,2.22590546 L24.0251344,2.22590546 L24.0251344,2.97360344 C24.3007233,2.42357274 24.7274417,2.15715163 25.3052895,2.15715163 C25.5097588,2.15715163 25.6920031,2.18723143 25.8653574,2.25598527 Z" id="Path"></path>
                        <path d="M27.043278,0.61878453 C27.043278,0.296500921 27.2788621,0.0687538367 27.6211258,0.0687538367 C27.9544995,0.0687538367 28.1900836,0.296500921 28.1900836,0.61878453 C28.1900836,0.94106814 27.9544995,1.16881522 27.6211258,1.16881522 C27.2744171,1.16451811 27.043278,0.94106814 27.043278,0.61878453 Z M28.0256193,2.22590546 L28.0256193,6.88827502 L27.2121873,6.88827502 L27.2121873,2.22590546 L28.0256193,2.22590546 Z" id="Shape"></path>
                        <polygon id="Path" points="33.5329535 6.15346839 33.5329535 6.88827502 29.6213682 6.88827502 29.6213682 6.26949048 32.3105831 2.96930632 29.7191579 2.96930632 29.7191579 2.22160835 33.4262739 2.22160835 33.4262739 2.83179865 30.737059 6.14917127 33.5329535 6.14917127"></polygon>
                        <path d="M34.6708692,4.55494168 C34.6708692,3.11970534 35.5954257,2.13136894 36.9155857,2.13136894 C37.6178931,2.13136894 38.2135208,2.41497851 38.6402392,2.97360344 L38.6402392,2.22590546 L39.4003314,2.22590546 L39.4003314,6.88827502 L38.6402392,6.88827502 L38.6402392,6.14057704 C38.2135208,6.69920196 37.6134481,6.9828255 36.9155857,6.9828255 C35.5954257,6.98710866 34.6708692,5.99877225 34.6708692,4.55494168 Z M38.5913444,4.55494168 C38.5913444,3.5150399 37.9734917,2.8747698 37.0667152,2.8747698 C36.1243787,2.8747698 35.4843011,3.56230816 35.4843011,4.55494168 C35.4843011,5.55616943 36.1243787,6.2437078 37.0667152,6.2437078 C37.9690468,6.2437078 38.5913444,5.60343769 38.5913444,4.55494168 Z" id="Shape"></path>
                        <path d="M45.7077626,0 L45.7077626,6.89257213 L44.9476704,6.89257213 L44.9476704,6.14487416 C44.520952,6.70349908 43.9208793,6.98710866 43.2230169,6.98710866 C41.9028569,6.98710866 40.9783004,5.99447514 40.9783004,4.55064457 C40.9783004,3.11540823 41.9028569,2.12707182 43.2230169,2.12707182 C43.9030994,2.12707182 44.4809472,2.39349294 44.8987756,2.9048496 L44.8987756,0 L45.7077626,0 L45.7077626,0 Z M44.8943306,4.55494168 C44.8943306,3.5150399 44.276478,2.8747698 43.3697014,2.8747698 C42.4273649,2.8747698 41.7872873,3.56230816 41.7872873,4.55494168 C41.7872873,5.55616943 42.4273649,6.2437078 43.3697014,6.2437078 C44.276478,6.2437078 44.8943306,5.60343769 44.8943306,4.55494168 Z" id="Shape"></path>
                        <path d="M47.2812866,4.55494168 C47.2812866,3.11970534 48.2680729,2.13136894 49.7171374,2.13136894 C51.157312,2.13136894 52.1440983,3.12400246 52.1440983,4.55494168 C52.1440983,6.00736648 51.157312,7 49.7171374,7 C48.2680729,7 47.2812866,6.00736648 47.2812866,4.55494168 Z M51.3351113,4.55494168 C51.3351113,3.56230816 50.6639189,2.8747698 49.7215824,2.8747698 C48.7570211,2.8747698 48.0947186,3.56230816 48.0947186,4.55494168 C48.0947186,5.55616943 48.7570211,6.25230203 49.7215824,6.25230203 C50.6639189,6.25230203 51.3351113,5.55616943 51.3351113,4.55494168 Z" id="Shape"></path>
                    </g>
                    <g>
                        <path d="M0,0.343769184 L2.0402473,0.343769184 C4.33385865,0.343769184 5.55622904,1.68017188 5.55622904,3.62246777 C5.55622904,5.56476366 4.33830363,6.89257213 2.0402473,6.89257213 L0,6.89257213 L0,0.343769184 Z M2.0402473,6.08471455 C3.80935063,6.08471455 4.68945731,5.0834868 4.68945731,3.62246777 C4.68945731,2.13996317 3.80490565,1.14732965 2.0402473,1.14732965 L0.871216713,1.14732965 L0.871216713,6.08471455 L2.0402473,6.08471455 Z" id="Shape"></path>
                        <path d="M7.02751849,0.61878453 C7.02751849,0.296500921 7.2631026,0.0687538367 7.60536631,0.0687538367 C7.93874005,0.0687538367 8.17432416,0.296500921 8.17432416,0.61878453 C8.17432416,0.94106814 7.93874005,1.16881522 7.60536631,1.16881522 C7.2631026,1.16451811 7.02751849,0.94106814 7.02751849,0.61878453 Z M8.01430476,2.22590546 L8.01430476,6.88827502 L7.20087283,6.88827502 L7.20087283,2.22590546 L8.01430476,2.22590546 Z" id="Shape"></path>
                        <path d="M9.70784337,5.93861265 C10.1034469,6.15346839 10.5523902,6.26089626 11.0368934,6.26089626 C11.7480907,6.26089626 12.1748091,6.00736648 12.1748091,5.61203192 C12.1748091,4.64947821 9.57449388,5.20810313 9.57449388,3.46347452 C9.57449388,2.60834868 10.2234614,2.12707182 11.2991474,2.12707182 C11.8592153,2.12707182 12.4059482,2.24309392 12.7704368,2.4407612 L12.5881925,3.17556783 C12.2103689,2.96930632 11.7436457,2.86187845 11.3080373,2.86187845 C10.6901847,2.86187845 10.3834808,3.08962554 10.3834808,3.45058318 C10.3834808,4.48189073 12.983796,3.893186 12.983796,5.56046654 C12.983796,6.46286065 12.2325938,6.99570289 11.0324484,6.99570289 C10.4323756,6.99570289 9.89453267,6.87968079 9.49892916,6.67341928 L9.70784337,5.93861265 Z" id="Path"></path>
                        <path d="M16.8598214,6.81092695 C16.6064573,6.90976059 16.3308684,6.94843462 16.0552794,6.94843462 C15.1529478,6.94843462 14.6551097,6.44567219 14.6551097,5.55616943 L14.6551097,2.97360344 L13.9350224,2.97360344 L13.9350224,2.22590546 L14.6551097,2.22590546 L14.6551097,1.04849601 L15.4685416,0.889502762 L15.4685416,2.22590546 L16.7975916,2.22590546 L16.7975916,2.97360344 L15.4685416,2.97360344 L15.4685416,5.46593002 C15.4685416,5.99447514 15.7219057,6.20073665 16.157514,6.20073665 C16.3619833,6.20073665 16.5531175,6.17065684 16.7353619,6.10190301 L16.8598214,6.81092695 Z" id="Path"></path>
                        <path d="M20.8603063,2.25598527 L20.7491817,3.02946593 C20.5980523,2.98219767 20.4335879,2.95211786 20.2735685,2.95211786 C19.5445913,2.95211786 19.073423,3.40331492 19.073423,4.37446286 L19.073423,6.88827502 L18.2599911,6.88827502 L18.2599911,2.22590546 L19.0200832,2.22590546 L19.0200832,2.97360344 C19.2956722,2.42357274 19.7223906,2.15715163 20.3002384,2.15715163 C20.5047076,2.15715163 20.686952,2.18723143 20.8603063,2.25598527 Z" id="Path"></path>
                        <path d="M22.0382269,0.61878453 C22.0382269,0.296500921 22.273811,0.0687538367 22.6160747,0.0687538367 C22.9494484,0.0687538367 23.1850325,0.296500921 23.1850325,0.61878453 C23.1850325,0.94106814 22.9494484,1.16881522 22.6160747,1.16881522 C22.269366,1.16451811 22.0382269,0.94106814 22.0382269,0.61878453 Z M23.0250131,2.22590546 L23.0250131,6.88827502 L22.2115812,6.88827502 L22.2115812,2.22590546 L23.0250131,2.22590546 Z" id="Shape"></path>
                        <path d="M29.696933,4.55494168 C29.696933,5.99877225 28.7723764,6.99140577 27.4433265,6.99140577 C26.7410191,6.99140577 26.1542813,6.70779619 25.7275629,6.14917127 L25.7275629,6.89686924 L24.9674708,6.89686924 L24.9674708,0 L25.7809027,0 L25.7809027,2.9048496 C26.1987312,2.39349294 26.767689,2.12707182 27.4477714,2.12707182 C28.7723764,2.12707182 29.696933,3.11970534 29.696933,4.55494168 Z M28.883501,4.55494168 C28.883501,3.56230816 28.2345335,2.8747698 27.301087,2.8747698 C26.3854205,2.8747698 25.7764578,3.5150399 25.7764578,4.55494168 C25.7764578,5.60343769 26.3854205,6.2437078 27.301087,6.2437078 C28.2345335,6.2437078 28.883501,5.55616943 28.883501,4.55494168 Z" id="Shape"></path>
                        <path d="M35.3509516,2.22590546 L35.3509516,6.88827502 L34.5908595,6.88827502 L34.5908595,6.19214242 C34.2574858,6.73357888 33.6974179,6.98710866 33.0351154,6.98710866 C31.9194246,6.98710866 31.1682224,6.23081645 31.1682224,4.9373849 L31.1682224,2.22590546 L31.9816543,2.22590546 L31.9816543,4.80847145 C31.9816543,5.7796194 32.4572675,6.2437078 33.2306946,6.2437078 C34.0441266,6.2437078 34.5419647,5.72375691 34.5419647,4.83855126 L34.5419647,2.22590546 L35.3509516,2.22590546 L35.3509516,2.22590546 Z" id="Path"></path>
                        <path d="M37.120055,0.61878453 C37.120055,0.296500921 37.3556391,0.0687538367 37.6979028,0.0687538367 C38.0312765,0.0687538367 38.2668606,0.296500921 38.2668606,0.61878453 C38.2668606,0.94106814 38.0312765,1.16881522 37.6979028,1.16881522 C37.3511941,1.16451811 37.120055,0.94106814 37.120055,0.61878453 Z M38.1023963,2.22590546 L38.1023963,6.88827502 L37.2889643,6.88827502 L37.2889643,2.22590546 L38.1023963,2.22590546 Z" id="Shape"></path>
                        <path d="M44.4098275,0 L44.4098275,6.89257213 L43.6497353,6.89257213 L43.6497353,6.14487416 C43.2230169,6.70349908 42.6229442,6.98710866 41.9250818,6.98710866 C40.6049218,6.98710866 39.6803653,5.99447514 39.6803653,4.55064457 C39.6803653,3.11540823 40.6049218,2.12707182 41.9250818,2.12707182 C42.6051643,2.12707182 43.1830121,2.39349294 43.6008405,2.9048496 L43.6008405,0 L44.4098275,0 L44.4098275,0 Z M43.5963955,4.55494168 C43.5963955,3.5150399 42.9785429,2.8747698 42.0717663,2.8747698 C41.1294298,2.8747698 40.4893522,3.56230816 40.4893522,4.55494168 C40.4893522,5.55616943 41.1294298,6.2437078 42.0717663,6.2437078 C42.9785429,6.2437078 43.5963955,5.60343769 43.5963955,4.55494168 Z" id="Shape"></path>
                        <path d="M45.9833515,4.55494168 C45.9833515,3.11970534 46.9701378,2.13136894 48.4192023,2.13136894 C49.8593769,2.13136894 50.8461632,3.12400246 50.8461632,4.55494168 C50.8461632,6.00736648 49.8593769,7 48.4192023,7 C46.9701378,7 45.9833515,6.00736648 45.9833515,4.55494168 Z M50.0371762,4.55494168 C50.0371762,3.56230816 49.3659838,2.8747698 48.4236473,2.8747698 C47.4590859,2.8747698 46.7967834,3.56230816 46.7967834,4.55494168 C46.7967834,5.55616943 47.4590859,6.25230203 48.4236473,6.25230203 C49.3659838,6.25230203 50.0371762,5.55616943 50.0371762,4.55494168 Z" id="Shape"></path>
                        <path d="M55.0244474,2.25598527 L54.9133228,3.02946593 C54.7621934,2.98219767 54.597729,2.95211786 54.4377096,2.95211786 C53.7087324,2.95211786 53.2375641,3.40331492 53.2375641,4.37446286 L53.2375641,6.88827502 L52.4241322,6.88827502 L52.4241322,2.22590546 L53.1842244,2.22590546 L53.1842244,2.97360344 C53.4598133,2.42357274 53.8865317,2.15715163 54.4643795,2.15715163 C54.6688487,2.15715163 54.8510931,2.18723143 55.0244474,2.25598527 Z" id="Path"></path>
                    </g>
                </g>
            </g>
        </g>
    </g>
</svg>