<?xml version="1.0" encoding="UTF-8"?>
<svg width="125px" height="48px" viewBox="0 0 125 48" version="1.1" xmlns="http://www.w3.org/2000/svg" xmlns:xlink="http://www.w3.org/1999/xlink">
    <title>Recurso 2</title>
    <g id="Moodboard" stroke="none" stroke-width="1" fill="none" fill-rule="evenodd">
        <g id="Variante-Primer-Fold-" transform="translate(-50.000000, -55.000000)" fill-rule="nonzero">
            <g id="Recurso-2" transform="translate(50.000000, 55.000000)">
                <path d="M16.0404646,3.00046174 C18.1832795,2.98398147 20.3065335,3.40882506 22.277943,4.24852379 C26.0931289,5.87597149 29.1319475,8.91397458 30.759832,12.7281368 C31.5987779,14.6990212 32.0207507,16.8221257 31.9992154,18.9639414 L31.9992154,34.9997607 L16.0404646,34.9997607 C13.9097293,35.0115618 11.7991422,34.5867974 9.83904093,33.7514492 C5.96700574,32.1153941 2.88548178,29.0346971 1.24898755,25.1637009 C0.413047193,23.2042398 -0.0118466799,21.094142 0.000590496691,18.9639414 C-0.0180968482,16.8214923 0.406949955,14.6983627 1.24898755,12.7281368 C2.06027254,10.8323627 3.23456008,9.11349568 4.7057404,7.66830394 C6.18678768,6.21614693 7.92826746,5.05598147 9.83904093,4.24852379 C11.7998222,3.41536918 13.9099512,2.99069702 16.0404646,3.00046174 Z M25.6625863,28.6510944 L25.6625863,18.9639414 C25.6724884,17.6792691 25.4178272,16.4063047 24.9144494,15.2242609 C23.9316085,12.9143043 22.0917255,11.074915 19.7811489,10.0923378 C18.5987877,9.58909506 17.3254817,9.33450219 16.0404646,9.34440172 C12.1427277,9.31293657 8.61068735,11.6343853 7.09437015,15.2242609 C6.5909923,16.4063047 6.3363311,17.6792691 6.34623328,18.9639414 C6.33580472,21.5390451 7.34713311,24.0132183 9.15850679,25.8440524 C10.9935906,27.6487024 13.466362,28.6572965 16.0404646,28.6510944 L25.6625863,28.6510944 Z" id="Shape" fill="#0A357C"></path>
                <rect id="Rectangle" fill="#0A357C" x="37" y="0" width="6" height="35"></rect>
                <rect id="Rectangle" fill="#A9C23E" x="48" y="3" width="6" height="6"></rect>
                <rect id="Rectangle" fill="#0A357C" x="48" y="12" width="6" height="23"></rect>
                <path d="M74.0271101,3.00046337 C76.1699422,2.98392472 78.2932132,3.41027346 80.2646385,4.25294709 C84.079855,5.88616054 87.1186978,8.93492674 88.7465954,12.7626018 C89.5880723,14.7401358 90.01457,16.8703529 89.9995093,19.0204988 L89.9995093,31.9070641 C90.0165104,34.056943 89.5915285,36.1872521 88.7511023,38.1649611 C87.9374173,40.068001 86.7773736,41.8022484 85.3303768,43.2788928 C83.8837731,44.7548166 82.164757,45.9342605 80.2691454,46.7514831 C78.2974305,47.59273 76.174146,48.0175422 74.031617,47.9994452 L70.8227151,47.9994452 L70.8227151,41.6239866 L74.031617,41.6239866 C76.0666022,41.6607188 78.0571844,41.0252113 79.696771,39.8153458 C81.3023612,38.6482824 82.5096087,37.0123077 83.1535515,35.1309663 L74.0271101,35.1309663 C71.8963577,35.1430594 69.7857537,34.7167902 67.8256368,33.8784826 C63.9535706,32.2366312 60.8720219,29.1450198 59.2355146,25.2603094 C58.4017828,23.287325 57.9814452,21.1633831 58.0006282,19.0204988 C57.9819407,16.8704594 58.4069909,14.7398079 59.2490353,12.7626018 C60.0603268,10.8601114 61.2346237,9.1351547 62.7058158,7.68484291 C64.182863,6.2289543 65.9196575,5.06475389 67.8256368,4.25294709 C69.7864338,3.41684076 71.8965797,2.99066406 74.0271101,3.00046337 L74.0271101,3.00046337 Z M64.3328012,19.0204988 C64.3223725,21.6047256 65.333709,24.0876644 67.1450972,25.9249849 C68.9801958,27.7360284 71.4529869,28.7481957 74.0271101,28.7419716 L83.721419,28.7419716 L83.721419,19.0204988 C83.7313213,17.7312751 83.476658,16.4538009 82.9732762,15.2675692 C82.4859403,14.1194429 81.7837108,13.0757057 80.9046161,12.19288 C77.0916155,8.41351683 70.9580978,8.41351683 67.1450972,12.19288 C66.2673587,13.0758854 65.5666408,14.1196499 65.080944,15.2675692 C64.5775621,16.4538009 64.3228989,17.7312751 64.3328012,19.0204988 L64.3328012,19.0204988 Z" id="Shape" fill="#0A357C"></path>
                <path d="M120.419148,23.5795949 L125,28.0817721 L122.755383,30.2878389 C119.706916,33.3039044 115.560103,35 111.23454,35 C106.908976,35 102.762163,33.3039044 99.7136967,30.2878389 C98.1621626,28.7865051 96.9521663,26.9788985 96.1635364,24.9842742 C95.3987011,23.0662335 95.0041244,21.02494 95,18.9648633 C95.0025421,16.9163251 95.3972544,14.8865482 96.1635364,12.9814699 C96.9586727,11.0007196 98.1681573,9.2061479 99.7136967,7.71392261 C101.241036,6.18295644 103.07342,4.97826025 105.096198,4.17521137 C109.022043,2.60826288 113.414971,2.60826288 117.340815,4.17521137 C119.368144,4.97359092 121.206565,6.17355785 122.74164,7.70041608 L124.986257,9.90648289 L106.942281,27.6405587 C110.698551,29.487731 115.238789,28.7379547 118.17453,25.7856617 L120.419148,23.5795949 Z M104.262483,12.1170519 C101.267681,15.0054576 100.507431,19.4613479 102.379753,23.1518881 L105.022904,20.5541319 L108.792945,16.8488401 C110.121393,15.5432087 111.400977,14.2976063 112.631699,13.112033 C113.862422,11.9264597 114.816766,11.0005119 115.494732,10.3341897 C113.695598,9.43883735 111.657936,9.11476115 109.663307,9.40674122 C107.606004,9.69334935 105.705104,10.6472832 104.262483,12.1170519 L104.262483,12.1170519 Z" id="Shape" fill="#0A357C"></path>
            </g>
        </g>
    </g>
</svg>