<svg id="Capa_1" data-name="Capa 1" xmlns="http://www.w3.org/2000/svg" viewBox="0 0 310.57 204.69"><defs><style>.cls-1,.cls-2{fill:#274470;}.cls-1{fill-rule:evenodd;}.cls-3{fill:#fff;}</style></defs><path class="cls-1" d="M202.09,79.54a2.41,2.41,0,0,1-3.32.64L181.9,68.78a2.38,2.38,0,0,1-1.15-2V38.91a2.39,2.39,0,0,1,4.78,0V65.47l15.91,10.74A2.41,2.41,0,0,1,202.09,79.54Z"/><path class="cls-1" d="M144,69.13h-1.39a2.39,2.39,0,1,1,0-4.78H144a2.39,2.39,0,0,1,0,4.78Z"/><path class="cls-1" d="M151.26,85.14a2.39,2.39,0,0,1-.87,3.25l-1.2.68a2.38,2.38,0,1,1-2.37-4.13l1.19-.68A2.39,2.39,0,0,1,151.26,85.14Z"/><path class="cls-1" d="M151.27,48.33a2.39,2.39,0,0,1-3.25.87l-1.19-.68a2.38,2.38,0,0,1,2.37-4.13l1.19.69A2.36,2.36,0,0,1,151.27,48.33Z"/><path class="cls-1" d="M165.61,101.85l-.69,1.19a2.37,2.37,0,1,1-4.12-2.36l.68-1.2a2.38,2.38,0,0,1,4.13,2.37Z"/><path class="cls-1" d="M165.61,31.62A2.38,2.38,0,0,1,161.48,34l-.68-1.19a2.38,2.38,0,1,1,4.12-2.37Z"/><path class="cls-1" d="M180.75,27.55V26.17a2.39,2.39,0,0,1,4.78,0v1.38a2.39,2.39,0,0,1-4.78,0Z"/><path class="cls-1" d="M185.53,105.91v1.39a2.39,2.39,0,0,1-4.78,0v-1.39a2.39,2.39,0,0,1,4.78,0Z"/><path class="cls-1" d="M198.77,80.18,181.9,68.78a2.38,2.38,0,0,1-1.15-2V38.91a2.39,2.39,0,0,1,4.78,0V65.47l15.91,10.74a2.39,2.39,0,1,1-2.67,4Z"/><path class="cls-1" d="M205.49,100.68a2.38,2.38,0,1,1-4.13,2.37l-.69-1.18a2.38,2.38,0,0,1,4.13-2.38Z"/><path class="cls-1" d="M200.67,31.61l.69-1.2a2.38,2.38,0,0,1,4.13,2.38l-.7,1.19a2.38,2.38,0,1,1-4.12-2.37Z"/><path class="cls-1" d="M220.32,88.2a2.37,2.37,0,0,1-3.25.88l-1.19-.68a2.38,2.38,0,0,1,2.38-4.13l1.19.68A2.37,2.37,0,0,1,220.32,88.2Z"/><path class="cls-1" d="M215,48.33a2.38,2.38,0,0,1,.87-3.25l1.19-.69a2.38,2.38,0,0,1,2.38,4.13l-1.19.68A2.39,2.39,0,0,1,215,48.33Z"/><path class="cls-1" d="M226.09,66.74a2.38,2.38,0,0,1-2.39,2.39h-1.37a2.39,2.39,0,1,1,0-4.78h1.37A2.38,2.38,0,0,1,226.09,66.74Z"/><path class="cls-1" d="M228.93,21a64.76,64.76,0,1,0,19,45.79A64.55,64.55,0,0,0,228.93,21Zm-3.38,88.18A60,60,0,1,1,243.1,66.74,59.82,59.82,0,0,1,225.55,109.13Zm-4.24-80.57a54,54,0,1,0,15.81,38.18A53.84,53.84,0,0,0,221.31,28.56Zm-3.38,73a49.2,49.2,0,1,1,14.4-34.78A49,49,0,0,1,217.93,101.51Z"/><path class="cls-1" d="M144,69.13h-1.39a2.39,2.39,0,1,1,0-4.78H144a2.39,2.39,0,0,1,0,4.78Z"/><path class="cls-1" d="M151.26,85.14a2.39,2.39,0,0,1-.87,3.25l-1.2.68a2.38,2.38,0,1,1-2.37-4.13l1.19-.68A2.39,2.39,0,0,1,151.26,85.14Z"/><path class="cls-1" d="M151.27,48.33a2.39,2.39,0,0,1-3.25.87l-1.19-.68a2.38,2.38,0,0,1,2.37-4.13l1.19.69A2.36,2.36,0,0,1,151.27,48.33Z"/><path class="cls-1" d="M165.61,101.85l-.69,1.19a2.37,2.37,0,1,1-4.12-2.36l.68-1.2a2.38,2.38,0,0,1,4.13,2.37Z"/><path class="cls-1" d="M165.61,31.62A2.38,2.38,0,0,1,161.48,34l-.68-1.19a2.38,2.38,0,1,1,4.12-2.37Z"/><path class="cls-1" d="M180.75,27.55V26.17a2.39,2.39,0,0,1,4.78,0v1.38a2.39,2.39,0,0,1-4.78,0Z"/><path class="cls-1" d="M185.53,105.91v1.39a2.39,2.39,0,0,1-4.78,0v-1.39a2.39,2.39,0,0,1,4.78,0Z"/><path class="cls-1" d="M198.77,80.18,181.9,68.78a2.38,2.38,0,0,1-1.15-2V38.91a2.39,2.39,0,0,1,4.78,0V65.47l15.91,10.74a2.39,2.39,0,1,1-2.67,4Z"/><path class="cls-1" d="M205.49,100.68a2.38,2.38,0,1,1-4.13,2.37l-.69-1.18a2.38,2.38,0,0,1,4.13-2.38Z"/><path class="cls-1" d="M200.67,31.61l.69-1.2a2.38,2.38,0,0,1,4.13,2.38l-.7,1.19a2.38,2.38,0,1,1-4.12-2.37Z"/><path class="cls-1" d="M220.32,88.2a2.37,2.37,0,0,1-3.25.88l-1.19-.68a2.38,2.38,0,0,1,2.38-4.13l1.19.68A2.37,2.37,0,0,1,220.32,88.2Z"/><path class="cls-1" d="M215,48.33a2.38,2.38,0,0,1,.87-3.25l1.19-.69a2.38,2.38,0,0,1,2.38,4.13l-1.19.68A2.39,2.39,0,0,1,215,48.33Z"/><path class="cls-1" d="M226.09,66.74a2.38,2.38,0,0,1-2.39,2.39h-1.37a2.39,2.39,0,1,1,0-4.78h1.37A2.38,2.38,0,0,1,226.09,66.74Z"/><path class="cls-1" d="M221.31,28.56a54,54,0,1,0,15.81,38.18A53.84,53.84,0,0,0,221.31,28.56Zm-3.38,73a49.2,49.2,0,1,1,14.4-34.78A49,49,0,0,1,217.93,101.51Z"/><path class="cls-1" d="M144,69.13h-1.39a2.39,2.39,0,1,1,0-4.78H144a2.39,2.39,0,0,1,0,4.78Z"/><path class="cls-1" d="M151.26,85.14a2.39,2.39,0,0,1-.87,3.25l-1.2.68a2.38,2.38,0,1,1-2.37-4.13l1.19-.68A2.39,2.39,0,0,1,151.26,85.14Z"/><path class="cls-1" d="M151.27,48.33a2.39,2.39,0,0,1-3.25.87l-1.19-.68a2.38,2.38,0,0,1,2.37-4.13l1.19.69A2.36,2.36,0,0,1,151.27,48.33Z"/><path class="cls-1" d="M165.61,101.85l-.69,1.19a2.37,2.37,0,1,1-4.12-2.36l.68-1.2a2.38,2.38,0,0,1,4.13,2.37Z"/><path class="cls-1" d="M165.61,31.62A2.38,2.38,0,0,1,161.48,34l-.68-1.19a2.38,2.38,0,1,1,4.12-2.37Z"/><path class="cls-1" d="M180.75,27.55V26.17a2.39,2.39,0,0,1,4.78,0v1.38a2.39,2.39,0,0,1-4.78,0Z"/><path class="cls-1" d="M198.77,80.18,181.9,68.78a2.38,2.38,0,0,1-1.15-2V38.91a2.39,2.39,0,0,1,4.78,0V65.47l15.91,10.74a2.39,2.39,0,1,1-2.67,4Z"/><path class="cls-1" d="M205.49,100.68a2.38,2.38,0,1,1-4.13,2.37l-.69-1.18a2.38,2.38,0,0,1,4.13-2.38Z"/><path class="cls-1" d="M200.67,31.61l.69-1.2a2.38,2.38,0,0,1,4.13,2.38l-.7,1.19a2.38,2.38,0,1,1-4.12-2.37Z"/><path class="cls-1" d="M220.32,88.2a2.37,2.37,0,0,1-3.25.88l-1.19-.68a2.38,2.38,0,0,1,2.38-4.13l1.19.68A2.37,2.37,0,0,1,220.32,88.2Z"/><path class="cls-1" d="M215,48.33a2.38,2.38,0,0,1,.87-3.25l1.19-.69a2.38,2.38,0,0,1,2.38,4.13l-1.19.68A2.39,2.39,0,0,1,215,48.33Z"/><path class="cls-1" d="M226.09,66.74a2.38,2.38,0,0,1-2.39,2.39h-1.37a2.39,2.39,0,1,1,0-4.78h1.37A2.38,2.38,0,0,1,226.09,66.74Z"/><path class="cls-1" d="M221.31,28.56a54,54,0,1,0,15.81,38.18A53.84,53.84,0,0,0,221.31,28.56Zm-3.38,73a49.2,49.2,0,1,1,14.4-34.78A49,49,0,0,1,217.93,101.51Z"/><path class="cls-1" d="M144,69.13h-1.39a2.39,2.39,0,1,1,0-4.78H144a2.39,2.39,0,0,1,0,4.78Z"/><path class="cls-1" d="M151.26,85.14a2.39,2.39,0,0,1-.87,3.25l-1.2.68a2.38,2.38,0,1,1-2.37-4.13l1.19-.68A2.39,2.39,0,0,1,151.26,85.14Z"/><path class="cls-1" d="M151.27,48.33a2.39,2.39,0,0,1-3.25.87l-1.19-.68a2.38,2.38,0,0,1,2.37-4.13l1.19.69A2.36,2.36,0,0,1,151.27,48.33Z"/><path class="cls-1" d="M165.61,101.85l-.69,1.19a2.37,2.37,0,1,1-4.12-2.36l.68-1.2a2.38,2.38,0,0,1,4.13,2.37Z"/><path class="cls-1" d="M165.61,31.62A2.38,2.38,0,0,1,161.48,34l-.68-1.19a2.38,2.38,0,1,1,4.12-2.37Z"/><path class="cls-1" d="M180.75,27.55V26.17a2.39,2.39,0,0,1,4.78,0v1.38a2.39,2.39,0,0,1-4.78,0Z"/><path class="cls-1" d="M198.77,80.18,181.9,68.78a2.38,2.38,0,0,1-1.15-2V38.91a2.39,2.39,0,0,1,4.78,0V65.47l15.91,10.74a2.39,2.39,0,1,1-2.67,4Z"/><path class="cls-1" d="M205.49,100.68a2.38,2.38,0,1,1-4.13,2.37l-.69-1.18a2.38,2.38,0,0,1,4.13-2.38Z"/><path class="cls-1" d="M200.67,31.61l.69-1.2a2.38,2.38,0,0,1,4.13,2.38l-.7,1.19a2.38,2.38,0,1,1-4.12-2.37Z"/><path class="cls-1" d="M220.32,88.2a2.37,2.37,0,0,1-3.25.88l-1.19-.68a2.38,2.38,0,0,1,2.38-4.13l1.19.68A2.37,2.37,0,0,1,220.32,88.2Z"/><path class="cls-1" d="M215,48.33a2.38,2.38,0,0,1,.87-3.25l1.19-.69a2.38,2.38,0,0,1,2.38,4.13l-1.19.68A2.39,2.39,0,0,1,215,48.33Z"/><path class="cls-1" d="M226.09,66.74a2.38,2.38,0,0,1-2.39,2.39h-1.37a2.39,2.39,0,1,1,0-4.78h1.37A2.38,2.38,0,0,1,226.09,66.74Z"/><path class="cls-1" d="M185.53,26.17v1.38a2.39,2.39,0,0,1-4.78,0V26.17a2.39,2.39,0,0,1,4.78,0Z"/><path class="cls-1" d="M146.35,66.74A2.39,2.39,0,0,1,144,69.13h-1.39a2.39,2.39,0,1,1,0-4.78H144A2.39,2.39,0,0,1,146.35,66.74Z"/><path class="cls-1" d="M226.09,66.74a2.38,2.38,0,0,1-2.39,2.39h-1.37a2.39,2.39,0,1,1,0-4.78h1.37A2.38,2.38,0,0,1,226.09,66.74Z"/><path class="cls-1" d="M164.73,34.86a2.37,2.37,0,0,1-3.25-.87l-.68-1.19a2.38,2.38,0,1,1,4.12-2.37l.69,1.19A2.37,2.37,0,0,1,164.73,34.86Z"/><path class="cls-1" d="M204.61,103.93a2.38,2.38,0,0,1-3.25-.88l-.69-1.18a2.38,2.38,0,0,1,4.13-2.38l.69,1.19A2.38,2.38,0,0,1,204.61,103.93Z"/><path class="cls-1" d="M151.27,48.33a2.39,2.39,0,0,1-3.25.87l-1.19-.68a2.38,2.38,0,0,1,2.37-4.13l1.19.69A2.36,2.36,0,0,1,151.27,48.33Z"/><path class="cls-1" d="M220.32,88.2a2.37,2.37,0,0,1-3.25.88l-1.19-.68a2.38,2.38,0,0,1,2.38-4.13l1.19.68A2.37,2.37,0,0,1,220.32,88.2Z"/><path class="cls-1" d="M219.45,48.52l-1.19.68a2.38,2.38,0,0,1-2.38-4.12l1.19-.69a2.38,2.38,0,0,1,2.38,4.13Z"/><path class="cls-1" d="M150.39,88.39l-1.2.68a2.38,2.38,0,1,1-2.37-4.13l1.19-.68a2.38,2.38,0,0,1,2.38,4.13Z"/><path class="cls-1" d="M205.49,32.79l-.7,1.19a2.38,2.38,0,1,1-4.12-2.37l.69-1.2a2.38,2.38,0,0,1,4.13,2.38Z"/><path class="cls-1" d="M165.61,101.85l-.69,1.19a2.37,2.37,0,1,1-4.12-2.36l.68-1.2a2.38,2.38,0,0,1,4.13,2.37Z"/><path class="cls-2" d="M1.47,200.72a5,5,0,0,1-5-5V89.25a5,5,0,0,1,5-5h23.1a5,5,0,0,1,5,5v106.5a5,5,0,0,1-5,5Z"/><path class="cls-3" d="M24.57,87.74a1.53,1.53,0,0,1,1.51,1.51v106.5a1.48,1.48,0,0,1-1.51,1.48H1.47A1.49,1.49,0,0,1,0,195.75V89.25a1.5,1.5,0,0,1,1.47-1.51h23.1m0-7H1.47A8.5,8.5,0,0,0-7,89.25v106.5a8.49,8.49,0,0,0,8.47,8.48h23.1a8.5,8.5,0,0,0,8.51-8.48V89.25a8.52,8.52,0,0,0-8.51-8.51Z"/><path class="cls-2" d="M164.84,208.19A82.27,82.27,0,0,1,128.61,200c-24.29-11.74-44.87-19.18-61.16-22.11a85.08,85.08,0,0,0-15.08-1.5,39.9,39.9,0,0,0-14,2.19l-.11,0-.1,0a14.85,14.85,0,0,0-2.32,1l-5.07,2.53V99.88l1.89-1a97.61,97.61,0,0,1,21.74-8A83.25,83.25,0,0,1,73.2,88.66,60.37,60.37,0,0,1,103,96.13a97.45,97.45,0,0,0,27.15,10,106.56,106.56,0,0,0,12.56,2.06,148.78,148.78,0,0,0,17.14,1c3.36,0,6.73-.11,10-.32,6.54-.42,13.11-.64,19.53-.64,3,0,6,0,8.94.14l4.48.12a20.77,20.77,0,0,1,18.46,12.69,20.12,20.12,0,0,1,1.58,8,15.48,15.48,0,0,1-.21,2.7,17.78,17.78,0,0,1-5.41,10.51,18.38,18.38,0,0,1-12.67,5.06h-.76l-60.43-2.45a.63.63,0,0,0-.61.61.64.64,0,0,0,.62.65l60.3,2.45h1a19.32,19.32,0,0,0,13.47-5.44l.12-.11.12-.1c.07-.06.24-.24.36-.37l.42-.44.23-.22L285,96.79a19.21,19.21,0,0,1,10.36-3.35,18.81,18.81,0,0,1,11.91,4.22,18.35,18.35,0,0,1,6.8,13.34,19,19,0,0,1-5.11,14c-17.57,18.49-45.14,44.3-76.82,62.43-24.17,13.78-46.81,20.76-67.28,20.76Z"/><path class="cls-3" d="M73.2,92.16a56.86,56.86,0,0,1,28.07,7,101.09,101.09,0,0,0,28.13,10.35,110.54,110.54,0,0,0,12.92,2.12,153.9,153.9,0,0,0,17.51,1c3.85,0,7.31-.14,10.25-.33,6.49-.42,12.95-.63,19.3-.63q4.45,0,8.83.14l4.49.12A17.24,17.24,0,0,1,218,122.49a16.92,16.92,0,0,1,1.3,6.62,12.73,12.73,0,0,1-.16,2.13,14.41,14.41,0,0,1-4.37,8.54,14.86,14.86,0,0,1-10.27,4.1h-.61l-60.43-2.45h-.15a4.12,4.12,0,0,0-4.1,3.92,4.17,4.17,0,0,0,3.93,4.34l60.42,2.45h1a22.73,22.73,0,0,0,15.9-6.42,11.77,11.77,0,0,0,1.06-1.06l65.38-45a15.69,15.69,0,0,1,8.42-2.74h0a15.14,15.14,0,0,1,15.13,14.26,15.44,15.44,0,0,1-4.17,11.41c-17.34,18.24-44.57,43.79-76,61.78-23.72,13.52-45.63,20.3-65.54,20.3a78.6,78.6,0,0,1-34.71-7.83c-24.36-11.78-45.25-19.38-62.06-22.41a88.24,88.24,0,0,0-15.7-1.55,43.43,43.43,0,0,0-15.29,2.41,18.65,18.65,0,0,0-2.86,1.23V102a93.93,93.93,0,0,1,20.93-7.65,79.13,79.13,0,0,1,18.05-2.2m0-7h0a86.12,86.12,0,0,0-19.64,2.39A101.29,101.29,0,0,0,31,95.79l-3.78,2v90.11l10.13-5.06a13.1,13.1,0,0,1,1.79-.8l.21-.06.21-.08a36.71,36.71,0,0,1,12.81-2,81.74,81.74,0,0,1,14.45,1.44c16,2.88,36.26,10.22,60.27,21.82a85.69,85.69,0,0,0,37.75,8.53c21.09,0,44.31-7.14,69-21.22,32-18.34,59.89-44.4,77.61-63l0,0,0,0a22.46,22.46,0,0,0,6.05-16.52v-.07a21.86,21.86,0,0,0-8.08-15.86,22.25,22.25,0,0,0-14-5h-.14a22.64,22.64,0,0,0-12.21,3.91l0,0,0,0-57,39.24c0-.29.1-.57.14-.86a19,19,0,0,0,.24-3.18,23.73,23.73,0,0,0-1.87-9.38,24.26,24.26,0,0,0-21.56-14.79l-4.51-.12c-3-.09-6-.14-9-.14-6.49,0-13.14.22-19.75.64-3.22.21-6.52.32-9.8.32a147.73,147.73,0,0,1-16.71-.94,106.48,106.48,0,0,1-12.16-2l-.05,0h0a93.8,93.8,0,0,1-26.18-9.61A63.84,63.84,0,0,0,73.2,85.16Z"/></svg>