<svg id="Capa_1" data-name="Capa 1" xmlns="http://www.w3.org/2000/svg" viewBox="0 0 244.87 253.94"><defs><style>.cls-1{fill:#274470;}</style></defs><path class="cls-1" d="M122.43,90.69A45.35,45.35,0,1,0,77.09,45.35,45.34,45.34,0,0,0,122.43,90.69Zm0-81.62A36.28,36.28,0,1,1,86.16,45.35,36.28,36.28,0,0,1,122.43,9.07Z"/><path class="cls-1" d="M244.87,185.92V81.62a22.68,22.68,0,0,0-45.35,0v71.24l-5.17-4.81a18.12,18.12,0,0,0-13-5.89V127a22.67,22.67,0,0,0-22.67-22.67H86.16A22.68,22.68,0,0,0,63.48,127v15.19a17.67,17.67,0,0,0-12.69,5.67l-5.44,5V81.62A22.68,22.68,0,0,0,0,81.62v104.3A4.5,4.5,0,0,0,1.18,189l48.7,53.1v7.3a4.54,4.54,0,1,0,9.07,0v-9.07a4.5,4.5,0,0,0-1.18-3.08l-48.7-53.1V81.62a13.61,13.61,0,0,1,27.21,0v81.62a4.61,4.61,0,0,0,0,.91,3.86,3.86,0,0,0,0,.68,4.36,4.36,0,0,0,.86,1.45h0L78,211.63a4.55,4.55,0,1,0,6.76-6.08h0l-37.55-42,10.07-9.34a9,9,0,0,1,6.48-3,8.53,8.53,0,0,1,6.62,2.63l47.57,47.52v48a4.54,4.54,0,1,0,9.07,0v-48l47.52-47.52a8.41,8.41,0,0,1,6.62-2.63,9.08,9.08,0,0,1,6.76,3.26l9.79,9.07-37.82,42a4.54,4.54,0,0,0,6.76,6.07h0l40.81-45.34h0a4.46,4.46,0,0,0,.86-1.45,3.86,3.86,0,0,0,0-.68,4.61,4.61,0,0,0,0-.91V81.62a13.61,13.61,0,0,1,27.21,0V184.15l-48.38,53.1a4.5,4.5,0,0,0-1.18,3.08v9.07a4.54,4.54,0,1,0,9.07,0v-7.3l48.7-53.1A4.54,4.54,0,0,0,244.87,185.92ZM168.1,147.46l-45.67,45.67L76.77,147.46a18.29,18.29,0,0,0-4.22-3.08V127a13.61,13.61,0,0,1,13.61-13.61h72.55A13.6,13.6,0,0,1,172.31,127v17.41A18.45,18.45,0,0,0,168.1,147.46Z"/></svg>