<svg id="Capa_1" data-name="Capa 1" xmlns="http://www.w3.org/2000/svg" viewBox="0 0 172.57 224.56"><defs><style>.cls-1{fill:#274470;fill-rule:evenodd;}</style></defs><path class="cls-1" d="M128.78,163.85c11.21,2.24,20.82,5.36,28,9.09,10,5.16,15.78,11.76,15.78,19.3,0,9.94-10.42,18.41-27.25,24.06-15.21,5.1-36.1,8.26-59,8.26s-43.82-3.16-59-8.26C10.42,210.65,0,202.18,0,192.24c0-7.54,5.8-14.14,15.77-19.3,7.2-3.73,16.8-6.84,28-9.09A258.75,258.75,0,0,1,24,135.53C13.1,117.27,5.65,98.25,5.65,80.63a80.64,80.64,0,0,1,161.27,0c0,17.62-7.45,36.64-18.33,54.9a259.07,259.07,0,0,1-19.81,28.32ZM86.29,48.42a32.21,32.21,0,1,0,22.77,9.44A32.11,32.11,0,0,0,86.29,48.42ZM101.9,65a22.08,22.08,0,1,0,6.47,15.61A22,22,0,0,0,101.9,65ZM51.15,172.77C38.5,174.86,27.87,178,20.4,181.91c-6.49,3.36-10.27,6.94-10.27,10.33,0,5.11,7.77,10.28,20.33,14.49,14.19,4.76,33.92,7.7,55.84,7.7s41.65-3,55.83-7.7c12.56-4.22,20.33-9.38,20.33-14.49,0-3.39-3.78-7-10.27-10.33-7.48-3.87-18.11-7-30.75-9.14C113.3,182.3,105,191,97.37,198.36a15.89,15.89,0,0,1-22.14,0C67.61,191,59.3,182.3,51.15,172.77Zm-14.72-142A70.29,70.29,0,0,0,15.78,80.63c0,15.63,6.86,32.92,16.87,49.71,13.72,23,33.3,45,49.62,60.78a5.75,5.75,0,0,0,4,1.61,5.82,5.82,0,0,0,4-1.61c16.3-15.77,35.89-37.77,49.61-60.78,10-16.79,16.87-34.08,16.87-49.71A70.51,70.51,0,0,0,36.43,30.78Z"/></svg>