<svg id="Capa_1" data-name="Capa 1" xmlns="http://www.w3.org/2000/svg" viewBox="0 0 149.83 194.98"><defs><style>.cls-1{fill:#274470;fill-rule:evenodd;}</style></defs><path class="cls-1" d="M111.82,142.26c9.73,2,18.07,4.66,24.32,7.9,8.66,4.48,13.69,10.21,13.69,16.75,0,8.64-9,16-23.66,20.9C113,192.24,94.83,195,74.92,195s-38.06-2.74-51.26-7.17C9,182.9,0,175.55,0,166.91c0-6.54,5-12.27,13.7-16.75,6.24-3.24,14.58-5.94,24.32-7.9a223.18,223.18,0,0,1-17.19-24.58C11.37,101.82,4.91,85.31,4.91,70a70,70,0,0,1,140,0c0,15.3-6.47,31.81-15.92,47.67a225.09,225.09,0,0,1-17.19,24.58ZM74.92,42.05a28,28,0,1,0,19.77,8.19A27.87,27.87,0,0,0,74.92,42.05ZM44.41,150c-11,1.82-20.21,4.58-26.69,7.94-5.64,2.91-8.92,6-8.92,9,0,4.44,6.74,8.93,17.65,12.58,12.32,4.14,29.45,6.69,48.48,6.69s36.16-2.56,48.48-6.69c10.91-3.66,17.65-8.14,17.65-12.58,0-2.94-3.28-6-8.92-9-6.5-3.36-15.72-6.11-26.7-7.94-7.07,8.28-14.28,15.82-20.9,22.22a13.79,13.79,0,0,1-19.22,0c-6.62-6.4-13.83-13.94-20.91-22.22Z"/></svg>