<svg id="Capa_1" data-name="Capa 1" xmlns="http://www.w3.org/2000/svg" viewBox="0 0 231.35 232.35"><defs><style>.cls-1{fill:#f25b20;fill-rule:evenodd;}</style></defs><path class="cls-1" d="M139.46,197.31A102.16,102.16,0,1,1,201.53,126c9.11,3.88,17.11,4.22,25.75,5.84a3.53,3.53,0,0,1,2.83,3h0c7.53,61.78-20.94,79.79-42.9,93.67-1.52,1-3,1.91-5,3.19a3.51,3.51,0,0,1-3.9,0c-1.93-1.26-3.41-2.19-4.91-3.15-11.6-7.33-25-15.81-34-31.28Zm55.63-74.63a94.36,94.36,0,0,0,2.15-17H151a213.86,213.86,0,0,1-1.66,23.46,46.71,46.71,0,0,0,28.24-17.5,3.53,3.53,0,0,1,4.94-.61,3.88,3.88,0,0,1,.64.64A46.59,46.59,0,0,0,195.09,122.68ZM142,130.5a201.91,201.91,0,0,0,1.9-24.81H60.44a184,184,0,0,0,7.37,50.06,236.33,236.33,0,0,1,61.51-1,158.87,158.87,0,0,1,1.22-19.86,3.51,3.51,0,0,1,3.05-3.07c2-.38,3.88-.66,5.84-.95l2.61-.4Zm-12.47,31.38a230.86,230.86,0,0,0-59.48.64c6.37,17.34,17.56,34.77,32.11,34.77a22.49,22.49,0,0,0,15-6.59,61.3,61.3,0,0,0,13.4-19.31c-.48-3-.82-6.17-1-9.51Zm3.39,20.06a61.21,61.21,0,0,1-10.14,13.12A94.19,94.19,0,0,0,136.25,191,73.41,73.41,0,0,1,132.94,181.94Zm44.24,40.71,3.15,2c1-.62,2-1.29,3.15-2,20-12.65,45.84-29,40-84.3-13.49-2.15-29.17-3.51-43.11-19.08-13.94,15.58-29.62,16.93-43.11,19.08-5.89,55.31,19.95,71.65,39.95,84.3Zm-23.24-44.19,12.82,12.83a3.53,3.53,0,0,0,5,0l35-35a3.52,3.52,0,0,0-5-5l-32.48,32.48-10.32-10.33a3.52,3.52,0,0,0-5,5ZM63,163.68a150.46,150.46,0,0,0-26.59,7.23,94.87,94.87,0,0,0,45.13,24.14C73.35,187.2,67.27,175.6,63,163.68Zm-31.86,1.79a151.39,151.39,0,0,1,29.67-8.54,191.49,191.49,0,0,1-7.44-51.24H7.12a94.76,94.76,0,0,0,24.05,59.77ZM53.39,98.65a191.15,191.15,0,0,1,7.67-52,152.67,152.67,0,0,1-29.35-8.36A94.74,94.74,0,0,0,7.12,98.65Zm9.92-58.74C67.54,28.22,73.55,17,81.56,9.3A94.87,94.87,0,0,0,37.05,32.85,151.72,151.72,0,0,0,63.31,39.91ZM122.8,9.31c8,7.66,14,18.92,18.25,30.61a152.1,152.1,0,0,0,26.27-7.07A94.8,94.8,0,0,0,122.8,9.31Zm20.49,37.35a190.65,190.65,0,0,1,7.68,52h46.26a94.68,94.68,0,0,0-24.58-60.36,152.77,152.77,0,0,1-29.36,8.36Zm.64,52a183.49,183.49,0,0,0-7.61-50.83,236,236,0,0,1-68.28,0,183,183,0,0,0-7.6,50.82ZM134,41.06c-6.48-17.26-17.58-34-31.82-34s-25.35,16.73-31.82,34A229.92,229.92,0,0,0,134,41.06Z"/></svg>