<svg id="Capa_1" data-name="Capa 1" xmlns="http://www.w3.org/2000/svg" viewBox="0 0 310.57 204.69"><defs><style>.cls-1{fill:#274470;}</style></defs><path class="cls-1" d="M169.59,104.09c9.81-.65,19.54-.86,28.9-.57l4.54.16a25.16,25.16,0,0,1,17.42,7.69,25.62,25.62,0,0,1,4.66,6.74,65.06,65.06,0,1,0-90.76-16A141.08,141.08,0,0,0,169.59,104.09Zm16.47-36.47c-8.5-3-12.55-7.72-12.55-13.41,0-6.29,4.21-11.69,11.41-13.37V32.5h5.48v7.81a23.15,23.15,0,0,1,11.12,2.95l-2.17,6.25a18.4,18.4,0,0,0-9.69-2.74c-5.11,0-7.93,2.95-7.93,6.46,0,3.93,2.82,5.68,9,8,8.22,3.15,12.43,7.24,12.43,14.31s-4.58,12.31-12.79,13.78v8.22h-5.48V89.74a27,27,0,0,1-12.8-3.23l2.17-6.58a22.42,22.42,0,0,0,11.36,3.43c6.26,0,9.2-3.15,9.2-7C194.89,72.24,192.44,70,186.06,67.62Z"/><path class="cls-1" d="M24.57,87.74H1.47A1.5,1.5,0,0,0,0,89.25v106.5a1.49,1.49,0,0,0,1.47,1.48h23.1a1.48,1.48,0,0,0,1.51-1.48V89.25A1.53,1.53,0,0,0,24.57,87.74Z"/><path class="cls-1" d="M305,100.37a15.08,15.08,0,0,0-9.61-3.43h0A15.69,15.69,0,0,0,287,99.68l-65.38,45a11.77,11.77,0,0,1-1.06,1.06,22.73,22.73,0,0,1-15.9,6.42h-1l-60.42-2.45a4.17,4.17,0,0,1-3.93-4.34,4.12,4.12,0,0,1,4.25-3.92l60.43,2.45a14.87,14.87,0,0,0,10.88-4.09,14.41,14.41,0,0,0,4.37-8.54,12.73,12.73,0,0,0,.16-2.13,16.92,16.92,0,0,0-1.3-6.62,17.24,17.24,0,0,0-15.34-10.55l-4.49-.12c-9.16-.29-18.61-.12-28.13.49a156.82,156.82,0,0,1-27.76-.66,110.54,110.54,0,0,1-12.92-2.12,101.09,101.09,0,0,1-28.13-10.35c-13.12-7.31-28.66-8.91-46.12-4.82A93.93,93.93,0,0,0,34.22,102v74.53a18.65,18.65,0,0,1,2.86-1.23c7.69-2.9,18.15-3.19,31-.86,16.81,3,37.7,10.63,62.06,22.41,28.13,13.65,61.82,9.44,100.25-12.47,31.44-18,58.67-43.54,76-61.78a15.44,15.44,0,0,0,4.17-11.41A15,15,0,0,0,305,100.37Z"/></svg>