<svg id="Capa_1" data-name="Capa 1" xmlns="http://www.w3.org/2000/svg" viewBox="0 0 214.05 235.33"><defs><style>.cls-1{fill:#039b78;}</style></defs><path class="cls-1" d="M2.07,91.34H16.41c.64,32.35,23.82,47.1,45.38,47.1s44.74-14.75,45.38-47.1h13.57c-4.13,33-20.75,52.14-50.77,58.57a1.39,1.39,0,0,0-1.1,1.34l-.23,12.56H54.48V151.28a1.4,1.4,0,0,0-1.16-1.38C26.4,145.16,9.16,125.46,2.07,91.34ZM14,88.54c-5.19-26.22-8.64-52.06.27-64.73a18.16,18.16,0,0,1,11-7.37,13.33,13.33,0,0,1-1.38-5.81,12.38,12.38,0,0,1,.2-1.93c-7.62,1.86-13.31,5.67-17.29,11.65-8.35,12.54-9,34.85-2,68.19ZM85.14,0A10.63,10.63,0,1,0,95.77,10.63,10.64,10.64,0,0,0,85.14,0Zm31.45,20.35c-4.15-6.23-10.14-10.11-18.24-11.87a13.74,13.74,0,0,1,.22,2.15,13.15,13.15,0,0,1-1.29,5.64,18.35,18.35,0,0,1,11.81,7.53c8.9,12.68,5.45,38.51.27,64.73h9.17c7-33.33,6.41-55.64-1.94-68.19ZM57.72,166.61c.66,47.2,34.33,68.72,65.65,68.72,31.64,0,65.69-21.94,65.69-70.12V151.28H181.3v13.93c0,42.21-30.12,61.44-58.09,61.44a57.84,57.84,0,0,1-39.94-15.39c-11.57-10.9-17.79-26.33-18.1-44.65ZM37.31,21.25A10.63,10.63,0,1,0,26.68,10.63,10.65,10.65,0,0,0,37.31,21.25ZM200.55,133A15.51,15.51,0,1,0,185,148.47,15.53,15.53,0,0,0,200.55,133ZM178.5,150a18.3,18.3,0,1,1,13.36-.1v11.2a29,29,0,1,0-13.36.06Z"/></svg>