<svg id="Capa_1" data-name="Capa 1" xmlns="http://www.w3.org/2000/svg" viewBox="0 0 253.68 202.36"><defs><style>.cls-1{fill:#0165c8;}</style></defs><path class="cls-1" d="M247.65,54.16a6.05,6.05,0,0,0,6-6V39a6,6,0,0,0-6-6H194.42V21.25h2.71a6,6,0,0,0,6-6V6a6,6,0,0,0-6-6H56.47a6.06,6.06,0,0,0-6,6v9.19a6.06,6.06,0,0,0,6,6h2.72V33H6a6,6,0,0,0-6,6v9.14a6.06,6.06,0,0,0,6,6h3.4V196.37H3a3,3,0,1,0,0,6H250.61a3,3,0,0,0,0-6h-6.43V54.16Zm-191.22-39,0-9.23H197.13a0,0,0,0,1,0,0l0,9.23Zm138,23.72h53.19a0,0,0,0,1,0,0l0,9.22H194.42Zm-6,157.47H168.86V140.3a6.64,6.64,0,0,0,5.75-6.55v-8.31a6.69,6.69,0,0,0-6.67-6.67H85.63A6.68,6.68,0,0,0,79,125.44v8.31a6.63,6.63,0,0,0,5.75,6.55v56.11H65.14V21.21H188.42Zm-19.8-62.66a.67.67,0,0,1-.68.68H85.63a.67.67,0,0,1-.68-.68V125.4a.65.65,0,0,1,.68-.68H168a.7.7,0,0,1,.68.68v8.31Zm-77.88,6.67h33.07v56H90.74Zm39.06,0h33.06v56H129.8ZM6,48.08V38.94a0,0,0,0,1,0,0H59.15v9.26Zm9.43,6.08H59.15V196.37H15.42ZM238.19,196.37H194.42V54.16h43.77Z"/><path class="cls-1" d="M99.2,84.87h12.66V97.53a7.42,7.42,0,0,0,7.43,7.43h15a7.45,7.45,0,0,0,7.43-7.43V84.87h12.66a7.42,7.42,0,0,0,7.43-7.43v-15A7.47,7.47,0,0,0,154.36,55H141.7V42.33a7.44,7.44,0,0,0-7.43-7.42h-15a7.44,7.44,0,0,0-7.43,7.42V55H99.2a7.41,7.41,0,0,0-7.42,7.43v15A7.41,7.41,0,0,0,99.2,84.87ZM97.77,62.46A1.49,1.49,0,0,1,99.2,61h15.66a3,3,0,0,0,3-3V42.37a1.42,1.42,0,0,1,1.43-1.43h15a1.43,1.43,0,0,1,1.44,1.43V58a3,3,0,0,0,3,3h15.66a1.43,1.43,0,0,1,1.44,1.44v15a1.49,1.49,0,0,1-1.44,1.44H138.7a3,3,0,0,0-3,3V97.57A1.43,1.43,0,0,1,134.27,99h-15a1.42,1.42,0,0,1-1.43-1.43V81.91a3,3,0,0,0-3-3H99.2a1.43,1.43,0,0,1-1.43-1.44Z"/><path class="cls-1" d="M47.84,65.66H26.76a3,3,0,0,0-3,3V94.37a3,3,0,0,0,3,3H47.84a3,3,0,0,0,3-3V68.65A3,3,0,0,0,47.84,65.66Zm-3,25.72H29.75V71.65h15.1Z"/><path class="cls-1" d="M47.84,109.23H26.76a3,3,0,0,0-3,3v25.72a3,3,0,0,0,3,3H47.84a3,3,0,0,0,3-3V112.22A3,3,0,0,0,47.84,109.23Zm-3,25.72H29.75V115.22h15.1Z"/><path class="cls-1" d="M47.84,152.8H26.76a3,3,0,0,0-3,3v25.72a3,3,0,0,0,3,3H47.84a3,3,0,0,0,3-3V155.8A3,3,0,0,0,47.84,152.8Zm-3,25.72H29.75V158.79h15.1Z"/><path class="cls-1" d="M205.76,97.37h21.08a3,3,0,0,0,3-3V68.65a3,3,0,0,0-3-3H205.76a3,3,0,0,0-3,3V94.37A3,3,0,0,0,205.76,97.37Zm3-25.72h15.1V91.38h-15.1Z"/><path class="cls-1" d="M205.76,140.94h21.08a3,3,0,0,0,3-3V112.22a3,3,0,0,0-3-3H205.76a3,3,0,0,0-3,3v25.72A3,3,0,0,0,205.76,140.94Zm3-25.72h15.1V135h-15.1Z"/><path class="cls-1" d="M205.76,184.51h21.08a3,3,0,0,0,3-3V155.8a3,3,0,0,0-3-3H205.76a3,3,0,0,0-3,3v25.72A3,3,0,0,0,205.76,184.51Zm3-25.72h15.1v19.73h-15.1Z"/></svg>