<svg id="Capa_1" data-name="Capa 1" xmlns="http://www.w3.org/2000/svg" viewBox="0 0 295.77 295.79"><defs><style>.cls-1{fill:#274470;}</style></defs><path class="cls-1" d="M189.39,250.64c-4,3.35-8.33,6.66-12.82,9.82l-28.7,20.08-28.69-20.08a192.25,192.25,0,0,1-82-157.41V59.85a17.35,17.35,0,0,1,12-16.54l77.79-26a66.61,66.61,0,0,1,41.73,0l77.83,26a17.35,17.35,0,0,1,12,16.54v43.2a192.26,192.26,0,0,1-9.78,60.49,5.82,5.82,0,0,0,11,3.65,203.62,203.62,0,0,0,10.37-64.13V59.85a29,29,0,0,0-19.93-27.6l-77.8-26a78.08,78.08,0,0,0-49.1,0l-77.78,26a29,29,0,0,0-20,27.59V103a204,204,0,0,0,86.91,167l32,22.42a5.8,5.8,0,0,0,3.34,1.05,6,6,0,0,0,3.34-1.05l32-22.42c4.77-3.38,9.34-6.88,13.6-10.42a5.83,5.83,0,0,0-7.47-8.94Z"/><path class="cls-1" d="M114.77,46a5.82,5.82,0,1,0-3.68-11.05L52.85,54.31a5.83,5.83,0,0,0-4,5.54v43.2c0,5,.26,10.13.82,16.25a5.82,5.82,0,0,0,5.79,5.31,4.61,4.61,0,0,0,.53,0,5.83,5.83,0,0,0,5.27-6.32c-.52-5.78-.77-10.61-.77-15.2v-39L114.76,46Z"/><path class="cls-1" d="M136.23,200.31h23.29A17.5,17.5,0,0,0,177,182.83V165.36h17.47A17.5,17.5,0,0,0,212,147.88V124.59a17.49,17.49,0,0,0-17.48-17.47H177V89.64a17.5,17.5,0,0,0-17.48-17.48H136.23a17.49,17.49,0,0,0-17.47,17.48v17.48H101.28a17.48,17.48,0,0,0-17.47,17.47v23.29a17.49,17.49,0,0,0,17.47,17.48h17.48v17.47A17.5,17.5,0,0,0,136.23,200.31ZM101.3,153.73a5.83,5.83,0,0,1-5.83-5.83V124.61a5.84,5.84,0,0,1,5.83-5.83h23.29a5.84,5.84,0,0,0,5.83-5.83V89.66a5.84,5.84,0,0,1,5.83-5.83h23.29a5.83,5.83,0,0,1,5.83,5.83V113a5.82,5.82,0,0,0,5.83,5.83h23.29a5.83,5.83,0,0,1,5.83,5.83V147.9a5.84,5.84,0,0,1-5.83,5.83H171.2a5.83,5.83,0,0,0-5.83,5.83v23.29a5.84,5.84,0,0,1-5.83,5.83H136.25a5.83,5.83,0,0,1-5.83-5.83V159.56a5.82,5.82,0,0,0-5.83-5.83Z"/><path class="cls-1" d="M219.2,235.66a31.41,31.41,0,0,0,10.82.89c1.57-.17,3.49-.42,3.9-2.11.29-1.19-.54-2.64-.87-4l-.51,0c.38-.14.75-.31,1.13-.42,5-1.33,9.93-2.75,15-3.91a9.08,9.08,0,0,1,4.59.28c1.86.59,1.95,2.32.36,3.46a14.36,14.36,0,0,1-2.29,1.23c-6.59,3.05-13.21,6-19.76,9.15a15.68,15.68,0,0,1-11.81,1.13c-5.49-1.67-11.07-3-16.63-4.48a48.16,48.16,0,0,0-4.87-.73c6.89,8,20.94,14.63,35.26,12.43,19.82-3,31.64-15,36.68-33.86a45,45,0,0,1-41.1,42.38c-21.17,2-41.48-11.91-47.31-32.47-6-21.16,4.4-40.44,16.47-48.46q-20.4,22.86-7.48,50.6c3.54-.53,6.86-1,10.16-1.54,5.4-.86,10.56.13,15.71,1.66,4,1.19,8.08,2.1,12.09,3.23a10.8,10.8,0,0,1,3.35,1.56,1.72,1.72,0,0,1-.32,3.14,9.28,9.28,0,0,1-3.44.82C225.12,235.73,222,235.66,219.2,235.66Z"/><path class="cls-1" d="M236.47,207l-2.64,3c.86,1.69,1.8,3.45,2.65,5.25.78,1.62.55,2.8-.56,3.4a3.06,3.06,0,0,1-3.76-1.05,17.45,17.45,0,0,1-1-1.68L230.11,214c-1.62,1.25-2.3,3.72-4.94,3.46-2.49-.25-3-2.65-4.75-4a35.86,35.86,0,0,1-2,3.45,4.29,4.29,0,0,1-2,1.68,2.93,2.93,0,0,1-2.48-.53,2.87,2.87,0,0,1-.3-2.48,21,21,0,0,1,2.28-4.48c.9-1.36.75-2.31-.53-3.22-.38-.28-.71-.64-1.35-1.21-1.7,3.69-3.33,7.2-4.93,10.73-.38.83-.62,1.74-1,2.56a6.42,6.42,0,0,1-1.3,1.82c-.86.76-2.08,1.23-2.94.36a3,3,0,0,1-.49-2.61c1.76-4.71,3.69-9.36,5.59-14,.3-.74.69-1.45,1-2.11a2.6,2.6,0,0,0-3.71-.93c-1.4.71-2.86,1.31-4.32,1.9-1,.41-2.25.67-2.74-.43a3.62,3.62,0,0,1,.36-2.79,4.48,4.48,0,0,1,2.09-1.7c15.65-7.26,31.33-7.31,47,0a5.86,5.86,0,0,1,2.39,2.07A2.73,2.73,0,0,1,251,204a2.81,2.81,0,0,1-2.45.42,29.44,29.44,0,0,1-4.79-2c-1.34-.68-2.08.28-2.77,1-.27.28,0,1.23.2,1.8,1.85,4.68,3.76,9.34,5.63,14,.46,1.15.76,2.44-.62,3.15s-2.44-.06-3.29-1.06a7.47,7.47,0,0,1-1-1.86C240.19,215.41,238.41,211.36,236.47,207Z"/><path class="cls-1" d="M190.66,203.43c1.38-18.49,14.68-33,32.57-35.47A38.12,38.12,0,0,1,264.4,192.6c6.37,17.49-1.15,35-12.91,43.29,8.32-9.17,12.05-19.8,9.67-32.07s-9.43-21-20.8-26.15C219.69,168.41,195.21,180.86,190.66,203.43Z"/><path class="cls-1" d="M211.82,193a4.62,4.62,0,0,1-4.77-4.67,4.75,4.75,0,0,1,9.5-.07A4.66,4.66,0,0,1,211.82,193Z"/><path class="cls-1" d="M238.35,193a4.66,4.66,0,0,1-4.67-4.79,4.77,4.77,0,0,1,9.53.17A4.69,4.69,0,0,1,238.35,193Z"/><path class="cls-1" d="M220.41,186.89a4.52,4.52,0,0,1,4.68-4.71,4.64,4.64,0,0,1,4.77,4.67,4.76,4.76,0,0,1-4.72,4.78A4.68,4.68,0,0,1,220.41,186.89Z"/></svg>