<svg id="Capa_1" data-name="Capa 1" xmlns="http://www.w3.org/2000/svg" viewBox="0 0 246.39 228.34"><defs><style>.cls-1{fill:#5927aa;}</style></defs><path class="cls-1" d="M139.16,132.84h10.37v10.32a2,2,0,0,0,2,2h14a2,2,0,0,0,2-2V132.84h10.33a2,2,0,0,0,2-2v-14a2,2,0,0,0-2-2H167.42V104.58a2,2,0,0,0-2-2h-14a2,2,0,0,0-2,2V115H139.16a2,2,0,0,0-1.95,2v14A2,2,0,0,0,139.16,132.84Zm2-14h10.37a2,2,0,0,0,2-2V106.54h10v10.37a2,2,0,0,0,2,2h10.33v10H165.45a2,2,0,0,0-2,2v10.32h-10V130.83a2,2,0,0,0-2-2H141.16Z"/><path class="cls-1" d="M181.26,159.86H135.69a2,2,0,0,0-2,2,2,2,0,0,0,2,2h45.57a2,2,0,1,0,0-3.92Z"/><path class="cls-1" d="M165.66,168.81H153.25a2,2,0,0,0-2,2,2,2,0,0,0,2,1.95h12.41a2,2,0,0,0,2-1.95A2,2,0,0,0,165.66,168.81Z"/><path class="cls-1" d="M142.75,168.81h-7a2,2,0,0,0-2,2,2,2,0,0,0,2,1.95h7a2,2,0,0,0,2-1.95A2,2,0,0,0,142.75,168.81Z"/><path class="cls-1" d="M96.78,26.82a2,2,0,0,0,2-1.95V14.74a2,2,0,0,0-2-2,2,2,0,0,0-2,2V24.82a2,2,0,0,0,2,2Z"/><path class="cls-1" d="M112.7,26.82a2,2,0,0,0,2-1.95V14.74a2,2,0,1,0-3.92,0V24.82a2,2,0,0,0,2,2Z"/><path class="cls-1" d="M128.63,26.82a2,2,0,0,0,2-1.95V14.74a2,2,0,0,0-2-2,2,2,0,0,0-2,2V24.82a2,2,0,0,0,2,2Z"/><path class="cls-1" d="M144.55,26.82a2,2,0,0,0,2-1.95V14.74a2,2,0,0,0-2-2,2,2,0,0,0-2,2V24.82a1.93,1.93,0,0,0,2,2Z"/><path class="cls-1" d="M160.47,26.82a2,2,0,0,0,2-1.95V14.74a2,2,0,0,0-3.92,0V24.82a1.93,1.93,0,0,0,1.95,2Z"/><path class="cls-1" d="M240.6,224.39h-4.09a16.67,16.67,0,0,0,5.92-12.7A16.48,16.48,0,0,0,237.57,200a16.19,16.19,0,0,0-10.22-4.78L241.52,181a16.58,16.58,0,0,0-23.43-23.47l-15.15,15.14V83.87a20.34,20.34,0,0,0-7.15-15.51l-22.5-19.28a8.33,8.33,0,0,1-2.93-6.33V39.56h.2a7.91,7.91,0,0,0,7.91-7.91V7.92A7.92,7.92,0,0,0,170.57,0H86.68a7.92,7.92,0,0,0-7.91,7.92V31.68a7.91,7.91,0,0,0,7.91,7.91h.2v3.19A8.25,8.25,0,0,1,84,49.11L61.45,68.39A20.41,20.41,0,0,0,54.3,83.91V98H14.91A7.93,7.93,0,0,0,7,106V220.42a7.81,7.81,0,0,0,1.15,4H2a2,2,0,1,0,0,3.91H240.57a2,2,0,0,0,2-2,1.91,1.91,0,0,0-1.92-2Zm-19.73-64a12.63,12.63,0,0,1,17.89,17.84l-16.91,16.91H216l-15-15ZM86.68,35.6a4,4,0,0,1-4-4V7.92a4,4,0,0,1,4-4h83.88a4,4,0,0,1,4,4V31.68a4,4,0,0,1-4,4H86.69Zm10,184.78a4,4,0,0,1-4,4H14.91a4,4,0,0,1-4-4V105.92a4,4,0,0,1,4-4H92.7a4,4,0,0,1,4,4Zm2.86,4a7.87,7.87,0,0,0,1.14-4V105.92A7.92,7.92,0,0,0,92.74,98H58.27V83.87A16.47,16.47,0,0,1,64,71.33l22.5-19.27a12.39,12.39,0,0,0,4.32-9.35V39.52H166.4v3.19a12.36,12.36,0,0,0,4.33,9.35l22.49,19.27A16.4,16.4,0,0,1,199,83.87v2.29A8.93,8.93,0,0,0,194,84.64H130.83A16.86,16.86,0,0,0,114,101.47v69.62a16.86,16.86,0,0,0,16.83,16.83h56.92l-7.23,7.23H165.79A16.16,16.16,0,0,0,154.11,200a16.56,16.56,0,0,0,1.06,24.41H99.51ZM199,93.55v83.13l-7.23,7.24H130.83A12.87,12.87,0,0,1,118,171.05V101.48a12.87,12.87,0,0,1,12.87-12.87h63.21A4.92,4.92,0,0,1,199,93.55Zm-5.15,130.79h-28a12.65,12.65,0,0,1-12.62-12.62,12.6,12.6,0,0,1,12.62-12.61h28.05Zm-7.71-29.19L198.24,183l12.13,12.13Zm39.77,29.19h-28V199.11H225.9a12.36,12.36,0,0,1,8.91,3.71,12.59,12.59,0,0,1-8.92,21.52Z"/><path class="cls-1" d="M228.67,165.66a1.6,1.6,0,0,1,2.24,0,2,2,0,0,0,2.78,0,2,2,0,0,0,0-2.82,5.55,5.55,0,0,0-4-1.63,5.44,5.44,0,0,0-3.84,1.59,2,2,0,0,0,0,2.82,2,2,0,0,0,2.82,0Z"/><path class="cls-1" d="M29.85,124.54a10.86,10.86,0,0,0-3.23,7.76,11,11,0,0,0,11,11,11.19,11.19,0,0,0,7.81-3.22,10.93,10.93,0,0,0,3.19-7.76,10.82,10.82,0,0,0-3.23-7.76,10.94,10.94,0,0,0-7.75-3.22A10.72,10.72,0,0,0,29.85,124.54Zm14.82,7.76a7.16,7.16,0,0,1-2,5,7,7,0,0,1-5,2,7,7,0,0,1-7-7,7.12,7.12,0,0,1,2.05-5,6.82,6.82,0,0,1,5-2.08,7,7,0,0,1,5,2.08A7.16,7.16,0,0,1,44.67,132.3Z"/><path class="cls-1" d="M70,143.29a11.19,11.19,0,0,0,7.8-3.22,11,11,0,1,0-7.8,3.22Zm-5-16a6.82,6.82,0,0,1,5-2.08,7,7,0,0,1,5,2.08,7.1,7.1,0,0,1,0,10,7,7,0,0,1-5,2,7,7,0,0,1-7-7,7.12,7.12,0,0,1,2.05-5Z"/><path class="cls-1" d="M37.61,152.14a10.94,10.94,0,0,0-10.94,11,11,11,0,0,0,11,11,11.19,11.19,0,0,0,7.8-3.22,11.06,11.06,0,0,0-7.84-18.8Zm5,16a6.92,6.92,0,0,1-5,2,7,7,0,0,1-5-12,6.83,6.83,0,0,1,5-2.09,7.07,7.07,0,0,1,7,7.06,6.7,6.7,0,0,1-2.05,5Z"/><path class="cls-1" d="M70,152.14a11,11,0,0,0-11,11,11,11,0,0,0,11,11,11.14,11.14,0,0,0,7.8-3.22A11,11,0,0,0,70,152.14Zm5,16a7,7,0,0,1-5,2,7,7,0,0,1-5-12,6.83,6.83,0,0,1,5-2.09,7.07,7.07,0,0,1,5,12Z"/><path class="cls-1" d="M37.61,183a11,11,0,0,0-11,11,11,11,0,0,0,11,11,11.19,11.19,0,0,0,7.8-3.22A11,11,0,0,0,37.61,183Zm5,16a6.91,6.91,0,0,1-5,2,7,7,0,0,1-7-7,7.12,7.12,0,0,1,2.05-5,6.82,6.82,0,0,1,5-2.08,6.94,6.94,0,0,1,5,2.08,7.05,7.05,0,0,1,2.05,5,6.7,6.7,0,0,1-2.05,5Z"/><path class="cls-1" d="M70,183a11,11,0,0,0-11,11,11,11,0,0,0,11,11,11.19,11.19,0,0,0,7.8-3.22A11,11,0,0,0,70,183Zm5,16a7,7,0,0,1-5,2,7,7,0,0,1-7-7A7.12,7.12,0,0,1,65,189a6.82,6.82,0,0,1,5-2.08A7,7,0,0,1,75,189a7.1,7.1,0,0,1,0,10Z"/><path class="cls-1" d="M211.44,68.11a2,2,0,0,0,1.39-.57l12.08-12.08a2,2,0,1,0-2.82-2.82L210,64.72a2,2,0,0,0,0,2.82,2.16,2.16,0,0,0,1.43.57Z"/><path class="cls-1" d="M217.89,74.57a2,2,0,0,0,2,2h14.62a2,2,0,1,0,0-3.91H219.85A2,2,0,0,0,217.89,74.57Z"/><path class="cls-1" d="M202.94,59.62a2,2,0,0,0,2-2V43a2,2,0,0,0-2-2,2,2,0,0,0-2,2V57.66A2,2,0,0,0,202.94,59.62Z"/><path class="cls-1" d="M229,50.47a2,2,0,0,0,1.39-.57l2.2-2.2a2,2,0,0,0-2.82-2.82l-2.2,2.2a2,2,0,0,0,0,2.82,2.16,2.16,0,0,0,1.43.57Z"/></svg>