<svg id="Capa_1" data-name="Capa 1" xmlns="http://www.w3.org/2000/svg" viewBox="0 0 298.43 293.47"><defs><style>.cls-1{fill:#274470;}</style></defs><path class="cls-1" d="M184,114.4a42.65,42.65,0,0,1-30.44-12.63l-.84-.85a5,5,0,0,0-7.07,0l-.84.85A42.67,42.67,0,0,1,114.4,114.4a5,5,0,0,0-5,5v27.46A35,35,0,0,0,127,177.08l19.75,11.29a5.08,5.08,0,0,0,5,0l19.75-11.29A35,35,0,0,0,189,146.84V119.38A5,5,0,0,0,184,114.4Zm-16.36,28.41-14.92,14.92a5.06,5.06,0,0,1-7.07,0l-9.95-9.95a5,5,0,0,1,7.07-7.06l6.41,6.46,11.39-11.44a5,5,0,0,1,7.07,7.07Z"/><path class="cls-1" d="M294.07,257.46l-42.18-42.23a15.41,15.41,0,0,0-14.33-3.78h0l-18.94-18.94s0,0,0,0A84.37,84.37,0,0,0,199,76V5a5,5,0,0,0-5-5H5A5,5,0,0,0,0,5V273.58a5,5,0,0,0,5,5H194a5,5,0,0,0,5-5V215.09l17.41,17.41a12.69,12.69,0,0,0-.54,3.82,15.06,15.06,0,0,0,4.37,10.6l42.23,42.18a14.91,14.91,0,0,0,21.09,0l10.55-10.55A14.92,14.92,0,0,0,294.07,257.46ZM189,268.6H10V10H189V69.69a84.26,84.26,0,0,0-108.19,25l0,0a5,5,0,0,0-1.21-.24H44.77a5,5,0,1,0,0,9.95H74.66a81.79,81.79,0,0,0-4.57,10s0,0,0,0-.28-.09-.43-.09H29.84a5,5,0,0,0,0,9.95H67.05a83.45,83.45,0,0,0-1.79,10H29.84a5,5,0,0,0,0,9.95H64.66a81.31,81.31,0,0,0,.6,9.95H29.84a5,5,0,0,0,0,10H67.05a84.55,84.55,0,0,0,3,9.94H29.84a5,5,0,0,0,0,9.95H74.66a75.74,75.74,0,0,0,6.27,10H29.84a5,5,0,0,0,0,9.95H89.43a82.5,82.5,0,0,0,11.94,9.95H29.84a5,5,0,0,0,0,10h89.54a5,5,0,0,0,.79-.16l.15.06h.05A84.37,84.37,0,0,0,189,218.81ZM149.22,199a54.72,54.72,0,1,1,54.72-54.71A54.74,54.74,0,0,1,149.22,199ZM222,224l-16.64-16.64h0a67.33,67.33,0,0,0,7-7s0,0,0,0L229,217Z"/><path class="cls-1" d="M94.51,44.77H134.3a5,5,0,1,0,0-10H94.51a5,5,0,1,0,0,10Z"/><path class="cls-1" d="M94.51,64.66h9.95a5,5,0,1,0,0-9.94H94.51a5,5,0,1,0,0,9.94Z"/><path class="cls-1" d="M99.48,233.78H29.84a5,5,0,0,0,0,9.95H99.48a5,5,0,1,0,0-9.95Z"/><path class="cls-1" d="M29.84,59.69h10v10a5,5,0,0,0,5,5h9.95a5,5,0,0,0,5-5v-10h10a5,5,0,0,0,5-5V44.77a5,5,0,0,0-5-5h-10V29.84a5,5,0,0,0-5-5H44.77a5,5,0,0,0-5,5v10H29.84a5,5,0,0,0-5,5v9.95A5,5,0,0,0,29.84,59.69Z"/></svg>