<svg id="Capa_1" data-name="Capa 1" xmlns="http://www.w3.org/2000/svg" viewBox="0 0 275.62 244.12"><defs><style>.cls-1{fill:#274470;}.cls-2{fill:#fff;}</style></defs><path class="cls-1" d="M58.09,0c-4.34,0-7.86,1.28-8,10.27,0,3.11,0,6.79.12,10.91C20.94,21,12.62,23.07,8.67,24.7c-2.46,1-6.34,2.83-7.24,8.15-14.11,84.2,80.95,112.71,85.22,114,8.49,11.42,18.87,21,31.53,27.43,5.82,3,5.76,6.68,5.54,20.54s-6.88,24.11-9.71,28.39-10.64,6.52-17.1,8.77-5.35,12.19-5.35,12.19h92.53s1.11-9.93-5.35-12.18-14.31-4.5-17.14-8.79-9.5-14.54-9.7-28.38-.28-17.58,5.53-20.54c12.68-6.42,23-16,31.53-27.43,4.28-1.23,99.33-29.77,85.23-114-.89-5.32-4.77-7.13-7.24-8.15C260.36,22,246.57,21,225.4,21.18c.16-4.14.19-7.8.13-10.91-.11-9-3.63-10.27-8-10.27ZM51.23,37c2.26,25.47,8.37,59.52,22.49,88.33-25.2-11.86-63.43-38.1-57-86.5C24.11,37,40.45,36.87,51.24,37Zm173.18,0c17.6-.17,29,.45,34.5,1.81,6.46,48.42-31.79,74.68-57,86.52C216.05,96.48,222.15,62.43,224.41,37Z"/><path class="cls-2" d="M104.25,85.83H82.68V76.09l21.57-25.63h10.32V76.65h5.35v9.18h-5.35v8H104.25Zm0-9.18V63.24L92.86,76.65Z"/><path class="cls-2" d="M126.74,51.19h28.1v9.44h-19l-1,6.4a20.21,20.21,0,0,1,3.91-1.4,16.21,16.21,0,0,1,3.82-.46A14.23,14.23,0,0,1,152.89,69a13,13,0,0,1,4,9.74,16.57,16.57,0,0,1-2,7.93A14,14,0,0,1,149,92.52a20.48,20.48,0,0,1-9.63,2,28.5,28.5,0,0,1-7.22-.8A14.78,14.78,0,0,1,127,91.34a14.26,14.26,0,0,1-3.41-3.59,18.43,18.43,0,0,1-2.18-5l12-1.31a7.32,7.32,0,0,0,2,4.38,5.43,5.43,0,0,0,3.81,1.49,5.16,5.16,0,0,0,4.09-1.87,8.43,8.43,0,0,0,1.61-5.6q0-3.8-1.63-5.58A5.59,5.59,0,0,0,139,72.49a7,7,0,0,0-3.31.84,9.73,9.73,0,0,0-2.62,2.21L123,74.09Z"/><path class="cls-2" d="M161.22,67.84h11.14V56.65h9.38V67.84h11.19v9.39H181.74V88.36h-9.38V77.23H161.22Z"/></svg>