<svg id="Capa_1" data-name="Capa 1" xmlns="http://www.w3.org/2000/svg" viewBox="0 0 295.77 295.79"><defs><style>.cls-1{fill:#274470;}.cls-2{fill:#fff;}</style></defs><path class="cls-1" d="M197.86,245.21c-4,3.36-7.22-19.72-11.7-16.56L185.44,193l10.8-15.85,21.42-13.86-3.78-6.84-38.16,6.66-3.06,25.19L128,194c-12.31-8.61-4.41-23.68-9.26-28.66-15.39-15.8-17.58-8.35-29.62-17.47l-.72-23.28c0-7.54,23.16-11.32,30.34-13.68l8.54-31.3c13.41-4.48,15.4-4.48,28.8,0l15.84,4.2c7.15,2.36,0,21,0,28.54l28.38,5c0,13.33,4.18,35,8.52,45.72,2.35,5.83,7.94.24,5.66,7.13-1,3,25.65,4.19,28.71,5.21s12.67,9.18,13.69,6.14c6.88-20.77,13.25-56.77,13.25-78.55V59.85a29,29,0,0,0-19.93-27.6l-77.8-26a78.08,78.08,0,0,0-49.1,0l-77.78,26a29,29,0,0,0-20,27.59V103a204,204,0,0,0,86.91,167l32,22.42a5.8,5.8,0,0,0,3.34,1.05,6,6,0,0,0,3.34-1.05l32-22.42c4.77-3.38,9.34-6.88,13.6-10.42,1.5-1.25,7-6.29,7.84-9.15.57-1.85-2.79-1.72-3.6-2.7-2.07-2.47,1.69-5.84-.78-3.78Z"/><path class="cls-2" d="M114.77,46a5.82,5.82,0,1,0-3.68-11.05L52.85,54.31a5.83,5.83,0,0,0-4,5.54v43.2c0,5,.26,10.13.82,16.25a5.82,5.82,0,0,0,5.79,5.31,4.61,4.61,0,0,0,.53,0,5.83,5.83,0,0,0,5.27-6.32c-.52-5.78-.77-10.61-.77-15.2v-39L114.76,46Z"/><path class="cls-1" d="M136.23,200.31h23.29A17.5,17.5,0,0,0,177,182.83V165.36h17.47A17.5,17.5,0,0,0,212,147.88V124.59a17.49,17.49,0,0,0-17.48-17.47H177V89.64a17.5,17.5,0,0,0-17.48-17.48H136.23a17.49,17.49,0,0,0-17.47,17.48v17.48H101.28a17.48,17.48,0,0,0-17.47,17.47v23.29a17.49,17.49,0,0,0,17.47,17.48h17.48v17.47A17.5,17.5,0,0,0,136.23,200.31ZM101.3,153.73a5.83,5.83,0,0,1-5.83-5.83V124.61a5.84,5.84,0,0,1,5.83-5.83h23.29a5.84,5.84,0,0,0,5.83-5.83V89.66a5.84,5.84,0,0,1,5.83-5.83h23.29a5.83,5.83,0,0,1,5.83,5.83V113a5.82,5.82,0,0,0,5.83,5.83h23.29a5.83,5.83,0,0,1,5.83,5.83V147.9a5.84,5.84,0,0,1-5.83,5.83H171.2a5.83,5.83,0,0,0-5.83,5.83v23.29a5.84,5.84,0,0,1-5.83,5.83H136.25a5.83,5.83,0,0,1-5.83-5.83V159.56a5.82,5.82,0,0,0-5.83-5.83Z"/><circle class="cls-2" cx="224.39" cy="211.3" r="50.69"/><path class="cls-1" d="M218.51,235.52a31.2,31.2,0,0,0,10.83.89c1.56-.16,3.49-.41,3.9-2.11.28-1.19-.55-2.64-.88-4l-.51,0a11.93,11.93,0,0,1,1.14-.41c5-1.33,9.92-2.76,14.94-3.91a9.08,9.08,0,0,1,4.59.27c1.86.59,2,2.32.36,3.46a13.91,13.91,0,0,1-2.28,1.23c-6.59,3-13.22,6-19.77,9.15a15.61,15.61,0,0,1-11.8,1.13c-5.5-1.66-11.08-3.05-16.64-4.48-1.48-.38-3-.46-4.87-.73,6.89,7.95,20.95,14.63,35.26,12.44,19.82-3,31.64-15,36.68-33.87A45,45,0,0,1,228.36,257c-21.17,2-41.48-11.92-47.3-32.48-6-21.15,4.39-40.43,16.46-48.46q-20.4,22.86-7.48,50.6c3.55-.53,6.86-1,10.17-1.53,5.39-.87,10.56.13,15.71,1.66,4,1.18,8.07,2.09,12.08,3.22a10.69,10.69,0,0,1,3.35,1.56,1.72,1.72,0,0,1-.31,3.14,9.13,9.13,0,0,1-3.44.82C224.43,235.6,221.26,235.52,218.51,235.52Z"/><path class="cls-1" d="M235.79,206.83l-2.64,3c.85,1.69,1.79,3.45,2.65,5.25.77,1.63.54,2.8-.57,3.41a3.06,3.06,0,0,1-3.75-1c-.38-.53-.65-1.13-1-1.69l-1.07-1.81c-1.63,1.25-2.31,3.72-5,3.46-2.49-.25-3-2.65-4.75-4a35.78,35.78,0,0,1-2,3.45,4.3,4.3,0,0,1-2,1.68,2.17,2.17,0,0,1-2.78-3,21,21,0,0,1,2.28-4.48c.91-1.36.75-2.31-.52-3.22a16.45,16.45,0,0,1-1.36-1.21c-1.7,3.69-3.33,7.21-4.93,10.73-.38.84-.61,1.74-1,2.56a6.1,6.1,0,0,1-1.3,1.82c-.86.76-2.08,1.24-2.93.36a3,3,0,0,1-.5-2.61c1.76-4.71,3.69-9.36,5.59-14,.3-.74.7-1.45,1-2.11a2.61,2.61,0,0,0-3.72-.93c-1.4.72-2.86,1.31-4.31,1.9-1,.41-2.26.68-2.75-.43a3.66,3.66,0,0,1,.36-2.79,4.58,4.58,0,0,1,2.09-1.7c15.65-7.26,31.33-7.31,47,0a5.7,5.7,0,0,1,2.39,2.06,2.72,2.72,0,0,1,.09,2.49,2.81,2.81,0,0,1-2.45.41,29.44,29.44,0,0,1-4.79-2c-1.34-.67-2.08.28-2.77,1-.27.28,0,1.24.2,1.8,1.85,4.68,3.77,9.34,5.63,14,.46,1.15.76,2.43-.62,3.14s-2.44-.06-3.29-1.06a7.75,7.75,0,0,1-1-1.85C239.5,215.27,237.72,211.22,235.79,206.83Z"/><path class="cls-1" d="M190,203.3c1.38-18.5,14.68-33,32.57-35.48a38.12,38.12,0,0,1,41.17,24.64c6.37,17.5-1.15,35-12.9,43.29,8.32-9.17,12-19.8,9.67-32.07s-9.44-21.05-20.81-26.14C219,168.27,194.52,180.72,190,203.3Z"/><path class="cls-1" d="M211.14,192.9a4.6,4.6,0,0,1-4.77-4.67,4.75,4.75,0,1,1,4.77,4.67Z"/><path class="cls-1" d="M237.67,192.9a4.65,4.65,0,0,1-4.67-4.79,4.73,4.73,0,0,1,4.84-4.65,4.79,4.79,0,0,1,4.69,4.83A4.68,4.68,0,0,1,237.67,192.9Z"/><path class="cls-1" d="M219.72,186.76A4.53,4.53,0,0,1,224.4,182a4.64,4.64,0,0,1,4.77,4.67,4.74,4.74,0,0,1-4.72,4.78A4.67,4.67,0,0,1,219.72,186.76Z"/></svg>