<svg id="Capa_1" data-name="Capa 1" xmlns="http://www.w3.org/2000/svg" viewBox="0 0 295.77 295.79"><defs><style>.cls-1{fill:#274470;}</style></defs><path class="cls-1" d="M179.83,227c-3.09,2.58-6.42,5.13-9.87,7.56L147.87,250l-22.08-15.46A148,148,0,0,1,62.71,113.38V80.13A13.36,13.36,0,0,1,71.92,67.4l59.88-20a51.28,51.28,0,0,1,32.12,0l59.9,20A13.35,13.35,0,0,1,233,80.13v33.25a147.66,147.66,0,0,1-7.53,46.56,4.48,4.48,0,1,0,8.51,2.81,156.64,156.64,0,0,0,8-49.37V80.13a22.32,22.32,0,0,0-15.34-21.24l-59.87-20a60.18,60.18,0,0,0-37.8,0l-59.86,20A22.31,22.31,0,0,0,53.75,80.12v33.25a157,157,0,0,0,66.89,128.5l24.66,17.26a4.44,4.44,0,0,0,2.57.8,4.64,4.64,0,0,0,2.57-.8l24.67-17.26c3.67-2.6,7.18-5.3,10.46-8a4.48,4.48,0,1,0-5.75-6.88Z"/><path class="cls-1" d="M122.4,69.47A4.49,4.49,0,0,0,119.56,61L74.73,75.87a4.5,4.5,0,0,0-3.06,4.26v33.25c0,3.81.2,7.79.63,12.51A4.49,4.49,0,0,0,76.76,130h.41a4.5,4.5,0,0,0,4.06-4.87c-.41-4.45-.6-8.16-.6-11.69v-30l41.75-13.89Z"/><path class="cls-1" d="M138.91,188.23h17.93a13.46,13.46,0,0,0,13.45-13.45V161.33h13.45a13.46,13.46,0,0,0,13.45-13.45V130a13.47,13.47,0,0,0-13.45-13.45H170.29V103.06a13.47,13.47,0,0,0-13.45-13.45H138.91a13.46,13.46,0,0,0-13.45,13.45v13.45H112A13.46,13.46,0,0,0,98.56,130v17.92A13.46,13.46,0,0,0,112,161.33h13.45v13.45A13.46,13.46,0,0,0,138.91,188.23ZM112,152.39a4.49,4.49,0,0,1-4.48-4.49V130a4.49,4.49,0,0,1,4.48-4.48H130a4.5,4.5,0,0,0,4.49-4.49V103.07a4.49,4.49,0,0,1,4.48-4.48h17.93a4.49,4.49,0,0,1,4.49,4.48V121a4.48,4.48,0,0,0,4.48,4.49h17.93a4.49,4.49,0,0,1,4.49,4.48V147.9a4.5,4.5,0,0,1-4.49,4.49H165.82a4.48,4.48,0,0,0-4.48,4.48V174.8a4.49,4.49,0,0,1-4.49,4.48H138.92a4.48,4.48,0,0,1-4.48-4.48V156.87a4.48,4.48,0,0,0-4.49-4.48Z"/><path class="cls-1" d="M295.77,237.53a13.45,13.45,0,1,0-17.94,12.62v7.55a29.13,29.13,0,0,1-58.26,0V241.6A26.9,26.9,0,0,0,242,215.12V174.78a4.47,4.47,0,0,0-4.48-4.48H224.05a4.49,4.49,0,1,0,0,9h9v35.85a17.93,17.93,0,0,1-35.85,0V179.27h9a4.49,4.49,0,1,0,0-9H192.67a4.49,4.49,0,0,0-4.49,4.48v40.34A26.9,26.9,0,0,0,210.6,241.6v16.1a38.09,38.09,0,0,0,76.18,0v-7.55a13.41,13.41,0,0,0,9-12.62ZM282.33,242a4.49,4.49,0,1,1,4.49-4.49A4.49,4.49,0,0,1,282.33,242Z"/><path class="cls-1" d="M8.94,31.37a22.41,22.41,0,0,1,44.82,0,4.49,4.49,0,0,0,9,0,22.41,22.41,0,1,1,44.82,0c0,1.15,0,2.34-.12,3.43a4.48,4.48,0,1,0,8.93.67c.1-1.31.15-2.73.15-4.1A31.36,31.36,0,0,0,58.26,15.23,31.36,31.36,0,0,0,0,31.37C0,61.72,26.4,86,42.14,97.72a4.5,4.5,0,0,0,6.27-.92,4.49,4.49,0,0,0-.91-6.28C33.1,79.78,9,57.81,9,31.36Z"/></svg>
