<svg id="Capa_1" data-name="Capa 1" xmlns="http://www.w3.org/2000/svg" viewBox="0 0 286.67 281.36"><defs><style>.cls-1{fill:#274470;}</style></defs><path class="cls-1" d="M257.2,98.26a16.36,16.36,0,1,0-16.36-16.35A16.38,16.38,0,0,0,257.2,98.26Zm0-24.74a8.39,8.39,0,1,1-8.39,8.39A8.39,8.39,0,0,1,257.2,73.52Z"/><path class="cls-1" d="M61.46,221.46a16.36,16.36,0,1,0,16.35,16.36A16.37,16.37,0,0,0,61.46,221.46Zm0,24.75a8.39,8.39,0,1,1,8.39-8.39A8.4,8.4,0,0,1,61.46,246.21Z"/><path class="cls-1" d="M175.91,29.79h27.75A4,4,0,0,0,207,23.67L193.15,1.85a4,4,0,0,0-6.72,0L172.55,23.67a4,4,0,0,0,3.36,6.12ZM189.79,11.4l6.62,10.42H183.16Z"/><path class="cls-1" d="M95.62,82.68q8.14,0,8.15,7.3a10,10,0,0,1-1.68,5.81,36,36,0,0,1-5.15,5.69,73.18,73.18,0,0,0-5.09,5.33,20.51,20.51,0,0,0-3.35,5.93,23.33,23.33,0,0,0-1.38,8.38h15.93a12.73,12.73,0,0,1,2.27-7.6,49.4,49.4,0,0,1,7.07-7.49,49.06,49.06,0,0,0,8.38-9,18.21,18.21,0,0,0,2.88-10.54q0-9.95-7-15.45t-19-5.51q-12.82,0-20.12,7.31T70.11,93.22l16.41.12Q86.64,82.68,95.62,82.68Z"/><path class="cls-1" d="M105,140.4a9.85,9.85,0,0,0-10.3-10.3A9.84,9.84,0,0,0,87.3,133a10.13,10.13,0,0,0-2.81,7.42,10.27,10.27,0,0,0,2.87,7.49,9.77,9.77,0,0,0,7.3,2.93,9.93,9.93,0,0,0,7.43-2.93A10.23,10.23,0,0,0,105,140.4Z"/><path class="cls-1" d="M229.33,157.67H201.82a4,4,0,0,0,0,8h27.51a4,4,0,0,0,0-8Z"/><path class="cls-1" d="M229.33,188.56h-54.1a4,4,0,1,0,0,8h54.1a4,4,0,0,0,0-8Z"/><path class="cls-1" d="M229.33,219.44h-2.14a4,4,0,1,0,0,8h2.14a4,4,0,0,0,0-8Z"/><path class="cls-1" d="M209.94,219.44H155.62a4,4,0,0,0,0,8h54.32a4,4,0,0,0,0-8Z"/><path class="cls-1" d="M276.67,264.39l-9.15-22.13A96.87,96.87,0,0,0,197.61,87.89c-2.16-.17-4.15-.25-6.08-.28a96.56,96.56,0,0,0-94.66-76.7c-2.81,0-5.36.1-7.8.29a96.79,96.79,0,0,0-69.9,154.37L10,187.74a7.05,7.05,0,0,0,9.23,9.18l22.65-9.35a95.61,95.61,0,0,0,53.24,17A95.74,95.74,0,0,0,98.55,217a97.81,97.81,0,0,0,6.63,14.51c.63,1.14,1.31,2.32,2.09,3.57.69,1.08,1.37,2.17,2.06,3.16a95.3,95.3,0,0,0,9.81,12.34c.94,1,1.87,2,2.73,2.77s1.68,1.69,2.57,2.49A93.67,93.67,0,0,0,134.58,264c.88.62,1.75,1.21,2.67,1.76a20.18,20.18,0,0,0,2.41,1.52c1,.65,2.05,1.27,3,1.79s2.23,1.21,3.54,1.89c1.46.77,3,1.5,4.62,2.2l3.28,1.39c1.54.64,3.17,1.24,4.71,1.72,2.37.8,4.89,1.56,7.42,2.22a11.23,11.23,0,0,0,1.46.34,67.84,67.84,0,0,0,7.83,1.47c1.36.21,2.72.4,4.09.53a6.15,6.15,0,0,0,.85.1c.78.09,1.56.16,2.21.19s1.17.08,1.52.09c1.92.13,3.84.17,5.72.17,1.28,0,2.56,0,3.83-.09,3.19-.13,6-.36,8.44-.7.4-.05.8-.1,1.2-.19a96.84,96.84,0,0,0,41.39-16.13l22.7,9.36a7,7,0,0,0,9.19-9.2ZM42.4,179.06a3.86,3.86,0,0,0-1.52.31l-22.66,9.35,9.19-22.23a4,4,0,0,0-.55-4A88.66,88.66,0,0,1,8.79,120.16a90.51,90.51,0,0,1-.68-17.29,89,89,0,0,1,81.6-83.73c2.23-.18,4.57-.27,7.16-.27a88.66,88.66,0,0,1,87.54,73.4s0,0,0,0c.33,1.83.61,3.67.82,5.54a87.09,87.09,0,0,1,.55,11.35q0,2.88-.27,5.77c-.2,2.55-.53,5.05-.94,7.53-.17,1-.41,2-.62,3-.28,1.4-.56,2.8-.92,4.18s-.74,2.64-1.15,3.95c-.29,1-.59,1.94-.92,2.89-.53,1.54-1.11,3.05-1.72,4.54-.26.65-.53,1.29-.81,1.93-.74,1.69-1.52,3.36-2.36,5l-.55,1c-1,1.85-2,3.67-3.1,5.44h0a90.67,90.67,0,0,1-28.78,28.8l-.73.47c-1.64,1-3.33,1.94-5,2.84l-1.46.76c-1.59.8-3.22,1.55-4.87,2.25-.63.27-1.27.54-1.91.79-1.6.64-3.21,1.24-4.85,1.79-.71.24-1.44.45-2.16.67-1.63.5-3.27,1-4.94,1.38-.85.21-1.7.37-2.55.55-1.49.32-3,.64-4.48.87-2.37.38-4.76.68-7.19.86-1.73.07-3.46.15-5.18.15a87.32,87.32,0,0,1-53.54-16.84A4,4,0,0,0,42.4,179.06Zm203.39,77a4,4,0,0,0-3.84.45,88.87,88.87,0,0,1-39.82,16l-.45.09a3.17,3.17,0,0,1-.5.07c-2.31.32-4.77.52-7.73.65a88.09,88.09,0,0,1-9-.08c-.35,0-.72,0-1.23-.08-.68,0-1.36-.11-2.3-.21a2.83,2.83,0,0,0-.42-.06c-1.27-.11-2.55-.3-3.91-.5A67.21,67.21,0,0,1,169.3,271a10.08,10.08,0,0,1-1-.25c-2.41-.62-4.74-1.32-7-2.09-1.41-.44-2.8-1-4.13-1.51-1.09-.45-2.14-.9-3.38-1.43s-2.6-1.18-4.08-2c-1-.54-2.08-1.07-3.16-1.69-.86-.47-1.73-1-2.87-1.69a14.63,14.63,0,0,1-1.88-1.2l-.34-.22c-.78-.46-1.52-1-2.31-1.53a84.9,84.9,0,0,1-9.34-7.47c-.76-.69-1.49-1.38-2.31-2.23s-1.67-1.64-2.53-2.58a87.27,87.27,0,0,1-9.06-11.4c-.66-.94-1.28-1.93-2-3s-1.24-2.07-1.81-3.1A89.6,89.6,0,0,1,106,214.33a93.22,93.22,0,0,1-2.86-9.84l.75,0c2.69-.2,5.38-.53,8.06-1,1.28-.2,2.54-.49,3.81-.74,1-.22,2.12-.38,3.17-.63.29-.06.56-.16.85-.23,1.47-.36,2.9-.79,4.35-1.22,1.18-.35,2.36-.7,3.52-1.09q2.13-.74,4.23-1.56c1.09-.43,2.17-.87,3.25-1.34,1.44-.63,2.86-1.28,4.26-2,.93-.46,1.85-.94,2.76-1.43,1.5-.81,3-1.63,4.44-2.51.68-.41,1.33-.84,2-1.27,1.63-1,3.24-2.09,4.81-3.23l.76-.58A98.17,98.17,0,0,0,179,158.89c.08-.12.16-.24.23-.36,1.15-1.86,2.23-3.76,3.26-5.69.24-.45.48-.9.71-1.35.89-1.74,1.72-3.5,2.5-5.3.32-.73.63-1.47.93-2.21q1-2.4,1.85-4.87c.37-1.06.68-2.12,1-3.19.43-1.42.87-2.84,1.24-4.28s.69-3,1-4.57c.22-1.09.48-2.17.66-3.28.46-2.71.82-5.44,1-8.2.15-1.93.23-3.85.27-5.76,0-.6,0-1.2,0-1.81,0-1.33,0-2.65-.07-4,0-.68-.06-1.34-.1-2-.08-1.3-.18-2.58-.32-3.87-.06-.61-.11-1.22-.18-1.83,0-.25,0-.5-.08-.75,1.28,0,2.6.12,4,.24A88.89,88.89,0,0,1,259.83,239.2a4,4,0,0,0-.55,4l9.19,22.22Z"/></svg>