<svg id="Capa_1" data-name="Capa 1" xmlns="http://www.w3.org/2000/svg" viewBox="0 0 240.16 246.65"><defs><style>.cls-1{fill:#274470;}</style></defs><path class="cls-1" d="M35.54,104.59H67.08A10.36,10.36,0,0,0,77.43,94.24V91.91A26.14,26.14,0,0,0,60.08,67.32a17,17,0,1,0-17.51,0A26.14,26.14,0,0,0,25.23,91.91v2.33A10.31,10.31,0,0,0,35.54,104.59ZM51.33,42.92a9.84,9.84,0,1,1-9.85,9.84A9.84,9.84,0,0,1,51.33,42.92Zm-19,49a19,19,0,0,1,19-19h0a19,19,0,0,1,19,19v2.33a3.2,3.2,0,0,1-3.18,3.19H35.54a3.2,3.2,0,0,1-3.18-3.19Zm-1.3,26.58h73.16a3.58,3.58,0,0,1,0,7.16H31.06a3.58,3.58,0,1,1,0-7.16Zm116.23,34.4a3.56,3.56,0,0,1-3.58,3.58H31.06a3.58,3.58,0,0,1,0-7.16H143.71A3.56,3.56,0,0,1,147.29,152.89Zm0,30.82a3.56,3.56,0,0,1-3.58,3.58H31.06a3.58,3.58,0,1,1,0-7.16H143.71A3.56,3.56,0,0,1,147.29,183.71Zm0,30.82a3.56,3.56,0,0,1-3.58,3.58H31.06a3.58,3.58,0,1,1,0-7.16H143.71A3.58,3.58,0,0,1,147.29,214.53ZM237.16,28.81C213.66,25,194.37,15.62,179.79,1.06A3.66,3.66,0,0,0,177.27,0a3.5,3.5,0,0,0-2.52,1.06,91.14,91.14,0,0,1-10.16,8.75H14.85A14.87,14.87,0,0,0,0,24.67V231.8a14.86,14.86,0,0,0,14.85,14.85H166a14.86,14.86,0,0,0,14.86-14.85V144.08c19.57-11.88,34.48-27.4,44.27-46.12,9.57-18.31,14.64-40.35,15-65.57A3.58,3.58,0,0,0,237.16,28.81ZM166,239.47H14.85a7.7,7.7,0,0,1-7.69-7.7V24.64A7.7,7.7,0,0,1,14.85,17H153.29a114.58,114.58,0,0,1-35.94,11.86,3.57,3.57,0,0,0-3,3.58c.4,25.22,5.46,47.26,15,65.57,9.81,18.72,24.69,34.21,44.27,46.12v87.69A7.7,7.7,0,0,1,166,239.47Zm11.25-101.59C141.3,116,123.08,82.44,121.56,35.33c22.31-4.14,41-13.13,55.68-26.76,14.67,13.63,33.37,22.62,55.68,26.76C231.43,82.44,213.21,116,177.24,137.88ZM162.47,40V54.22H148.19V83.77h14.27V98H192V83.77h14.27V54.22H192V40Zm36.68,21.43V76.6H184.88V90.87H169.65V76.6H155.36V61.38h14.27V47.11h15.22V61.38Z"/></svg>