<?xml version="1.0" encoding="utf-8"?>
<!-- Generator: Adobe Illustrator 28.1.0, SVG Export Plug-In . SVG Version: 6.00 Build 0)  -->
<svg version="1.1" id="Capa_1" xmlns="http://www.w3.org/2000/svg" xmlns:xlink="http://www.w3.org/1999/xlink" x="0px" y="0px"
	 viewBox="0 0 90.8 21.8" style="enable-background:new 0 0 90.8 21.8;" xml:space="preserve">
<style type="text/css">
	.st0{fill-rule:evenodd;clip-rule:evenodd;fill:#274470;}
</style>
<path class="st0" d="M90.1,14.3V6.9c0,0,0-1.7,0.7-1.7h-3.2c0,0,0.6,0,0.6,1.7v2.8h-4.9V6.9c0,0,0-1.7,0.7-1.7h-3.2
	c0,0,0.6,0,0.6,1.7v7.5c0,0,0,1.6-0.8,1.6h3.3c0,0-0.5,0-0.5-1.7v-3.2h4.9v3.3c0,0,0,1.6-0.8,1.6h3.2C90.6,16,90.1,16,90.1,14.3z
	 M78.9,7.5v-2c0,0-1.1-0.5-2.6-0.5c-2.2,0-6.5,0.9-6.5,5.9s4.9,5.6,5.8,5.6c0.9,0,2.5-0.3,3.2-0.8v-2.1c0,0-0.8,1.2-2.9,1.2
	c-2.2,0-3.9-1.9-3.9-4s1.7-4.3,4.1-4.3C77.9,6.6,78.9,7.5,78.9,7.5z M65,5.2c0,0,0.6,0,0.6,1.7v7.5c0,0,0,1.6-0.8,1.6H68
	c0,0-0.5,0-0.5-1.7V6.9c0,0,0-1.7,0.7-1.7H65z M60.1,8.3c0-2-3.1-1.7-3.1-1.7v3.9C57,10.5,60.1,10.8,60.1,8.3z M63.9,16
	c-2.6,0.8-4.2-1.4-4.2-1.4l-2.4-3.1H57v3.2c0,1.2,0.6,1.3,0.6,1.3H54c0.7,0,0.9-1.3,0.9-1.3V6.8c0-1.1-0.6-1.6-0.6-1.6h4.1
	c0,0,3.9,0,3.9,3c0,2.4-2.8,3-2.8,3C62.9,15.6,63.9,16,63.9,16z M42.1,5.2c0,0,0.6,0.5,0.6,1.6v6.5c0,0,0.3,3.1,4.6,3.1
	c4.4,0,4.4-3.4,4.4-3.4V6.2c0,0,0-0.9,0.6-0.9h-3.2c0,0,0.6,0,0.6,1v6.4c0,0-0.1,2.4-2.5,2.4c-2.3,0-2.6-2.2-2.6-2.2v-6
	c0,0,0-1.5,0.5-1.5h-3V5.2z M34.7,6.7h2.4L30.4,16h9.1l1.3-2.5c-1.2,1.1-4.3,1.1-4.3,1.1H34l6.6-9.4h-8.4l-1,2.3
	C32.4,6.7,34.7,6.7,34.7,6.7z M21.9,10.9c0,6-4.9,10.9-11,10.9c-3.2,0-6-1.4-8-3.5c1.5-1.1,5.9-0.8,7-0.4c7.3,2.2,8.4-4.2,8.4-4.2
	h-0.7c-1.3,4.4-8.1,2.6-9.1,2.6c-1,0-1.6,0.2-1.6,0.2l9.2-12.2H4.7l-1,3.2l0.7,0.3c0.9-2.4,3.9-2.3,3.9-2.3h3.2l-9.3,12
	C0.9,15.6,0,13.4,0,10.9C0,4.9,4.9,0,11,0C17,0,21.9,4.9,21.9,10.9z"/>
</svg>
