<?xml version="1.0" encoding="utf-8"?>
<!-- Generator: Adobe Illustrator 28.1.0, SVG Export Plug-In . SVG Version: 6.00 Build 0)  -->
<svg version="1.1" id="Capa_1" xmlns="http://www.w3.org/2000/svg" xmlns:xlink="http://www.w3.org/1999/xlink" x="0px" y="0px"
	 viewBox="0 0 122 18.6" style="enable-background:new 0 0 122 18.6;" xml:space="preserve">
<style type="text/css">
	.st0{fill-rule:evenodd;clip-rule:evenodd;fill:#274470;}
</style>
<path class="st0" d="M78.8,9.8h-5.5v4h5.3c1.1,0,1.9-0.2,2.4-0.6c0.5-0.4,0.7-0.8,0.7-1.5c0-0.7-0.2-1.2-0.6-1.4
	C80.6,9.9,79.9,9.8,78.8,9.8z M78.3,6.4c0.7,0,1-0.1,1.4-0.4c0.4-0.3,0.6-0.8,0.6-1.5c0-0.8-0.4-1-0.5-1.1c-0.4-0.2-1-0.3-1.7-0.3
	h-4.7v3.3H78L78.3,6.4z M82.7,7.9c0.8,0.4,1.5,0.9,2,1.5c0.6,0.7,0.9,1.6,0.9,2.6c0,0.9-0.2,1.6-0.6,2.3c-0.4,0.6-0.9,1.2-1.5,1.6
	c-0.6,0.4-1.4,0.7-2.2,0.9c-0.8,0.2-1.7,0.3-2.6,0.3h-9.3V0h8.9c0.9,0,1.7,0.1,2.4,0.3c0.7,0.2,1.4,0.4,1.9,0.8
	c0.6,0.4,1,0.9,1.3,1.4c0.3,0.6,0.5,1.3,0.5,2.1C84.4,5.9,83.8,7,82.7,7.9z M115.9,6.1h6.1v4.4h-6.1v6h-4.5v-6h-6.1V6.1h6.1v-6h4.5
	V6.1z M103.4,3.4l-3.2-3.1l-5.1,5l-5.1-5l-3,3.1l5.1,5l-5.1,5l3.2,3.1l5.1-5l5.1,5l3.2-3.1l-5.1-5L103.4,3.4z M23.7,17.2
	c-0.1,0-0.1,0-0.2,0s-0.1,0-0.2,0c-0.2,0-0.3,0-0.5,0h-0.1c-0.5-0.1-1-0.1-1.4-0.4c-0.5-0.3-0.7-0.9-0.4-1.5
	c0.1-0.3,0.3-0.6,0.7-0.7c0.3-0.1,0.5-0.2,0.8-0.2c0.1,0,0.2,0,0.3,0c0.2,0,0.4-0.1,0.6-0.1c0.2,0,0.4,0,0.6,0.1
	c0.2,0,0.4,0.1,0.6,0.1c0.3,0,0.5,0.1,0.8,0.2c0.1,0,0.3,0.1,0.4,0.1c0.3,0.1,0.4,0.3,0.6,0.4l0.1,0.1c0,0.1,0,0.2,0,0.2
	c0,0.3,0,0.5-0.2,0.8c-0.4,0.4-0.8,0.7-1.4,0.8c-0.1,0-0.2,0-0.3,0.1c-0.1,0-0.3,0.1-0.4,0.1C24,17.2,23.8,17.2,23.7,17.2z M25,7.1
	c0.4,0.4,0.7,0.9,0.6,1.5c0.1,0.6-0.2,1.1-0.6,1.5s-0.9,0.6-1.4,0.6h-0.1c-0.2,0-0.4,0-0.5,0c-0.2,0-0.3,0-0.5-0.1s-0.5-0.2-0.7-0.3
	c-0.5-0.4-0.7-0.9-0.7-1.5c0-0.1,0-0.1,0-0.2c0-0.2,0-0.4,0.1-0.6c0.3-0.6,0.7-1,1.3-1.1c0.3-0.1,0.6-0.1,1-0.1
	C24.2,6.6,24.6,6.8,25,7.1z M28.1,5.9V4.8c-0.1,0-0.1,0-0.2,0s-0.3,0-0.4,0s-0.1,0-0.2,0.1h-0.1c-0.6,0.1-1,0.4-1.3,0.9
	C25.7,6,25.7,6,25.4,5.9c-0.4-0.2-0.8-0.3-1.2-0.3c-0.1,0-0.1,0-0.2,0c-0.6,0-1.2-0.1-1.7,0.1c-0.9,0.2-1.5,0.7-2,1.4
	c-0.3,0.5-0.5,1-0.4,1.6c0,0.1,0,0.2,0,0.3c0,0.3,0.1,0.5,0.2,0.8v0.1c0.2,0.5,0.5,0.8,0.8,1.1c0.1,0.1,0.1,0.1,0.2,0.2
	c0.1,0.1,0.2,0.2,0.2,0.2s-0.1,0.1-0.2,0.2H21c-0.1,0-0.1,0-0.2,0.1c-0.3,0.2-0.5,0.5-0.5,0.9c0,0.5,0.1,0.8,0.4,1.1
	c0.1,0,0.1,0.1,0.2,0.2c0.1,0.1,0.1,0.2-0.1,0.2c-0.4,0.1-0.7,0.3-0.9,0.5c-0.3,0.3-0.5,0.7-0.5,1.1v0.1c0,0.2,0,0.3,0,0.5
	c0.1,0.3,0.1,0.5,0.2,0.8c0.3,0.5,0.9,0.9,1.5,1.1c0.5,0.2,1,0.3,1.5,0.3c0.9,0.1,1.8,0.1,2.7-0.2c0.8-0.2,1.6-0.5,2.1-1.2
	c0.5-0.6,0.6-1.3,0.4-2.1c-0.2-0.7-0.6-1.1-1.3-1.4s-1.4-0.4-2.2-0.5c-0.3,0-0.6,0-0.9,0c-0.2,0-0.4,0-0.6,0c-0.2,0-0.5,0-0.7-0.1
	H22c0,0-0.1,0-0.1-0.1c0,0,0,0-0.1,0c-0.2-0.1-0.3-0.4-0.2-0.5c0.3-0.3,0.6-0.6,1-0.6c0.2,0,0.4,0,0.6,0c0.2,0,0.5,0,0.7,0
	c0.2,0,0.5-0.1,0.7-0.1c0.1,0,0.1,0,0.2-0.1c0.6-0.2,1.1-0.5,1.5-1c0.4-0.4,0.6-0.9,0.7-1.5c0.1-0.9,0-1.7-0.6-2.4
	c-0.2-0.2-0.2-0.2,0-0.4c0.1-0.1,0.3-0.2,0.4-0.2c0.4,0,0.7-0.1,1-0.1C27.9,6,28,5.9,28.1,5.9z M0,10.9c0.1,0,0.2,0,0.3-0.1
	c0.2,0,0.4-0.1,0.6-0.1c0.1,0,0.2-0.1,0.3-0.1h0.1c0.2,0,0.2,0.1,0.3,0.3c0.1,0.8,0.5,1.5,1.1,2c0.3,0.3,1.1,0.6,1.5,0.6
	c0.1,0,0.2,0,0.2,0.1c0.1,0,0.2,0,0.2,0.1c0.2,0,0.4,0,0.5,0c0.6,0,1.1-0.1,1.6-0.4c0.6-0.2,1-0.7,1.2-1.3C8,11.6,8,11.1,7.8,10.7
	C7.7,10.3,7.4,10,7,9.8C6.3,9.4,5.5,9.2,4.8,9C4.7,9,4.6,9,4.6,8.9c-0.7-0.2-1.4-0.4-2-0.7C1.6,7.7,0.9,7,0.8,5.9
	c-0.2-0.3-0.2-0.7-0.1-1c0-0.1,0-0.2,0.1-0.3C0.9,4.3,0.9,4,1.1,3.7l0.1-0.1c0.2-0.4,0.5-0.7,0.9-1C2.6,2.2,3.2,2,3.9,1.9
	c0.6-0.1,1.3-0.1,1.9-0.1c0.8,0,1.5,0.3,2.1,0.8C8.7,3.2,9.1,4,9.4,5v0.1v0.1c0,0.1-0.1,0.1-0.2,0.1C8.9,5.4,8.6,5.5,8.3,5.5
	C8.1,5.6,8,5.5,8,5.3C7.9,4.8,7.6,4.4,7.3,4C7,3.6,6.6,3.3,6.1,3.2C5.5,3,4.9,3,4.4,3.1c-0.6,0-1.1,0.2-1.5,0.6
	C2.3,4.2,2.1,5,2.4,5.8c0.1,0.4,0.4,0.8,0.9,1C3.6,7,4,7.1,4.3,7.2c0.1,0,0.2,0,0.2,0.1c0.3,0.1,0.6,0.2,0.9,0.2
	c0.3,0.1,0.7,0.2,1,0.3C7.1,8,7.7,8.3,8.2,8.7c0.6,0.5,1.1,1.1,1.3,1.8c0,0.2,0,0.3,0.1,0.5c0.1,0.2,0.1,0.5,0,0.7
	c0,0.4-0.1,0.7-0.3,1.1c-0.3,0.5-0.7,1-1.2,1.3c-0.6,0.4-1.3,0.6-2,0.8C5.6,15,5,15,4.5,15c-0.8,0-1.6-0.2-2.3-0.6
	c-0.4-0.2-0.7-0.4-1-0.7c-0.4-0.4-0.9-1.4-1-1.8c0-0.2-0.1-0.4-0.1-0.6C0,11.1,0,11,0,10.9z M17.2,9.1c0,0.1,0,0.2,0,0.3h-5
	c-0.1-0.2,0-0.4,0.1-0.6V8.7c0.2-0.6,0.5-1.2,1.1-1.6c0.3-0.2,0.6-0.3,0.9-0.4h0.1c0.1,0,0.3-0.1,0.4-0.1c0.3,0,0.5,0.1,0.8,0.2
	c0.9,0.2,1.3,0.9,1.5,1.7C17.2,8.7,17.2,8.9,17.2,9.1z M12.2,10.5h6.7c0-0.1,0-0.2,0-0.2c0-0.2,0-0.3,0-0.4
	c-0.1-0.2-0.1-0.4-0.1-0.6c0-0.1,0-0.2-0.1-0.4c0-0.1,0-0.2-0.1-0.2c0-0.7-0.7-1.8-1.2-2.2s-1.2-0.7-1.9-0.8
	c-0.6-0.1-1.3-0.1-1.9,0.1c-0.5,0.1-0.9,0.3-1.3,0.6c-0.4,0.3-0.7,0.7-1,1.1C11,8,10.8,8.5,10.7,9c-0.1,0.2-0.1,0.5-0.1,0.8
	c0,0.1,0,0.3,0,0.4c0,0.1,0,0.3,0,0.4c0,0.7,0.1,1.3,0.3,2c0.3,0.7,0.7,1.4,1.3,1.8c0.7,0.5,1.5,0.8,2.4,0.8c0.5,0,0.9,0,1.4-0.2
	c1.1-0.3,1.9-1,2.4-2c0.2-0.3,0.2-0.3-0.1-0.4c-0.1-0.1-0.2-0.1-0.3-0.2c-0.2-0.1-0.3-0.1-0.5-0.2c0,0-0.1,0-0.2,0
	c-0.1,0-0.2,0.1-0.2,0.2c-0.1,0.3-0.3,0.5-0.5,0.8c-0.1,0.1-0.1,0.1-0.2,0.2c-0.4,0.4-0.9,0.7-1.5,0.6c-0.1,0-0.1,0-0.2,0h-0.1
	c-0.5,0-1-0.2-1.4-0.6c-0.4-0.3-0.6-0.7-0.8-1.1c0-0.1,0-0.1-0.1-0.2c-0.1-0.2-0.1-0.4-0.2-0.6c0-0.1,0-0.2,0-0.2
	C12.1,10.9,12.1,10.7,12.2,10.5z M50.5,10.2c0.1-0.6-0.1-1.2-0.3-1.7V8.4c-0.2-0.6-0.6-1-1.1-1.3c-0.8-0.4-1.2-0.5-2-0.3
	c-0.3,0.1-0.6,0.2-0.8,0.4c-0.4,0.3-0.7,0.7-0.9,1.1C45.2,8.5,45,9.6,45,9.9c0,0.2,0,0.3,0,0.5c0,0.3,0,0.6,0.1,1
	c0.1,0.8,0.4,1.5,1,2c0.4,0.3,0.9,0.6,1.4,0.5c0.1,0,0.3,0,0.4,0c0.1,0,0.2,0,0.3,0c0.1,0,0.1,0,0.2,0h0.1c0.6-0.1,0.9-0.5,1.3-0.9
	c0.2-0.2,0.6-1.1,0.6-1.4s0.1-0.6,0.1-0.9C50.5,10.4,50.5,10.3,50.5,10.2z M52,10.2C52,10.3,52,10.3,52,10.2c0,0.2,0,0.2,0,0.2
	c0.1,0.6-0.1,1.2-0.2,1.7c-0.1,0.5-0.4,0.9-0.7,1.3c-0.5,0.6-1.1,1.1-1.9,1.3c-0.1,0-0.1,0-0.2,0.1c-0.2,0.1-0.4,0.1-0.7,0.1
	c-0.1,0-0.2,0-0.2,0c-0.3,0-0.5,0-0.8,0c-0.4,0-0.8-0.1-1.1-0.2c-0.4-0.2-0.8-0.4-1.2-0.7c-0.5-0.5-0.9-1-1.1-1.7v-0.1
	c-0.1-0.2-0.1-0.3-0.1-0.5c0-0.2,0-0.3-0.1-0.5c0-0.3-0.1-0.5-0.1-0.8c0-0.2,0-0.4,0-0.5c0-0.1,0-0.3,0-0.4c0-0.5,0.2-1,0.4-1.5
	c0,0,0-0.1,0.1-0.1C44,7.8,44,7.7,44,7.7c0.2-0.3,0.4-0.6,0.6-0.9c0.5-0.5,1-0.9,1.7-1.1h0.1c0.2-0.1,0.5-0.2,0.8-0.1
	c0.3,0,0.5,0,0.8,0h0.2c0.5,0,0.9,0.2,1.4,0.3h0.1c0.6,0.2,1.1,0.7,1.5,1.2c0.4,0.5,0.6,1.1,0.8,1.8c0,0.3,0,0.6,0,0.8
	C52,9.9,52,10.1,52,10.2z M56.9,5.5c-0.1,0-0.2,0-0.3,0c-0.8-0.1-1.5,0.1-2.2,0.5c-0.3,0.2-0.7,0.6-0.9,0.9c-0.3,0.5-0.3,1-0.3,1.5
	c0,0.4,0.2,0.8,0.4,1.1c0.4,0.5,1,0.9,1.6,1.1c0.5,0.1,1,0.3,1.4,0.4c0.1,0,0.2,0,0.3,0.1c0.5,0.1,1,0.2,1.5,0.5c0,0,0,0,0.1,0
	s0.1,0.1,0.1,0.1c0.1,0.1,0.2,0.2,0.2,0.3c0,0.2,0.1,0.5,0,0.7c-0.1,0.2-0.2,0.4-0.3,0.6c-0.2,0.2-1,0.5-1.3,0.5H57
	c-0.3,0-0.6,0-0.9,0c-0.4,0-0.8-0.2-1.1-0.4c-0.5-0.4-0.9-0.8-1-1.4c0-0.1-0.1-0.3-0.3-0.1c-0.2,0-0.4,0.1-0.6,0.1
	c-0.1,0-0.3,0.1-0.4,0.1c-0.2,0-0.2,0.1-0.1,0.2c0.3,0.9,0.8,1.7,1.6,2.2c0.5,0.3,1.1,0.5,1.7,0.5c0.5,0,1.1,0,1.6-0.1
	c0.7-0.2,1.3-0.4,1.9-0.8l0.1-0.1c0.1,0,0.1-0.1,0.2-0.1c0.1-0.1,0.2-0.3,0.3-0.5c0-0.1,0.1-0.2,0.1-0.2c0.3-0.5,0.2-1,0.1-1.5
	c-0.1-0.5-0.4-0.9-0.8-1.2c-0.4-0.3-0.8-0.5-1.2-0.6c-0.6-0.2-1.3-0.3-1.9-0.4c-0.4-0.1-0.8-0.2-1.2-0.4c-0.2-0.1-0.3-0.2-0.4-0.4
	L54.6,8c0.1-0.6,0.7-1.2,1.4-1.2h0.1c0.1,0,0.2,0,0.3-0.1c0,0,0.2,0,0.3,0c0.1,0.1,0.2,0.1,0.4,0.1h0.1c0.3,0,0.9,0.4,1.1,0.7
	c0.2,0.2,0.4,0.5,0.5,0.8c0,0.1,0.1,0.1,0.2,0.1c0.2,0,0.4-0.1,0.6-0.1c0.1,0,0.3-0.1,0.4-0.1l0.1-0.1c0-0.1,0-0.2,0-0.3
	c-0.2-0.5-0.4-0.9-0.8-1.2c-0.2-0.2-0.4-0.3-0.6-0.4c-0.1-0.1-0.2-0.1-0.3-0.2c-0.2,0-0.3,0-0.5-0.1c-0.1,0-0.2-0.1-0.3-0.1
	C57.4,5.6,57.2,5.6,56.9,5.5z M35.3,5.7c0.3,0,0.5,0,0.8,0c0.2,0,0.3,0.1,0.3,0.3c0,0.1,0,0.1,0,0.2v0.1v7.9v0.1c0,0.1,0,0.1,0,0.2
	c0,0.2-0.1,0.3-0.3,0.3c-0.3,0-0.5,0-0.8,0c-0.1,0-0.2,0-0.4,0v-1.6c-0.1,0.1-0.2,0.2-0.3,0.3c-0.2,0.2-0.4,0.5-0.6,0.7
	c-0.3,0.3-0.7,0.5-1.1,0.7c-0.6,0.1-1.3,0.1-1.9,0c-0.5-0.1-0.9-0.3-1.3-0.6c-0.4-0.3-0.6-0.8-0.8-1.2c-0.1-0.4-0.2-0.9-0.2-1.3
	c0-1.3,0-2.6,0-3.9c0-0.5,0-1,0-1.4V6.4c0-0.1,0-0.2,0-0.3c0-0.2,0.1-0.3,0.3-0.3c0.3,0,0.6,0,0.9,0c0.1,0,0.2,0,0.4,0v0.5
	c0,0.4,0,0.9,0,1.3c0,1.1,0,2.3,0,3.4c0,0.5,0,1,0.1,1.5c0.1,0.6,0.5,1,1.1,1.2c0.4,0.1,0.7,0.2,1.1,0c0.1,0,0.2,0,0.3-0.1
	c0.1,0,0.1,0,0.2,0c0.5-0.1,0.8-0.4,1.1-0.8c0.1-0.1,0.1-0.1,0.2-0.2c0.3-0.3,0.5-1.1,0.6-1.6c0.1-0.6,0.1-1.1,0.1-1.7
	c0-0.2,0-0.4,0-0.7c0-0.6,0-1.1,0-1.7c0-0.2,0-0.5,0-0.7V5.7C35,5.7,35.1,5.7,35.3,5.7z M39.6,5.8h-1.5v9h1.5v-0.4
	c0-0.4,0-0.8,0-1.2c0-1,0-2,0-3c0-0.5,0.1-1,0.2-1.4c0.2-0.7,0.6-1.2,1.3-1.5C41.5,7.2,41.9,7,42.3,7c0.1,0,0.3,0,0.4,0
	c0.1,0,0.1,0,0.2,0c0-0.1,0-0.2,0-0.3c0-0.3,0-0.5,0-0.7c0-0.2-0.1-0.3-0.3-0.3c-0.3,0-0.5,0-0.8,0.1c-0.6,0.1-1.2,0.4-1.6,0.9
	c-0.2,0.2-0.3,0.4-0.4,0.6c-0.1,0.1-0.1,0.2-0.2,0.3V5.8z"/>
</svg>
