<?xml version="1.0" encoding="utf-8"?>
<!-- Generator: Adobe Illustrator 28.1.0, SVG Export Plug-In . SVG Version: 6.00 Build 0)  -->
<svg version="1.1" id="Capa_1" xmlns="http://www.w3.org/2000/svg" xmlns:xlink="http://www.w3.org/1999/xlink" x="0px" y="0px"
	 viewBox="0 0 117.1 20" style="enable-background:new 0 0 117.1 20;" xml:space="preserve">
<style type="text/css">
	.st0{fill:#274470;}
</style>
<path class="st0" d="M25.9,14.4c-3.8-1-3.8-3-3.8-4.1c0-1.9,2.3-3.6,5-3.6c2.5,0,5.2,1.1,5.2,4.2h-3.6c0-1-0.9-1.1-1.5-1.1
	c-0.8,0-1.4,0.4-1.4,1c0,0.4,0.4,0.7,1.1,1l2.2,0.6c3.1,0.9,3.5,2.9,3.5,3.7c0,2.7-2.9,4-5.5,4s-5.3-1.6-5.3-4.4h3.6
	c0,0.7,0.9,1.5,1.9,1.5c0.9,0,1.6-0.4,1.6-1.1c0-0.5-0.3-0.9-1.2-1.1C27.6,14.9,25.9,14.4,25.9,14.4z M38.6,19.7h-3.7V0h3.7v10.4
	l3-3.5h4.8l-5.3,5.6l6.4,7.1h-4.7l-4.3-5V19.7z M57.3,18.3c-0.8,1.2-2.7,1.7-3.7,1.7c-3.3,0-6.5-2.5-6.5-6.6c0-4.1,3.3-6.6,6.5-6.6
	c0.8,0,2.7,0.3,3.7,1.7V7h3.8v12.8h-3.8L57.3,18.3L57.3,18.3z M54.3,16.3c1.6,0,3.1-1.1,3.1-3s-1.5-3-3.1-3s-3.2,1.2-3.2,3
	S52.7,16.3,54.3,16.3z M68.4,19.7h-3.8V7h3.8v1.9c0.7-1.3,2.2-2.1,3.7-2.1c2.9,0,4.7,1.8,4.7,5.4v7.6h-3.8v-6.8
	c0-1.7-0.9-2.5-2.2-2.5c-1.4,0-2.4,0.6-2.4,2.6L68.4,19.7L68.4,19.7z M89.3,19.7v-1.6c-0.6,1.2-2.2,1.9-3.7,1.9
	c-3.3,0-6.2-2.6-6.2-6.6c0-4,2.9-6.7,6.2-6.7c1.6,0,3.1,0.6,3.7,1.8V0h3.8v19.7H89.3z M86.3,10.2c-1.6,0-3,1.2-3,3s1.4,3.1,3,3.1
	c1.6,0,3-1.2,3-3.1S87.8,10.2,86.3,10.2z M98.5,0c1.3,0,2.3,1,2.3,2.2c0,1.2-1,2.2-2.3,2.2c-1.3,0-2.4-1-2.4-2.2
	C96.1,1,97.2,0,98.5,0z M100.4,19.7h-3.8V7h3.8V19.7z M113.3,18.3c-0.8,1.2-2.7,1.7-3.7,1.7c-3.3,0-6.5-2.5-6.5-6.6
	c0-4.1,3.3-6.6,6.5-6.6c0.8,0,2.7,0.3,3.7,1.7V7h3.8v12.8h-3.8V18.3z M110.2,16.3c1.6,0,3.1-1.1,3.1-3s-1.5-3-3.1-3s-3.2,1.2-3.2,3
	C107,15.1,108.6,16.3,110.2,16.3z M0.5,6.7l12.6,12.6c0.9,0.9,2.3,0.3,2.3-1V6.4c0-1.1-0.9-2-2-2H1.5C0.3,4.4-0.3,5.8,0.5,6.7z
	 M0.8,19c1.8,1.8,4.9,0.5,4.9-2c0-1.6-1.3-2.9-2.9-2.9C0.3,14-1,17.2,0.8,19z"/>
</svg>
