<?xml version="1.0" encoding="utf-8"?>
<!-- Generator: Adobe Illustrator 28.1.0, SVG Export Plug-In . SVG Version: 6.00 Build 0)  -->
<svg version="1.1" id="Capa_1" xmlns="http://www.w3.org/2000/svg" xmlns:xlink="http://www.w3.org/1999/xlink" x="0px" y="0px"
	 viewBox="0 0 83.1 24" style="enable-background:new 0 0 83.1 24;" xml:space="preserve">
<style type="text/css">
	.st0{fill-rule:evenodd;clip-rule:evenodd;fill:#274470;}
</style>
<path class="st0" d="M3,19.7l1-3.2h4l0.9,3.2h3.4L8.7,7.6C8.5,6.7,8.1,6.5,7.3,6.5H2.4v1.1h0.4c0.7,0,0.9,0.1,0.9,0.6
	c0,0.2,0,0.4-0.2,1.1L0,19.7H3z M7.5,14.4h-3l1.6-5.3L7.5,14.4z M16.3,19.7V7.5c0-0.6-0.3-1-1-1h-3v1.1h0.2c0.6,0,0.8,0.2,0.8,0.8
	v11.3H16.3z M21.7,19.7V7.5c0-0.6-0.4-1-1-1h-3v1.1h0.2c0.5,0,0.8,0.2,0.8,0.8v11.3H21.7z M27.1,19.7v-8.9c0-0.6-0.4-1-0.9-1h-3.1
	v1.1h0.1c0.6,0,0.8,0.3,0.8,0.8v8H27.1z M27.2,7.7c0-0.9-0.6-1.4-1.8-1.4c-1.1,0-1.8,0.5-1.8,1.4c0,0.9,0.7,1.4,1.8,1.4
	C26.6,9.1,27.2,8.6,27.2,7.7z M30,12.5l0.3-0.1c0.8-0.3,1.2-0.5,1.8-0.5c0.3-0.1,0.7-0.1,0.9-0.1c0.9,0,1.3,0.3,1.3,1.2v0.2
	c-1.4,0.2-1.8,0.3-2.5,0.5c-0.5,0.1-0.8,0.2-1.2,0.4c-1.2,0.5-1.8,1.4-1.8,2.9c0,1.9,0.8,2.8,2.4,2.8c0.7,0,1.4-0.1,1.9-0.4
	c0.4-0.2,0.6-0.4,1.2-0.9v0.3c0,0.7,0.3,1,0.8,1h2.8v-1.1h-0.1c-0.5,0-0.8-0.2-0.8-0.8V13c0-2.5-0.8-3.4-3.4-3.4
	c-0.8,0-1.6,0.1-2.4,0.3c-0.8,0.1-1.1,0.3-2.1,0.8L30,12.5z M34.3,14.9v2c-0.6,0.6-1.2,0.9-1.8,0.9c-0.7,0-0.9-0.3-0.9-1.1
	c0-0.8,0.2-1.1,0.8-1.4C32.9,15.1,33.4,15.1,34.3,14.9z M42.6,19.7V13c0.7-0.6,1.1-0.8,1.8-0.8c0.7,0,0.9,0.3,0.9,1.3v6.3h2.9V13
	c0-1.4-0.2-2-0.5-2.5c-0.5-0.5-1.1-0.8-1.9-0.8c-1.1,0-2.1,0.4-3.4,1.5v-0.5c0-0.6-0.2-0.9-0.8-0.9h-3v1.1h0.2
	c0.6,0,0.8,0.3,0.8,0.8v8H42.6z M53,17.8l4.3-5.9v-2h-6.4c-0.8,0-1.1,0.3-1.1,1.1v1.8h1.1v-0.2c0-0.5,0.2-0.8,0.8-0.8h2.4l-4.3,5.9
	v2.1h7.7v-2H53z M83.1,13.7c0-5.9-4.5-10.3-10.5-10.3S62.2,7.7,62.2,13.7c0,5.9,4.4,10.3,10.4,10.3C78.7,24,83.1,19.6,83.1,13.7z
	 M81.4,13.7c0,5-3.7,8.7-8.8,8.7c-5,0-8.6-3.7-8.6-8.7C64,8.6,67.6,5,72.6,5C77.7,5,81.4,8.6,81.4,13.7z M69.8,19.1V9.8h-1.5
	c-0.8,0-1.2,0.4-1.2,1.2v8.1H69.8z M75.5,19.1h2.7V11c0-0.8-0.3-1.2-1.2-1.2h-1.5V19.1z M74,19.1V8.4c0-0.9-0.3-1.2-1.2-1.2h-2.5
	v1.2h0.3c0.6,0,0.7,0.1,0.7,0.7v10H74z M33.5,2.5H32l-0.4,0.9h-0.5l1.3-3.2h0.5l1.3,3.2h-0.5L33.5,2.5z M33.3,2.1l-0.6-1.4l-0.6,1.4
	H33.3z M36.9,1.1v2.3h-0.3V3c-0.2,0.3-0.5,0.4-0.8,0.4c-0.6,0-0.9-0.4-0.9-1V1.1h0.4v1.3c0,0.5,0.2,0.7,0.6,0.7
	c0.4,0,0.7-0.3,0.7-0.7V1.1H36.9z M39.1,3.3c-0.1,0-0.3,0.1-0.4,0.1c-0.5,0-0.7-0.2-0.7-0.7V1.5h-0.4V1.1H38V0.5l0.4-0.1v0.7h0.7
	v0.4h-0.7v1.2c0,0.3,0.1,0.4,0.3,0.4c0.1,0,0.2,0,0.3,0L39.1,3.3z M39.6,2.2c0-0.7,0.5-1.2,1.2-1.2S42,1.5,42,2.2s-0.5,1.2-1.2,1.2
	S39.6,2.9,39.6,2.2z M41.7,2.2c0-0.5-0.3-0.8-0.8-0.8s-0.8,0.3-0.8,0.8S40.4,3,40.9,3C41.3,3.1,41.7,2.7,41.7,2.2z M44.2,1.1
	l-0.1,0.4c-0.1,0-0.2,0-0.2,0c-0.4,0-0.6,0.2-0.6,0.7v1.2h-0.4V1.1h0.4v0.4c0.1-0.3,0.4-0.4,0.6-0.4C44,1.1,44.1,1.1,44.2,1.1z
	 M44.8,0.3c0-0.2,0.1-0.3,0.3-0.3s0.3,0.1,0.3,0.3s-0.1,0.3-0.3,0.3S44.8,0.5,44.8,0.3z M45.3,1.1v2.3h-0.4V1.1H45.3z M48,3v0.4h-2
	V3.1l1.4-1.6h-1.3V1.1H48v0.3L46.6,3H48z M48.6,2.2c0-0.7,0.5-1.2,1.1-1.2c0.4,0,0.7,0.1,0.9,0.4V1.1H51v2.3h-0.4V3
	c-0.2,0.3-0.5,0.4-0.9,0.4C49.1,3.4,48.6,2.9,48.6,2.2z M50.6,2.2c0-0.5-0.3-0.8-0.8-0.8S49,1.7,49,2.2S49.3,3,49.8,3
	C50.3,3.1,50.6,2.7,50.6,2.2z M54.2,0v3.4h-0.4V3c-0.2,0.3-0.5,0.4-0.9,0.4c-0.7,0-1.1-0.5-1.1-1.2S52.3,1,52.9,1
	c0.3,0,0.6,0.1,0.8,0.4V0H54.2z M53.8,2.2c0-0.5-0.3-0.8-0.8-0.8s-0.8,0.3-0.8,0.8S52.5,3,53,3C53.5,3.1,53.8,2.7,53.8,2.2z M55,2.2
	C55,1.5,55.5,1,56.2,1c0.7,0,1.2,0.5,1.2,1.2s-0.5,1.2-1.2,1.2C55.5,3.4,55,2.9,55,2.2z M57,2.2c0-0.5-0.3-0.8-0.8-0.8
	s-0.8,0.3-0.8,0.8S55.7,3,56.2,3C56.7,3.1,57,2.7,57,2.2z M2,0.2h1c1.2,0,1.8,0.7,1.8,1.6c0,1-0.6,1.6-1.8,1.6H2V0.2z M3,3
	c0.9,0,1.3-0.5,1.3-1.2S3.9,0.6,3,0.6H2.4V3H3z M5.5,0.3C5.5,0.1,5.6,0,5.8,0s0.3,0.1,0.3,0.3S6,0.6,5.8,0.6S5.5,0.5,5.5,0.3z
	 M6,1.1v2.3H5.6V1.1H6z M6.9,2.9C7.1,3,7.3,3.1,7.5,3.1c0.4,0,0.6-0.1,0.6-0.3c0-0.5-1.3-0.2-1.3-1.1C6.8,1.3,7.1,1,7.7,1
	C8,1,8.3,1.1,8.4,1.2L8.3,1.6C8.1,1.5,7.9,1.4,7.7,1.4c-0.3,0-0.5,0.1-0.5,0.3c0,0.5,1.3,0.2,1.3,1c0,0.4-0.4,0.7-1,0.7
	c-0.3,0-0.6-0.1-0.8-0.2L6.9,2.9z M10.5,3.3c-0.1,0-0.3,0.1-0.4,0.1c-0.5,0-0.7-0.2-0.7-0.7V1.5H9V1.1h0.4V0.5l0.4-0.1v0.7h0.7v0.4
	H9.8v1.2c0,0.3,0.1,0.4,0.3,0.4c0.1,0,0.2,0,0.3,0L10.5,3.3z M12.5,1.1l-0.1,0.4c-0.1,0-0.2,0-0.2,0c-0.4,0-0.6,0.2-0.6,0.7v1.2
	h-0.4V1.1h0.4v0.4c0.1-0.3,0.4-0.4,0.6-0.4C12.3,1.1,12.4,1.1,12.5,1.1z M13.1,0.3c0-0.2,0.1-0.3,0.3-0.3c0.2,0,0.3,0.1,0.3,0.3
	s-0.1,0.3-0.3,0.3C13.2,0.6,13.1,0.5,13.1,0.3z M13.6,1.1v2.3h-0.4V1.1H13.6z M16.9,2.2c0,0.7-0.5,1.2-1.1,1.2
	c-0.4,0-0.6-0.1-0.9-0.4v0.4h-0.3V0H15v1.4C15.2,1.2,15.5,1,15.8,1C16.5,1,16.9,1.5,16.9,2.2z M16.5,2.2c0-0.5-0.3-0.8-0.8-0.8
	s-0.8,0.3-0.8,0.8S15.2,3,15.7,3C16.2,3,16.5,2.7,16.5,2.2z M19.8,1.1v2.3h-0.4V3c-0.2,0.3-0.5,0.4-0.8,0.4c-0.6,0-0.9-0.4-0.9-1
	V1.1h0.4v1.3c0,0.5,0.2,0.7,0.6,0.7s0.7-0.3,0.7-0.7V1.1H19.8z M20.7,0.3C20.7,0.1,20.8,0,21,0c0.2,0,0.3,0.1,0.3,0.3
	S21.2,0.6,21,0.6C20.8,0.6,20.7,0.5,20.7,0.3z M21.2,1.1v2.3h-0.4V1.1H21.2z M24.4,0v3.4H24V3c-0.2,0.3-0.5,0.4-0.9,0.4
	c-0.7,0-1.1-0.5-1.1-1.2S22.5,1,23.1,1c0.3,0,0.6,0.1,0.8,0.4V0H24.4z M23.9,2.2c0-0.5-0.3-0.8-0.8-0.8s-0.8,0.3-0.8,0.8
	S22.6,3,23.1,3C23.6,3,23.9,2.7,23.9,2.2z M25.2,2.2c0-0.7,0.4-1.2,1.2-1.2c0.7,0,1.2,0.5,1.2,1.2s-0.5,1.2-1.2,1.2
	C25.6,3.4,25.2,2.9,25.2,2.2z M27.2,2.2c0-0.5-0.3-0.8-0.8-0.8s-0.8,0.3-0.8,0.8S25.9,3,26.4,3C26.9,3,27.2,2.7,27.2,2.2z M29.7,1.1
	l-0.1,0.4c-0.1,0-0.2,0-0.2,0c-0.4,0-0.6,0.2-0.6,0.7v1.2h-0.4V1.1h0.4v0.4c0.1-0.3,0.4-0.4,0.6-0.4C29.5,1.1,29.6,1.1,29.7,1.1z"/>
</svg>
