<?xml version="1.0" encoding="utf-8"?>
<!-- Generator: Adobe Illustrator 28.1.0, SVG Export Plug-In . SVG Version: 6.00 Build 0)  -->
<svg version="1.1" id="Capa_1" xmlns="http://www.w3.org/2000/svg" xmlns:xlink="http://www.w3.org/1999/xlink" x="0px" y="0px"
	 viewBox="0 0 48.6 30.1" style="enable-background:new 0 0 48.6 30.1;" xml:space="preserve">
<style type="text/css">
	.st0{fill:#274470;}
</style>
<path class="st0" d="M0,29l0.6-0.8c0.5,0.5,1.2,0.8,2,0.8c0.7,0,1.1-0.3,1.1-0.8c0-0.4-0.3-0.7-1.4-1c-1.3-0.3-2.1-0.7-2.1-1.9
	c0-1.1,0.9-1.8,2.2-1.8c0.9,0,1.7,0.3,2.3,0.8l-0.6,0.9c-0.5-0.4-1.1-0.6-1.7-0.6s-1,0.3-1,0.7c0,0.5,0.3,0.7,1.5,1
	c1.3,0.3,2,0.8,2,1.9c0,1.2-1,1.9-2.2,1.9C1.7,30,0.7,29.6,0,29z M6.9,23.5h4.7v1H8v1.7h3.2v1H8v1.7h3.6v1H6.9V23.5z M13.2,26.7
	c-0.1-1.8,1.4-3.3,3.2-3.3c0.1,0,0.1,0,0.2,0c0.9-0.1,1.8,0.3,2.5,0.9l-0.7,0.8c-0.5-0.4-1.1-0.7-1.8-0.7c-1.2,0.1-2.1,1-2,2.2v0.1
	c-0.1,1.2,0.8,2.2,2,2.2c0.1,0,0.1,0,0.1,0c0.5,0,1.1-0.2,1.6-0.5v-1.2h-1.6v-1h2.7V29c-0.7,0.6-1.7,1-2.7,1c-1.7,0.1-3.2-1.3-3.3-3
	C13.2,27,13.2,26.8,13.2,26.7z M21.2,27.2v-3.7h1.1v3.6c0,1.2,0.6,1.8,1.6,1.8c1,0,1.6-0.6,1.6-1.8v-3.6h1.1v3.6
	c0,1.9-1.1,2.8-2.7,2.8C22.2,29.9,21.2,29,21.2,27.2z M28.8,23.5h2.8c0.7-0.1,1.3,0.2,1.8,0.6c0.4,0.4,0.5,0.9,0.5,1.4
	c0.1,0.9-0.6,1.7-1.5,1.9l1.7,2.4h-1.3l-1.6-2.2h-1.4v2.2h-1.1V23.5z M31.6,26.7c0.8,0,1.3-0.4,1.3-1.1c0-0.7-0.5-1.1-1.3-1.1h-1.6
	v2.1H31.6z M35.6,26.7c0-1.8,1.5-3.3,3.3-3.3c1.8,0,3.3,1.5,3.3,3.3c0,1.8-1.5,3.3-3.3,3.3C37.1,30.1,35.6,28.6,35.6,26.7z
	 M41.1,26.7c0.1-1.2-0.9-2.2-2.1-2.2h-0.1c-1.2,0-2.1,1-2.1,2.1c0,0.1,0,0.1,0,0.1c-0.1,1.2,0.9,2.2,2.1,2.2h0.1
	c1.2,0,2.1-0.9,2.1-2.1C41.1,26.8,41.1,26.8,41.1,26.7z M43.7,29l0.7-0.8c0.5,0.5,1.2,0.8,2,0.8c0.7,0,1.1-0.3,1.1-0.8
	c0-0.4-0.3-0.7-1.4-1c-1.3-0.3-2.1-0.7-2.1-1.9c0-1.1,0.9-1.8,2.1-1.8c0.9,0,1.7,0.3,2.3,0.8l-0.6,0.8c-0.5-0.4-1.1-0.6-1.7-0.6
	c-0.6,0-1,0.3-1,0.7c0,0.5,0.3,0.7,1.5,1c1.3,0.3,2,0.8,2,1.9c0,1.2-1,1.9-2.2,1.9C45.3,30,44.4,29.6,43.7,29z M21.8,19.2H29
	c7.8,0,11.7-4,11.7-9.7V9.4C40.6,3.7,36.8,0,29.1,0h-7.3V19.2z M28.2,14V5.2h1.1c2.9,0,4.8,1.3,4.8,4.3v0.1c0,3-1.9,4.3-4.8,4.3
	H28.2z M42.2,19.2h6.4V0h-6.4V19.2z M6.4,12.8h6.4V6.4H6.4V12.8z M12.8,19.2h6.4V0h-6.4V19.2z M0,19.2h6.4V0H0V19.2z"/>
</svg>
