<?xml version="1.0" encoding="utf-8"?>
<!-- Generator: Adobe Illustrator 28.1.0, SVG Export Plug-In . SVG Version: 6.00 Build 0)  -->
<svg version="1.1" id="Capa_1" xmlns="http://www.w3.org/2000/svg" xmlns:xlink="http://www.w3.org/1999/xlink" x="0px" y="0px"
	 viewBox="0 0 113.4 34.6" style="enable-background:new 0 0 113.4 34.6;" xml:space="preserve">
<style type="text/css">
	.st0{fill-rule:evenodd;clip-rule:evenodd;fill:#274470;}
</style>
<path class="st0" d="M1.2,17.2c0,5.1,0,10.2,0,15.2c0,0.8,0,0.8,0.9,0.8c9.9,0,19.8,0,29.7,0c0.9,0,0.9,0,0.9-0.8
	c0-10.1,0-20.3,0-30.4c0-0.8,0-0.8-0.9-0.8c-9.9,0-19.8,0-29.7,0c-0.9,0-0.9,0-0.9,0.8C1.2,7.2,1.2,12.2,1.2,17.2z M33.7,17.3
	c0,5.5,0,11,0,16.4c0,0.8,0,0.9-0.9,0.9c-10.7,0-21.4,0-32,0c-0.9,0-0.9,0-0.9-0.9c0-11,0-21.9,0-32.9C0,0,0,0,0.9,0
	c10.7,0,21.4,0,32,0c0.9,0,0.9,0,0.9,0.9C33.7,6.3,33.7,11.8,33.7,17.3z M51.7,14.6c0.1-0.9,0-1.6-0.1-2.5c-0.2-1.9-0.7-3.8-1.9-5.3
	c-1.6-2-4.2-2-5.8,0c-0.7,0.9-1.1,1.8-1.4,2.8c-0.8,2.6-0.8,5.2-0.5,7.8c0.2,1.8,0.8,3.6,2,5c0.7,0.9,1.6,1.3,2.7,1.3
	c1.7,0,2.7-0.9,3.5-2.4C51.4,19.3,51.6,16.9,51.7,14.6z M39.3,14.1c0-2.6,0.9-5.4,2.6-7.7c1.9-2.4,4.6-3.1,7.2-1.9
	c1.7,0.9,2.8,2.3,3.6,3.9c1.9,4.3,1.9,8.6-0.3,12.9c-0.9,1.7-2.1,3-4,3.7c-0.6,0.2-0.2,0.5,0,0.6c1.5,1.2,3.3,1.9,5.2,2.2
	c1.8,0.2,3.3-0.3,4.7-1.4c0.3-0.3,0.7-0.7,1.2-0.3c0.4,0.3,0.3,0.8-0.1,1.3c-1.8,2.6-5,3.5-7.9,2.2c-2-0.9-3.7-2-4.7-3.8
	c-0.1-0.2-0.3-0.4-0.6-0.5c-2.2-0.2-3.7-1.5-4.8-3.2C40.1,19.8,39.3,17.1,39.3,14.1z M64.9,16.5c0,1.7,0,3.3,0,5
	c0,0.6,0.1,1,0.8,1.2c0.4,0.1,0.5,0.7,0,0.9c-0.7,0.4-1.2,0.8-1.8,1.2c-0.3,0.3-0.7,0.2-0.9-0.3c-0.1-0.3-0.1-0.6-0.1-0.8
	c-0.1-0.4-0.3-0.5-0.6-0.2c-0.2,0.2-0.4,0.4-0.6,0.6c-1.1,1.1-2.7,1.1-4,0.1c-1.1-1-1.5-2.4-1.5-3.8c0-2.6,0-5.3,0-7.9
	c0-0.9,0-0.9-0.9-1.2c-0.3-0.1-0.5-0.3-0.5-0.6s0.3-0.5,0.6-0.5c0.7-0.1,1.4-0.1,2.1,0c0.6,0.1,0.8,0.5,0.8,1c0,2.1,0,4.2,0,6.2
	c0,1.2,0.1,2.6,0.3,3.8c0.1,0.9,0.5,1.5,1.4,1.8c0.9,0.3,1.8-0.1,2.4-0.9c0.6-0.7,0.8-1.4,0.8-2.3c0-2.5,0-5,0-7.5
	c0-0.6-0.3-1-0.8-1.2c-0.3-0.1-0.6-0.3-0.5-0.7c0.1-0.4,0.5-0.5,0.8-0.5c0.5,0,0.9,0,1.3,0c0.8,0,1.1,0.4,1.1,1.1
	C64.9,13.1,64.9,14.8,64.9,16.5z M101.4,19.2c0-0.5,0-0.8,0-1.1c0-0.2,0-0.4-0.2-0.5c-0.2-0.1-0.4,0.1-0.6,0.2
	c-0.6,0.4-1.1,0.9-1.7,1.3c-0.8,0.8-1.1,1.5-1,2.6c0.1,1.4,0.9,1.9,2.2,1.3c0.4-0.2,0.7-0.5,0.9-0.9
	C101.4,21.1,101.5,20.1,101.4,19.2z M103.5,17.2c0,1.4,0,2.9,0,4.3c0,0.2,0,0.5,0.1,0.7c0.1,0.8,0.4,0.8,0.9,0.3
	c0.2-0.2,0.4-0.3,0.6-0.1c0.2,0.1,0.3,0.3,0.2,0.5c-0.4,0.9-0.8,1.6-1.8,1.9c-0.7,0.2-1.1,0-1.4-0.7c-0.6-1.1-0.6-1.1-1.5-0.3
	c-0.2,0.1-0.3,0.3-0.5,0.4c-1.2,0.9-2.2,0.9-3.2,0.3C96,23.9,95.8,23,96,21.6c0.3-1.4,1.2-2.5,2.3-3.4c0.9-0.8,1.8-1.3,2.7-2
	c0.3-0.2,0.5-0.5,0.5-0.9c0-1.1,0-2.3,0-3.4c0-1-0.6-1.4-1.6-1.1c-0.6,0.2-1,0.6-1.3,1c-0.2,0.5-0.4,1-0.6,1.5
	c-0.2,0.5-0.4,0.9-0.9,1.3c-0.3,0.2-0.6,0.3-0.9,0.1c-0.3-0.2-0.5-0.4-0.5-0.8c0-0.5,0.2-0.9,0.4-1.2c0.5-0.9,1-1.6,1.8-2.2
	c1-0.9,2.3-1.2,3.7-0.9c0.5,0.1,0.9,0.4,1.1,0.8c0.5,0.7,0.8,1.4,0.8,2.3C103.5,14.3,103.5,15.8,103.5,17.2z M72.6,19.2
	c0-0.6,0-0.9,0-1.4c0-0.4-0.1-0.5-0.5-0.3c-0.7,0.5-1.3,0.9-1.9,1.5c-0.9,0.8-1.1,1.6-1.1,2.6c0.1,1.3,0.9,1.8,2.1,1.2
	c0.5-0.2,0.8-0.6,0.9-0.9C72.6,21.1,72.7,20,72.6,19.2z M74.7,17.4c0,1.4,0,2.9,0,4.3c0,0.3,0,0.5,0.1,0.8c0.1,0.5,0.4,0.6,0.8,0.2
	c0.2-0.2,0.4-0.5,0.7-0.2c0.3,0.2,0.2,0.6,0,0.8c-0.4,0.7-0.8,1.3-1.6,1.5c-0.8,0.2-1.2,0-1.5-0.7c0-0.1-0.1-0.2-0.1-0.2
	c-0.4-0.8-0.5-0.9-1.1-0.3c-0.5,0.4-0.9,0.7-1.4,0.9c-0.9,0.5-1.8,0.4-2.6-0.2c-0.9-0.6-0.9-1.3-0.9-2.2c0.2-2,1.5-3.3,3-4.4
	c0.8-0.6,1.4-1,2.2-1.5c0.3-0.2,0.5-0.5,0.5-0.9c0-1.1,0-2.4,0-3.5c0-0.9-0.5-1.3-1.4-1.1c-0.7,0.1-1.2,0.6-1.5,1.2
	c-0.3,0.6-0.5,1.1-0.7,1.7c-0.2,0.4-0.4,0.7-0.7,0.9c-0.3,0.3-0.6,0.4-0.9,0.2c-0.4-0.2-0.5-0.5-0.5-0.8c0-0.1,0-0.3,0.1-0.4
	c0.7-1.6,1.6-3,3.3-3.8c0.7-0.3,1.4-0.4,2.3-0.3c0.7,0.1,1.1,0.5,1.5,1c0.4,0.7,0.6,1.4,0.6,2.3C74.7,14.5,74.7,15.9,74.7,17.4z
	 M80.9,12.9c0,3.1,0,6.2,0,9.3c0,0.7,0.2,1.1,0.9,1.3c0.3,0.1,0.6,0.2,0.5,0.6c-0.1,0.4-0.4,0.7-0.9,0.5c-1.1-0.3-2.2-0.1-3.3,0
	c-0.4,0-0.8,0-0.9-0.5c-0.1-0.5,0.3-0.7,0.7-0.7c0.5-0.1,0.7-0.4,0.8-0.9c0-0.3,0-0.5,0-0.8c0-5.4,0-10.8,0-16.1
	c0-0.6-0.1-0.9-0.8-0.9c-0.3,0-0.4-0.2-0.4-0.5c0-0.3,0.1-0.5,0.3-0.6c0.2-0.1,0.4-0.2,0.7-0.2c0.5-0.1,0.9-0.3,1.2-0.7
	c0.2-0.2,0.5-0.5,0.9-0.3c0.4,0.2,0.4,0.5,0.4,0.9C80.9,6.5,80.9,9.7,80.9,12.9z M106.1,21.8c0-0.5,0-0.9,0-1.4
	c0-0.3,0.1-0.7,0.5-0.7c0.4-0.1,0.5,0.3,0.6,0.6c0.1,0.3,0.1,0.7,0.2,0.9c0.1,0.4,0.2,0.9,0.3,1.2c0.4,1.2,0.7,1.4,1.8,1.4
	c1,0,1.9-0.7,2.1-1.6c0.4-1.8,0.1-3-1.6-4c-0.9-0.5-1.7-0.9-2.4-1.7c-1.2-1.2-1.5-3.1-0.8-4.7c0.8-1.6,2.1-2.3,3.8-2.3
	c1.5,0,2.3,0.8,2.3,2.3c0,0.4,0,0.8-0.1,1.1c-0.1,0.5-0.4,0.5-0.8,0.2c-0.3-0.3-0.4-0.6-0.4-0.9c-0.2-0.9-1-1.6-1.9-1.5
	c-0.9,0.1-1.4,0.8-1.5,1.8c-0.1,1.2,0.4,2.1,1.4,2.7c0.9,0.6,1.8,1.1,2.6,1.9c2.2,2.2,1.4,6.6-1.4,7.7c-1.4,0.5-2.7,0.4-4-0.4
	c-0.5-0.3-0.8-0.8-0.7-1.2C106.1,22.7,106,22.3,106.1,21.8z M90,17.3c0-1.6,0-3.2,0-4.9c0-0.4-0.1-0.7-0.6-0.7
	c-0.5,0-0.6-0.4-0.4-0.8c0.1-0.2,0.2-0.4,0.3-0.5c0.8-0.8,1.3-1.6,1.8-2.6c0.1-0.1,0.2-0.5,0.6-0.4c0.4,0.1,0.5,0.4,0.5,0.8
	c0,0.5,0,0.9,0,1.4c0,0.4,0.1,0.6,0.6,0.6c0.4,0,0.8,0,1.1,0c0.5,0,0.9,0.2,0.9,0.7s-0.3,0.8-0.8,0.9c-0.4,0.1-0.8,0.1-1.2,0
	c-0.5,0-0.7,0.1-0.7,0.6c0,3.2,0,6.4,0,9.6c0,0.5,0,0.9,0.6,1.2c0.5,0.2,0.9,0,1.4-0.4c0.1-0.1,0.3-0.3,0.4-0.4
	c0.2-0.1,0.3-0.3,0.5-0.2c0.2,0.1,0.2,0.4,0.1,0.6c-0.1,0.8-1.2,1.9-2.1,2.1c-0.9,0.2-2.2-0.4-2.6-1.1c-0.3-0.6-0.5-1.1-0.5-1.7
	C90,20.5,90,18.9,90,17.3z M86.5,16.6c0,1.9,0,3.7,0,5.6c0,0.6,0.2,0.9,0.8,1.2c0.3,0.1,0.8,0.2,0.6,0.7c-0.2,0.4-0.5,0.6-0.9,0.4
	c-0.9-0.3-2-0.1-2.9,0c-0.2,0-0.3,0-0.5,0c-0.3,0-0.6-0.1-0.6-0.5c0-0.3,0.1-0.6,0.4-0.6c1-0.2,1-0.9,1-1.7c0-2.7,0-5.4,0-8.1
	c0-0.5-0.1-0.8-0.7-0.9c-0.5-0.1-0.6-0.6-0.2-0.9c0.8-0.6,1.6-1.1,2.2-1.9c0.2-0.3,0.6-0.2,0.7,0.1c0.2,0.3,0.1,0.6,0.1,0.9
	C86.5,12.9,86.5,14.7,86.5,16.6z M75.3,4.2c0,0.4-0.2,0.8-0.5,0.9c-1.1,1.2-2.3,2.4-3.5,3.5c-0.2,0.2-0.5,0.2-0.7,0
	c-0.3-0.2-0.1-0.4,0-0.5c1.1-1.5,2-3.1,3.2-4.5C74,3.4,74.2,3,74.6,3.2C74.9,3.4,75.3,3.9,75.3,4.2z M86.6,5c0,0.6-0.1,1-0.5,1.4
	c-0.4,0.4-0.9,0.4-1.3,0c-0.7-0.7-0.7-2.1-0.1-2.7c0.5-0.5,1-0.5,1.4,0C86.5,4.1,86.6,4.5,86.6,5z M10.8,13.1c0,0.8,0,1.7,0.1,2.6
	c0.4,2.7,2.8,5.1,5.6,5.2c3.1,0.1,5.8-2.3,6.1-5.3c0.2-1.5,0.1-3,0.1-4.4c0-0.7-0.1-1.3-0.4-2c-0.9-3-4-4.8-6.9-4.1
	c-2.4,0.6-3.7,2.2-4.3,4.4C10.7,10.6,10.8,11.8,10.8,13.1z M5.6,12.6c0.2-3.2,2-6,5.2-7.8c4.5-2.6,10.7-1.9,14.5,1.8
	c3.6,3.5,3.8,8.8,0.5,12.6c-4.7,5.3-13.9,5-18.2-0.6C6.2,16.9,5.6,15,5.6,12.6z M20.8,31.6c-0.6,0-1.2-0.4-1.8-0.9
	c-2.5-1.8-5.1-3.5-7.8-5.1c-1.7-1-3.5-1.9-5.2-2.7c-0.7-0.4-0.9-0.8-0.6-1.3c0.2-0.4,0.5-0.5,0.9-0.4c0.4,0.1,0.7,0.3,1,0.4
	c2.7,1.3,5.5,2.7,8.4,3.8c3.8,1.3,7.6,1.3,11.1-0.9c0.1-0.1,0.2-0.1,0.3-0.1c0.5-0.1,0.9-0.3,1.2,0.2c0.3,0.4,0.1,0.8-0.2,1.1
	c-0.6,0.6-1.2,1-1.8,1.6c-1.3,1-2.4,2.5-3.6,3.6C22.2,31.2,21.7,31.6,20.8,31.6z"/>
</svg>
