<?xml version="1.0" encoding="utf-8"?>
<!-- Generator: Adobe Illustrator 28.1.0, SVG Export Plug-In . SVG Version: 6.00 Build 0)  -->
<svg version="1.1" id="Capa_1" xmlns="http://www.w3.org/2000/svg" xmlns:xlink="http://www.w3.org/1999/xlink" x="0px" y="0px"
	 viewBox="0 0 140.4 13.1" style="enable-background:new 0 0 140.4 13.1;" xml:space="preserve">
<style type="text/css">
	.st0{fill-rule:evenodd;clip-rule:evenodd;fill:#274470;}
</style>
<path class="st0" d="M20.3,2.3V0H3.8C1.3,0,0,1.1,0,3v7.1c0,1.9,1.3,3,3.8,3h16.5v-2.3H2.9V2.3H20.3z M31.3,5.3V0h-2.8v13.1h2.8V7.6
	h15V13h2.8V0h-2.8v5.3H31.3z M76.4,0v10.8H61.6V0h-2.8v10.1c0,1.9,1.3,3,3.8,3h12.8c2.5,0,3.8-1.1,3.8-3V0H76.4z M106.2,13.1
	c2.8,0,4-1,4-2.7V8.8c0-0.5-0.2-0.7-0.6-1l-1.8-1.3l1.8-1.3c0.4-0.3,0.6-0.5,0.6-1V2.7c0-1.7-1.3-2.7-4-2.7H88.9v13.1H106.2z
	 M91.7,5.4h15.6V2.2H91.7V5.4z M91.7,10.9h15.6V7.6H91.7V10.9z M136.4,13.1c2.8,0,4-1,4-2.7V8.8c0-0.5-0.2-0.7-0.6-1L138,6.5
	l1.8-1.3c0.4-0.3,0.6-0.5,0.6-1V2.7c0-1.7-1.3-2.7-4-2.7h-17.3v13.1H136.4z M121.9,5.4h15.6V2.2h-15.6V5.4z M121.9,10.9h15.6V7.6
	h-15.6V10.9z"/>
</svg>
