<?xml version="1.0" encoding="utf-8"?>
<!-- Generator: Adobe Illustrator 28.1.0, SVG Export Plug-In . SVG Version: 6.00 Build 0)  -->
<svg version="1.1" id="Capa_1" xmlns="http://www.w3.org/2000/svg" xmlns:xlink="http://www.w3.org/1999/xlink" x="0px" y="0px"
	 viewBox="0 0 55.1 35" style="enable-background:new 0 0 55.1 35;" xml:space="preserve">
<style type="text/css">
	.st0{fill-rule:evenodd;clip-rule:evenodd;fill:#274470;}
</style>
<path class="st0" d="M49.6,11c3.1,0,5.5-2.4,5.5-5.5S52.7,0,49.6,0s-5.5,2.5-5.5,5.5S46.5,11,49.6,11z M48.4,16.5
	c-11-2.9-26.5-1.8-31.2-0.7c-1.5,0.4-1.5,0.8-1,1.1c0.8,0.5,6.4,0.9,7.2,0.9c0.4,0,1.4,0,2.5,0.1c1.6,0.1,3.4,0.1,4.5,0.1
	c1.8,0,8.5,0.3,11.4,0.7H42c2.6,0.4,3.9,0.5,5.2,1.3c1.5,0.9,0,2.2-1.3,3.1c-1.1,0.7-4.8,2.4-6.8,3.1c-1.7,0.6-9.5,3.3-11.9,4.1
	c-2.5,0.8-7.1,2.4-8.8,3.3C17.5,34.3,16.6,35,18,35c1.7,0,4.6-0.5,6.6-0.9c0.3-0.1,0.5-0.1,0.8-0.2c2.1-0.4,8.3-2,11.7-3.1
	c3.6-1.1,8-2.5,13.2-5.1s4.7-4.6,4.7-4.6C54.5,18.3,50.1,17.1,48.4,16.5z M4.1,25.4l0.6-2.8l0.7,2.8H4.1z M6.5,20.2H3.2l-2.9,8.1
	h3.1l0.3-1.1h2.2l0.3,1.1h3.1L6.5,20.2z M25.4,22.6l-0.6,2.8h1.3L25.4,22.6z M23.8,20.2H27l2.8,8.1h-3.1l-0.3-1.1h-2.2L24,28.3h-3.1
	L23.8,20.2z M11.2,28.3v-8.1H14l2.5,4.1v-4.1h2.7v8.1h-2.8L14,24.1v4.2H11.2z M0.4,30.6H0c0,0.1,0,0.2,0,0.3C0,31,0.1,31,0.1,31
	c0.1,0,0.2,0.1,0.3,0.1s0.3,0,0.5,0s0.4,0,0.5,0s0.2,0,0.2-0.1c0.2,0.1,0.2,0,0.2,0c0-0.1,0.1-0.2,0.1-0.4c0-0.1,0-0.2,0-0.3
	c0-0.1-0.1-0.1-0.1-0.2c-0.1,0-0.1-0.1-0.2-0.1c-0.1,0-0.3,0-0.5,0s-0.4,0-0.5,0L0.4,30c0-0.1,0-0.1,0.1-0.1c0,0,0.2,0,0.4,0
	s0.3,0,0.4,0s0.1,0,0.1,0V30h0.4v-0.1c0-0.1,0-0.2,0-0.3c-0.1-0.1-0.2-0.1-0.3-0.1c-0.1,0-0.3,0-0.4,0c-0.3,0-0.5,0-0.6,0
	s-0.2,0.1-0.3,0.1C0.1,29.8,0,29.9,0,30.1c0,0.2,0,0.3,0.1,0.4c0,0,0.1,0.1,0.2,0.1S0.4,30.5,0.4,30.6c0.2-0.1,0.3-0.1,0.4-0.1
	s0.3,0,0.4,0s0.1,0,0.2,0v0.1c0,0.1,0,0.1-0.1,0.1H1.2c0,0-0.2,0-0.4,0S0.6,30.7,0.4,30.6L0.4,30.6C0.4,30.7,0.4,30.7,0.4,30.6z
	 M3.1,29.6h1.7v0.3H3.5v0.2h1.1v0.4H3.5v0.3h1.2v0.4H3.1V29.6z M7.9,30.3H6.8v0.3h0.6v0.1c0,0,0,0-0.1,0.1H7.3c0,0-0.2,0-0.3,0
	c-0.2,0-0.3,0-0.3,0H6.5c0,0,0-0.1-0.1-0.1c0-0.1,0-0.2,0-0.3c0-0.1,0-0.2,0-0.3s0-0.1,0.1-0.1c0,0,0.1,0,0.2,0s0.2,0,0.3,0
	s0.3,0,0.3,0s0.2,0,0.2,0s0,0,0,0.1h0.3c0-0.1,0-0.2,0-0.3s-0.1-0.2-0.2-0.3c-0.1,0-0.2,0-0.3-0.1c-0.1,0-0.3,0-0.4,0
	c-0.3,0-0.5,0-0.7,0c-0.2,0-0.3,0.1-0.3,0.2s0,0.1,0,0.2s0,0.2,0,0.4s0,0.4,0,0.4s0,0.2,0.1,0.2c0,0.1,0.1,0.1,0.1,0.1
	c0.1,0,0.2,0.1,0.3,0.1s0.3,0,0.5,0c0.2,0,0.3,0,0.4,0s0.2,0,0.3,0C7.9,31,8,30.8,8,30.6C7.9,30.6,7.9,30.5,7.9,30.3z M9.1,29.6h0.4
	v0.7c0,0.2,0,0.3,0,0.3c0,0.1,0.1,0.1,0.1,0.1c0.1,0,0.2,0,0.4,0c0.2,0,0.3,0,0.3,0c0.1,0,0.1,0,0.1-0.1c0,0,0,0,0-0.1
	c0,0,0-0.1,0-0.2s0-0.1,0-0.2v-0.7h0.4v0.7c0,0.3,0,0.4,0,0.4c0,0.1-0.1,0.2-0.2,0.3c-0.1,0-0.2,0.1-0.3,0.1c-0.1,0-0.3,0-0.5,0
	c-0.2,0-0.3,0-0.4,0c-0.1,0-0.2,0-0.3,0c-0.2,0-0.3-0.2-0.3-0.3s0-0.1,0-0.2c0-0.1,0-0.2,0-0.4v-0.5H9.1z M13.4,30.4h-0.6V30h0.6
	c0.1,0,0.2,0,0.2,0s0,0,0.1,0c0,0,0,0,0.1,0.1v0.1c0,0.1,0,0.1,0,0.1s0,0,0,0.1c0,0,0,0-0.1,0C13.6,30.4,13.5,30.4,13.4,30.4z
	 M12.2,29.6v1.5h0.4v-0.4h0.6c0.1,0,0.2,0,0.2,0h0.1v0.1c0,0,0,0.1,0,0.2v0.1H14v-0.2c0-0.1,0-0.2,0-0.3c0,0,0-0.1-0.1-0.1
	c0-0.1-0.1-0.1-0.2-0.1c0.1,0,0.2,0,0.2-0.1l0.1-0.1c0-0.1,0-0.1,0-0.3c0-0.1,0-0.3,0-0.3c0-0.1-0.1-0.1-0.1-0.2
	c-0.1,0-0.1-0.1-0.2-0.1c-0.1,0-0.2,0-0.4,0L12.2,29.6L12.2,29.6z M16.4,29.9c-0.3,0-0.3,0-0.4,0c-0.1,0-0.1,0.1-0.1,0.1
	c0,0.1,0,0.2,0,0.3s0,0.2,0,0.2c0,0.1,0.1,0.1,0.2,0.1c0.1,0,0.2,0,0.4,0c0.2,0,0.3,0,0.3,0c0.1,0,0.1,0,0.2-0.1l0.1-0.1
	c0,0,0-0.1,0-0.2s0-0.2,0-0.3c0-0.1,0-0.1,0-0.1L17,29.8C16.7,29.9,16.5,29.9,16.4,29.9z M16.4,29.6c0.4,0,0.5,0,0.7,0
	s0.3,0.1,0.4,0.3c0,0.1,0,0.3,0,0.5c0,0.3,0,0.4,0,0.5c0,0.2-0.2,0.3-0.4,0.3c-0.1,0-0.4,0-0.7,0c-0.3,0-0.5,0-0.7,0
	c-0.2,0-0.3-0.1-0.4-0.3c0-0.1,0-0.3,0-0.5c0-0.3,0-0.3,0-0.5c0-0.2,0.2-0.3,0.4-0.3C15.8,29.6,16,29.6,16.4,29.6z M19,30.6h-0.4
	c0,0.1,0,0.2,0,0.3c0,0.1,0.1,0.1,0.1,0.1c0.1,0,0.2,0.1,0.3,0.1s0.3,0,0.5,0c0.3,0,0.4,0,0.5,0c0.1,0,0.2,0,0.2-0.1
	c0.1,0,0.1-0.1,0.1-0.1c0-0.1,0.1-0.2,0.1-0.4c0-0.1,0-0.2,0-0.3s-0.1-0.1-0.1-0.2c-0.1,0-0.1-0.1-0.2-0.1s-0.3,0-0.5,0
	c-0.3,0-0.4,0-0.5,0l-0.1-0.1c0-0.1,0-0.1,0.1-0.1c0,0,0.2,0,0.4,0c0.2,0,0.3,0,0.4,0s0.1,0,0.1,0v0.1h0.4v-0.1c0-0.2,0-0.3-0.1-0.3
	c-0.1-0.1-0.2-0.1-0.3-0.1c-0.1,0-0.3,0-0.4,0c-0.3,0-0.5,0-0.6,0s-0.2,0.1-0.3,0.1c-0.1,0.1-0.1,0.2-0.1,0.3c0,0.2,0,0.3,0.1,0.4
	c0,0,0.1,0.1,0.2,0.1s0.2,0,0.3,0c0.1,0,0.2,0,0.4,0c0.2,0,0.3,0,0.4,0s0.1,0,0.2,0v0.1c0,0.1,0,0.1-0.1,0.1h-0.1c0,0-0.2,0-0.4,0
	C19.2,30.5,19.1,30.5,19,30.6L19,30.6C19,30.7,19,30.7,19,30.6z"/>
</svg>
