<?xml version="1.0" encoding="utf-8"?>
<!-- Generator: Adobe Illustrator 28.1.0, SVG Export Plug-In . SVG Version: 6.00 Build 0)  -->
<svg version="1.1" id="Capa_1" xmlns="http://www.w3.org/2000/svg" xmlns:xlink="http://www.w3.org/1999/xlink" x="0px" y="0px"
	 viewBox="0 0 57.5 17.8" style="enable-background:new 0 0 57.5 17.8;" xml:space="preserve">
<style type="text/css">
	.st0{fill:#274470;}
</style>
<path class="st0" d="M27.1,11.5c0-0.7,0.1-0.9-0.6-1.3L26,9.9V9.4h4.9v0.5l-0.5,0.2c-0.7,0.3-0.7,0.4-0.7,1.3v3.8l-0.2,0.2
	c-0.8,0.2-2.8,0.8-4.6,0.8c-4.1,0-6.1-2.2-6.1-7c0-5.2,2.8-7.4,6.6-7.4c1,0,2.8,0,4.1,1.1c0.4,0.4,0.5,0.8,0.5,1
	c0,0.3-0.1,0.4-0.1,0.5L29,6.2h-0.3c0-0.9-1-3.3-3.6-3.3c-3,0-3.2,2.2-3.2,6c0,3.3,0.3,6.3,4,6.3c1.2,0,1.4-0.7,1.4-1.4L27.1,11.5z
	 M32.1,15.5l0.9-0.4c0.7-0.3,0.7-0.8,0.7-2V4.4c0-0.7-0.2-1-0.7-1.4l-0.8-0.6V2h3.6L36,2.1c0.4,0.6,1.2,2.1,2.3,3.6l3.8,5.5
	c0.2,0.2,0.2,0.3,0.3,0.3c0.2,0,0.2-0.2,0.2-0.6V4.4c0-1,0-1.1-0.8-1.5l-1.1-0.5V2h4.5v0.5l-0.6,0.2c-0.8,0.4-1,0.6-1,1.9v8.2
	c0,1.2,0,2.5,0,2.9l-0.1,0.2h-1.1l-0.1-0.1c-0.2-0.2-1.2-1.7-2.3-3.2l-4.6-6.5c-0.3-0.4-0.4-0.5-0.5-0.5c-0.2,0-0.2,0.2-0.2,0.5v7.4
	c0,1,0,1.3,0.8,1.6l1.2,0.4V16h-4.6V15.5z M46.5,15.5l0.9-0.3c0.7-0.2,0.7-0.6,0.7-1.9v-9c0-1,0-1.2-0.7-1.5l-0.9-0.3V2H53
	c2.3,0,4.5,0.5,4.5,3.7c0,2.9-2.1,4.7-5.3,4.7c-0.1,0-0.3,0-0.4,0l-0.3-0.7l0.2-0.2c1.4,0,3.2-0.7,2.9-3.6c-0.2-2.3-0.8-2.7-2.6-2.7
	c-1.2,0-1.3,0.2-1.3,0.7v9.4c0,1.4,0,1.7,0.8,1.9l1,0.3V16h-6.1L46.5,15.5L46.5,15.5z M10.7,8.9c0,1.3-1,2.3-2.2,2.3s-2.2-1-2.2-2.3
	s1-2.3,2.2-2.3S10.7,7.6,10.7,8.9z M4.8,5H0l1,3.1h2.4c2.4,0,4.4-2,4.4-4.6V1L4.9,0L4.8,5L4.8,5z M4.8,12.8v5l3-1v-2.5
	c0-2.5-2-4.6-4.4-4.6H1l-1,3.1H4.8z M12.1,12.8h4.8l-1-3.1h-2.4c-2.4,0-4.4,2.1-4.4,4.6v2.5l2.9,1v-5H12.1z M12.2,5V0l-3,1v2.5
	c0,2.5,2,4.6,4.4,4.6H16L17,5H12.2z"/>
</svg>
