<?xml version="1.0" encoding="utf-8"?>
<!-- Generator: Adobe Illustrator 28.1.0, SVG Export Plug-In . SVG Version: 6.00 Build 0)  -->
<svg version="1.1" id="Capa_1" xmlns="http://www.w3.org/2000/svg" xmlns:xlink="http://www.w3.org/1999/xlink" x="0px" y="0px"
	 viewBox="0 0 53.4 28" style="enable-background:new 0 0 53.4 28;" xml:space="preserve">
<style type="text/css">
	.st0{fill:#274470;}
</style>
<path class="st0" d="M13.4,6.1L5.8,21.9h2.6l1.8-3.8h6.9l1.7,3.8h2.7L14.3,6.1H13.4z M13.8,10.5l2.4,5.3h-4.9L13.8,10.5z M26.6,21.9
	h-2.4V6.1h2.4V21.9z M39.4,13.7h6.7v0.5c0,1.2-0.1,2.2-0.4,3.1c-0.3,0.8-0.8,1.6-1.4,2.4c-1.5,1.6-3.4,2.5-5.7,2.5
	c-2.3,0-4.2-0.8-5.8-2.4c-1.6-1.6-2.4-3.5-2.4-5.7c0-2.2,0.8-4.2,2.5-5.8c1.6-1.6,3.6-2.4,6-2.4c1.3,0,2.5,0.2,3.6,0.7
	c1.1,0.5,2.1,1.3,3.1,2.4l-1.7,1.6c-1.3-1.7-3-2.6-4.9-2.6c-1.7,0-3.2,0.6-4.3,1.7c-1.2,1.1-1.7,2.5-1.7,4.2c0,1.7,0.6,3.2,1.9,4.3
	c1.2,1.1,2.5,1.6,3.9,1.6c1.2,0,2.3-0.4,3.2-1.2c1-0.8,1.5-1.7,1.6-2.8h-4L39.4,13.7L39.4,13.7z M0,28h53.4V0H0V28z M2.2,2.2h49
	v23.7h-49V2.2z"/>
</svg>
