<?xml version="1.0" encoding="utf-8"?>
<!-- Generator: Adobe Illustrator 28.1.0, SVG Export Plug-In . SVG Version: 6.00 Build 0)  -->
<svg version="1.1" id="Capa_1" xmlns="http://www.w3.org/2000/svg" xmlns:xlink="http://www.w3.org/1999/xlink" x="0px" y="0px"
	 viewBox="0 0 82.4 25" style="enable-background:new 0 0 82.4 25;" xml:space="preserve">
<style type="text/css">
	.st0{fill:#274470;}
</style>
<path class="st0" d="M27.2,7.6l-3.4,4.6h-0.4l-3.4-4.6v7.6h-2V4.7h2.3l3.3,4.5L27,4.7h2.3v10.5h-2L27.2,7.6L27.2,7.6z M40.2,4.7v6
	c0,3.1-1.9,4.7-4.6,4.7c-2.5,0-4.7-1.5-4.7-4.7v-6h2v6c0,1.9,1.1,2.9,2.7,2.9c1.6,0,2.6-1.1,2.6-2.9v-6H40.2z M61,4.7v6
	c0,3.1-1.9,4.7-4.6,4.7c-2.5,0-4.7-1.5-4.7-4.7v-6h2v6c0,1.9,1.1,2.9,2.7,2.9c1.6,0,2.6-1.1,2.6-2.9v-6H61z M72.1,4.7v6
	c0,3.1-1.9,4.7-4.6,4.7c-2.5,0-4.7-1.5-4.7-4.7v-6h2v6c0,1.9,1.1,2.9,2.7,2.9c1.6,0,2.6-1.1,2.6-2.9v-6H72.1z M80.5,7.2
	C80.1,6.6,79.1,6,78,6c-1.5,0-2.2,0.6-2.2,1.4c0,0.9,1.1,1.2,2.3,1.3c2.2,0.3,4.2,0.8,4.2,3.4c0,2.3-2.1,3.4-4.4,3.4
	c-2.2,0-3.8-0.7-4.6-2.6L75,12c0.5,1.2,1.7,1.7,3,1.7c1.2,0,2.4-0.4,2.4-1.6c0-1-1-1.4-2.4-1.5c-2.2-0.3-4.1-0.8-4.1-3.2
	c0-2.2,2.1-3.1,4.1-3.1c1.6,0,3.3,0.5,4.1,2.1L80.5,7.2z M44.9,6.5h-3.3V4.7c3,0,5.6,0,8.7,0v1.8h-3.3v8.7h-2L44.9,6.5L44.9,6.5z
	 M23.5,21.7l0.4-0.4c0.3,0.2,0.5,0.3,0.8,0.3c0.3,0,0.4-0.1,0.4-0.3v0c0-0.2-0.1-0.2-0.6-0.4c-0.6-0.1-0.9-0.3-0.9-0.9v0
	c0-0.5,0.4-0.9,1-0.9c0.4,0,0.8,0.1,1.1,0.4l-0.3,0.5c-0.3-0.2-0.5-0.3-0.7-0.3s-0.4,0.1-0.4,0.2v0c0,0.2,0.1,0.2,0.6,0.4
	c0.6,0.1,0.9,0.4,0.9,0.9v0c0,0.6-0.4,0.9-1,0.9C24.3,22.2,23.8,22,23.5,21.7z M27.9,19.3h0.6l1.2,2.9h-0.7l-0.3-0.6h-1.2l-0.3,0.6
	h-0.6L27.9,19.3z M28.6,21l-0.4-0.9L27.8,21H28.6z M30.9,19.3h0.6v2.3h1.4v0.6h-2V19.3z M34,20.9v-1.6h0.6v1.6
	c0,0.5,0.2,0.7,0.6,0.7c0.4,0,0.6-0.2,0.6-0.7v-1.6h0.6v1.6c0,0.9-0.5,1.3-1.2,1.3C34.4,22.2,34,21.8,34,20.9z M37.8,19.3h1.1
	c0.9,0,1.5,0.6,1.5,1.4v0c0,0.8-0.6,1.4-1.5,1.4h-1.1V19.3z M38.9,21.6c0.5,0,0.9-0.3,0.9-0.8v0c0-0.5-0.3-0.9-0.9-0.9h-0.5v1.7
	H38.9z M43.8,19.3h0.6v2.8h-0.6V19.3z M45.8,19.3h0.6l1.3,1.7v-1.7h0.6v2.8h-0.5l-1.4-1.8v1.8h-0.6V19.3z M50.4,19.9h-0.9v-0.6h2.3
	v0.6H51v2.3h-0.6L50.4,19.9L50.4,19.9z M53.1,19.3h2.1v0.6h-1.5v0.6h1.3V21h-1.3v0.6h1.5v0.6h-2.2V19.3z M56.5,19.3h0.6v2.3h1.4v0.6
	h-2V19.3z M59.8,19.3h0.6v2.8h-0.6V19.3z M61.7,20.7L61.7,20.7c0-0.8,0.6-1.5,1.5-1.5c0.5,0,0.8,0.1,1.1,0.4L64,20.1
	c-0.2-0.2-0.4-0.3-0.7-0.3c-0.5,0-0.8,0.4-0.8,0.9v0c0,0.5,0.4,0.9,0.9,0.9c0.2,0,0.4-0.1,0.6-0.2v-0.4h-0.6v-0.5h1.2v1.2
	c-0.3,0.2-0.7,0.4-1.2,0.4C62.4,22.2,61.7,21.6,61.7,20.7z M65.8,19.3h2.1v0.6h-1.5v0.6h1.3V21h-1.3v0.6h1.5v0.6h-2.2V19.3z
	 M69.2,19.3h0.6l1.3,1.7v-1.7h0.6v2.8h-0.5l-1.4-1.8v1.8h-0.6V19.3z M73.8,19.9h-0.9v-0.6h2.3v0.6h-0.9v2.3h-0.6L73.8,19.9
	L73.8,19.9z M76.5,19.3h2.1v0.6h-1.5v0.6h1.3V21h-1.3v0.6h1.5v0.6h-2.2L76.5,19.3L76.5,19.3z M79.9,21.5h0.7v0.6h-0.7V21.5z M6.6,25
	c-0.5-0.1-1-0.1-1.4-0.2c-1.9-0.3-3.4-1.5-3.8-3.6c-0.2-0.9-0.1-1.8,0.1-2.7c0.2-0.6,0.5-1.2,0.9-1.8c0.8-1.2,1.8-2.2,2.8-3.1
	c0.2-0.1,0.3-0.3,0.2-0.5c0-0.7,0-1.4,0-2.1c0-0.2-0.1-0.3-0.3-0.3c-1.6,0-3.2,0-4.8,0c-0.1,0-0.2,0-0.3,0c0-2,0-3.9,0-5.9
	c0.1,0,0.1,0,0.2,0c1.6,0,3.3,0,4.9,0c0.2,0,0.3-0.1,0.3-0.3c0-1.4,0-2.9,0-4.3c0-0.1,0-0.1,0.1-0.2c0.2,0.2,0.5,0.5,0.7,0.7
	c0.8,0.9,1.4,2,1.8,3.1c0.3,1,0.4,2,0.4,3C8.3,7.6,8.2,8.4,8,9.2c-0.2,1.1-0.7,2.2-1.4,3.1c-0.6,0.8-1.4,1.5-2,2.2
	c-0.3,0.4-0.7,0.8-1,1.2c0,0.1-0.1,0.1-0.1,0.2c0.2-0.2,0.4-0.3,0.6-0.5c0.7-0.6,1.5-1.2,2.2-1.8c1-0.8,1.7-1.8,2.4-3
	c0.6-1,0.9-2.2,1.1-3.4c0.1-0.6,0.1-1.2,0.2-1.8c0.1-0.9,0.1-1.8,0.2-2.8c0.1-0.8,0.2-1.6,0.6-2.3c0.1-0.2,0.2-0.4,0.4-0.5
	c0,0,0,0,0.1,0c0,1.6,0,3.1,0,4.7c0.1,0,0.2,0,0.3,0c1.6,0,3.2,0,4.9,0c0.2,0,0.2,0.1,0.2,0.3c0,1.5,0,2.9,0,4.4c0,0.4,0,0.8,0,1.2
	c-1.8,0-3.6,0-5.4,0c0,2.8,0,5.5,0,8.2c-2,0-3.9,0-5.9,0c0-1.2,0-2.5,0-3.7c-0.1,0-0.1,0-0.2,0c-1.4,0.9-2.4,2.1-2.9,3.7
	C2,20,2,21.1,2.5,22.1c0.4,0.9,1.2,1.4,2,1.8c0.8,0.3,1.6,0.5,2.5,0.4c0.9,0,1.7-0.2,2.5-0.5c1.4-0.6,2.8-1.3,4-2.1c0,0,0,0,0.1,0
	c-0.1-0.2,0-0.2,0.1-0.3c0.4-0.2,0.7-0.5,1-0.7c0.1-0.1,0.1-0.1,0.1-0.3c-0.1-0.6,0-1.2,0.4-1.7c0.5-0.5,1.1-0.6,1.8-0.4
	c0.6,0.2,1,0.7,1.2,1.3c0.1,0.7-0.1,1.4-0.8,1.8c-0.6,0.4-1.3,0.3-1.9-0.1c-0.1-0.1-0.2-0.1-0.3,0c-0.4,0.3-0.8,0.6-1.3,0.8
	c-0.1-0.2-0.2-0.1-0.3,0c-1.4,0.9-2.8,1.8-4.3,2.4c-0.6,0.2-1.2,0.4-1.9,0.5c-0.1,0-0.2,0-0.2,0C7,25,6.8,25,6.6,25z M16.5,20.9
	c0.5,0,1-0.4,1-1c0-0.5-0.4-1-1-1c-0.6,0-1,0.4-1,1C15.6,20.5,16,20.9,16.5,20.9z"/>
</svg>
