<?xml version="1.0" encoding="utf-8"?>
<!-- Generator: Adobe Illustrator 28.1.0, SVG Export Plug-In . SVG Version: 6.00 Build 0)  -->
<svg version="1.1" id="Capa_1" xmlns="http://www.w3.org/2000/svg" xmlns:xlink="http://www.w3.org/1999/xlink" x="0px" y="0px"
	 viewBox="0 0 72.9 30" style="enable-background:new 0 0 72.9 30;" xml:space="preserve">
<style type="text/css">
	.st0{fill:#274470;}
</style>
<path class="st0" d="M46.7,12.5C46.7,12.5,46.7,12.5,46.7,12.5l-1.6,0c0,0-0.1,0-0.1,0L42,20.9c0,0,0,0,0,0.1c0,0,0,0,0.1,0h1.4
	c0,0,0.1,0,0.1,0l0.6-1.8h3.4l0.6,1.8c0,0,0,0,0.1,0h1.5c0,0,0,0,0.1,0c0,0,0,0,0-0.1L46.7,12.5L46.7,12.5z M45.8,14.3
	c0.1,0.4,0.2,0.7,0.3,1.1l0.9,2.5h-2.6l0.9-2.5C45.6,15.1,45.8,14.7,45.8,14.3L45.8,14.3z M53.7,14.7h-1.6v-2.2c0,0,0,0,0-0.1
	c0,0,0,0-0.1,0l-1.3,0.4c0,0,0,0,0,0.1v1.9h-1.1c0,0,0,0,0,0c0,0,0,0,0,0v1c0,0,0,0,0,0c0,0,0,0,0,0h1.1v3.3c0,0.7,0.1,1.2,0.4,1.5
	c0.3,0.3,0.8,0.4,1.4,0.4c0.4,0,0.9-0.1,1.3-0.1c0,0,0.1,0,0.1-0.1v-1.1c0,0,0,0,0-0.1c0,0,0,0-0.1,0c-0.2,0.1-0.5,0.1-0.8,0.1
	c-0.3,0-0.5-0.1-0.6-0.2c-0.1-0.2-0.2-0.4-0.2-0.9v-2.9h1.6c0,0,0,0,0,0c0,0,0,0,0,0L53.7,14.7C53.8,14.7,53.8,14.7,53.7,14.7
	C53.7,14.7,53.7,14.7,53.7,14.7L53.7,14.7z M56.4,11.8H55c0,0,0,0,0,0c0,0,0,0,0,0v9c0,0,0,0,0,0c0,0,0,0,0,0h1.4c0,0,0,0,0,0
	c0,0,0,0,0,0L56.4,11.8C56.4,11.9,56.4,11.8,56.4,11.8C56.4,11.8,56.4,11.8,56.4,11.8z M62.7,16.7c0-0.6-0.1-1.2-0.5-1.6
	c-0.4-0.4-1-0.6-2-0.6c-0.8,0-1.6,0.2-2.2,0.4c0,0,0,0,0,0.1l0.1,1.1c0,0,0,0,0,0.1c0,0,0,0,0.1,0c0.5-0.3,1.3-0.5,1.8-0.5
	c0.5,0,0.8,0.1,1,0.3c0.2,0.2,0.3,0.4,0.3,0.8v0.3c-1.1,0-2,0.2-2.7,0.6c-0.7,0.4-1,1-1,1.7c0,0.5,0.2,0.9,0.5,1.2
	c0.3,0.3,0.8,0.4,1.3,0.4c0.9,0,1.6-0.4,2-1c0,0.3,0,0.6,0,0.8c0,0,0,0,0,0c0,0,0,0,0,0h1.3c0,0,0,0,0,0c0,0,0,0,0,0
	c0-0.5,0-1.1,0-1.7L62.7,16.7L62.7,16.7z M61.2,18.2L61.2,18.2c0,0.5-0.2,0.9-0.4,1.2c-0.3,0.3-0.6,0.5-1.1,0.5
	c-0.3,0-0.5-0.1-0.6-0.2c-0.1-0.1-0.2-0.3-0.2-0.5c0-0.2,0.1-0.5,0.4-0.7C59.7,18.3,60.3,18.2,61.2,18.2L61.2,18.2z M67.8,17.9
	c-0.4-0.4-1-0.5-1.5-0.7c-0.2-0.1-0.5-0.2-0.6-0.3c-0.1-0.1-0.2-0.3-0.2-0.5c0-0.2,0.1-0.4,0.2-0.5c0.2-0.1,0.4-0.2,0.8-0.2
	c0.4,0,0.8,0.1,1.2,0.2c0,0,0,0,0.1,0c0,0,0,0,0-0.1l0-1.1c0,0,0-0.1-0.1-0.1c-0.4-0.1-0.8-0.1-1.2-0.1c-0.9,0-1.5,0.2-2,0.6
	c-0.5,0.4-0.7,0.9-0.7,1.4c0,0.5,0.2,0.9,0.5,1.2c0.4,0.4,1,0.5,1.5,0.7c0.2,0.1,0.5,0.2,0.6,0.3c0.1,0.1,0.2,0.3,0.2,0.5
	c0,0.2-0.1,0.4-0.3,0.5c-0.2,0.1-0.5,0.2-0.9,0.2c-0.5,0-1-0.1-1.4-0.2c0,0,0,0-0.1,0c0,0,0,0,0,0.1l0,1.1c0,0,0,0.1,0.1,0.1
	c0.4,0.1,0.9,0.1,1.3,0.1c0.9,0,1.6-0.2,2-0.6c0.5-0.4,0.8-0.9,0.8-1.5C68.2,18.5,68.1,18.1,67.8,17.9L67.8,17.9z M23.3,28.6h-1.6
	v-2.8c0,0,0,0,0,0c0,0,0,0,0,0h-0.4c0,0,0,0,0,0c0,0,0,0,0,0V29c0,0,0,0,0,0c0,0,0,0,0,0h2.1c0,0,0,0,0,0c0,0,0,0,0,0L23.3,28.6
	C23.3,28.7,23.3,28.6,23.3,28.6C23.3,28.6,23.3,28.6,23.3,28.6z M25.9,28.7C25.9,28.7,25.8,28.7,25.9,28.7c-0.1,0-0.1,0-0.1,0
	c-0.1,0-0.1,0-0.1,0c0,0,0-0.1,0-0.1v-1.4c0-0.2-0.1-0.4-0.3-0.5c-0.2-0.1-0.4-0.2-0.7-0.2c-0.2,0-0.5,0.1-0.6,0.2
	c-0.2,0.1-0.3,0.3-0.3,0.6c0,0,0,0,0,0c0,0,0,0,0,0h0.4c0,0,0,0,0,0c0-0.1,0-0.2,0.1-0.3c0.1-0.1,0.2-0.2,0.4-0.2
	c0.2,0,0.3,0,0.4,0.1c0.1,0.1,0.1,0.2,0.1,0.3c0,0.1,0,0.1,0,0.1c0,0.1-0.1,0.1-0.2,0.1l-0.6,0.1c-0.2,0-0.4,0.1-0.5,0.2
	c-0.1,0.1-0.2,0.3-0.2,0.5c0,0.2,0.1,0.4,0.2,0.5c0.1,0.1,0.3,0.2,0.5,0.2c0.2,0,0.4,0,0.5-0.1c0.1-0.1,0.2-0.2,0.3-0.3
	c0,0.1,0,0.1,0.1,0.2c0.1,0.1,0.2,0.2,0.3,0.2c0.1,0,0.1,0,0.1,0c0,0,0.1,0,0.1,0c0,0,0,0,0,0L25.9,28.7
	C25.9,28.8,25.9,28.7,25.9,28.7C25.9,28.7,25.9,28.7,25.9,28.7L25.9,28.7z M25.2,27.9v0.3c0,0.2-0.1,0.4-0.3,0.5
	c-0.1,0.1-0.3,0.1-0.4,0.1c-0.1,0-0.2,0-0.3-0.1c-0.1-0.1-0.1-0.1-0.1-0.3c0-0.1,0.1-0.2,0.2-0.3c0.1,0,0.2-0.1,0.3-0.1l0.2,0
	c0.1,0,0.2,0,0.2,0C25.1,27.9,25.2,27.9,25.2,27.9L25.2,27.9z M29.6,27c-0.1-0.1-0.2-0.2-0.4-0.3c-0.2-0.1-0.3-0.1-0.5-0.1
	c-0.3,0-0.6,0.1-0.8,0.4c-0.2,0.2-0.3,0.6-0.3,0.9c0,0.4,0.1,0.7,0.3,0.9c0.2,0.2,0.5,0.3,0.8,0.3c0.1,0,0.2,0,0.3,0
	c0.2,0,0.3-0.1,0.5-0.2c0.1-0.1,0.1-0.2,0.2-0.3c0.1-0.1,0.1-0.2,0.1-0.3c0,0,0,0,0,0c0,0,0,0,0,0h-0.4c0,0,0,0,0,0
	c0,0.1-0.1,0.2-0.1,0.3c-0.1,0.1-0.3,0.2-0.5,0.2c-0.2,0-0.4-0.1-0.5-0.2c-0.1-0.1-0.2-0.3-0.2-0.6h1.7c0,0,0,0,0,0c0,0,0,0,0,0
	c0-0.2,0-0.4,0-0.5C29.7,27.3,29.7,27.2,29.6,27L29.6,27z M28.1,27.7c0-0.2,0.1-0.3,0.2-0.5c0.1-0.1,0.3-0.2,0.4-0.2
	c0.2,0,0.4,0.1,0.5,0.3c0.1,0.1,0.1,0.2,0.1,0.4L28.1,27.7L28.1,27.7z M32.8,26.6c-0.2,0-0.3,0-0.4,0.1c-0.1,0.1-0.2,0.1-0.3,0.3
	c0-0.1-0.1-0.2-0.2-0.2c-0.1-0.1-0.3-0.1-0.5-0.1c-0.2,0-0.3,0-0.5,0.1c-0.1,0-0.1,0.1-0.2,0.2v-0.3c0,0,0,0,0,0c0,0,0,0,0,0h-0.4
	c0,0,0,0,0,0c0,0,0,0,0,0V29c0,0,0,0,0,0c0,0,0,0,0,0h0.4c0,0,0,0,0,0c0,0,0,0,0,0v-1.3c0-0.3,0.1-0.5,0.2-0.6
	c0.1-0.1,0.3-0.2,0.4-0.2c0.2,0,0.3,0.1,0.3,0.2c0,0.1,0.1,0.2,0.1,0.3V29c0,0,0,0,0,0c0,0,0,0,0,0h0.4c0,0,0,0,0,0c0,0,0,0,0,0
	v-1.4c0-0.2,0.1-0.4,0.2-0.5c0.1-0.1,0.2-0.2,0.4-0.2c0.1,0,0.2,0,0.3,0.1c0.1,0.1,0.1,0.2,0.1,0.3V29c0,0,0,0,0,0c0,0,0,0,0,0h0.4
	c0,0,0,0,0,0c0,0,0,0,0,0v-1.6c0-0.2,0-0.4-0.1-0.5C33.4,26.7,33.1,26.6,32.8,26.6L32.8,26.6z M35.3,26.6c-0.2,0-0.3,0-0.5,0.1
	c-0.1,0.1-0.2,0.1-0.2,0.2v-0.3c0,0,0,0,0,0c0,0,0,0,0,0h-0.4c0,0,0,0,0,0c0,0,0,0,0,0V30c0,0,0,0,0,0c0,0,0,0,0,0h0.4c0,0,0,0,0,0
	c0,0,0,0,0,0v-1.2c0.1,0.1,0.1,0.2,0.2,0.2c0.1,0.1,0.3,0.1,0.5,0.1c0.2,0,0.4-0.1,0.6-0.2c0.3-0.2,0.4-0.6,0.4-1.1
	c0-0.4-0.1-0.7-0.3-0.9C35.9,26.7,35.6,26.6,35.3,26.6L35.3,26.6z M35.9,27.8c0,0.3-0.1,0.5-0.2,0.7c-0.1,0.2-0.3,0.2-0.4,0.2
	c-0.3,0-0.4-0.1-0.6-0.4c-0.1-0.1-0.1-0.3-0.1-0.5c0-0.2,0-0.4,0.1-0.6c0.1-0.3,0.3-0.4,0.6-0.4c0.3,0,0.4,0.1,0.6,0.4
	C35.9,27.5,35.9,27.7,35.9,27.8L35.9,27.8z M38,26.6C38,26.6,38,26.6,38,26.6c-0.1,0-0.1,0-0.1,0c-0.2,0-0.3,0.1-0.4,0.2
	c-0.1,0.1-0.2,0.2-0.2,0.2v-0.3c0,0,0,0,0,0c0,0,0,0,0,0h-0.4c0,0,0,0,0,0c0,0,0,0,0,0V29c0,0,0,0,0,0c0,0,0,0,0,0h0.4c0,0,0,0,0,0
	c0,0,0,0,0,0v-1.4c0-0.2,0.1-0.3,0.2-0.4c0.1-0.1,0.3-0.2,0.4-0.2c0,0,0,0,0.1,0c0,0,0,0,0.1,0c0,0,0,0,0,0c0,0,0,0,0,0L38,26.6
	C38.1,26.6,38.1,26.6,38,26.6L38,26.6z M40.3,27c-0.1-0.1-0.2-0.2-0.4-0.3c-0.2-0.1-0.3-0.1-0.5-0.1c-0.3,0-0.6,0.1-0.8,0.4
	c-0.2,0.2-0.3,0.6-0.3,0.9c0,0.4,0.1,0.7,0.3,0.9c0.2,0.2,0.5,0.3,0.8,0.3c0.1,0,0.2,0,0.3,0c0.2,0,0.3-0.1,0.5-0.2
	c0.1-0.1,0.1-0.2,0.2-0.3c0.1-0.1,0.1-0.2,0.1-0.3c0,0,0,0,0,0c0,0,0,0,0,0h-0.4c0,0,0,0,0,0c0,0.1-0.1,0.2-0.1,0.3
	c-0.1,0.1-0.3,0.2-0.5,0.2c-0.2,0-0.4-0.1-0.5-0.2c-0.1-0.1-0.2-0.3-0.2-0.6h1.7c0,0,0,0,0,0c0,0,0,0,0,0c0-0.2,0-0.4,0-0.5
	C40.5,27.3,40.4,27.2,40.3,27L40.3,27z M38.8,27.7c0-0.2,0.1-0.3,0.2-0.5c0.1-0.1,0.3-0.2,0.4-0.2c0.2,0,0.4,0.1,0.5,0.3
	c0.1,0.1,0.1,0.2,0.1,0.4L38.8,27.7L38.8,27.7z M42.7,27.9c-0.1-0.1-0.3-0.1-0.6-0.2l-0.3-0.1c-0.1,0-0.2-0.1-0.3-0.1
	c-0.1-0.1-0.1-0.1-0.1-0.2c0-0.1,0-0.2,0.1-0.2c0.1-0.1,0.2-0.1,0.3-0.1c0.2,0,0.4,0.1,0.5,0.2c0.1,0.1,0.1,0.1,0.1,0.2c0,0,0,0,0,0
	h0.4c0,0,0,0,0,0v0c0-0.2,0-0.3-0.1-0.4c-0.2-0.2-0.4-0.3-0.8-0.3c-0.3,0-0.5,0.1-0.7,0.2C41.1,27,41,27.1,41,27.4
	c0,0.2,0.1,0.4,0.3,0.5c0.1,0.1,0.3,0.1,0.5,0.2l0.3,0.1c0.2,0,0.3,0.1,0.3,0.1c0.1,0.1,0.1,0.1,0.1,0.2c0,0.1-0.1,0.2-0.2,0.3
	c-0.1,0.1-0.2,0.1-0.4,0.1c-0.2,0-0.4-0.1-0.5-0.2c-0.1-0.1-0.1-0.2-0.1-0.3c0,0,0,0,0,0H41c0,0,0,0,0,0c0,0,0,0,0,0
	c0,0.2,0.1,0.4,0.2,0.6c0.2,0.2,0.4,0.2,0.8,0.2c0.3,0,0.6-0.1,0.7-0.2c0.2-0.2,0.2-0.3,0.2-0.6S42.9,28,42.7,27.9z M45.6,28.7
	C45.6,28.7,45.6,28.7,45.6,28.7c-0.1,0-0.1,0-0.1,0c-0.1,0-0.1,0-0.1,0c0,0,0-0.1,0-0.1v-1.4c0-0.2-0.1-0.4-0.3-0.5
	c-0.2-0.1-0.4-0.2-0.7-0.2c-0.2,0-0.5,0.1-0.6,0.2c-0.2,0.1-0.3,0.3-0.3,0.6c0,0,0,0,0,0c0,0,0,0,0,0h0.4c0,0,0,0,0,0
	c0-0.1,0-0.2,0.1-0.3c0.1-0.1,0.2-0.2,0.4-0.2c0.2,0,0.3,0,0.4,0.1c0.1,0.1,0.1,0.2,0.1,0.3c0,0.1,0,0.1,0,0.1
	c0,0.1-0.1,0.1-0.2,0.1l-0.6,0.1c-0.2,0-0.4,0.1-0.5,0.2c-0.1,0.1-0.2,0.3-0.2,0.5c0,0.2,0.1,0.4,0.2,0.5c0.1,0.1,0.3,0.2,0.5,0.2
	c0.2,0,0.4,0,0.5-0.1c0.1-0.1,0.2-0.2,0.3-0.3c0,0.1,0,0.1,0.1,0.2c0.1,0.1,0.2,0.2,0.3,0.2c0.1,0,0.1,0,0.1,0c0,0,0.1,0,0.1,0
	c0,0,0,0,0,0L45.6,28.7C45.6,28.8,45.6,28.7,45.6,28.7C45.6,28.7,45.6,28.7,45.6,28.7L45.6,28.7z M45,27.9v0.3
	c0,0.2-0.1,0.4-0.3,0.5c-0.1,0.1-0.3,0.1-0.4,0.1c-0.1,0-0.2,0-0.3-0.1c-0.1-0.1-0.1-0.1-0.1-0.3c0-0.1,0.1-0.2,0.2-0.3
	c0.1,0,0.2-0.1,0.3-0.1l0.2,0c0.1,0,0.2,0,0.2,0C44.8,27.9,44.9,27.9,45,27.9z M49.6,28.7C49.6,28.7,49.6,28.7,49.6,28.7
	c-0.1,0-0.1,0-0.1,0c-0.1,0-0.1,0-0.1,0c0,0,0-0.1,0-0.1v-1.4c0-0.2-0.1-0.4-0.3-0.5c-0.2-0.1-0.4-0.2-0.7-0.2
	c-0.2,0-0.5,0.1-0.6,0.2c-0.2,0.1-0.3,0.3-0.3,0.6c0,0,0,0,0,0c0,0,0,0,0,0h0.4c0,0,0,0,0,0c0-0.1,0-0.2,0.1-0.3
	c0.1-0.1,0.2-0.2,0.4-0.2c0.2,0,0.3,0,0.4,0.1c0.1,0.1,0.1,0.2,0.1,0.3c0,0.1,0,0.1,0,0.1c0,0.1-0.1,0.1-0.2,0.1l-0.6,0.1
	c-0.2,0-0.4,0.1-0.5,0.2c-0.1,0.1-0.2,0.3-0.2,0.5c0,0.2,0.1,0.4,0.2,0.5c0.1,0.1,0.3,0.2,0.5,0.2c0.2,0,0.4,0,0.5-0.1
	c0.1-0.1,0.2-0.2,0.3-0.3c0,0.1,0,0.1,0.1,0.2c0.1,0.1,0.2,0.2,0.3,0.2c0.1,0,0.1,0,0.1,0c0,0,0.1,0,0.1,0c0,0,0,0,0,0L49.6,28.7
	C49.6,28.8,49.6,28.7,49.6,28.7C49.6,28.7,49.6,28.7,49.6,28.7L49.6,28.7z M48.9,27.9v0.3c0,0.2-0.1,0.4-0.3,0.5
	c-0.1,0.1-0.3,0.1-0.4,0.1c-0.1,0-0.2,0-0.3-0.1c-0.1-0.1-0.1-0.1-0.1-0.3c0-0.1,0.1-0.2,0.2-0.3c0.1,0,0.2-0.1,0.3-0.1l0.2,0
	c0.1,0,0.2,0,0.2,0C48.8,27.9,48.9,27.9,48.9,27.9L48.9,27.9z M53.9,26.6c-0.2,0-0.3,0-0.4,0.1c-0.1,0.1-0.2,0.1-0.3,0.3
	c0-0.1-0.1-0.2-0.2-0.2c-0.1-0.1-0.3-0.1-0.5-0.1c-0.2,0-0.3,0-0.5,0.1c-0.1,0-0.1,0.1-0.2,0.2v-0.3c0,0,0,0,0,0c0,0,0,0,0,0h-0.4
	c0,0,0,0,0,0c0,0,0,0,0,0V29c0,0,0,0,0,0c0,0,0,0,0,0h0.4c0,0,0,0,0,0c0,0,0,0,0,0v-1.3c0-0.3,0.1-0.5,0.2-0.6
	c0.1-0.1,0.3-0.2,0.4-0.2c0.2,0,0.3,0.1,0.3,0.2c0,0.1,0.1,0.2,0.1,0.3V29c0,0,0,0,0,0c0,0,0,0,0,0h0.4c0,0,0,0,0,0c0,0,0,0,0,0
	v-1.4c0-0.2,0.1-0.4,0.2-0.5c0.1-0.1,0.2-0.2,0.4-0.2c0.1,0,0.2,0,0.3,0.1c0.1,0.1,0.1,0.2,0.1,0.3V29c0,0,0,0,0,0c0,0,0,0,0,0h0.4
	c0,0,0,0,0,0c0,0,0,0,0,0v-1.6c0-0.2,0-0.4-0.1-0.5C54.5,26.7,54.3,26.6,53.9,26.6L53.9,26.6z M55.8,26.7h-0.4c0,0,0,0,0,0
	c0,0,0,0,0,0V29c0,0,0,0,0,0c0,0,0,0,0,0h0.4c0,0,0,0,0,0c0,0,0,0,0,0L55.8,26.7C55.8,26.7,55.8,26.7,55.8,26.7
	C55.8,26.7,55.8,26.7,55.8,26.7z M55.4,26.3h0.4c0,0,0,0,0,0c0,0,0,0,0,0v-0.4c0,0,0,0,0,0c0,0,0,0,0,0h-0.4c0,0,0,0,0,0
	c0,0,0,0,0,0L55.4,26.3C55.4,26.2,55.4,26.3,55.4,26.3C55.4,26.3,55.4,26.3,55.4,26.3z M60.3,26.6c-0.2,0-0.3,0-0.4,0.1
	c-0.1,0.1-0.2,0.1-0.3,0.3c0-0.1-0.1-0.2-0.2-0.2c-0.1-0.1-0.3-0.1-0.5-0.1c-0.2,0-0.3,0-0.5,0.1c-0.1,0-0.1,0.1-0.2,0.2v-0.3
	c0,0,0,0,0,0c0,0,0,0,0,0h-0.4c0,0,0,0,0,0c0,0,0,0,0,0V29c0,0,0,0,0,0c0,0,0,0,0,0h0.4c0,0,0,0,0,0c0,0,0,0,0,0v-1.3
	c0-0.3,0.1-0.5,0.2-0.6c0.1-0.1,0.3-0.2,0.4-0.2c0.2,0,0.3,0.1,0.3,0.2c0,0.1,0.1,0.2,0.1,0.3V29c0,0,0,0,0,0c0,0,0,0,0,0h0.4
	c0,0,0,0,0,0c0,0,0,0,0,0v-1.4c0-0.2,0.1-0.4,0.2-0.5c0.1-0.1,0.2-0.2,0.4-0.2c0.1,0,0.2,0,0.3,0.1c0.1,0.1,0.1,0.2,0.1,0.3V29
	c0,0,0,0,0,0c0,0,0,0,0,0H61c0,0,0,0,0,0c0,0,0,0,0,0v-1.6c0-0.2,0-0.4-0.1-0.5C60.8,26.7,60.6,26.6,60.3,26.6L60.3,26.6z M63.6,27
	c-0.1-0.1-0.2-0.2-0.4-0.3c-0.2-0.1-0.3-0.1-0.5-0.1c-0.3,0-0.6,0.1-0.8,0.4c-0.2,0.2-0.3,0.6-0.3,0.9c0,0.4,0.1,0.7,0.3,0.9
	c0.2,0.2,0.5,0.3,0.8,0.3c0.1,0,0.2,0,0.3,0c0.2,0,0.3-0.1,0.5-0.2c0.1-0.1,0.1-0.2,0.2-0.3c0.1-0.1,0.1-0.2,0.1-0.3c0,0,0,0,0,0
	c0,0,0,0,0,0h-0.4c0,0,0,0,0,0c0,0.1-0.1,0.2-0.1,0.3c-0.1,0.1-0.3,0.2-0.5,0.2c-0.2,0-0.4-0.1-0.5-0.2c-0.1-0.1-0.2-0.3-0.2-0.6
	h1.7c0,0,0,0,0,0c0,0,0,0,0,0c0-0.2,0-0.4,0-0.5C63.7,27.3,63.6,27.2,63.6,27L63.6,27z M62.7,27c0.2,0,0.4,0.1,0.5,0.3
	c0.1,0.1,0.1,0.2,0.1,0.4H62c0-0.2,0.1-0.3,0.2-0.5C62.4,27.1,62.5,27,62.7,27L62.7,27z M66.3,25.8h-0.4c0,0,0,0,0,0c0,0,0,0,0,0
	v1.1c-0.1-0.1-0.2-0.2-0.2-0.2c-0.1-0.1-0.3-0.1-0.5-0.1c-0.3,0-0.6,0.1-0.8,0.4c-0.2,0.3-0.3,0.6-0.3,0.9c0,0.4,0.1,0.7,0.3,0.9
	c0.2,0.2,0.4,0.3,0.7,0.3c0.2,0,0.3,0,0.4-0.1c0.1-0.1,0.2-0.2,0.3-0.3V29c0,0,0,0,0,0c0,0,0,0,0,0h0.4c0,0,0,0,0,0c0,0,0,0,0,0
	L66.3,25.8C66.3,25.8,66.3,25.8,66.3,25.8C66.3,25.8,66.3,25.8,66.3,25.8L66.3,25.8z M64.6,27.9c0-0.3,0.1-0.5,0.2-0.7
	c0.1-0.1,0.3-0.2,0.5-0.2c0.2,0,0.3,0.1,0.4,0.2c0.1,0.1,0.2,0.4,0.2,0.7c0,0.3-0.1,0.5-0.2,0.7c-0.1,0.2-0.3,0.2-0.4,0.2
	c-0.2,0-0.4-0.1-0.5-0.2C64.7,28.3,64.6,28.1,64.6,27.9L64.6,27.9z M67.4,26.7H67c0,0,0,0,0,0c0,0,0,0,0,0V29c0,0,0,0,0,0
	c0,0,0,0,0,0h0.4c0,0,0,0,0,0c0,0,0,0,0,0L67.4,26.7C67.4,26.7,67.4,26.7,67.4,26.7C67.4,26.7,67.4,26.7,67.4,26.7z M67,26.3h0.4
	c0,0,0,0,0,0c0,0,0,0,0,0v-0.4c0,0,0,0,0,0c0,0,0,0,0,0H67c0,0,0,0,0,0c0,0,0,0,0,0L67,26.3C67,26.2,67,26.3,67,26.3
	C67,26.3,67,26.3,67,26.3z M70,25.8h-0.4c0,0,0,0,0,0c0,0,0,0,0,0v1.1c-0.1-0.1-0.1-0.2-0.2-0.2c-0.1-0.1-0.3-0.1-0.5-0.1
	c-0.3,0-0.6,0.1-0.8,0.4c-0.2,0.3-0.3,0.6-0.3,0.9c0,0.4,0.1,0.7,0.3,0.9c0.2,0.2,0.4,0.3,0.7,0.3c0.2,0,0.3,0,0.4-0.1
	c0.1-0.1,0.2-0.2,0.3-0.3V29c0,0,0,0,0,0c0,0,0,0,0,0H70c0,0,0,0,0,0c0,0,0,0,0,0L70,25.8C70,25.8,70,25.8,70,25.8
	C70,25.8,70,25.8,70,25.8L70,25.8z M68.4,27.9c0-0.3,0.1-0.5,0.2-0.7c0.1-0.2,0.3-0.2,0.5-0.2c0.2,0,0.3,0.1,0.4,0.2
	c0.1,0.1,0.2,0.4,0.2,0.7s-0.1,0.5-0.2,0.7c-0.1,0.2-0.3,0.2-0.4,0.2c-0.2,0-0.4-0.1-0.5-0.2C68.4,28.3,68.4,28.1,68.4,27.9
	L68.4,27.9z M72.9,28.7C72.9,28.7,72.9,28.7,72.9,28.7C72.8,28.7,72.8,28.8,72.9,28.7c-0.1,0-0.1,0-0.1,0c-0.1,0-0.1,0-0.1,0
	c0,0,0-0.1,0-0.1v-1.4c0-0.2-0.1-0.4-0.3-0.5c-0.2-0.1-0.4-0.2-0.7-0.2c-0.2,0-0.5,0.1-0.6,0.2c-0.2,0.1-0.3,0.3-0.3,0.6
	c0,0,0,0,0,0c0,0,0,0,0,0h0.4c0,0,0,0,0,0c0-0.1,0-0.2,0.1-0.3c0.1-0.1,0.2-0.2,0.4-0.2c0.2,0,0.3,0,0.4,0.1
	c0.1,0.1,0.1,0.2,0.1,0.3c0,0.1,0,0.1,0,0.1c0,0.1-0.1,0.1-0.2,0.1l-0.6,0.1c-0.2,0-0.4,0.1-0.5,0.2c-0.1,0.1-0.2,0.3-0.2,0.5
	c0,0.2,0.1,0.4,0.2,0.5c0.1,0.1,0.3,0.2,0.5,0.2c0.2,0,0.4,0,0.5-0.1c0.1-0.1,0.2-0.2,0.3-0.3c0,0.1,0,0.1,0.1,0.2
	c0.1,0.1,0.2,0.2,0.3,0.2c0.1,0,0.1,0,0.1,0c0,0,0.1,0,0.1,0c0,0,0,0,0,0V28.7C72.9,28.8,72.9,28.7,72.9,28.7L72.9,28.7z M72.2,27.9
	v0.3c0,0.2-0.1,0.4-0.3,0.5c-0.1,0.1-0.3,0.1-0.4,0.1c-0.1,0-0.2,0-0.3-0.1c-0.1-0.1-0.1-0.1-0.1-0.3c0-0.1,0.1-0.2,0.2-0.3
	c0.1,0,0.2-0.1,0.3-0.1l0.2,0c0.1,0,0.2,0,0.2,0C72.1,27.9,72.1,27.9,72.2,27.9L72.2,27.9z M4.2,17c-0.6-0.5-1.4-0.7-2.1-1
	c-0.7-0.3-1.2-0.7-1.2-1.4c0-0.9,0.7-1.5,1.9-1.5c0.5,0,1,0.1,1.5,0.2c0,0,0,0,0,0c0,0,0,0,0,0l0-0.7c0,0,0,0,0,0
	c-0.5-0.1-1-0.1-1.5-0.1c-0.9,0-1.6,0.2-2.1,0.7C0.3,13.4,0,14,0,14.7c0,0.7,0.3,1.1,0.6,1.4c0.6,0.5,1.4,0.7,2.1,1
	C3.4,17.5,4,17.8,4,18.6c0,0.6-0.2,1-0.6,1.3c-0.4,0.3-0.9,0.4-1.4,0.4c-0.6,0-1.2-0.1-1.7-0.3c0,0,0,0,0,0c0,0,0,0,0,0l0,0.8
	c0,0,0,0,0,0C0.6,20.9,1.2,21,1.8,21c0.9,0,1.7-0.3,2.2-0.7c0.5-0.4,0.8-1.1,0.8-1.8C4.9,17.8,4.6,17.4,4.2,17z M8.7,14.6
	c-0.8,0-1.5,0.3-2,0.9C6.2,16.1,6,16.9,6,17.8c0,1.1,0.2,1.9,0.7,2.4C7.2,20.8,7.9,21,8.8,21c0.8,0,1.4-0.1,2-0.4c0,0,0,0,0,0
	l-0.1-0.7c0,0,0,0,0,0c0,0,0,0,0,0c-0.4,0.2-1.1,0.4-1.8,0.4c-0.7,0-1.2-0.2-1.5-0.6c-0.3-0.4-0.5-1-0.5-1.9c0-0.1,0-0.1,0-0.2H11
	c0,0,0,0,0,0c0-0.2,0-0.3,0-0.4c0-0.7-0.2-1.3-0.6-1.8C10.1,14.9,9.5,14.6,8.7,14.6L8.7,14.6z M8.6,15.3c1,0,1.5,0.6,1.5,1.6v0H7
	C7.1,15.9,7.8,15.3,8.6,15.3z M17.9,14.7h-2.1c-0.3-0.1-0.6-0.1-0.9-0.1c-0.8,0-1.5,0.3-2,0.7c-0.5,0.4-0.7,1-0.7,1.7
	c0,0.8,0.3,1.4,0.9,1.8c-0.4,0.2-0.6,0.6-0.6,1c0,0.4,0.2,0.7,0.6,0.9c-0.6,0.3-1,0.9-1,1.7c0,0.6,0.3,1.1,0.7,1.4
	c0.5,0.3,1.1,0.5,1.9,0.5c0.9,0,1.7-0.2,2.3-0.6c0.6-0.4,0.9-1,0.9-1.6c0-0.5-0.2-1-0.5-1.3s-0.9-0.5-1.6-0.5h-1.3
	c-0.4,0-0.7,0-0.8-0.1c-0.2-0.1-0.3-0.2-0.3-0.4c0-0.2,0.1-0.4,0.4-0.5c0.2,0.1,0.6,0.1,0.9,0.1c0.9,0,1.6-0.3,2-0.7
	c0.5-0.4,0.7-1,0.7-1.7c0-0.6-0.2-1.1-0.6-1.4h1c0,0,0,0,0,0c0,0,0,0,0,0L17.9,14.7C17.9,14.7,17.9,14.7,17.9,14.7
	C17.9,14.7,17.9,14.7,17.9,14.7L17.9,14.7z M14.8,15.3c0.5,0,1,0.2,1.2,0.4c0.3,0.3,0.4,0.7,0.4,1.2c0,0.5-0.2,0.9-0.5,1.2
	c-0.3,0.3-0.7,0.4-1.3,0.4c-0.5,0-1-0.1-1.3-0.4c-0.3-0.3-0.4-0.7-0.4-1.2C13.1,15.9,13.7,15.3,14.8,15.3L14.8,15.3z M12.8,22.2
	c0-0.5,0.4-1,0.9-1.3h1.7c0.5,0,0.9,0.1,1.1,0.3c0.2,0.2,0.4,0.4,0.4,0.8c0,0.4-0.2,0.8-0.6,1c-0.4,0.3-0.9,0.4-1.6,0.4
	c-0.5,0-1-0.1-1.3-0.3C13,22.9,12.8,22.6,12.8,22.2L12.8,22.2z M24.1,14.7h-0.8c0,0,0,0,0,0c0,0,0,0,0,0v2.9c0,0.8-0.2,1.4-0.5,1.9
	s-0.8,0.7-1.4,0.7c-0.5,0-0.8-0.1-1-0.4c-0.2-0.3-0.2-0.7-0.2-1.2v-4c0,0,0,0,0,0c0,0,0,0,0,0h-0.8c0,0,0,0,0,0c0,0,0,0,0,0V19
	c0,0.6,0.1,1.1,0.4,1.4c0.3,0.4,0.8,0.6,1.5,0.6h0c1,0,1.8-0.5,2.2-1.3c0,0.4-0.1,0.8-0.1,1.2c0,0,0,0,0,0c0,0,0,0,0,0h0.8
	c0,0,0,0,0,0c0,0,0,0,0,0L24.1,14.7C24.1,14.7,24.1,14.7,24.1,14.7C24.1,14.7,24.1,14.7,24.1,14.7L24.1,14.7z M29,14.6
	c-0.1,0-0.2,0-0.3,0c-1,0-1.6,0.6-1.8,1.4c0.1-0.4,0.1-0.9,0.1-1.2c0,0,0,0,0,0c0,0,0,0,0,0h-0.8c0,0,0,0,0,0c0,0,0,0,0,0v6.1
	c0,0,0,0,0,0c0,0,0,0,0,0h0.8c0,0,0,0,0,0c0,0,0,0,0,0v-2.4c0-1,0.1-1.7,0.4-2.2c0.3-0.5,0.7-0.8,1.3-0.8c0.1,0,0.2,0,0.3,0
	c0,0,0,0,0,0c0,0,0,0,0,0L29,14.6C29.1,14.6,29.1,14.6,29,14.6L29,14.6z M32.3,14.6c-0.9,0-1.7,0.4-2.2,1c-0.5,0.6-0.8,1.4-0.8,2.3
	c0,1.1,0.3,1.9,0.7,2.4c0.5,0.5,1.2,0.8,2,0.8c0.9,0,1.6-0.4,2.2-1c0.5-0.6,0.8-1.4,0.8-2.3c0-1.1-0.3-1.9-0.8-2.4
	C33.7,14.8,33,14.6,32.3,14.6L32.3,14.6z M34.1,17.7c0,1.8-0.9,2.5-1.9,2.5c-0.6,0-1.1-0.2-1.4-0.7c-0.3-0.4-0.5-1.1-0.5-1.9
	c0-1.7,0.9-2.4,1.9-2.5c0.6,0,1.1,0.2,1.4,0.6C34,16.4,34.1,17,34.1,17.7L34.1,17.7z M39.4,17.9c-0.4-0.4-1.1-0.5-1.7-0.7
	c-0.3-0.1-0.5-0.2-0.7-0.3c-0.2-0.2-0.3-0.3-0.3-0.6c0-0.3,0.1-0.6,0.3-0.7c0.2-0.2,0.6-0.3,1.1-0.3c0.4,0,0.9,0.1,1.3,0.2
	c0,0,0,0,0,0c0,0,0,0,0,0l0-0.7c0,0,0,0,0,0c-0.4-0.1-0.8-0.1-1.2-0.1c-0.8,0-1.4,0.2-1.8,0.5c-0.4,0.3-0.6,0.8-0.6,1.3
	c0,0.6,0.2,0.9,0.5,1.2c0.4,0.4,1.1,0.5,1.6,0.7c0.3,0.1,0.5,0.2,0.7,0.3c0.2,0.1,0.3,0.3,0.3,0.6c0,0.3-0.2,0.6-0.4,0.8
	c-0.3,0.2-0.7,0.3-1.1,0.3s-1-0.1-1.4-0.2c0,0,0,0,0,0c0,0,0,0,0,0l0,0.7c0,0,0,0,0,0c0.4,0.1,0.8,0.1,1.3,0.1
	c0.8,0,1.4-0.2,1.9-0.6s0.7-0.8,0.7-1.4C39.9,18.5,39.7,18.2,39.4,17.9L39.4,17.9z M71.9,7.5c-0.5,0.4-1.1,0.7-1.6,1l0,0l-2-2.6
	l-2,2.6l0,0c0,0-1-0.5-1.6-1l-1,1.2c0.7,0.8,1.8,1.6,3.3,1.9l1.3-1.7l1.3,1.7c1.3-0.3,2.6-1.1,3.3-1.9L71.9,7.5L71.9,7.5z M68.2,2.2
	L72,6.9c0.5-0.7,0.7-1.5,0.7-2.4c0-2.5-2-4.5-4.5-4.5c-2.5,0-4.5,2-4.5,4.5c0,0.9,0.3,1.8,0.7,2.5L68.2,2.2z M72.7,20.2
	c0,0.5-0.4,0.9-0.9,0.9c-0.5,0-0.9-0.4-0.9-0.9c0-0.5,0.4-0.9,0.9-0.9C72.3,19.3,72.7,19.7,72.7,20.2z M71.2,20.2
	c0,0.4,0.3,0.7,0.7,0.7c0.4,0,0.7-0.3,0.7-0.7c0-0.4-0.3-0.7-0.7-0.7C71.4,19.5,71.2,19.8,71.2,20.2L71.2,20.2z M71.7,20.7h-0.2
	v-0.9c0.1,0,0.2,0,0.3,0c0.2,0,0.2,0,0.3,0.1c0.1,0,0.1,0.1,0.1,0.2c0,0.1-0.1,0.2-0.2,0.2v0c0.1,0,0.1,0.1,0.2,0.2
	c0,0.1,0,0.2,0.1,0.2H72c0,0,0-0.1-0.1-0.2c0-0.1-0.1-0.1-0.2-0.1h-0.1V20.7L71.7,20.7z M71.7,20.2L71.7,20.2c0.2,0,0.3,0,0.3-0.1
	c0-0.1-0.1-0.1-0.2-0.1c-0.1,0-0.1,0-0.1,0V20.2z"/>
</svg>
