<?xml version="1.0" encoding="utf-8"?>
<!-- Generator: Adobe Illustrator 28.1.0, SVG Export Plug-In . SVG Version: 6.00 Build 0)  -->
<svg version="1.1" id="Capa_1" xmlns="http://www.w3.org/2000/svg" xmlns:xlink="http://www.w3.org/1999/xlink" x="0px" y="0px"
	 viewBox="0 0 47.7 30" style="enable-background:new 0 0 47.7 30;" xml:space="preserve">
<style type="text/css">
	.st0{fill:#274470;}
</style>
<path class="st0" d="M32,24.5c-0.2-0.1-0.4-0.2-0.6-0.2c-0.4,0-0.7,0.3-0.7,0.6v0c0,0.4,0.2,0.5,0.5,0.6c0.1,0,0.3,0.1,0.3,0.2
	S31.4,26,31.2,26c-0.2,0-0.4-0.1-0.4-0.2l-0.2,0.4c0.2,0.1,0.4,0.2,0.7,0.2c0.2,0,0.4,0,0.6-0.2c0.1-0.1,0.2-0.3,0.2-0.5
	c0-0.3-0.2-0.5-0.5-0.5l-0.1,0c-0.1,0-0.2-0.1-0.2-0.2c0-0.1,0.1-0.2,0.2-0.2c0.1,0,0.3,0,0.4,0.1L32,24.5z M34.1,24.8v-0.4H33v2
	h1.2V26h-0.6v-0.4h0.6v-0.4h-0.6v-0.4H34.1z M36.1,25.3v0.4h0.4c0,0.2-0.2,0.4-0.4,0.4c-0.4,0-0.6-0.4-0.5-0.7
	c0-0.3,0.3-0.5,0.5-0.5c0.2,0,0.4,0.1,0.4,0.3l0.5-0.2c-0.1-0.4-0.5-0.6-0.9-0.6c-0.6,0-1.1,0.4-1.1,1c0,0,0,0.1,0,0.1
	c0,0.6,0.5,1.1,1.1,1.1c0.3,0,0.6-0.1,0.8-0.4c0.2-0.2,0.2-0.5,0.2-0.8H36.1z M39.2,24.4v1.1c0,0.3,0,0.5-0.4,0.5s-0.4-0.3-0.4-0.5
	v-1.1H38v1.2c0,0.3,0,0.5,0.2,0.7c0.4,0.3,0.9,0.3,1.3,0c0.2-0.2,0.3-0.4,0.2-0.7v-1.2H39.2z M41.8,25.6c0.3,0,0.4-0.3,0.4-0.6
	c0-0.4-0.3-0.6-0.7-0.6h-0.8v2h0.5v-0.8l0.5,0.8h0.7L41.8,25.6z M41.3,24.8c0.2,0,0.4,0,0.4,0.3c0,0.2-0.2,0.3-0.4,0.3h0V24.8z
	 M44.3,24.3c-0.6,0-1.1,0.5-1,1.1c0,0.6,0.5,1.1,1.1,1c0.6,0,1.1-0.5,1-1.1C45.4,24.8,44.9,24.3,44.3,24.3
	C44.3,24.3,44.3,24.3,44.3,24.3z M44.3,24.8c0.3,0,0.5,0.2,0.6,0.5c0,0.3-0.2,0.6-0.5,0.6c-0.3,0-0.6-0.2-0.6-0.5c0,0,0,0,0-0.1
	C43.7,25,44,24.8,44.3,24.8z M47.6,24.5c-0.2-0.1-0.4-0.2-0.6-0.2c-0.4,0-0.7,0.3-0.7,0.6v0c0,0.4,0.2,0.5,0.5,0.6
	c0.1,0,0.3,0.1,0.3,0.2S47,26,46.9,26c-0.2,0-0.4-0.1-0.5-0.2l-0.2,0.4c0.2,0.1,0.4,0.2,0.7,0.2c0.2,0,0.4,0,0.6-0.2
	c0.1-0.1,0.2-0.3,0.2-0.5c0-0.3-0.2-0.5-0.5-0.5l-0.1,0c-0.1,0-0.2-0.1-0.2-0.2c0-0.1,0.1-0.2,0.2-0.2c0.1,0,0.3,0,0.4,0.1
	L47.6,24.5z M5.4,0.1C3.6-0.2,1.8,0.6,0.7,2.1C-1.2,5.3,1,9.2,4,9.6c2.6,0.4,5-1.5,5.3-4.1c0-0.1,0-0.3,0-0.4
	C9.6,2.6,7.8,0.4,5.4,0.1z M32,29.8c-0.1-0.6-0.8-0.8-1.2-1.1c-3.6-1.9-8-3.1-12.1-4.4c-3.5-1.2-7-2.4-10-4.2
	c-0.8-0.5-2.4-1.4-2.4-2.4c0-0.9,1.6-1.2,2.4-1.4c5.1-1.2,11.9-0.9,17.8-1.2c2.4-0.1,4.8-0.1,6.6-1c-0.4-0.8-1.6-0.8-2.4-1
	c-2.8-0.5-6.4-0.4-9.7-0.6c-3.6-0.1-7.1,0-10.6,0.6C7,13.4,4.1,14,1.9,15.5c-0.8,0.5-1.8,1.4-1.6,2.8c0.1,1.2,1.6,2.2,2.6,2.9
	c3.4,2.2,7.6,3.5,11.6,4.8c4.2,1.4,8.6,2.6,13,3.4C28.9,29.8,30.5,30.3,32,29.8z M28.3,21.4h-1.1v-1.6H31v0.5c0,0.4,0,0.7-0.1,1.1
	c-0.1,0.3-0.2,0.6-0.3,0.8c-0.3,0.5-0.8,1-1.3,1.3c-0.6,0.3-1.2,0.4-1.9,0.4c-0.5,0-1-0.1-1.4-0.3c-0.4-0.2-0.8-0.4-1.2-0.8
	c-0.3-0.3-0.6-0.7-0.8-1.2c-0.4-0.9-0.4-1.9,0-2.8c0.4-0.9,1-1.6,1.9-1.9c0.4-0.2,0.9-0.3,1.4-0.3c0.7,0,1.3,0.1,1.9,0.4
	c0.5,0.3,1,0.8,1.3,1.3l-2.2,0.8c-0.1-0.2-0.3-0.3-0.4-0.4c-0.2-0.1-0.4-0.1-0.5-0.1c-0.4,0-0.7,0.1-0.9,0.4
	c-0.2,0.3-0.4,0.7-0.3,1.1c0,0.4,0.1,0.8,0.3,1.1c0.2,0.3,0.6,0.4,0.9,0.4c0.2,0,0.4,0,0.6-0.1C28.1,21.7,28.2,21.5,28.3,21.4z
	 M37.8,23.8l-0.3-2.7c0-0.2,0-0.4,0-0.6c0-0.2,0-0.4,0-0.6c0,0.2-0.1,0.4-0.1,0.6c0,0.2-0.1,0.4-0.2,0.7l-0.8,2.6h-1.5L34,21.2
	c-0.1-0.2-0.1-0.5-0.2-0.7c0-0.2-0.1-0.4-0.1-0.6c0,0.2,0,0.4,0,0.6c0,0.2,0,0.4,0,0.6l-0.3,2.7h-2.4l1.2-6.8h2.5l0.5,1.7
	c0,0.1,0,0.1,0.1,0.2c0.2,0.6,0.3,1.2,0.4,1.8h0c0-0.3,0.1-0.6,0.2-0.9c0.1-0.3,0.2-0.7,0.3-1.1l0.5-1.6h2.5l1.1,6.8H37.8z
	 M43.8,22.2c0-0.1-0.1-0.2-0.1-0.4c0-0.1,0-0.1,0-0.2c0,0.1,0,0.1,0,0.2l-0.2,0.4l-0.8,1.6h-2.8l2.4-3.6L40.1,17h2.8l0.5,1.1
	c0,0,0,0,0,0c0.1,0.2,0.1,0.4,0.2,0.5c0-0.1,0-0.2,0.1-0.2c0-0.1,0.1-0.2,0.1-0.3l0.5-1.1h2.8l-2.1,3.2l2.4,3.6h-2.8L43.8,22.2z"/>
</svg>
