<?xml version="1.0" encoding="utf-8"?>
<!-- Generator: Adobe Illustrator 28.1.0, SVG Export Plug-In . SVG Version: 6.00 Build 0)  -->
<svg version="1.1" id="Capa_1" xmlns="http://www.w3.org/2000/svg" xmlns:xlink="http://www.w3.org/1999/xlink" x="0px" y="0px"
	 viewBox="0 0 76.4 33.9" style="enable-background:new 0 0 76.4 33.9;" xml:space="preserve">
<style type="text/css">
	.st0{fill-rule:evenodd;clip-rule:evenodd;fill:#274470;}
</style>
<path class="st0" d="M38.6,17.9c1.9,0,2.9-0.9,3.6-1.8v0.1c-0.2,0.9,0.6,1.5,1.3,1.5h0.6l1.7-9.8h-2.1l-0.3,1.5
	c-0.4-0.8-1.5-1.7-3.2-1.7c-3.1,0-4.9,2.6-5.2,5.3C34.6,16.1,36.6,17.9,38.6,17.9z M40.5,9.3c3.6,0.2,2.4,7-1.2,6.8
	C36,16,37,9.1,40.5,9.3z M11.2,7.3C11.2,5.1,9.8,4,7.3,4C5.8,4,3.4,4,2.5,4L0,17.7c0.3,0,2.9,0,4.4,0c1,0,2,0,2.5-0.1
	c2.5-0.5,3.5-2.3,3.7-3.7c0.3-1.8-0.9-3.1-2.2-3.3C9.4,10.4,11.2,9.3,11.2,7.3z M6,16.1c-0.3,0.1-0.7,0.1-1.6,0.1H2.7l0.8-4.6h2.4
	C9.1,11.6,8.8,15.4,6,16.1z M6.9,9.8C6.6,9.9,6.2,9.9,5.5,9.9H3.8l0.8-4.4h2.2C9.3,5.5,9.1,9.1,6.9,9.8z M20.5,7.9h-0.6
	c0,0-0.9,5.4-1,6c-0.2,1.3-0.9,2.2-2.6,2.2c-1,0-2-0.6-1.8-2c0.1-0.5,0.8-4.4,0.8-4.8c0.2-0.9-0.7-1.4-1.5-1.4h-0.6
	c-0.1,0.8-0.8,4.3-1,5.6c-0.1,0.5-0.1,1.1-0.1,1.5c0.2,1.8,1.8,2.9,3.8,2.9c3.4,0,4.7-1.8,5.1-3.9c0.1-0.7,0.8-4.3,0.8-4.6
	C22.1,8.4,21.2,7.9,20.5,7.9z M24.1,21.6l1-5.4c0.4,0.8,1.5,1.8,3.2,1.8c3.2,0,5.1-2.5,5.3-5.4c0.2-3.1-1.6-4.8-3.7-4.8
	c-1.8,0-3,0.9-3.7,1.8V9.5c0.3-1-0.5-1.6-1.2-1.6h-0.7c0,0-1.8,10.6-2.1,11.8c-0.3,1.5,0.9,1.8,1.3,1.8L24.1,21.6L24.1,21.6z
	 M29.2,9.5c3.3,0.2,2.3,7-1.2,6.9C24.4,16.2,25.6,9.3,29.2,9.5z M75,21.9c-0.9,0-2.2-0.1-2.9-0.3c-0.9-0.3-1.6-0.9-2.5-1.5
	c-0.4-0.3-0.8-0.6-1.3-0.9c-0.6-0.4-1-0.5-1.5-0.5c-0.6,0-1.2,0.3-1.9,1.1c-1,1-2.5,3.2-3.1,4.1c0,0.1-0.1,0.1-0.2,0.1
	c-0.1,0-0.2-0.2-0.2-0.3c0-2.6-0.4-16.5-0.7-20.7c-0.1-1.8-0.7-3-1.5-3c-0.6,0-1.6,0.9-2.2,3.3c-1.3,6-4.6,19.6-6,26.5
	c0,0.2-0.3,0.2-0.3,0c-0.2-0.7-0.3-1.5-0.4-2.2c-0.4-2.1-0.8-4-1.5-5c-0.8-1.2-2-1.2-3.5-0.3c-0.3,0.2-0.6,0.5-1,0.8
	c-0.9,0.8-2,1.7-3.7,1.7H23.5L23,27.2h18.1c1.8,0,3.6-1.1,4.6-1.8c0.5-0.4,0.9-0.6,1.2-0.6c0.4,0,0.6,0.4,0.7,1
	c0.1,0.3,0.2,0.7,0.3,1.2c0.3,1.6,0.9,4.1,1.5,5.7c0.3,0.8,0.8,1.2,1.3,1.2c0.8,0,1.6-0.9,2-2.4C53.3,29.6,57,13.7,58.5,7
	c0.1-0.3,0.1-0.4,0.1-0.4c0-0.1,0.1-0.2,0.2-0.2c0.1,0,0.2,0.1,0.2,0.2c0.1,6.7,0.5,18.6,1,19.8c0.3,0.7,0.7,1,1.2,1
	c0.6,0,1.3-0.5,1.9-1.3c0.3-0.4,0.6-0.9,0.9-1.4c0.9-1.3,1.9-2.8,2.2-3.1c0.4-0.5,0.9-0.5,1.6,0c0.1,0.1,0.2,0.2,0.4,0.3
	c0.8,0.6,2,1.3,3.5,1.7c0.9,0.3,2.2,0.3,3,0.3c0.6,0,1.1,0,1.3,0l0.4-2.1C76.1,21.9,75.5,21.9,75,21.9z"/>
</svg>
