<?xml version="1.0" encoding="utf-8"?>
<!-- Generator: Adobe Illustrator 28.1.0, SVG Export Plug-In . SVG Version: 6.00 Build 0)  -->
<svg version="1.1" id="Capa_1" xmlns="http://www.w3.org/2000/svg" xmlns:xlink="http://www.w3.org/1999/xlink" x="0px" y="0px"
	 viewBox="0 0 61.5 23.1" style="enable-background:new 0 0 61.5 23.1;" xml:space="preserve">
<style type="text/css">
	.st0{fill-rule:evenodd;clip-rule:evenodd;fill:#274470;}
</style>
<path class="st0" d="M60.6,9.4c-1.4-0.6-9.6-4-12.8-5.3l-1.3-0.5h-0.1c0,0,0,0,0,0.1s0.1,0.7,0.3,1.2c0.1,0.1,0.2,0.2,0.2,0.3
	c0.3,0.3,0.7,0.6,1.2,0.8c0,0,0.8,0.2,2,0.6C52.7,7.3,57,8.5,58.4,9C59.4,9.1,60.2,9.3,60.6,9.4z M59.1,8.1
	C59.2,8.1,59.2,8.1,59.1,8.1c-0.3-0.3-0.9-0.7-1.7-1.2c-1.9-1.3-4.8-3.2-7-4.6l-2.3-1.5l-0.4-0.3L47,0h-0.1c0,0.1,0,0.7,0.2,1.2
	c0.1,0.2,0.2,0.4,0.3,0.6C47.6,2,47.7,2.1,48,2.3c0.1,0.1,0.2,0.1,0.3,0.2L49,3c0.2,0.1,1.7,0.8,3.3,1.6c1.8,0.9,3.8,1.9,4.2,2.1
	C57,7,57.6,7.2,58,7.5C58.5,7.8,58.9,8,59.1,8.1z M61.5,10.3C60.4,10,47.4,7.6,47.4,7.6h-0.1c0,0,0,0,0,0.1c0.2,0.7,0.7,1.4,1.6,1.7
	c0.1,0,0.2,0,0.3,0.1C49.2,9.4,60.2,10.2,61.5,10.3z M61,11.1c-0.4,0-1.2,0-2.2,0c-1.1,0-2.6,0-3.9,0c-1.8,0-4.6,0-4.6,0s0,0-0.1,0
	c0,0,0,0,0,0.1c0,0.1,0.2,0.4,0.4,0.6c0.3,0.4,0.7,0.6,1.1,0.6h0.1c0.1,0,0.1,0,0.1,0s0.4-0.1,1-0.1C55.2,11.9,60.6,11.2,61,11.1z
	 M60.3,11.9C59.7,12,57.8,12.6,56,13c-1.5,0.4-3.2,0.9-3.2,0.9c-0.2,0-0.1,0.1-0.1,0.1s0,0.1,0.1,0.1c0.1,0.1,0.1,0.2,0.2,0.3
	c0.3,0.5,0.6,0.4,1,0.3C54,14.8,60.1,12.2,60.3,11.9C60.4,12,60.4,12,60.3,11.9C60.3,12,60.3,12,60.3,11.9z M57.7,16.4
	C57.7,16.3,57.7,16.3,57.7,16.4c-0.5,0.3-1.1,0.8-1.7,1.4c-0.5,0.5-1,0.9-1.6,1.4c-0.1,0.1-0.2,0.3-0.2,0.5
	c-0.1,0.4-0.3,0.9-0.3,0.9c0,0.1,0,0.2,0.1,0.1C54.9,19.5,57.1,17.1,57.7,16.4z M59.6,13.2c-0.1,0-0.2,0-0.3,0.1
	c-0.7,0.4-2,1.2-3,1.9c-0.3,0.2-0.7,0.4-1.1,0.7c-0.4,0.2-0.8,0.5-1,0.6c0,0-0.1,0-0.1,0.2c0,0,0,0.1,0,0.3c0,0.7,0.3,0.7,0.7,0.3
	h0.1C56.4,16.1,59.1,13.8,59.6,13.2z M53.2,19.4c-0.8,0.5-1.8,1-3.1,1.4c-1.3,0.5-2.6,0.8-4.1,1.1c0,0-0.1,0-0.1,0.1c0,0,0,0,0,0.1
	c0.2,0.2,0.6,0.3,0.9,0.4c0.5,0.1,1,0,1.7-0.2c0.6-0.2,1.1-0.4,1.8-0.7c0.6-0.3,1.2-0.7,1.7-1C52.5,20.1,52.9,19.8,53.2,19.4z
	 M49.1,20.3c1.4-0.4,3.1-1.2,3.9-1.7c0-0.1,0-0.1,0-0.1c-1.2,0.5-3.8,1-5.5,1.2c-1.1,0.2-2.1,0.2-2.8,0.3c-0.2,0-0.4,0-0.5,0h-0.3
	c0,0-0.1,0-0.1,0.1c0,0,0,0,0,0.1c0.1,0.1,0.5,0.5,1.3,0.7C46.1,21,47.4,20.8,49.1,20.3z M52.9,20.9C52.9,20.8,52.8,20.8,52.9,20.9
	c-1.1,1-2.6,1.6-3.1,1.8c0,0,0,0-0.1,0.1v0.1c0.1,0.1,0.7,0.4,1.8-0.2C52.3,22.2,52.6,21.6,52.9,20.9z M18.1,5.5v8.7
	c0,1.3-1,1.9-2.3,1.9c-1.4,0-2.3-0.6-2.3-1.9V7.7c0-1.8-1.1-2.2-2.1-2.2v9.2c0,2.3,2,3.5,4.3,3.5s4.5-1.1,4.5-3.5V8
	C20.2,6.1,19.6,5.5,18.1,5.5z M39,13c0,1.7-0.9,3.4-3,3.4c-1.8,0-3.2-1.3-3.1-4.4c0.1-3,1.4-4.3,3.3-4.3c0.1,0,0.3,0,0.4,0H39V13z
	 M36.6,5.6h-0.5c-2.8,0-5.4,2.1-5.5,6.3c-0.1,3.8,1.8,6.4,5,6.4c2.6,0,3.5-1.9,3.5-1.9c0.2,1.3,0.8,1.7,2.1,1.7V7.4V5.6H36.6z
	 M23.2,18v-7.7c0-3.2,1.8-4.8,4.4-4.8h2.9c0,1.1-0.3,2.1-2.1,2.1h-0.6c-1.6,0-2.5,1-2.5,2.7V18H23.2z M6.1,11.1l-2.6-0.7
	C2.8,10.2,2.2,9.9,2.2,9c0-0.9,0.5-1.4,1.7-1.4h2.3c1,0,2.2-0.3,2.2-2.1H4.1C1.5,5.5,0,6.9,0,8.9c0,1.9,1.1,2.9,3.1,3.5L5.3,13
	c0.9,0.2,1.2,0.8,1.2,1.4c0,0.9-0.6,1.5-1.9,1.5H0.3v2h4.3c2.6,0,4.1-1.5,4.1-3.4C8.8,12.6,8,11.7,6.1,11.1z"/>
</svg>
