<?xml version="1.0" encoding="utf-8"?>
<!-- Generator: Adobe Illustrator 28.1.0, SVG Export Plug-In . SVG Version: 6.00 Build 0)  -->
<svg version="1.1" id="Capa_1" xmlns="http://www.w3.org/2000/svg" xmlns:xlink="http://www.w3.org/1999/xlink" x="0px" y="0px"
	 viewBox="0 0 90 31.9" style="enable-background:new 0 0 90 31.9;" xml:space="preserve">
<style type="text/css">
	.st0{fill-rule:evenodd;clip-rule:evenodd;fill:#274470;}
</style>
<path class="st0" d="M74.5,1.3c0,0,3-3,6,0l-3,3L74.5,1.3z M73.7,1.4c-3-3-6,0-6,0l3,3L73.7,1.4z M74.1,1.8l-3,3l3,3l3-3L74.1,1.8z
	 M74.5,8.2l3-3l3,3l-3,3L74.5,8.2z M63.3,12.5l3-3l3,3l-3,3L63.3,12.5z M59.9,15.9l3-3l3,3l-3,3L59.9,15.9z M66.4,22.4l3-3l-3-3
	l-3,3L66.4,22.4z M67.6,8.2l3-3l3,3l-3,3L67.6,8.2z M81.8,16.4l-3,3l3,3l3-3L81.8,16.4z M82.3,15.9l3-3l3,3l-3,3L82.3,15.9z
	 M81.8,9.5l-3,3l3,3l3-3L81.8,9.5z M59.5,15.5c0,0-3-3,0-6l3,3L59.5,15.5z M67.2,7.8c0,0-3-3,0-6l3,3L67.2,7.8z M80.9,7.8
	c3-3,0-6,0-6l-3,3L80.9,7.8z M59.9,9.1c0,0,3-3,6,0l-3,3L59.9,9.1z M59.9,22.8c3,3,6,0,6,0l-3-3L59.9,22.8z M88.7,15.5c3-3,0-6,0-6
	l-3,3L88.7,15.5z M82.3,9.1c0,0,3-3,6,0l-3,3L82.3,9.1z M88.7,22.4c3-3,0-6,0-6l-3,3L88.7,22.4z M88.3,22.8c0,0-3,3-6,0l3-3
	L88.3,22.8z M59.5,16.4c-3,3,0,6,0,6l3-3L59.5,16.4z M69.8,13c0,0,3,3,0,6l-3-3L69.8,13z M71.1,11.7c3,3,6,0,6,0l-3-3L71.1,11.7z
	 M70.5,20.7l3,3l-3,3l-3-3L70.5,20.7z M74,24.1l-3,3l3,3l3-3L74,24.1z M77.4,20.7l3,3l-3,3l-3-3L77.4,20.7z M74.4,30.5c3,3,6,0,6,0
	l-3-3L74.4,30.5z M80.9,24.1c0,0,3,3,0,6l-3-3L80.9,24.1z M67.2,24.1c-3,3,0,6,0,6l3-3L67.2,24.1z M73.5,30.5c0,0-3,3-6,0l3-3
	L73.5,30.5z M77,20.1c-3-3-6,0-6,0l3,3L77,20.1z M78.4,18.9c0,0-3-3,0-6l3,3L78.4,18.9z M0,15.3c1,0,1.6-0.1,1.6-1.5V5.6
	C1.6,4.2,1,4.1,0,4.1V3.8h4.7c2.3,0,4.2,0.4,4.2,3.1C8.9,10,6.1,10,4.1,10h-1v3.9c0,1.3,0.6,1.5,1.6,1.5v0.4H0V15.3z M3.1,9.2h1
	c1.9,0,3.1-0.3,3.1-2.4c0-1.8-1-2.4-2.6-2.4c-1.4,0-1.5,0.1-1.5,1.5V9.2z M9.8,15.4c0.7,0,1.4-0.2,1.4-1.3V9.2
	c0-1.1-0.8-1.1-1.4-1.2V7.7l2.8-0.4v1.9c0.3-0.9,1-1.9,2.3-1.9c0.5,0,0.9,0.4,0.9,0.8c0,0.2-0.1,0.4-0.2,0.6
	c-0.2,0.2-0.4,0.2-0.6,0.2c-0.3,0-0.5-0.2-0.7-0.3c-0.1-0.1-0.2-0.2-0.3-0.2c-0.3,0-1.4,0.7-1.4,2.8V14c0,1.2,0.6,1.3,1.4,1.3v0.3
	H9.8V15.4z M22.4,15.5c-0.7,0.2-1.4,0.4-2.1,0.3c-2.8,0-4.3-1.5-4.3-4.5c0-2.6,1.1-4.1,3.6-4.1c1.6,0,3.1,0.9,3.1,3v0.4h-5.2
	c0,1.5,0.7,4.5,3.7,4.5c0.4,0,0.9-0.1,1.3-0.2L22.4,15.5z M21,10c0-0.9-0.3-2.2-1.7-2.2s-1.9,1.5-1.9,2.2H21z M24.2,9.4
	c-0.4-1-0.7-1.6-1.8-1.6V7.4h3.8v0.3c-0.5,0-0.8,0.1-0.8,0.4c0,0.3,0.1,0.6,0.2,0.9l2,4.9l1.8-4.8c0.1-0.2,0.2-0.5,0.2-0.8
	c0-0.4-0.3-0.6-0.8-0.6V7.4H32v0.3c-1,0.1-1.3,0.3-1.8,1.6l-2.5,6.5H27L24.2,9.4z M38.7,15.5c-0.7,0.2-1.4,0.4-2.1,0.3
	c-2.8,0-4.3-1.5-4.3-4.5c0-2.6,1.1-4.1,3.6-4.1c1.6,0,3.1,0.9,3.1,3v0.4h-5.2c0,1.5,0.7,4.6,3.7,4.6c0.4,0,0.9-0.1,1.3-0.2v0.5H38.7
	z M37.3,10c0-0.9-0.3-2.2-1.7-2.2c-1.4,0-1.9,1.5-1.9,2.2H37.3z M39.5,15.4c0.7,0,1.4-0.2,1.4-1.3V9.2C40.9,8.1,40,8,39.5,8V7.7
	l2.8-0.4v2.2c0.2-0.6,1-2.2,2.5-2.2c1.2,0,2.1,0.5,2.1,2.2c0.3-0.8,1.1-2.2,2.5-2.2c1.6,0,2.1,0.5,2.1,2.2V14c0,1.2,0.6,1.3,1.4,1.3
	v0.3h-4.1v-0.3c0.7,0,1.4-0.2,1.4-1.3v-3.7C50.2,9,50,8.1,49,8.1s-2.1,1.6-2.1,3.7V14c0,1.2,0.6,1.3,1.4,1.3v0.3h-4.1v-0.3
	c0.7,0,1.4-0.2,1.4-1.3v-3.7c0-1.5,0-2.2-1.1-2.2c-1.1,0-2.2,1.7-2.2,3.7V14c0,1.2,0.6,1.3,1.4,1.3v0.3h-4.1v-0.2H39.5z M16.8,24.4
	c-0.4,0-0.7-0.1-1.1-0.3l-0.2,0.4c0.4,0.2,0.8,0.3,1.2,0.3c1,0,1.6-0.5,1.6-1.3c0-0.7-0.5-1-1.2-1.3c-0.7-0.2-1-0.4-1-0.9
	c0-0.4,0.3-0.8,0.9-0.8c0.3,0,0.7,0.1,0.9,0.3l0.2-0.4c-0.3-0.2-0.7-0.3-1.1-0.3c-0.9,0-1.5,0.6-1.5,1.2c0,0.5,0.4,0.9,1.2,1.2
	c0.7,0.2,1,0.5,1,1C17.9,24,17.6,24.4,16.8,24.4z M21.3,24.4c-1,0-1.8-0.6-1.8-2H23c0-0.1,0-0.2,0-0.3c0-0.6-0.3-2-1.9-2
	c-1.2,0-2.1,0.9-2.1,2.4c0,0.6,0.2,1.2,0.6,1.6c0.4,0.4,1,0.6,1.6,0.6c0.5,0,1-0.1,1.5-0.3l-0.1-0.3C22.2,24.3,21.7,24.4,21.3,24.4z
	 M21.1,20.5c1.2,0,1.4,0.9,1.4,1.6h-3C19.6,21.4,20,20.5,21.1,20.5z M27.8,24c0,1.1-0.2,1.7-0.7,2c-0.5,0.4-1,0.5-1.6,0.5
	c-0.5,0-1.1-0.1-1.5-0.4l0.2-0.3c0.4,0.2,0.9,0.4,1.4,0.4c1,0,1.7-0.5,1.7-1.8v-0.6c-0.4,0.6-1,0.9-1.6,0.9c-0.6,0-1.1-0.2-1.5-0.6
	c-0.4-0.4-0.6-1-0.6-1.5c0-1.5,1.1-2.3,2.1-2.3c0.7-0.1,1.3,0.3,1.6,0.8v-0.7h0.4c0,0.3,0,0.7,0,1.1V24H27.8z M27.3,21.9
	c0-0.1,0-0.3-0.1-0.4c-0.2-0.6-0.8-1-1.5-1c-1,0-1.7,0.8-1.7,1.9c0,1,0.6,1.8,1.7,1.8c0.6,0,1.2-0.4,1.5-1c0.1-0.1,0.1-0.3,0.1-0.5
	V21.9z M32.8,23.6c0,0.4,0,0.7,0,1.1h-0.4v-0.8c-0.4,0.6-1,0.9-1.6,0.9s-1.6-0.3-1.6-1.9v-2.6h0.5v2.5c0,1,0.3,1.6,1.3,1.6
	c0.6,0,1.1-0.3,1.4-0.9c0.1-0.2,0.1-0.3,0.1-0.5v-2.8H33L32.8,23.6z M34.1,20.2c0,0.4,0,0.9,0,1.3v3.1h0.5v-2.4c0-0.1,0-0.3,0-0.4
	c0.1-0.7,0.6-1.2,1.3-1.2c0.1,0,0.2,0,0.2,0v-0.4c-0.1,0-0.1,0-0.2,0c-0.6,0-1.2,0.4-1.4,1v-0.9h-0.4V20.2z M40.2,24.1
	c0.4-0.4,0.7-1.1,0.6-1.7c0-1.3-0.9-2.3-2.2-2.3c-0.6,0-1.2,0.2-1.6,0.7c-0.4,0.4-0.7,1.1-0.6,1.7c0,0.6,0.2,1.2,0.6,1.6
	c0.4,0.4,1,0.7,1.6,0.7C39.2,24.8,39.8,24.5,40.2,24.1z M38.6,24.4c-1,0-1.7-0.8-1.7-1.9c0-0.9,0.5-2,1.8-2s1.8,1.1,1.8,1.9
	C40.3,23.6,39.5,24.4,38.6,24.4z M42.7,24.4c-0.4,0-0.7-0.1-1.1-0.3l-0.2,0.4c0.4,0.2,0.8,0.3,1.2,0.3c1,0,1.6-0.5,1.6-1.3
	c0-0.7-0.5-1-1.2-1.3c-0.7-0.2-1-0.4-1-0.9c0-0.4,0.3-0.8,0.9-0.8c0.3,0,0.7,0.1,0.9,0.3l0.2-0.3c-0.3-0.2-0.7-0.3-1.1-0.3
	c-0.9,0-1.5,0.6-1.5,1.2c0,0.5,0.4,0.9,1.2,1.2c0.7,0.2,1,0.5,1,1C43.8,24,43.4,24.4,42.7,24.4z M52,19.8c0,0.5-0.4,1-1,1
	c-0.5,0-1-0.4-1-1c0-0.5,0.4-1,1-1C51.6,18.9,52,19.3,52,19.8z M49,21.4c-3.8-0.2-3.7,0.3-3.7,0.3c0.3,0.1,0.5,0.1,0.8,0.1
	c1.3-0.1,2.5-0.1,3.8,0c1.2,0.2,0.5,0.8,0.5,0.8c-0.6,0.8-4.2,1.8-4.2,1.8c-0.8,0.2-0.7,0.4-0.7,0.4c1,0.1,3.7-0.8,3.7-0.8
	c2.9-1,2.8-1.6,2.8-1.6C52,21.6,49,21.4,49,21.4z"/>
</svg>
